<svg width="17" height="10" viewBox="0 0 17 10" fill="none" xmlns="http://www.w3.org/2000/svg">
<path d="M0.573227 0.926822L0.573241 0.926808L0.926787 0.573223C0.926791 0.573218 0.926796 0.573213 0.926801 0.573209C1.02442 0.475596 1.1827 0.475592 1.28033 0.573228C1.28033 0.573228 1.28033 0.573228 1.28033 0.573229L8.04289 7.33583L8.39645 7.68938L8.75 7.33583L15.5126 0.573231C15.6102 0.475593 15.7685 0.475593 15.8661 0.573231L16.2197 0.926831C16.3173 1.02447 16.3173 1.18269 16.2197 1.28032L8.57319 8.92682C8.47556 9.02446 8.31734 9.02446 8.2197 8.92682L0.573227 1.28033C0.573225 1.28033 0.573223 1.28032 0.573221 1.28032C0.475591 1.18268 0.475593 1.02446 0.573227 0.926822Z" fill="black" stroke="black"/>
</svg>
