<svg width="51" height="50" viewBox="0 0 51 50" fill="none" xmlns="http://www.w3.org/2000/svg">
<g clip-path="url(#clip0_1_2890)">
<path d="M40.8269 29.4767C41.4071 28.324 41.6284 27.0949 41.4071 25.82C41.2009 24.591 40.6131 23.5451 39.7352 22.6748C39.2084 22.1557 38.6206 21.7129 38.071 21.2167C37.9717 21.1327 37.8878 20.9724 37.8878 20.8503C37.8725 20.2854 37.7198 19.7586 37.4373 19.2853C36.3304 17.4226 34.6127 16.6057 32.521 16.476C31.7652 16.4302 31.0247 16.5523 30.3071 16.7813C30.1239 16.8424 30.0094 16.8271 29.8873 16.6515C29.4445 16.0103 28.9177 15.4454 28.307 14.9568C27.0092 13.9186 25.5435 13.2773 23.8945 13.033C22.4059 12.8116 20.9707 12.9796 19.5966 13.5979C17.6804 14.4606 16.4284 15.9645 15.5353 17.8119C15.4284 18.0409 15.3062 18.1784 15.0467 18.2089C13.9245 18.3387 12.871 18.7127 11.8862 19.2395C9.97767 20.2624 8.69515 21.7969 8.22947 23.9497C7.97755 25.1253 8.00045 26.2781 8.48903 27.4079C9.05395 28.6981 9.97767 29.6752 11.1609 30.3928C12.1381 30.9883 13.1611 31.4998 14.352 31.202C14.4131 31.5379 14.436 31.8738 14.5276 32.1945C14.7108 32.8357 15.1077 33.3472 15.5734 33.8129C16.772 35.0038 18.2377 35.6832 19.879 36.0344C20.8562 36.2405 21.841 36.2711 22.8334 36.1642C24.1465 36.0268 25.3755 35.5993 26.5359 34.9656C26.6123 34.9198 26.7649 34.9275 26.8489 34.9733C27.2306 35.1794 27.5894 35.4313 27.9788 35.6298C29.1391 36.2252 30.3453 36.6222 31.6813 36.5077C32.7195 36.4161 33.5898 35.9886 34.3303 35.271C34.8799 34.7366 35.2922 34.103 35.6357 33.4235C35.6968 33.2938 35.7502 33.1945 35.9334 33.2022C36.819 33.2327 37.5824 32.8968 38.2924 32.4082C39.3917 31.6525 40.239 30.6753 40.8421 29.4844L40.8269 29.4767ZM18.4209 27.1026C18.5736 27.6293 18.94 27.9194 19.4821 27.9652C19.9859 28.0034 20.4974 27.9576 20.7569 27.4461C20.9173 27.1255 20.9631 26.7514 21.0623 26.3697H22.8181C22.9632 27.5072 22.4746 28.9882 21.1768 29.408C20.2302 29.7134 19.2607 29.721 18.314 29.4386C17.2606 29.1332 16.7262 28.3316 16.5048 27.3163C16.1994 25.904 16.1842 24.4841 16.6346 23.0947C16.9399 22.1481 17.5888 21.5144 18.5965 21.3159C19.6195 21.1098 20.6272 21.0946 21.5738 21.606C22.2227 21.9572 22.5815 22.5298 22.7418 23.2245C22.8334 23.6062 22.8563 24.0031 22.9174 24.4383H21.0623C20.986 24.1329 20.9325 23.8276 20.8409 23.5375C20.7111 23.1329 20.4058 22.9267 19.9935 22.8809C18.9706 22.7741 18.4896 23.1023 18.3293 24.1329C18.1766 25.1177 18.1461 26.1178 18.4286 27.1026H18.4209ZM31.1698 27.5911C30.8644 28.7897 30.017 29.4233 28.8109 29.5913C28.1162 29.6905 27.4138 29.6676 26.7344 29.4767C25.7878 29.2248 25.1771 28.6141 24.9022 27.6827C24.4671 26.2246 24.4747 24.7436 24.8564 23.2855C25.1847 22.0183 26.0855 21.3465 27.3757 21.2243C28.0398 21.1633 28.7116 21.1556 29.3682 21.3618C30.4598 21.7053 31.0476 22.4916 31.2614 23.568C31.3835 24.1787 31.4293 24.8047 31.521 25.5299C31.4141 26.1636 31.353 26.8888 31.1698 27.5835V27.5911ZM34.6204 29.8814C35.0479 29.8508 35.0479 29.8355 35.0403 30.2783C35.0403 30.3547 35.0403 30.4386 35.025 30.5608C34.2692 30.5608 33.5363 30.5608 32.8111 30.5608C32.7348 30.5608 32.6584 30.5531 32.5668 30.5455C32.4905 30.1562 32.5134 29.8508 32.8874 29.6065C33.2615 29.3622 33.5898 29.0492 33.9257 28.7591C34.0326 28.6675 34.1165 28.553 34.1852 28.4309C34.3379 28.1713 34.2692 27.8965 34.0478 27.782C33.7806 27.6522 33.4982 27.7591 33.3989 28.0415C33.3455 28.1942 33.2692 28.24 33.1165 28.2324C32.9333 28.2248 32.7424 28.2324 32.5592 28.2324C32.4828 27.6598 32.7653 27.2018 33.2844 27.0949C33.5669 27.0339 33.8646 27.0109 34.1471 27.0415C34.9944 27.1331 35.4067 28.0415 34.9028 28.782C34.628 29.1943 34.231 29.5302 33.9028 29.889C34.1013 29.889 34.3608 29.9043 34.6204 29.889V29.8814Z" fill="white"/>
<path d="M32.9562 46.5314C32.3607 46.7299 31.7653 46.936 31.1622 47.1039C29.3682 47.6154 27.5284 47.8673 25.6733 47.9361C24.0778 47.9971 22.4975 47.8521 20.9326 47.5696C18.4133 47.1116 16.0162 46.2718 13.8024 44.9817C12.7947 44.3939 11.8251 43.7373 10.9014 43.0426C9.04635 41.6456 7.489 39.9508 6.16831 38.0423C4.75601 36.0117 3.71015 33.8054 3.01545 31.4236C2.47343 29.5838 2.16807 27.7058 2.107 25.7973C2.07646 24.8431 2.13753 23.8812 2.20624 22.9269C2.32838 21.1558 2.70245 19.4381 3.26737 17.7587C3.37425 17.4457 3.49639 17.1403 3.5651 16.8273C3.67961 16.2853 3.35135 15.7967 2.83223 15.6517C2.31312 15.5066 1.7711 15.7662 1.60315 16.2853C1.25962 17.3693 0.908452 18.4534 0.64126 19.5527C0.198485 21.3543 0.0229021 23.1865 0 25.0415C0.0534383 25.866 0.0763402 26.6981 0.175583 27.515C0.312996 28.5914 0.480945 29.6678 0.702333 30.7289C0.984792 32.0878 1.44284 33.3932 1.97722 34.6757C2.68719 36.3934 3.59564 38.0118 4.67967 39.5233C5.74844 41.012 6.96225 42.3708 8.32875 43.5923C9.54256 44.6763 10.8404 45.6535 12.245 46.4856C14.1077 47.5849 16.0849 48.4399 18.169 49.0354C20.0623 49.5697 21.9861 49.8827 23.948 49.9743C25.8107 50.0583 27.6658 49.9362 29.498 49.6079C30.9713 49.3407 32.4218 48.9514 33.8265 48.417C34.1242 48.3025 34.3074 48.0735 34.4067 47.7834C34.5517 47.3788 34.4372 47.0047 34.1471 46.7222C33.8188 46.394 33.4066 46.3787 32.9715 46.5238L32.9562 46.5314Z" fill="white"/>
<path d="M5.4204 12.598C5.87081 13.0637 6.22198 13.0713 6.68765 12.598C7.44343 11.8423 8.1992 11.0941 9.02367 10.2696C9.45118 10.72 9.85579 11.1399 10.268 11.5598C10.4818 11.7812 10.7337 11.7354 10.8711 11.4529C10.9169 11.3613 10.9398 11.2697 10.9703 11.1705C11.3215 9.86504 11.6727 8.55199 12.0162 7.24656C12.1689 6.68928 12.3216 6.13199 12.459 5.57471C12.5582 5.18537 12.3521 4.95635 11.9933 5.04796C10.0543 5.55944 8.11522 6.07855 6.18381 6.59767C5.7792 6.70455 5.70286 6.9641 5.97005 7.2771C6.0693 7.39925 6.19144 7.50612 6.30595 7.62063C6.61131 7.90309 6.90904 8.18555 7.29074 8.54435C6.43573 9.36883 5.62652 10.1475 4.82495 10.9185C4.46615 11.2697 4.45851 11.6514 4.82495 12.0102C5.02343 12.2087 5.22955 12.3919 5.42804 12.598H5.4204Z" fill="white"/>
<path d="M44.7891 37.4544C44.27 36.9048 43.9035 36.9048 43.3768 37.4315C42.8118 37.9965 42.2469 38.5614 41.682 39.1263C41.4988 39.3095 41.3003 39.4927 41.0789 39.7141C40.6591 39.2714 40.2697 38.8591 39.8727 38.4545C39.6132 38.195 39.3155 38.2713 39.2086 38.6225C39.117 38.9355 39.0406 39.2561 38.949 39.5691C38.5979 40.8669 38.2467 42.1647 37.8955 43.4624C37.8115 43.7678 37.7199 44.0732 37.6436 44.3862C37.5291 44.8366 37.7352 45.0351 38.1933 44.9282C38.2162 44.9282 38.2314 44.9129 38.2467 44.9129C40.1323 44.4091 42.0255 43.9052 43.9112 43.3937C44.3463 43.2792 44.415 42.9968 44.0944 42.6761C43.6974 42.2868 43.2928 41.9051 42.8195 41.4547C42.9569 41.3555 43.0409 41.3096 43.1019 41.2486C43.8272 40.5233 44.5524 39.8057 45.2777 39.0729C45.6441 38.6988 45.6365 38.3553 45.2777 37.9812C45.1097 37.8056 44.957 37.63 44.7891 37.4544Z" fill="white"/>
<path d="M27.3834 22.9802C27.162 23.0412 26.9406 23.2855 26.8108 23.5069C26.4826 24.0795 26.5207 24.736 26.4978 25.5223C26.5131 25.82 26.5055 26.2628 26.5742 26.698C26.6505 27.1407 26.7879 27.6217 27.2383 27.8049C28.2766 28.2324 29.2537 27.9576 29.414 26.6827C29.5133 25.8964 29.498 25.0872 29.4217 24.2932C29.3072 23.0642 28.6277 22.6214 27.3681 22.9802H27.3834Z" fill="white"/>
<path d="M49.9344 22.3695C49.8123 20.8656 49.5222 19.3846 49.0641 17.9494C48.7053 16.8272 48.316 15.7126 47.8198 14.6515C47.2625 13.4682 46.6212 12.3079 45.9189 11.2009C45.3158 10.2619 44.5982 9.38402 43.8653 8.53664C43.1859 7.75797 42.4607 7.00983 41.6896 6.31513C40.6056 5.32271 39.4147 4.46769 38.1627 3.68902C36.0633 2.39123 33.8266 1.44461 31.4447 0.810983C30.0706 0.444548 28.6736 0.223162 27.2613 0.0857488C24.5588 -0.150907 21.9938 0.177356 21.9938 0.177356C20.0776 0.414012 18.2073 0.856787 16.3904 1.52095C15.8407 1.72707 15.5201 2.29962 15.6881 2.79584C15.8942 3.40656 16.4515 3.68139 17.0775 3.46C18.4821 2.96379 19.9097 2.57445 21.3831 2.33779C23.3985 2.01716 25.4215 1.91792 27.4445 2.18511C28.727 2.35306 30.0095 2.57445 31.2615 2.89508C32.9639 3.33022 34.5747 4.03255 36.1168 4.87993C38.4452 6.14718 40.4682 7.7885 42.2317 9.75809C43.7814 11.4834 45.0257 13.4148 45.98 15.5294C46.8274 17.3998 47.4075 19.3541 47.7282 21.3847C48.0335 23.3314 48.0946 25.2705 47.9038 27.2324C47.7129 29.2096 47.2625 31.1258 46.5831 32.9885C46.438 33.3855 46.522 33.7366 46.8045 34.042C47.1022 34.3626 47.4686 34.4466 47.8961 34.3168C48.3542 34.1794 48.5298 33.7901 48.6366 33.4084C49.0031 32.103 49.3771 30.7975 49.6672 29.4768C50.0031 27.9729 50.0871 26.4309 50.0871 24.8964C50.0871 24.049 50.0031 23.2017 49.9344 22.3619V22.3695Z" fill="white"/>
</g>
<defs>
<clipPath id="clip0_1_2890">
<rect width="51" height="50" fill="white"/>
</clipPath>
</defs>
</svg>
