<svg width="50" height="50" viewBox="0 0 50 50" fill="none" xmlns="http://www.w3.org/2000/svg">
<g clip-path="url(#clip0_1_951)">
<path d="M25 49.5C38.531 49.5 49.5 38.531 49.5 25C49.5 11.469 38.531 0.5 25 0.5C11.469 0.5 0.5 11.469 0.5 25C0.5 38.531 11.469 49.5 25 49.5Z" fill="white" stroke="#4F5057"/>
<path d="M25 12C17.8303 12 12 17.8303 12 25C12 32.1697 17.8303 38 25 38C32.1697 38 38 32.1697 38 25C38 17.8303 32.1697 12 25 12ZM25 13.6958C31.2532 13.6958 36.3044 18.7469 36.3044 25.0001C36.3044 31.2533 31.2532 36.3044 25 36.3044C18.7468 36.3044 13.6957 31.2533 13.6957 25.0001C13.6957 18.7469 18.7468 13.6958 25 13.6958ZM20.1957 19.6305C19.1032 19.6305 18.2175 20.5163 18.2175 21.6087C18.2175 22.7012 19.1032 23.587 20.1957 23.587C21.2882 23.587 22.1739 22.7012 22.1739 21.6087C22.1739 20.5163 21.2882 19.6305 20.1957 19.6305ZM29.8044 19.6305C28.7119 19.6305 27.8262 20.5163 27.8262 21.6087C27.8262 22.7012 28.7119 23.587 29.8044 23.587C30.8969 23.587 31.7826 22.7012 31.7826 21.6087C31.7826 20.5163 30.8969 19.6305 29.8044 19.6305ZM18.6943 27.5436C18.4219 27.5594 18.1733 27.7133 18.0231 27.9852C17.88 28.2586 17.8993 28.6065 18.0761 28.8594C19.5917 31.1265 22.1306 32.6306 25 32.6306C27.8695 32.6306 30.4085 31.1265 31.924 28.8594C32.1714 28.4896 32.0643 27.9323 31.6943 27.6849C31.3243 27.4375 30.7583 27.5446 30.5109 27.9146C29.2869 29.7455 27.2803 30.9351 25.0001 30.9351C22.7198 30.9351 20.7132 29.7458 19.4892 27.9146C19.2597 27.6453 18.9668 27.5278 18.6943 27.5436Z" fill="#4F5057"/>
</g>
<defs>
<clipPath id="clip0_1_951">
<rect width="50" height="50" fill="white"/>
</clipPath>
</defs>
</svg>
