<svg width="50" height="50" viewBox="0 0 50 50" fill="none" xmlns="http://www.w3.org/2000/svg">
<g clip-path="url(#clip0_1_2913)">
<path d="M37.9187 22.769C37.4996 20.7113 36.8365 18.7297 36.0363 16.8016C35.6019 15.7651 35.1141 14.7438 34.6416 13.7302C34.4511 13.3263 34.23 12.9452 34.0166 12.5413C33.8947 12.5946 33.8033 12.6327 33.7194 12.6784C32.2028 13.4558 30.7395 14.3094 29.3143 15.2544C27.8053 16.2528 26.3725 17.3274 25.054 18.5621C24.5358 19.0498 24.0709 19.5833 23.5831 20.1016C22.6838 21.0466 21.9903 22.1288 21.472 23.3254C21.312 23.6836 21.19 24.0494 21.0528 24.4C18.0043 22.0298 14.3995 21.4505 10.7412 21.0161C10.7031 21.1609 10.665 21.2371 10.6574 21.3134C10.5964 22.2203 10.505 23.1196 10.4897 24.0265C10.4745 24.8649 10.5355 25.7032 10.5812 26.5339C10.6726 28.043 10.947 29.5139 11.5415 30.9162C12.2426 32.5776 13.4392 33.7665 15.0777 34.4677C16.2514 34.9707 17.5089 35.085 18.7741 34.8259C19.1246 34.7573 19.4676 34.6278 19.8182 34.5211C19.3533 32.3414 18.2711 30.5504 16.884 28.9042C18.4082 29.4377 19.7039 30.3598 20.9157 31.3887C22.1274 32.4176 23.2554 33.5379 24.4596 34.643C24.7796 33.0349 25.4732 31.5792 26.4411 30.2379C27.5233 28.7365 29.4363 26.8312 29.8935 26.8236C29.3753 28.3554 28.9561 29.9102 28.7884 31.5259C28.6284 32.9968 28.6055 34.4677 28.857 35.9386C28.8951 36.1672 28.9714 36.2358 29.2 36.2282C30.427 36.1673 31.6007 35.8853 32.721 35.3823C34.1919 34.7192 35.4113 33.7361 36.3716 32.4404C37.6139 30.7485 38.2922 28.8508 38.3379 26.7473C38.3684 25.406 38.216 24.0875 37.9416 22.7766L37.9187 22.769Z" fill="white"/>
<path d="M49.9681 24.461C49.93 22.6395 49.7013 20.8485 49.2745 19.0804C48.8096 17.1522 48.1313 15.3078 47.2168 13.5473C46.2794 11.7411 45.1362 10.072 43.7872 8.53249C42.6211 7.19877 41.3332 6.00223 39.9232 4.93525C38.1017 3.57104 36.1278 2.47357 34.0015 1.66571C32.1114 0.949311 30.168 0.453928 28.1636 0.202425C26.1973 -0.041456 24.231 -0.0719409 22.2571 0.149076C20.2298 0.377715 18.2559 0.827371 16.3429 1.53615C15.7942 1.74193 15.4817 2.32114 15.657 2.81653C15.8628 3.41099 16.4192 3.67773 17.0212 3.47958C17.7224 3.25094 18.4159 3.01468 19.1247 2.82415C21.03 2.3059 22.9735 2.0544 24.955 2.00867C26.0144 2.09251 27.089 2.13061 28.1407 2.27542C29.6192 2.47357 31.0749 2.82415 32.4925 3.31191C33.91 3.79967 35.259 4.43224 36.5546 5.17913C38.3837 6.23849 40.0452 7.51886 41.4703 9.07361C42.2934 9.97292 43.0784 10.918 43.8025 11.9011C44.5798 12.9376 45.2429 14.0579 45.7306 15.2621C46.1269 16.2376 46.5614 17.1979 46.8891 18.1963C47.4759 19.9797 47.7808 21.8316 47.8798 23.7065C47.9637 25.1545 47.9103 26.5949 47.7198 28.0354C47.5216 29.5368 47.1787 31.0153 46.6681 32.4481C46.5842 32.692 46.4775 32.9359 46.4318 33.1874C46.3403 33.6523 46.6757 34.2162 47.2473 34.3382C47.7274 34.4449 48.238 34.1934 48.4362 33.6599C48.9163 32.3414 49.2974 30.9924 49.5489 29.6054C49.8614 27.9058 50.0062 26.1986 49.9757 24.461H49.9681Z" fill="white"/>
<path d="M32.8964 46.494C31.3264 47.0656 29.7183 47.4619 28.0645 47.6829C26.1668 47.9421 24.2691 47.9649 22.3714 47.7439C20.0621 47.4695 17.8367 46.8827 15.7104 45.9377C13.9651 45.1603 12.3417 44.1848 10.8403 43.0035C9.07983 41.6164 7.55557 40.0159 6.25995 38.1868C4.79666 36.1062 3.70682 33.8503 2.99042 31.4115C2.44169 29.5214 2.12921 27.6008 2.07586 25.6422C2.053 24.7276 2.11397 23.8054 2.17494 22.8909C2.28164 21.2752 2.6246 19.6976 3.09712 18.1504C3.2343 17.716 3.40959 17.2892 3.52391 16.8472C3.66109 16.2909 3.34862 15.7878 2.81513 15.6354C2.28164 15.483 1.74053 15.7345 1.57286 16.2832C1.20704 17.4493 0.810731 18.6153 0.559228 19.8119C0.300105 21.0465 0.124815 22.304 0.048602 23.5692C-0.111445 26.0766 0.124815 28.5687 0.742139 31.0152C1.35946 33.4769 2.31212 35.8014 3.63823 37.9658C4.8805 40.0007 6.38951 41.8222 8.15003 43.4303C9.81909 44.9469 11.6482 46.2349 13.6526 47.2485C15.7332 48.3003 17.9205 49.0548 20.2145 49.4892C21.815 49.794 23.4307 49.9388 25.0617 49.9998C26.0219 49.9236 26.9899 49.8626 27.9501 49.7712C29.924 49.573 31.8294 49.0853 33.689 48.3993C34.0167 48.2774 34.2072 48.0488 34.3139 47.7363C34.4511 47.34 34.3368 46.9818 34.0548 46.6998C33.7271 46.3645 33.3155 46.3416 32.8887 46.494H32.8964Z" fill="white"/>
<path d="M5.40636 12.6099C5.82553 13.0519 6.2066 13.0519 6.63339 12.6252C7.39552 11.863 8.15765 11.1085 8.95026 10.3235C9.36943 10.7198 9.76574 11.1085 10.1696 11.4896C10.5202 11.8173 10.7412 11.7563 10.8784 11.2914C11.008 10.8646 11.1147 10.4302 11.229 9.99584C11.6253 8.52493 12.0216 7.05402 12.4027 5.58311C12.5094 5.17156 12.296 4.95817 11.8844 5.06486C10.8251 5.34685 9.76574 5.62884 8.714 5.91083C7.86804 6.13947 7.02208 6.36048 6.17611 6.58912C5.71883 6.71106 5.65024 6.97019 5.97034 7.32077C6.06941 7.43508 6.18373 7.53416 6.29043 7.63324C6.58766 7.9076 6.88489 8.18197 7.18974 8.46396C7.09829 8.57066 7.0678 8.61638 7.02208 8.65449C6.28281 9.409 5.53592 10.1559 4.79666 10.9027C4.43846 11.2609 4.43084 11.6344 4.78904 12.0002C4.99481 12.206 5.20821 12.3965 5.40636 12.6099Z" fill="white"/>
<path d="M44.7321 37.4934C44.2215 36.8837 43.8252 36.8608 43.2688 37.4248C42.5295 38.1717 41.7979 38.911 41.0053 39.7112C40.5633 39.2463 40.1822 38.8195 39.7706 38.4156C39.5039 38.1565 39.2219 38.2555 39.1152 38.6061C39.0238 38.911 38.9475 39.2158 38.8637 39.5207C38.4445 41.0983 38.0177 42.6759 37.6062 44.2535C37.5605 44.4288 37.5376 44.6955 37.6367 44.8022C37.7281 44.9013 38.0025 44.9089 38.1778 44.8632C40.0526 44.3754 41.9275 43.8648 43.8023 43.3618C44.2596 43.2399 44.3282 42.9655 43.9928 42.6378C43.5965 42.2491 43.1926 41.8604 42.7429 41.426C42.8649 41.3345 42.9563 41.2812 43.0249 41.2126C43.7566 40.481 44.4882 39.7493 45.2199 39.0177C45.5323 38.6976 45.54 38.347 45.2351 38.0117C45.0751 37.8364 44.8921 37.6763 44.7397 37.4934H44.7321Z" fill="white"/>
</g>
<defs>
<clipPath id="clip0_1_2913">
<rect width="50" height="50" fill="white"/>
</clipPath>
</defs>
</svg>
