<svg width="50" height="50" viewBox="0 0 50 50" fill="none" xmlns="http://www.w3.org/2000/svg">
<g clip-path="url(#clip0_1_959)">
<path d="M25 49.5C38.531 49.5 49.5 38.531 49.5 25C49.5 11.469 38.531 0.5 25 0.5C11.469 0.5 0.5 11.469 0.5 25C0.5 38.531 11.469 49.5 25 49.5Z" fill="white" stroke="#4F5057"/>
<path fill-rule="evenodd" clip-rule="evenodd" d="M8 21.7633H10.0845V22.9942H8V21.7633ZM8 29.2767H9.14623V30.5074H8V29.2767ZM39.1988 19.8793H33.6049V18.0043L8.85407 18V19.2309H14.5053V21.7543H10.7438V22.9809H14.5053V25.5043H10.7438V26.7307H14.5053V29.2543H9.79679V30.4807H18.2671C18.3422 32.047 19.6433 33.2999 21.2321 33.2999C22.8207 33.2999 24.1218 32.0513 24.1969 30.4807H34.2689C34.344 32.047 35.6451 33.2999 37.2339 33.2999C38.8224 33.2999 40.1236 32.0513 40.199 30.4807H42V25.8218L39.1988 19.8793ZM36.4284 21.1014H38.3535L40.3846 25.5045H36.4284V21.1014ZM21.2316 32.0689C20.2405 32.0689 19.497 31.3233 19.497 30.3395C19.497 29.3513 20.2447 28.6101 21.2316 28.6101C22.2187 28.6101 22.9664 29.3688 22.9664 30.3704C22.9664 31.3541 22.2362 32.0689 21.2316 32.0689ZM23.9886 29.254C23.5461 28.1291 22.4487 27.3834 21.2273 27.3834C20.0102 27.3834 18.9173 28.1291 18.4658 29.254H15.7222V19.2264H32.3659L32.3749 29.254H23.9886ZM37.2207 32.0689C36.2294 32.0689 35.4859 31.3233 35.4859 30.3395C35.4859 29.3513 36.2339 28.6101 37.2207 28.6101C38.2076 28.6101 38.9554 29.3688 38.9554 30.3704C38.9599 31.3541 38.2296 32.0689 37.2207 32.0689ZM40.7609 29.2497H39.9821C39.5395 28.1246 38.4422 27.3791 37.2208 27.3791C36.0037 27.3791 34.9108 28.1245 34.4593 29.2497H33.5964V21.1012H35.1895V26.7263H40.761L40.7609 29.2497Z" fill="#4F5057"/>
</g>
<defs>
<clipPath id="clip0_1_959">
<rect width="50" height="50" fill="white"/>
</clipPath>
</defs>
</svg>
