<svg width="51" height="50" viewBox="0 0 51 50" fill="none" xmlns="http://www.w3.org/2000/svg">
<g clip-path="url(#clip0_1_2902)">
<path d="M24.7622 36.1478C25.6013 36.1859 26.4709 35.9952 27.2947 35.8045C29.2551 35.3392 30.9409 34.3781 32.2605 32.822C32.8936 32.0821 33.4352 31.2811 33.7174 30.3429C34.4192 28.0087 34.1828 25.7203 33.2216 23.5158C32.4817 21.8148 31.4443 20.2816 30.323 18.8094C29.7204 18.0161 29.1025 17.2304 28.4618 16.4676C27.7981 15.6743 27.104 14.9039 26.4175 14.1334C25.9293 13.5918 25.4106 13.0655 24.8766 12.4934C24.5944 12.7985 24.3427 13.0884 24.0757 13.363C22.428 15.064 20.9024 16.8719 19.4684 18.756C18.4996 20.0375 17.6148 21.3724 16.8672 22.7912C15.9061 24.6219 15.5171 26.567 15.6773 28.6266C15.7917 30.0912 16.318 31.4032 17.241 32.5397C19.1785 34.9197 21.7644 36.0181 24.7622 36.1478Z" fill="white"/>
<path d="M32.9012 46.5063C32.3139 46.7275 31.7113 46.9106 31.1086 47.086C29.2932 47.5971 27.4396 47.8564 25.5631 47.9175C23.7934 47.9709 22.0314 47.7878 20.2998 47.4293C17.958 46.9487 15.7383 46.1249 13.6787 44.9197C12.6337 44.3094 11.6344 43.6077 10.6657 42.8754C9.53673 42.021 8.5451 41.0065 7.61448 39.931C5.44814 37.4214 3.90729 34.5838 2.9843 31.4029C2.18336 28.6339 1.88587 25.8192 2.16048 22.9358C2.3283 21.1509 2.67156 19.4117 3.24365 17.7107C3.34282 17.4132 3.47249 17.1157 3.53352 16.803C3.64794 16.2614 3.31993 15.7732 2.80123 15.6282C2.2749 15.4909 1.77145 15.7503 1.57313 16.2614C0.665398 18.6108 0.184836 21.0441 0.0399044 23.5461C-0.0973992 26.0557 0.116184 28.55 0.73405 30.9986C1.54262 34.2176 2.92328 37.162 4.89892 39.8394C6.45503 41.9448 8.29337 43.7602 10.4063 45.2782C12.9083 47.0784 15.6467 48.3675 18.6369 49.1456C20.7575 49.6948 22.9009 49.9618 25.0902 49.9999C25.8377 49.9541 26.5853 49.9084 27.3328 49.8473C29.5373 49.6719 31.6579 49.1608 33.7327 48.4057C34.0912 48.276 34.3811 47.8107 34.3887 47.4903C34.4039 46.7504 33.7174 46.1935 32.8936 46.4987L32.9012 46.5063Z" fill="white"/>
<path d="M5.40978 12.6077C5.8522 13.0425 6.21072 13.0349 6.64551 12.6077C7.40831 11.8449 8.1711 11.0898 9.03307 10.2202C9.44498 10.6702 9.82638 11.105 10.223 11.5245C10.4595 11.7763 10.7112 11.7305 10.8485 11.4101C10.8866 11.3262 10.9095 11.2423 10.9324 11.1508C11.2833 9.84642 11.6342 8.53441 11.9774 7.2224C12.13 6.66556 12.2825 6.10871 12.4198 5.54424C12.519 5.15522 12.3131 4.92638 11.9545 5.02554C10.017 5.53662 8.0872 6.05532 6.14969 6.57402C5.74541 6.68081 5.66913 6.94016 5.93611 7.25291C6.03527 7.37496 6.15732 7.48175 6.27174 7.59617C6.57686 7.8784 6.87435 8.16064 7.1871 8.4505C7.09556 8.54967 7.05742 8.59543 7.01928 8.63357C6.287 9.38111 5.54708 10.121 4.8148 10.8685C4.4334 11.2499 4.42577 11.6161 4.8148 12.0051C5.01312 12.2034 5.21145 12.4018 5.40978 12.5925V12.6077Z" fill="white"/>
<path d="M44.7171 37.4216C44.1831 36.8801 43.8475 36.8877 43.3059 37.4216C42.7491 37.9785 42.1922 38.5353 41.6354 39.0922C41.4447 39.2829 41.254 39.4583 41.0556 39.6566C40.6285 39.2295 40.2395 38.8176 39.8275 38.4285C39.53 38.1539 39.2554 38.2455 39.141 38.6345C39.0571 38.932 38.9808 39.2295 38.8969 39.527C38.546 40.8237 38.2028 42.1281 37.8519 43.4249C37.768 43.7452 37.6765 44.058 37.5925 44.3784C37.4934 44.8055 37.6764 44.9962 38.1036 44.9123C38.1418 44.9123 38.1799 44.8894 38.218 44.8818C40.064 44.386 41.9176 43.8978 43.7636 43.3867C43.939 43.341 44.1907 43.196 44.206 43.074C44.2289 42.9138 44.0763 42.7002 43.9466 42.5553C43.6034 42.1815 43.222 41.8382 42.833 41.4645C42.9245 41.3653 42.9855 41.2967 43.0465 41.2356C43.7788 40.5033 44.5187 39.7711 45.2434 39.0388C45.5943 38.6803 45.5943 38.3523 45.251 37.9937C45.0756 37.803 44.9001 37.6123 44.7247 37.4293L44.7171 37.4216Z" fill="white"/>
<path d="M49.942 23.1267C49.8047 21.3113 49.4844 19.5339 48.9656 17.7871C48.3783 15.8191 47.5697 13.9426 46.5094 12.1882C45.7238 10.8914 44.8847 9.63283 43.8244 8.54203C43.1074 7.79449 42.4208 7.01643 41.658 6.32229C40.3003 5.07893 38.7976 4.03389 37.1881 3.13379C35.6319 2.2642 33.9996 1.57769 32.2985 1.05898C30.8721 0.62419 29.4075 0.326699 27.9277 0.151256C27.8819 0.151256 27.8362 0.143627 27.7904 0.135999C27.47 0.0978593 27.1496 0.0673482 26.8216 0.0444643C24.8078 -0.0852113 22.6034 0.105488 22.1762 0.151256C20.17 0.372467 18.2249 0.837773 16.3408 1.53192C15.8145 1.73025 15.5017 2.3176 15.6695 2.79816C15.8679 3.39314 16.4323 3.67538 17.0273 3.47705C17.6604 3.26347 18.2859 3.01175 18.9267 2.85156C20.437 2.47016 21.9626 2.19555 23.5187 2.09639C25.3342 1.98197 27.1344 2.07351 28.9193 2.37862C30.4831 2.6456 32.0087 3.07277 33.4885 3.66012C35.4718 4.45343 37.3101 5.49847 39.0035 6.79522C40.2469 7.74872 41.3682 8.83952 42.398 10.0142C43.8473 11.6771 45.0449 13.5078 45.9145 15.5369C46.3645 16.5895 46.7306 17.6803 47.0892 18.7635C47.5545 20.1823 47.7757 21.6545 47.8901 23.1343C48.0045 24.4998 47.9816 25.8652 47.852 27.2306C47.6536 29.1986 47.2188 31.098 46.54 32.9515C46.3645 33.4397 46.5628 34.0195 46.9976 34.2483C47.5011 34.5077 48.0961 34.3551 48.3783 33.8593C48.4927 33.6533 48.5614 33.4245 48.6376 33.1956C49.1258 31.7921 49.4843 30.358 49.7132 28.8782C50.0107 26.9636 50.0946 25.0566 49.9497 23.1267H49.942Z" fill="white"/>
</g>
<defs>
<clipPath id="clip0_1_2902">
<rect width="51" height="50" fill="white"/>
</clipPath>
</defs>
</svg>
