<svg width="25" height="25" viewBox="0 0 25 25" fill="none" xmlns="http://www.w3.org/2000/svg">
<g clip-path="url(#clip0_26_4505)">
<path d="M0.916016 12.453C0.916016 9.14096 2.09202 6.30896 4.44402 3.95696C6.79602 1.60496 9.62002 0.436962 12.916 0.452963C16.212 0.468962 19.044 1.63696 21.412 3.95696C23.78 6.27696 24.948 9.10896 24.916 12.453C24.884 15.797 23.716 18.629 21.412 20.949C19.108 23.269 16.276 24.437 12.916 24.453C9.55602 24.469 6.73202 23.301 4.44402 20.949C2.15602 18.597 0.980016 15.765 0.916016 12.453ZM3.53202 12.453C3.53202 15.045 4.45202 17.253 6.29202 19.077C8.13202 20.901 10.34 21.821 12.916 21.837C15.492 21.853 17.7 20.933 19.54 19.077C21.38 17.221 22.3 15.013 22.3 12.453C22.3 9.89296 21.38 7.68496 19.54 5.82896C17.7 3.97296 15.492 3.05296 12.916 3.06896C10.34 3.08496 8.13202 4.00496 6.29202 5.82896C4.45202 7.65296 3.53202 9.86096 3.53202 12.453ZM6.07602 13.677L8.33202 11.469L10.564 13.725L17.5 6.74096L19.756 8.97296L12.772 15.909L10.564 18.165L8.33202 15.909L6.07602 13.677Z" fill="#59B377"/>
</g>
<defs>
<clipPath id="clip0_26_4505">
<rect width="24" height="24" fill="white" transform="matrix(1 0 0 -1 0.916016 24.4529)"/>
</clipPath>
</defs>
</svg>
