<?xml version="1.0" encoding="utf-8"?>
<svg width="21px" height="20px" viewBox="0 0 21 20" version="1.1" xmlns:xlink="http://www.w3.org/1999/xlink" xmlns="http://www.w3.org/2000/svg">
  <g id="012-clock">
    <path d="M20.7932 10.9624C20.6061 9.08076 19.7656 7.30685 18.4263 5.9674C17.2817 4.8228 15.8808 4.08725 14.4068 3.76019L14.4068 2.72623C15.0088 2.57643 15.4563 2.03142 15.4563 1.3836C15.4563 0.620669 14.8357 0 14.0728 0L11.1431 0C10.3802 0 9.75963 0.620669 9.75963 1.3836C9.75963 2.03138 10.2071 2.57639 10.8092 2.72623L10.8092 3.76308C9.33962 4.09152 7.94336 4.82605 6.80206 5.96744C6.5523 6.21723 6.32199 6.47926 6.11118 6.75158C6.10096 6.75081 6.09075 6.75004 6.08033 6.75004L3.18067 6.75004C2.95598 6.75004 2.77376 6.93222 2.77376 7.15698C2.77376 7.38173 2.95598 7.56392 3.18067 7.56392L5.5575 7.56392C5.25915 8.06344 5.01859 8.58803 4.83548 9.12804L0.406907 9.12804C0.182213 9.12804 0 9.31023 0 9.53499C0 9.75974 0.182213 9.94193 0.406907 9.94193L4.60554 9.94193C4.48827 10.4568 4.42096 10.9807 4.40359 11.5061L2.60421 11.5061C2.37951 11.5061 2.1973 11.6883 2.1973 11.913C2.1973 12.1378 2.37951 12.32 2.60421 12.32L4.41657 12.32C4.45091 12.8467 4.53559 13.3707 4.67064 13.8841L2.03454 13.8841C1.80984 13.8841 1.62763 14.0663 1.62763 14.2911C1.62763 14.5158 1.80984 14.698 2.03454 14.698L4.93033 14.698C5.32951 15.7541 5.95334 16.7439 6.80206 17.5927C8.14266 18.9334 9.91824 19.7742 11.8017 19.9603C12.0705 19.9869 12.3395 20 12.6081 20C14.1959 20 15.7636 19.5404 17.0938 18.6741C17.2821 18.5515 17.3353 18.2994 17.2127 18.1111C17.0901 17.9227 16.838 17.8695 16.6497 17.9921C13.738 19.8883 9.83845 19.4783 7.37751 17.0172C4.49002 14.1294 4.49002 9.43077 7.37751 6.54298C10.265 3.65528 14.9632 3.65528 17.8508 6.54298C20.3085 9.00092 20.7206 12.8974 18.8309 15.808C18.7085 15.9965 18.762 16.2485 18.9505 16.3709C19.139 16.4933 19.391 16.4397 19.5134 16.2512C20.5231 14.6961 20.9776 12.8178 20.7932 10.9624ZM10.5734 1.38365C10.5734 1.06949 10.829 0.813926 11.1431 0.813926L14.0728 0.813926C14.387 0.813926 14.6425 1.06949 14.6425 1.38365C14.6425 1.6978 14.387 1.95336 14.0728 1.95336L13.9998 1.95336L11.2161 1.95336L11.1431 1.95336C10.829 1.95336 10.5734 1.69776 10.5734 1.38365ZM11.623 3.62317L11.623 2.76725L13.5929 2.76725L13.5929 3.62171C12.9388 3.5439 12.277 3.54439 11.623 3.62317Z" id="XMLID_389_" fill="#000000" stroke="none" />
    <path d="M0.406907 0C0.299484 0 0.194909 0.0435428 0.119264 0.119234C0.0431728 0.194925 0 0.299917 0 0.406942C0 0.513968 0.0431728 0.618959 0.119264 0.694651C0.194909 0.770749 0.299524 0.813885 0.406907 0.813885C0.513924 0.813885 0.618499 0.770749 0.694591 0.694651C0.770275 0.618959 0.813814 0.513968 0.813814 0.406942C0.813814 0.299917 0.770316 0.194925 0.694591 0.119234C0.618499 0.0435428 0.513883 0 0.406907 0Z" transform="translate(17.731792 16.897797)" id="XMLID_391_" fill="#000000" stroke="none" />
    <path d="M6.31231 0C2.83171 0 0 2.83191 0 6.31286C0 9.7938 2.83171 12.6257 6.31231 12.6257C9.79291 12.6257 12.6246 9.7938 12.6246 6.31286C12.6246 2.83191 9.79291 0 6.31231 0ZM6.31231 11.8118C3.2804 11.8118 0.813814 9.34499 0.813814 6.31286C0.813814 3.28073 3.2804 0.813885 6.31231 0.813885C9.34422 0.813885 11.8108 3.28073 11.8108 6.31286C11.8108 9.34499 9.34422 11.8118 6.31231 11.8118Z" transform="translate(6.301852 5.4671497)" id="XMLID_394_" fill="#000000" stroke="none" />
    <path d="M4.72911 0.119183L2.71369 2.13473C2.54515 2.05139 2.35558 2.0043 2.15517 2.0043C1.95473 2.0043 1.76519 2.05139 1.59665 2.13473L0.694662 1.23266C0.535724 1.07375 0.278152 1.07375 0.119173 1.23266C-0.0397243 1.39157 -0.0397243 1.64925 0.119173 1.80816L1.02116 2.71023C0.937789 2.87878 0.89075 3.06838 0.89075 3.2688C0.89075 3.96605 1.45794 4.53333 2.15517 4.53333C2.85241 4.53333 3.4196 3.96605 3.4196 3.2688C3.4196 3.06838 3.37252 2.87878 3.28918 2.71023L5.24543 0.75381L5.24543 0.75381L5.30455 0.694681C5.46345 0.53577 5.46345 0.278094 5.30455 0.119183C5.14566 -0.0397278 4.88808 -0.0397278 4.72911 0.119183ZM2.15517 3.71948C1.90672 3.71948 1.70456 3.51732 1.70456 3.26884C1.70456 3.02036 1.90672 2.81819 2.15517 2.81819C2.40363 2.81819 2.60578 3.02036 2.60578 3.26884C2.60578 3.51732 2.40363 3.71948 2.15517 3.71948Z" transform="translate(10.458989 8.51117)" id="XMLID_397_" fill="#000000" stroke="none" />
    <path d="M0.783907 0L0.406907 0C0.182213 0 0 0.182188 0 0.406942C0 0.631697 0.182213 0.813885 0.406907 0.813885L0.783907 0.813885C1.0086 0.813885 1.19081 0.631697 1.19081 0.406942C1.19081 0.182188 1.0086 0 0.783907 0Z" transform="translate(16.180866 11.378029)" id="XMLID_398_" fill="#000000" stroke="none" />
    <path d="M0.783866 0L0.406907 0C0.182213 0 0 0.182188 0 0.406942C0 0.631697 0.182213 0.813885 0.406907 0.813885L0.783866 0.813885C1.00856 0.813885 1.19077 0.631697 1.19077 0.406942C1.19077 0.182188 1.00856 0 0.783866 0Z" transform="translate(7.8566446 11.3681)" id="XMLID_399_" fill="#000000" stroke="none" />
    <path d="M0.406907 1.19088C0.631601 1.19088 0.813814 1.00869 0.813814 0.783934L0.813814 0.406942C0.813814 0.182188 0.631601 0 0.406907 0C0.182213 0 0 0.182188 0 0.406942L0 0.783934C0 1.00869 0.182213 1.19088 0.406907 1.19088Z" transform="translate(12.212219 7.0220766)" id="XMLID_400_" fill="#000000" stroke="none" />
    <path d="M0.406907 0C0.182213 0 0 0.182188 0 0.406942L0 0.783934C0 1.00869 0.182213 1.19088 0.406907 1.19088C0.631601 1.19088 0.813814 1.00869 0.813814 0.783934L0.813814 0.406942C0.813814 0.182188 0.631601 0 0.406907 0Z" transform="translate(12.202291 15.347061)" id="XMLID_424_" fill="#000000" stroke="none" />
    <path d="M0.406907 0C0.299891 0 0.194909 0.0435428 0.119224 0.119234C0.0435391 0.194925 0 0.299917 0 0.406942C0 0.514375 0.0434984 0.618959 0.119224 0.694651C0.194949 0.770342 0.299891 0.813885 0.406907 0.813885C0.513924 0.813885 0.618906 0.770342 0.69455 0.694651C0.770235 0.618959 0.813814 0.513968 0.813814 0.406942C0.813814 0.299917 0.770275 0.194925 0.69455 0.119234C0.618906 0.0435428 0.513924 0 0.406907 0Z" transform="translate(0 13.883981)" id="XMLID_425_" fill="#000000" stroke="none" />
  </g>
</svg>