<?xml version="1.0" encoding="utf-8"?>
<svg width="42px" height="27px" viewBox="0 0 42 27" version="1.1" xmlns:xlink="http://www.w3.org/1999/xlink" xmlns="http://www.w3.org/2000/svg">
  <defs>
    <radialGradient gradientUnits="objectBoundingBox" cx="49.42%" cy="50.450726%" fx="49.42%" fy="50.450726%" r="49.73715%" gradientTransform="translate(0.4942,0.50450724),scale(1,0.985198),scale(1,0),translate(-0.4942,-0.50450724)" id="gradient_1">
      <stop offset="0.5618%" stop-color="#FFEEE0" />
      <stop offset="10.96%" stop-color="#FEE9D7" />
      <stop offset="27.93%" stop-color="#FDDBBF" />
      <stop offset="49.35%" stop-color="#FBC597" />
      <stop offset="74.4%" stop-color="#F8A560" />
      <stop offset="100%" stop-color="#F48120" />
    </radialGradient>
  </defs>
  <g id="dc-copy">
    <path d="M41.9407 25.5339C41.9407 26.3281 41.2881 27 40.5169 27L1.42373 27C0.652542 27 0 26.3281 0 25.5339L0 1.46606C0 0.671946 0.652542 0 1.42373 0L40.5169 0C41.2881 0 41.9407 0.671946 41.9407 1.46606L41.9407 25.5339Z" transform="matrix(1 0 0 1 2.1918437E-13 2.213614E-13)" id="Path" fill="#FCFCFC" stroke="none" />
    <path d="M0 11.5452L29.0085 11.5452C29.7797 11.5452 30.4322 10.8733 30.4322 10.0792L30.4322 0C27.5847 1.77149 17.1441 8.06335 0 11.5452Z" transform="translate(11.567797 15.454751)" id="Path" fill="#F58220" stroke="none" />
    <g id="Group" transform="translate(8.483051 11.361991)">
      <path d="M2.07627 0C0.949153 0 0 0.91629 0 2.07692C0 3.29864 0.889831 4.21493 2.07627 4.21493C3.26271 4.21493 4.15254 3.29864 4.15254 2.13801C4.15254 0.977376 3.20339 0 2.07627 0Z" transform="translate(10.974576 0)" id="Path" fill="url(#gradient_1)" stroke="none" />
      <path d="M1.12712 0L0 0L0 4.03167L1.12712 4.03167C1.72034 4.03167 2.13559 3.9095 2.55085 3.54299C3.02542 3.17647 3.26271 2.56561 3.26271 2.01584C3.26271 0.794118 2.37288 0 1.12712 0ZM2.07627 2.99321C1.83898 3.23756 1.54237 3.29864 1.00847 3.29864L0.830508 3.29864L0.830508 0.61086L1.00847 0.61086C1.48305 0.61086 1.77966 0.671946 2.07627 0.91629C2.31356 1.16063 2.49153 1.52715 2.49153 1.89367C2.49153 2.38235 2.31356 2.74887 2.07627 2.99321Z" transform="translate(0 0.122171946)" id="Shape" fill="#001722" stroke="none" />
      <path d="M0 0L0.771186 0L0.771186 4.03167L0 4.03167L0 0Z" transform="translate(3.618644 0.122171946)" id="Rectangle" fill="#001722" stroke="none" />
      <path d="M1.54237 1.58824C1.0678 1.40498 0.949153 1.28281 0.949153 1.09955C0.949153 0.855204 1.18644 0.671946 1.54237 0.671946C1.77966 0.671946 1.95763 0.794118 2.13559 0.977376L2.55085 0.427602C2.19492 0.122172 1.83898 0 1.42373 0C0.711864 0 0.177966 0.488688 0.177966 1.16063C0.177966 1.71041 0.415254 2.01584 1.12712 2.26018C1.42373 2.38235 1.60169 2.44344 1.66102 2.50452C1.83898 2.6267 1.89831 2.74887 1.89831 2.93213C1.89831 3.23756 1.66102 3.4819 1.30508 3.4819C0.949153 3.4819 0.652542 3.29864 0.474576 2.93213L0 3.42081C0.355932 3.97059 0.771186 4.21493 1.36441 4.21493C2.13559 4.21493 2.72881 3.66516 2.72881 2.87104C2.66949 2.1991 2.4322 1.89367 1.54237 1.58824Z" transform="translate(4.6864405 0.061085973)" id="Path" fill="#001722" stroke="none" />
      <path d="M0 2.13801C0 3.29864 0.889831 4.27602 2.07627 4.27602C2.4322 4.27602 2.66949 4.21493 3.02542 4.03167L3.02542 3.11538C2.72881 3.42081 2.4322 3.54299 2.07627 3.54299C1.30508 3.54299 0.771186 2.99321 0.771186 2.13801C0.771186 1.34389 1.36441 0.733032 2.07627 0.733032C2.4322 0.733032 2.72881 0.855204 3.02542 1.16063L3.02542 0.244344C2.66949 0.061086 2.4322 0 2.07627 0C0.949153 0 0 0.977376 0 2.13801Z" transform="translate(7.59322 0)" id="Path" fill="#001722" stroke="none" />
      <path d="M1.89831 2.68778L0.830508 0L0 0L1.66102 4.09276L2.07627 4.09276L3.79661 0L2.9661 0L1.89831 2.68778Z" transform="translate(14.949153 0.122171946)" id="Path" fill="#001722" stroke="none" />
      <path d="M0 4.03167L2.13559 4.03167L2.13559 3.35973L0.771186 3.35973L0.771186 2.26018L2.07627 2.26018L2.07627 1.58824L0.771186 1.58824L0.771186 0.671946L2.13559 0.671946L2.13559 0L0 0L0 4.03167Z" transform="translate(19.101694 0.122171946)" id="Path" fill="#001722" stroke="none" />
      <path d="M2.49153 1.22172C2.49153 0.488688 1.95763 0 1.12712 0L0 0L0 4.03167L0.771186 4.03167L0.771186 2.38235L0.889831 2.38235L1.95763 4.03167L2.90678 4.03167L1.66102 2.32127C2.19492 2.26018 2.49153 1.83258 2.49153 1.22172ZM0.949153 1.89367L0.711864 1.89367L0.711864 0.671946L0.949153 0.671946C1.42373 0.671946 1.66102 0.855204 1.66102 1.28281C1.72034 1.64932 1.48305 1.89367 0.949153 1.89367Z" transform="translate(21.771187 0.061085973)" id="Shape" fill="#001722" stroke="none" />
      <path d="M0.300183 0.152715C0.300183 0.0763575 0.225138 0 0.150092 0L0 0L0 0.458145L0.0750459 0.458145L0.0750459 0.30543L0.225138 0.458145L0.375229 0.458145L0.225138 0.30543C0.300183 0.229072 0.300183 0.152715 0.300183 0.152715ZM0.150092 0.152715L0.150092 0.152715L0.150092 0L0.150092 0C0.225138 0 0.225138 0 0.225138 0.0763575C0.225138 0.152715 0.225138 0.152715 0.150092 0.152715Z" transform="translate(24.559322 0.30542988)" id="Shape" fill="#231F20" stroke="none" />
      <path d="M0.375229 0C0.150092 0 0 0.152715 0 0.381787C0 0.61086 0.150092 0.763575 0.375229 0.763575C0.600367 0.763575 0.750459 0.61086 0.750459 0.381787C0.750459 0.152715 0.600367 0 0.375229 0ZM0.375229 0.687217C0.225138 0.687217 0.0750459 0.534502 0.0750459 0.381787C0.0750459 0.229072 0.225138 0.0763575 0.375229 0.0763575C0.525321 0.0763575 0.675413 0.229072 0.675413 0.381787C0.675413 0.534502 0.600367 0.687217 0.375229 0.687217Z" transform="translate(24.381355 0.18325792)" id="Shape" fill="#231F20" stroke="none" />
    </g>
  </g>
</svg>