<?xml version="1.0" encoding="utf-8"?>
<svg width="42px" height="27px" viewBox="0 0 42 27" version="1.1" xmlns:xlink="http://www.w3.org/1999/xlink" xmlns="http://www.w3.org/2000/svg">
  <g id="ae-copy">
    <path d="M42 25.5339C42 26.3281 41.3465 27 40.5743 27L1.42574 27C0.653465 27 0 26.3281 0 25.5339L0 1.46606C0 0.671946 0.653465 0 1.42574 0L40.5743 0C41.3465 0 42 0.671946 42 1.46606L42 25.5339Z" transform="matrix(1 0 0 1 2.7014694E-13 2.213614E-13)" id="Path" fill="#FCFCFC" stroke="none" />
    <g id="Group" transform="translate(4.5148516 7.147059)">
      <path d="M8.55445 5.74208L8.55445 5.31448L8.37624 5.74208L6.65347 5.74208L6.41584 5.25339L6.41584 5.74208L3.14851 5.74208L2.79208 4.82579L2.13861 4.82579L1.72277 5.74208L0 5.74208L0 2.93213L1.24752 0.061086L3.62376 0.061086L3.9802 0.855204L3.9802 0.061086L6.89109 0.061086L7.54455 1.40498L8.13861 0L17.2277 0C17.2277 0 17.703 0 18 0.244344L18 0L20.3168 0L20.3168 0.30543C20.3168 0.30543 20.7327 0 21.3267 0C21.9208 0 25.3663 0 25.3663 0L25.7228 0.855204L25.7228 0L28.3366 0L28.8119 0.855204L28.8119 0L31.3069 0L31.3069 5.681L28.7525 5.681L28.1584 4.70362L28.1584 5.681L24.9505 5.681L24.4752 4.64253L23.8812 4.64253L23.4653 5.681L21.5644 5.681C21.5644 5.681 20.8515 5.681 20.3168 5.25339C20.3168 5.43665 20.3168 5.681 20.3168 5.681L16.5149 5.681C16.5149 5.681 16.5149 4.52036 16.5149 4.3371C16.5149 4.15385 16.396 4.15385 16.396 4.15385L16.2772 4.15385L16.2772 5.681L8.55445 5.681L8.55445 5.74208Z" id="Path" fill="#FFFFFF" stroke="none" />
      <path d="M0 0L5.04951 0L5.76238 0.855204L6.47525 0L10.3366 0C10.3366 0 10.6931 0 11.0495 0.183258L11.0495 0C11.0495 0 14.0792 0 14.495 0C14.9109 0 15.3267 0.244344 15.3267 0.244344L15.3267 0L19.7228 0L19.7228 0.183258C19.7228 0.183258 20.0198 0 20.4356 0C20.8515 0 23.2871 0 23.2871 0L23.2871 0.183258C23.2871 0.183258 23.6436 0 24.0594 0C24.4158 0 26.3168 0 26.3168 0L26.3168 5.37557C26.3168 5.37557 26.0198 5.74208 25.4257 5.74208L22.4554 5.74208L22.4554 5.55882C22.4554 5.55882 22.1584 5.74208 21.7426 5.74208C21.3267 5.74208 13.8416 5.74208 13.8416 5.74208C13.8416 5.74208 13.8416 4.52036 13.8416 4.3371C13.8416 4.21493 13.7822 4.15385 13.6634 4.15385L13.5446 4.15385L13.5446 5.681L11.0495 5.681L11.0495 4.15385C11.0495 4.15385 10.7525 4.27602 10.3366 4.27602C9.86139 4.27602 9.44555 4.27602 9.44555 4.27602L9.44555 5.681L6.41584 5.681L5.70297 4.82579L4.9901 5.681L0.0594059 5.681L0.0594059 0L0 0Z" transform="translate(6.5940595 6.963801)" id="Path" fill="#FFFFFF" stroke="none" />
      <path d="M0 0L3.14851 0L3.14851 0.855204L0.950495 0.855204L0.950495 1.58824L3.08911 1.58824L3.08911 2.38235L0.950495 2.38235L0.950495 3.17647L3.14851 3.17647L3.14851 4.03167L0 4.03167L0 0Z" transform="translate(22.455446 7.8190045)" id="Path" fill="#0078A9" stroke="none" />
      <path d="M2.07921 1.46606C3.26733 1.52715 3.38614 2.13801 3.38614 2.80995C3.38614 3.54299 2.79208 3.97059 2.13861 3.97059L0.0594059 3.97059L0.0594059 3.11538L1.66337 3.11538C1.9604 3.11538 2.31683 3.11538 2.31683 2.74887C2.31683 2.56561 2.25743 2.44344 1.9604 2.44344C1.84158 2.44344 1.36634 2.38235 1.30693 2.38235C0.237624 2.38235 0 1.83258 0 1.16063C0 0.427602 0.534653 0 1.12871 0L3.14851 0L3.14851 0.855204L1.66337 0.855204C1.30693 0.855204 0.950495 0.794118 0.950495 1.22172C0.950495 1.46606 1.12871 1.52715 1.36634 1.52715C1.48515 1.46606 1.9604 1.52715 2.07921 1.46606Z" transform="translate(29.643564 7.8800907)" id="Path" fill="#0078A9" stroke="none" />
      <path d="M2.0198 1.46606C3.20792 1.52715 3.32673 2.13801 3.32673 2.80995C3.32673 3.54299 2.73267 3.97059 2.07921 3.97059L0.0594059 3.97059L0.0594059 3.11538L1.66337 3.11538C1.9604 3.11538 2.31683 3.11538 2.31683 2.74887C2.31683 2.56561 2.25743 2.44344 1.9604 2.44344C1.84158 2.44344 1.36634 2.38235 1.30693 2.38235C0.237624 2.38235 0 1.83258 0 1.16063C0 0.427602 0.534653 0 1.12871 0L3.14851 0L3.14851 0.855204L1.66337 0.855204C1.30693 0.855204 0.950495 0.794118 0.950495 1.22172C0.950495 1.46606 1.12871 1.52715 1.36634 1.52715C1.42574 1.46606 1.9604 1.52715 2.0198 1.46606Z" transform="translate(26.019802 7.8800907)" id="Path" fill="#0078A9" stroke="none" />
      <path d="M9.38614 0L6 0L4.87129 1.28281L3.80198 0L0 0L0 4.03167L3.68317 4.03167L4.81188 2.68778L5.94059 4.03167L7.78218 4.03167L7.78218 2.68778L9.08911 2.68778C9.56436 2.68778 10.5149 2.68778 10.5149 1.28281C10.5743 0.244344 9.86139 0 9.38614 0ZM3.20792 3.17647L1.0099 3.17647L1.0099 2.38235L3.14851 2.38235L3.14851 1.58824L1.0099 1.58824L1.0099 0.855204L3.32673 0.855204L4.27723 1.95475L3.20792 3.17647ZM6.89109 3.66516L5.52475 1.95475L6.89109 0.366516L6.89109 3.66516ZM9.08911 1.83258L7.90099 1.83258L7.90099 0.855204L9.08911 0.855204C9.50495 0.855204 9.62376 1.09955 9.62376 1.34389C9.62376 1.58824 9.44554 1.83258 9.08911 1.83258Z" transform="translate(7.2475247 7.8190045)" id="Shape" fill="#0078A9" stroke="none" />
      <path d="M2.9703 2.1991C3.50495 1.95475 3.62376 1.58824 3.62376 1.09955C3.62376 0.244344 2.91089 0 2.49505 0L0 0L0 4.03167L0.950495 4.03167L0.950495 2.6267L2.19802 2.6267C2.55446 2.6267 2.67327 2.99321 2.67327 3.29864L2.67327 4.03167L3.62376 4.03167L3.56436 3.17647C3.62376 2.56561 3.44554 2.26018 2.9703 2.1991ZM2.13861 1.77149L0.950495 1.77149L0.950495 0.855204L2.13861 0.855204C2.55446 0.855204 2.67327 1.09955 2.67327 1.34389C2.67327 1.58824 2.55446 1.77149 2.13861 1.77149Z" transform="translate(18.29703 7.8190045)" id="Shape" fill="#0078A9" stroke="none" />
      <path d="M0 0L0.950495 0L0.950495 4.03167L0 4.03167L0 0Z" transform="translate(18.653465 0.8552036)" id="Rectangle" fill="#0078A9" stroke="none" />
      <path d="M0 0L3.14851 0L3.14851 0.855204L0.950495 0.855204L0.950495 1.58824L3.08911 1.58824L3.08911 2.38235L0.950495 2.38235L0.950495 3.17647L3.14851 3.17647L3.14851 4.03167L0 4.03167L0 0Z" transform="translate(10.811881 0.8552036)" id="Path" fill="#0078A9" stroke="none" />
      <path d="M2.9703 2.1991C3.50495 1.95475 3.62376 1.58824 3.62376 1.09955C3.62376 0.244344 2.91089 0 2.49505 0L0 0L0 4.03167L0.950495 4.03167L0.950495 2.6267L2.19802 2.6267C2.55446 2.6267 2.67327 2.99321 2.67327 3.29864L2.67327 4.03167L3.62376 4.03167L3.56436 3.17647C3.56436 2.56561 3.38614 2.26018 2.9703 2.1991ZM2.13861 1.77149L0.950495 1.77149L0.950495 0.855204L2.13861 0.855204C2.55446 0.855204 2.67327 1.09955 2.67327 1.34389C2.67327 1.58824 2.49505 1.77149 2.13861 1.77149Z" transform="translate(14.554456 0.8552036)" id="Shape" fill="#0078A9" stroke="none" />
      <path d="M8.49505 0L7.30693 2.68778L6.11881 0L4.63366 0L4.63366 3.9095L2.9703 0L1.72277 0L0 4.03167L1.0099 4.03167L1.36634 3.11538L3.26733 3.11538L3.62376 4.03167L5.58416 4.03167L5.58416 1.03846L6.89109 4.03167L7.78218 4.03167L9.08911 1.09955L9.08911 4.03167L10.0396 4.03167L10.0396 0L8.49505 0ZM1.72277 2.26018L2.31683 0.855204L2.91089 2.26018L1.72277 2.26018Z" transform="translate(0.05940594 0.8552036)" id="Shape" fill="#0078A9" stroke="none" />
      <path d="M9.38614 0L9.38614 2.80995L7.78218 0L6.35644 0L6.35644 3.78733L4.69307 1.0851e-15L3.44554 1.0851e-15L2.13861 3.11538C2.13861 3.11538 1.60396 3.11538 1.54455 3.11538C1.30693 3.0543 0.950495 2.87104 0.950495 2.1991L0.950495 1.89367C0.950495 0.91629 1.42574 0.855204 2.07921 0.855204L2.67327 0.855204L2.67327 2.17021e-15L1.42574 2.17021e-15C1.0099 2.17021e-15 0.0594059 0.366516 0 2.01584C0 3.11538 0.475248 4.03167 1.54455 4.03167L2.79208 4.03167L3.14851 3.11538L5.04951 3.11538L5.40594 4.03167L7.30693 4.03167L7.30693 1.09955L9.0297 4.03167L10.3366 4.03167L10.3366 2.17021e-15L9.38614 2.17021e-15L9.38614 0ZM3.50495 2.26018L4.09901 0.855204L4.69307 2.26018L3.50495 2.26018Z" transform="translate(20.198019 0.8552036)" id="Shape" fill="#0078A9" stroke="none" />
    </g>
  </g>
</svg>