<?xml version="1.0" encoding="utf-8"?>
<svg width="43px" height="28px" viewBox="0 0 43 28" version="1.1" xmlns:xlink="http://www.w3.org/1999/xlink" xmlns="http://www.w3.org/2000/svg">
  <g id="mc-copy" transform="translate(0.3125 0.3125)">
    <path d="M42 25.5339C42 26.3281 41.3465 27 40.5743 27L1.42574 27C0.653465 27 0 26.3281 0 25.5339L0 1.46606C0 0.671946 0.653465 0 1.42574 0L40.5743 0C41.3465 0 42 0.671946 42 1.46606L42 25.5339Z" id="Path" fill="#FCFCFC" stroke="none" />
    <g id="Group-8" transform="translate(9 6)">
      <path d="M7.46778 15L7.85383 14.9898L8.23494 14.9621L8.60856 14.9141L8.97951 14.8482L9.34031 14.7648L9.69629 14.6635L10.0445 14.5447L10.3853 14.4106L10.7183 14.2588L11.0414 14.0943L11.3543 13.9121L11.6597 13.7174L11.9523 13.5074L12.2351 13.2848L12.5077 13.0494L12.7676 12.7991L13.0175 12.5384L13.2521 12.2651L13.4742 11.9818L13.6836 11.6884L13.8779 11.3822L14.0598 11.0685L14.2237 10.7447L14.3751 10.4106L14.5089 10.0693L14.6276 9.71994L14.7286 9.36335L14.8118 9.00153L14.8774 8.62966L14.9253 8.25525L14.9531 7.87321L14.9632 7.48607L14.9531 7.10148L14.9253 6.72211L14.8774 6.34757L14.8118 5.98079L14.7286 5.61897L14.6276 5.26479L14.5089 4.9157L14.3751 4.57665L14.2237 4.24524L14.0598 3.92147L13.8779 3.61028L13.6836 3.30406L13.4742 3.01056L13.2521 2.72978L13.0175 2.45664L12.7676 2.19596L12.5077 1.94801L12.2351 1.71278L11.9523 1.49014L11.6597 1.2801L11.3543 1.08532L11.0414 0.905685L10.7183 0.74132L10.3853 0.589412L10.0445 0.455455L9.69629 0.336501L9.34031 0.235229L8.97951 0.151774L8.60856 0.0860006L8.23494 0.0379099L7.85383 0.0101808L7.46778 0L7.08414 0.0101808L6.70303 0.0379099L6.32954 0.0860006L5.961 0.151774L5.6002 0.235229L5.24435 0.336501L4.89852 0.455455L4.55791 0.589412L4.22731 0.74132L3.90674 0.905685L3.59392 1.08532L3.29098 1.2801L2.9982 1.49014L2.71558 1.71278L2.44552 1.94801L2.18561 2.19596L1.93827 2.45664L1.70362 2.72978L1.48153 3.01056L1.27454 3.30406L1.08011 3.61028L0.901051 3.92147L0.734551 4.24524L0.585556 4.57665L0.451795 4.9157L0.335806 5.26479L0.234784 5.61897L0.151534 5.98079L0.0859226 6.34757L0.0379503 6.72211L0.0101557 7.10148L0 7.48607L0.0101557 7.87321L0.0379503 8.25525L0.0859226 8.62966L0.151534 9.00153L0.234784 9.36335L0.335806 9.71994L0.451795 10.0693L0.585556 10.4106L0.734551 10.7447L0.901051 11.0685L1.08011 11.3822L1.27454 11.6884L1.48153 11.9818L1.70362 12.2651L1.93827 12.5384L2.18561 12.7991L2.44552 13.0494L2.71558 13.2848L2.9982 13.5074L3.29098 13.7174L3.59392 13.9121L3.90674 14.0943L4.22731 14.2588L4.55791 14.4106L4.89852 14.5447L5.24435 14.6635L5.6002 14.7648L5.961 14.8482L6.32954 14.9141L6.70303 14.9621L7.08414 14.9898L7.46778 15" transform="translate(10.036775 0)" id="Fill-4" fill="#F1AD3D" fill-rule="evenodd" stroke="none" />
      <path d="M7.49544 15L7.87909 14.9898L8.26019 14.9621L8.63368 14.9141L9.0021 14.8482L9.36302 14.7648L9.71887 14.6635L10.0646 14.5447L10.4053 14.4106L10.7359 14.2588L11.0564 14.0943L11.3694 13.9121L11.6722 13.7174L11.965 13.5074L12.2476 13.2848L12.5176 13.0494L12.7776 12.7991L13.025 12.5384L13.2596 12.2651L13.4817 11.9818L13.6887 11.6884L13.883 11.3822L14.0622 11.0685L14.2287 10.7447L14.3775 10.4106L14.5114 10.0693L14.6274 9.71994L14.7283 9.36335L14.8117 9.00153L14.8773 8.62966L14.9253 8.25525L14.9531 7.87321L14.9631 7.48607L14.9531 7.10148L14.9253 6.72211L14.8773 6.34757L14.8117 5.98079L14.7283 5.61897L14.6274 5.26479L14.5114 4.9157L14.3775 4.57665L14.2287 4.24524L14.0622 3.92147L13.883 3.61028L13.6887 3.30406L13.4817 3.01056L13.2596 2.72978L13.025 2.45664L12.7776 2.19596L12.5176 1.94801L12.2476 1.71278L11.965 1.49014L11.6722 1.2801L11.3694 1.08532L11.0564 0.905685L10.7359 0.74132L10.4053 0.589412L10.0646 0.455455L9.71887 0.336501L9.36302 0.235229L9.0021 0.151774L8.63368 0.0860006L8.26019 0.0379099L7.87909 0.0101808L7.49544 0L7.10939 0.0101808L6.72829 0.0379099L6.35466 0.0860006L5.98371 0.151774L5.62292 0.235229L5.26707 0.336501L4.9187 0.455455L4.57795 0.589412L4.24495 0.74132L3.92184 0.905685L3.60888 1.08532L3.30354 1.2801L3.01077 1.49014L2.72814 1.71278L2.45554 1.94801L2.19564 2.19596L1.94575 2.45664L1.7111 2.72978L1.48901 3.01056L1.27948 3.30406L1.08519 3.61028L0.903457 3.92147L0.739362 4.24524L0.588095 4.57665L0.454334 4.9157L0.335673 5.26479L0.23465 5.61897L0.1514 5.98079L0.085789 6.34757L0.0378166 6.72211L0.0100221 7.10148L0 7.48607L0.0100221 7.87321L0.0378166 8.25525L0.085789 8.62966L0.1514 9.00153L0.23465 9.36335L0.335673 9.71994L0.454334 10.0693L0.588095 10.4106L0.739362 10.7447L0.903457 11.0685L1.08519 11.3822L1.27948 11.6884L1.48901 11.9818L1.7111 12.2651L1.94575 12.5384L2.19564 12.7991L2.45554 13.0494L2.72814 13.2848L3.01077 13.5074L3.30354 13.7174L3.60888 13.9121L3.92184 14.0943L4.24495 14.2588L4.57795 14.4106L4.9187 14.5447L5.26707 14.6635L5.62292 14.7648L5.98371 14.8482L6.35466 14.9141L6.72829 14.9621L7.10939 14.9898L7.49544 15" id="Fill-5" fill="#D82332" fill-rule="evenodd" stroke="none" />
      <path d="M0 0.407364L3.97489 0.407364L3.97489 0L0.343156 0L0 0.407364" transform="translate(11.624271 2.4692345)" id="Fill-6" fill="#F1AD3D" fill-rule="evenodd" stroke="none" />
      <path d="M0 0.40723L4.57047 0.40723L4.57047 0L0.239728 0L0 0.40723" transform="translate(11.028692 3.3750536)" id="Fill-7" fill="#F1AD3D" fill-rule="evenodd" stroke="none" />
      <path d="M0 0.407364L5.01465 0.407364L5.01465 0L0.176656 0L0 0.407364" transform="translate(10.584515 4.2780595)" id="Fill-8" fill="#F1AD3D" fill-rule="evenodd" stroke="none" />
      <path d="M0 0.40723L5.32012 0.40723L5.32012 0L0.126278 0L0 0.40723" transform="translate(10.279041 5.183879)" id="Fill-9" fill="#F1AD3D" fill-rule="evenodd" stroke="none" />
      <path d="M0.126278 0.407364L5.28217 0.407364L5.28217 0L0 0L0.126278 0.407364" transform="translate(10.329553 9.560665)" id="Fill-10" fill="#F1AD3D" fill-rule="evenodd" stroke="none" />
      <path d="M0.189217 0.407364L4.96413 0.407364L4.96413 0L0 0L0.189217 0.407364" transform="translate(10.647587 10.46635)" id="Fill-11" fill="#F1AD3D" fill-rule="evenodd" stroke="none" />
      <path d="M0.254962 0.407364L4.49483 0.407364L4.49483 0L0 0L0.254962 0.407364" transform="translate(11.116887 11.369624)" id="Fill-12" fill="#F1AD3D" fill-rule="evenodd" stroke="none" />
      <path d="M0.35585 0.409775L3.85877 0.409775L3.85877 0L0 0L0.35585 0.409775" transform="translate(11.7529545 12.272764)" id="Fill-13" fill="#F1AD3D" fill-rule="evenodd" stroke="none" />
      <path d="M0 0.407364L5.49918 0.407364L5.49918 0L0.0781722 0L0 0.407364" transform="translate(10.09998 6.0870185)" id="Fill-14" fill="#F1AD3D" fill-rule="evenodd" stroke="none" />
      <path d="M0 0.407364L2.09715 0.407364L2.09715 0L0.0756333 0L0 0.407364" transform="translate(13.451496 8.657525)" id="Fill-15" fill="#F1AD3D" fill-rule="evenodd" stroke="none" />
      <path d="M0 0.409909L1.93065 0.409909L1.93065 0L0.0757669 0L0 0.409909" transform="translate(13.617996 7.7517056)" id="Fill-16" fill="#F1AD3D" fill-rule="evenodd" stroke="none" />
      <path d="M0 0L0.545201 0L0.545201 0.409909L0.0252556 0.409909L0 0" transform="translate(9.961141 7.7517056)" id="Fill-17" fill="#F1AD3D" fill-rule="evenodd" stroke="none" />
      <path d="M2.12 0.637637L2.08459 0.635091L2.04931 0.630001L2.01644 0.624911L1.9837 0.61982L1.95337 0.614864L1.92063 0.609774L1.88776 0.604683L1.85248 0.599593L1.8172 0.594502L1.77671 0.591957L1.73141 0.589546L1.68344 0.587001L1.63039 0.587001L1.5724 0.589546L1.50665 0.594502L1.43356 0.599593L1.38305 0.607228L1.33507 0.614864L1.29218 0.630001L1.25436 0.645138L1.21895 0.662821L1.18621 0.683182L1.13824 0.731139L1.12314 0.759002L1.11045 0.786865L1.10537 0.817139L1.10537 0.847682L1.11298 0.880501L1.12314 0.913321L1.14332 0.946274L1.16857 0.979094L1.21895 1.02705L1.27962 1.06523L1.35017 1.09805L1.42594 1.12591L1.50665 1.15109L1.5899 1.17896L1.67329 1.20937L1.754 1.24232L1.82976 1.28519L1.90045 1.33837L1.96353 1.40159L2.01644 1.47996L2.05693 1.57614L2.08219 1.69014L2.09221 1.82664L2.08219 1.98605L2.06441 2.10487L2.03421 2.20869L1.99372 2.30487L1.94321 2.38832L1.88522 2.4616L1.81961 2.52483L1.74892 2.58055L1.67075 2.62864L1.5899 2.66655L1.50665 2.69951L1.42086 2.72469L1.33267 2.74505L1.24675 2.76019L1.1635 2.76783L1.08011 2.77292L1.00194 2.77533L0.893435 2.77533L0.792546 2.77292L0.704218 2.77292L0.620834 2.77024L0.545201 2.76783L0.477051 2.7626L0.416517 2.75764L0.358389 2.75014L0.305473 2.74505L0.257501 2.73487L0.209528 2.72737L0.166634 2.71464L0.123739 2.7046L0.0833837 2.68946L0.0428945 2.67419L0 2.65892L0.113584 2.09991L0.136434 2.10487L0.164095 2.11251L0.199372 2.12269L0.242267 2.13273L0.2877 2.14291L0.338212 2.1531L0.393801 2.16555L0.454334 2.17587L0.517406 2.18591L0.583018 2.19596L0.651168 2.20373L0.721857 2.21123L0.795085 2.21378L0.868179 2.21619L0.941407 2.21619L1.01463 2.21378L1.08773 2.19864L1.14586 2.17828L1.19129 2.15042L1.22657 2.11505L1.25182 2.07969L1.272 2.0391L1.2847 1.99864L1.29472 1.96073L1.2998 1.88732L1.27708 1.82423L1.23419 1.77359L1.17098 1.73046L1.09535 1.69255L1.00702 1.65464L0.908535 1.61914L0.810185 1.57882L0.709296 1.53328L0.613351 1.47996L0.525023 1.41419L0.444178 1.33582L0.381106 1.23964L0.335673 1.12591L0.312956 0.989141L0.315495 0.82732L0.32819 0.728594L0.345828 0.635091L0.371084 0.549091L0.401284 0.468047L0.441639 0.392227L0.487207 0.32632L0.540123 0.263092L0.603195 0.2075L0.676423 0.159409L0.757134 0.118954L0.848001 0.0809102L0.949024 0.053181L1.06261 0.0304083L1.18621 0.0127259L1.32238 0.00254519L1.47137 0L1.56478 0L1.65057 0.00254519L1.72874 0.00509038L1.79943 0.00763557L1.8625 0.0127259L1.92063 0.0178163L1.97101 0.0227727L2.01644 0.0278631L2.05947 0.0329535L2.09475 0.0404551L2.12749 0.0455455L2.15782 0.0506359L2.18308 0.0555923L2.20579 0.0581375L2.22851 0.0633618L2.24869 0.065907L2.12 0.637637" transform="translate(6.824098 6.620838)" id="Fill-18" fill="#FFFFFE" fill-rule="evenodd" stroke="none" />
      <path d="M0.497229 0L1.19623 0L1.09281 0.612185L1.51427 0.612185L1.4234 1.18391L0.979224 1.17132L0.736957 2.58296L0.734418 2.6336L0.746979 2.6766L0.772368 2.70942L0.805107 2.73728L0.85054 2.75497L0.901051 2.77024L0.956507 2.78028L1.01704 2.78537L1.07263 2.78283L1.12301 2.77774L1.16857 2.77024L1.2088 2.76006L1.24167 2.75001L1.26439 2.74237L1.27962 2.73728L1.28456 2.73487L1.19623 3.20533L1.1786 3.21792L1.16096 3.2281L1.14332 3.23815L1.12555 3.24846L1.10791 3.25597L1.08773 3.2636L1.06501 3.27124L1.0423 3.27874L1.01704 3.28637L0.991785 3.29133L0.961585 3.29642L0.931251 3.30151L0.898512 3.30647L0.860696 3.31156L0.820207 3.31665L0.777312 3.3216L0.585556 3.3216L0.484534 3.3141L0.396206 3.30406L0.315495 3.28879L0.247345 3.27124L0.18935 3.24846L0.141378 3.22301L0.09835 3.19274L0.0656112 3.15978L0.0404892 3.12442L0.0227167 3.08142L0.0101557 3.03829L0.00253893 2.99033L0 2.93715L0 2.88142L0.00761678 2.82342L0.0150999 2.76006L0.497229 0" transform="translate(9.04499 6.061835)" id="Fill-20" fill="#FFFFFE" fill-rule="evenodd" stroke="none" />
      <path d="M0.736823 1.57882L0.72934 1.62169L0.726801 1.66723L0.731879 1.71532L0.742034 1.76341L0.759673 1.8115L0.779851 1.85705L0.807646 1.90501L0.837846 1.94801L0.873257 1.99114L0.911073 2.02905L0.951429 2.06696L0.996862 2.09737L1.0423 2.12523L1.09281 2.14801L1.14318 2.16555L1.1937 2.17587L1.25931 2.18591L1.32238 2.19342L1.38812 2.20105L1.4536 2.20614L1.51921 2.20869L1.58736 2.20869L1.65297 2.20614L1.72126 2.20105L1.78927 2.19101L1.85742 2.17828L1.92811 2.16314L1.99626 2.14037L2.06695 2.11251L2.14005 2.0821L2.21074 2.04178L2.28396 1.99864L2.18294 2.62101L2.14272 2.64124L2.10223 2.6616L2.06187 2.67673L2.02406 2.69187L1.98624 2.7046L1.94575 2.71719L1.9054 2.72737L1.8625 2.73487L1.81707 2.74251L1.76669 2.74746L1.71364 2.75255L1.65551 2.75764L1.59004 2.76019L1.52189 2.76019L1.44358 2.7626L1.36033 2.7626L1.23659 2.76019L1.11045 2.74746L0.984301 2.72978L0.858023 2.69951L0.734418 2.6616L0.615756 2.61337L0.502173 2.55028L0.396206 2.47687L0.297722 2.39087L0.211933 2.28719L0.138839 2.17078L0.0781722 2.03669L0.0352777 1.88732L0.00748315 1.71787L0 1.5306L0.0126946 1.3231L0.0227167 1.24232L0.0379503 1.14868L0.0579944 1.04996L0.085789 0.943595L0.123739 0.834956L0.169039 0.726048L0.227167 0.614864L0.297722 0.508502L0.378567 0.407364L0.477051 0.311183L0.587962 0.225182L0.71424 0.149362L0.860562 0.0860006L1.02466 0.0404551L1.20639 0.0101808L1.41071 0L1.50919 0.00254519L1.61262 0.0127259L1.71618 0.0304083L1.81961 0.0555923L1.9205 0.0936361L2.01898 0.139182L2.10985 0.199864L2.1931 0.270728L2.26886 0.356728L2.33194 0.458L2.38231 0.574409L2.41773 0.708366L2.4379 0.86014L2.44044 1.03214L2.4228 1.2245L2.38485 1.43709L2.37229 1.59128L0.532506 1.59128L0.648629 1.09296L1.754 1.09296L1.75907 1.02973L1.75654 0.969047L1.75146 0.913321L1.74144 0.862819L1.72366 0.814594L1.70602 0.771594L1.68077 0.733684L1.65551 0.698319L1.62531 0.667911L1.59244 0.642593L1.55462 0.61982L1.51681 0.599593L1.47645 0.584456L1.43596 0.574409L1.39307 0.566773L1.34764 0.561683L1.29966 0.564228L1.25436 0.57173L1.21133 0.58191L1.16844 0.597048L1.12555 0.617275L1.08773 0.640182L1.04991 0.667911L1.01704 0.698319L0.984301 0.733684L0.953968 0.771594L0.926173 0.812049L0.90359 0.855183L0.88074 0.900729L0.863101 0.951365L0.848001 1.00187L0.837846 1.05491L0.736823 1.57882" transform="translate(10.380064 6.620838)" id="Fill-22" fill="#FFFFFE" fill-rule="evenodd" stroke="none" />
      <path d="M2.5742 0.877822L2.54146 0.86014L2.50873 0.845002L2.47331 0.827186L2.4355 0.809504L2.39768 0.794367L2.35465 0.779096L2.31176 0.763958L2.26633 0.748821L2.21849 0.736229L2.17038 0.726048L2.11746 0.715868L2.06441 0.708366L2.00642 0.703276L1.94829 0.698185L1.76161 0.698185L1.696 0.703276L1.62785 0.710911L1.5573 0.723503L1.48647 0.743731L1.41592 0.771594L1.34523 0.806959L1.27441 0.852504L1.20652 0.90823L1.14078 0.974003L1.07771 1.05491L1.01717 1.14855L0.961718 1.25987L0.908534 1.38632L0.860696 1.52805L0.82034 1.68987L0.80524 1.78096L0.794951 1.86951L0.789873 1.95805L0.792546 2.04419L0.800162 2.13005L0.817668 2.2111L0.840384 2.28692L0.868179 2.36301L0.906129 2.43119L0.951429 2.4971L1.00448 2.5551L1.06501 2.60828L1.1333 2.65383L1.21147 2.69187L1.29726 2.72469L1.3932 2.74746L1.42594 2.75497L1.46376 2.7626L1.50919 2.76769L1.5597 2.77278L1.61516 2.77774L1.73636 2.77774L1.79943 2.77278L1.86504 2.76515L1.93079 2.75255L1.99372 2.73487L2.05693 2.71464L2.12 2.68678L2.178 2.65383L2.23105 2.61337L2.28156 2.56783L2.16798 3.24337L2.15288 3.25597L2.13764 3.2711L2.11746 3.28892L2.09475 3.30406L2.06695 3.32428L2.03154 3.34197L1.99132 3.35965L1.94589 3.37479L1.88776 3.3926L1.82215 3.40519L1.74651 3.41537L1.65805 3.42542L1.5597 3.43051L1.44625 3.43306L1.31744 3.43051L1.17606 3.42301L1.06007 3.41028L0.943946 3.3851L0.827957 3.34706L0.711701 3.29642L0.600656 3.23574L0.49469 3.15978L0.393801 3.07137L0.300395 2.9701L0.217011 2.85624L0.146456 2.72978L0.0859226 2.58805L0.0404892 2.43374L0.0101557 2.26415L0 2.08464L0.00507785 1.88732L0.0328724 1.67728L0.0530502 1.5736L0.0757669 1.47232L0.101023 1.37373L0.126278 1.2801L0.154073 1.19155L0.186811 1.103L0.219684 1.01955L0.254828 0.94105L0.292912 0.862551L0.330728 0.789276L0.373489 0.718413L0.418923 0.65264L0.46449 0.589412L0.514867 0.528729L0.565379 0.473003L0.618295 0.419956L0.676423 0.36932L0.734418 0.32123L0.794951 0.278229L0.858157 0.237774L0.926307 0.19973L0.994457 0.166911L1.06501 0.136502L1.13824 0.108639L1.21655 0.0834554L1.29472 0.0632278L1.37543 0.0454115L1.46135 0.0302743L1.54701 0.0175484L1.63801 0.00750161L1.72887 0.00241123L1.82482 0L1.90553 0.00241123L1.9837 0.00750161L2.05934 0.0150032L2.1351 0.025184L2.20579 0.0353647L2.27394 0.0505019L2.33955 0.0632278L2.40009 0.078365L2.45821 0.0935022L2.50873 0.108639L2.55656 0.12391L2.59705 0.139048L2.63233 0.151774L2.66253 0.16182L2.68538 0.172001L2.70035 0.177092L2.5742 0.877822" transform="translate(14.561809 5.947971)" id="Fill-24" fill="#FFFFFE" fill-rule="evenodd" stroke="none" />
      <path d="M2.31176 3.30901L1.61275 3.30901L1.66313 3.02837L1.66313 3.00292L1.62291 3.05356L1.57988 3.0991L1.53699 3.13969L1.49155 3.17506L1.44612 3.20801L1.40082 3.23587L1.35539 3.25864L1.30728 3.28128L1.25944 3.29897L1.1635 3.32442L1.11298 3.33192L1.06247 3.33955L1.01463 3.34451L0.964124 3.34719L0.913612 3.34719L0.782524 3.33688L0.66119 3.30901L0.550145 3.26615L0.449256 3.20801L0.358389 3.1346L0.277678 3.0486L0.206989 2.95496L0.146456 2.84874L0.0959447 2.73474L0.0555891 2.61605L0.0277946 2.49201L0.00761678 2.36301L0 2.23387L0.00267255 2.10233L0.0150999 1.97332L0.0378166 1.84432L0.0757669 1.6951L0.1212 1.55337L0.17425 1.42437L0.237323 1.30287L0.302934 1.189L0.378567 1.08787L0.456873 0.996776L0.540123 0.913321L0.628451 0.839912L0.72199 0.776684L0.817801 0.721092L0.913612 0.677958L1.01463 0.642593L1.11552 0.61982L1.21655 0.604549L1.31997 0.599593L1.3932 0.602004L1.46376 0.609774L1.52937 0.622365L1.59004 0.640048L1.64803 0.660275L1.69854 0.683048L1.74905 0.710911L1.79449 0.73864L1.83484 0.769049L1.87266 0.802002L1.9054 0.834822L1.93586 0.867775L1.96099 0.900729L1.9837 0.933548L2.00388 0.963957L2.01911 0.994231L2.19577 0L2.88222 0L2.31176 3.30901" transform="translate(21.037672 6.0744267)" id="Fill-26" fill="#FFFFFE" fill-rule="evenodd" stroke="none" />
      <path d="M0.35585 1.4876L0.42654 1.48264L0.492151 1.4675L0.552684 1.44969L0.610812 1.42182L0.663729 1.39141L0.71424 1.3535L0.762079 1.31064L0.805107 1.26496L0.842923 1.21446L0.878201 1.15873L0.911073 1.10059L0.938868 1.03978L0.96399 0.976683L0.984168 0.91091L1.00181 0.842591L1.0145 0.774273L1.0272 0.70341L1.03468 0.630001L1.03468 0.561683L1.03214 0.490953L1.02466 0.425046L1.0145 0.361819L0.996862 0.301136L0.976685 0.242865L0.951429 0.192363L0.921229 0.144272L0.888357 0.103817L0.850406 0.0683182L0.807512 0.0380439L0.762079 0.0176824L0.71424 0.00509038L0.66119 0L0.59304 0.00509038L0.529967 0.0152711L0.471839 0.0354987L0.413845 0.0608166L0.363334 0.0936361L0.312956 0.134225L0.270062 0.177225L0.227033 0.225182L0.189217 0.280774L0.153939 0.339046L0.121067 0.399729L0.0932721 0.465502L0.0681501 0.53382L0.0479723 0.602138L0.0276609 0.675547L0.0126946 0.748955L0 0.860274L0.00507785 0.981639L0.0227167 1.10568L0.0554555 1.2245L0.105967 1.32832L0.171578 1.41178L0.254828 1.4675L0.35585 1.4876" transform="translate(21.850395 7.283659)" id="Fill-28" fill="#F1AD3D" fill-rule="evenodd" stroke="none" />
      <path d="M2.29906 2.18082L2.19818 2.74237L1.56224 2.74237L1.57988 2.63869L1.59257 2.54519L1.6026 2.47446L1.61275 2.43628L1.57734 2.47687L1.53699 2.51733L1.48901 2.55524L1.4361 2.59073L1.37543 2.6261L1.31236 2.65651L1.24675 2.68678L1.1786 2.7121L1.10537 2.73487L1.03227 2.75269L0.959046 2.76783L0.883413 2.77787L0.810185 2.78296L0.736957 2.78551L0.666268 2.77787L0.598117 2.76783L0.50979 2.74505L0.429078 2.71987L0.358389 2.68678L0.295317 2.64887L0.239862 2.60842L0.18935 2.56287L0.148995 2.51478L0.113584 2.46414L0.08325 2.4111L0.058128 2.35537L0.0378166 2.29978L0.0227167 2.24419L0.0126946 2.18591L0.00507785 2.12778L0 2.07205L0 2.01646L0.00761678 1.91773L0.0227167 1.8241L0.0479723 1.73555L0.0807111 1.64955L0.1212 1.56864L0.166634 1.49523L0.21955 1.4245L0.280217 1.36114L0.343289 1.30287L0.413979 1.24982L0.487073 1.20186L0.56284 1.16128L0.643551 1.12591L0.726934 1.09805L0.812723 1.07528L0.900918 1.06014L0.906129 1.06014L0.91869 1.05746L0.936463 1.05505L0.964124 1.0525L0.994323 1.04741L1.02973 1.045L1.06755 1.03978L1.11045 1.03469L1.15334 1.02973L1.19623 1.02464L1.24167 1.02223L1.28216 1.01714L1.32251 1.01459L1.36033 1.01191L1.39574 1.0095L1.48153 1.0095L1.54206 1.01191L1.59752 1.01459L1.65311 1.01459L1.69854 1.01714L1.73382 1.01955L1.75907 1.02223L1.76656 1.02223L1.77177 1.00441L1.78687 0.958866L1.79943 0.905819L1.80451 0.857728L1.79435 0.802002L1.77177 0.751366L1.74144 0.705821L1.70108 0.667911L1.65311 0.635091L1.60006 0.612319L1.53952 0.597048L1.47391 0.592091L1.40322 0.589546L1.32746 0.587001L1.24929 0.587001L1.16844 0.589546L1.08519 0.594636L1.00448 0.602138L0.923768 0.609774L0.845462 0.619954L0.769829 0.630001L0.696601 0.642593L0.63099 0.655319L0.570457 0.667911L0.514867 0.683182L0.469434 0.698319L0.434156 0.716002L0.406362 0.731139L0.585556 0.121499L0.641012 0.0987265L0.696601 0.078499L0.757134 0.0606827L0.817668 0.0480907L0.878335 0.0353647L0.943946 0.0253179L1.00956 0.0152711L1.07771 0.0101808L1.1484 0.00509038L1.22149 0.00254519L1.29726 0L1.53952 0L1.62785 0.00254519L1.71618 0.00509038L1.78687 0.0101808L1.8625 0.0227727L1.94081 0.0405891L2.02152 0.0632278L2.09983 0.0936361L2.17546 0.129135L2.25123 0.172001L2.32191 0.220092L2.38485 0.275818L2.44044 0.336501L2.49095 0.404819L2.52877 0.480773L2.55403 0.561683L2.56913 0.647683L2.56913 0.743865L2.55403 0.845003L2.29906 2.18082" transform="translate(4.408911 6.641066)" id="Fill-29" fill="#FFFFFE" fill-rule="evenodd" stroke="none" />
      <path d="M0.905996 0.0455455L0.903457 0.0329535L0.893435 0.0202275L0.878201 0.012592L0.853079 0.00750161L0.825285 0.00254519L0.792412 0L0.716779 0L0.67629 0.00254519L0.633395 0.00750161L0.59304 0.012592L0.552684 0.0176824L0.514867 0.0226388L0.479456 0.0304083L0.449256 0.0380439L0.421462 0.0455455L0.403689 0.0505019L0.383511 0.0581375L0.35585 0.0683182L0.328056 0.0809102L0.295184 0.0960474L0.262445 0.113864L0.227167 0.131546L0.194295 0.151774L0.159017 0.177092L0.126145 0.202275L0.0959447 0.232818L0.0681501 0.263092L0.0428945 0.296046L0.0252556 0.33141L0.0100221 0.371865L0.00253893 0.412454L0 0.498321L0.012561 0.566773L0.0378166 0.617275L0.070689 0.655185L0.108506 0.680637L0.151534 0.695774L0.191756 0.70341L0.232245 0.705821L0.307878 0.70341L0.376028 0.695774L0.441639 0.685593L0.499634 0.670322L0.550145 0.652774L0.598117 0.630001L0.641012 0.607228L0.678829 0.579365L0.711701 0.554047L0.742034 0.523773L0.767156 0.49591L0.787334 0.465502L0.805107 0.435227L0.820207 0.404819L0.832768 0.376956L0.840384 0.349093L0.860562 0.275818L0.878201 0.192229L0.893435 0.111318L0.905996 0.0455455" transform="translate(5.1938405 8.11607)" id="Fill-31" fill="#D82332" fill-rule="evenodd" stroke="none" />
      <path d="M0.686445 3.3216L0 3.3216L0.572862 0L1.76656 0L1.88014 1.97078L2.70543 0L3.95217 0L3.36662 3.3216L2.68017 3.3216L3.11419 0.839912L3.08653 0.839912L2.05934 3.3216L1.28456 3.3216L1.27948 3.21792L1.26185 2.9421L1.23913 2.55014L1.18862 1.64687L1.1659 1.24969L1.14826 0.961277L1.14318 0.839912L1.10537 0.839912L0.686445 3.3216" transform="translate(0.711701 6.061835)" id="Fill-32" fill="#FFFFFE" fill-rule="evenodd" stroke="none" />
      <path d="M2.2865 2.18082L2.18308 2.74237L1.54968 2.74237L1.55462 2.63869L1.55716 2.5476L1.55716 2.47942L1.56211 2.44901L1.52937 2.48692L1.49155 2.52483L1.44612 2.56033L1.39561 2.59582L1.34269 2.62864L1.28202 2.65892L1.21895 2.68933L1.15588 2.71464L1.08773 2.73487L1.01704 2.7551L0.946351 2.76783L0.875796 2.77787L0.802568 2.78296L0.731879 2.78551L0.663729 2.77787L0.595579 2.76783L0.504712 2.74505L0.424001 2.71987L0.353312 2.68678L0.2877 2.64887L0.232111 2.60842L0.184273 2.56287L0.143783 2.51478L0.108506 2.46414L0.0783058 2.4111L0.0555891 2.35537L0.0354113 2.29978L0.0227167 2.24419L0.0126946 2.18591L0.00507785 2.12778L0 2.07205L0 2.01646L0.00507785 1.91773L0.0201778 1.8241L0.0428945 1.73555L0.0756333 1.64955L0.113584 1.56864L0.161556 1.49523L0.214472 1.4245L0.2726 1.36114L0.338078 1.30287L0.406362 1.24982L0.479456 1.20186L0.557762 1.16128L0.636068 1.12591L0.719318 1.09805L0.802568 1.07528L0.888357 1.06014L0.893301 1.06014L0.905996 1.05746L0.923634 1.05505L0.94889 1.0525L0.981763 1.04741L1.01704 1.045L1.05486 1.03978L1.09521 1.03469L1.13824 1.02973L1.18354 1.02464L1.22657 1.02223L1.26946 1.01714L1.30982 1.01459L1.3451 1.01191L1.38051 1.0095L1.46884 1.0095L1.52937 1.01191L1.58736 1.01459L1.64295 1.01459L1.69092 1.01714L1.73128 1.01955L1.754 1.02223L1.76415 1.02223L1.7691 1.00441L1.77671 0.958866L1.7842 0.905819L1.78941 0.857728L1.77912 0.802002L1.75907 0.751366L1.7262 0.705821L1.68839 0.667911L1.64295 0.635091L1.5899 0.612319L1.53431 0.597048L1.47378 0.592091L1.40322 0.589546L1.32746 0.587001L1.24929 0.587001L1.16844 0.589546L1.08519 0.594636L1.00448 0.602138L0.923634 0.609774L0.845462 0.619954L0.769829 0.630001L0.696601 0.642593L0.63099 0.655319L0.570323 0.667911L0.514734 0.683182L0.469434 0.698319L0.434023 0.716002L0.406362 0.731139L0.583018 0.121499L0.638473 0.0987265L0.696601 0.078499L0.754462 0.0606827L0.815262 0.0480907L0.878201 0.0353647L0.941407 0.0253179L1.00688 0.0152711L1.07517 0.0101808L1.14572 0.00509038L1.21895 0.00254519L1.29218 0L1.52937 0L1.61516 0.00254519L1.70095 0.00509038L1.77164 0.0101808L1.8474 0.0227727L1.92557 0.0405891L2.00642 0.0632278L2.08473 0.0936361L2.16276 0.129135L2.23853 0.172001L2.30922 0.220092L2.37229 0.275818L2.43029 0.336501L2.4808 0.404819L2.51875 0.480773L2.54654 0.561683L2.56405 0.647683L2.56405 0.743865L2.55149 0.845003L2.2865 2.18082" transform="translate(16.946795 6.641066)" id="Fill-34" fill="#FFFFFE" fill-rule="evenodd" stroke="none" />
      <path d="M0.0150999 0.581776L0.0301999 0.566639L0.133761 0.00509038L0.103428 0L0 0.561549L0.0150999 0.546412L0.0150999 0.581776L0.0276609 0.579365L0.0301999 0.566639L0.0150999 0.581776" transform="translate(19.11477 8.819479)" id="Fill-35" fill="#FFFFFE" fill-rule="evenodd" stroke="none" />
      <path d="M0.0024053 0.0668447L0.0177725 0.084661L0.651168 0.084661L0.651168 0.0492963L0.0177725 0.0492963L0.0327388 0.0668447L0.0024053 0.0668447L0 0.084661L0.0177725 0.084661L0.0024053 0.0668447" transform="translate(18.478703 9.316595)" id="Fill-36" fill="#FFFFFE" fill-rule="evenodd" stroke="none" />
      <path d="M0.0870584 0.0200936L0.0643417 0L0.054186 0.0404551L0.0516471 0.108639L0.0516471 0.19973L0.0465692 0.303413L0.0769027 0.303413L0.0819806 0.19973L0.0870584 0.108639L0.0845195 0.0404551L0.0845195 0.0200936L0.0619364 0L0.0870584 0.0200936" transform="translate(18.434538 9.080026)" id="Fill-37" fill="#FFFFFE" fill-rule="evenodd" stroke="none" />
      <path d="M0 0.344002L0 0.344002L0.070689 0.354049L0.138839 0.361685L0.209528 0.359139L0.282756 0.354049L0.35585 0.344002L0.42654 0.331276L0.497229 0.311049L0.567784 0.290955L0.63099 0.265503L0.696467 0.235229L0.757134 0.204821L0.810185 0.169456L0.863101 0.134091L0.908535 0.0985926L0.94889 0.0580035L0.981762 0.0200936L0.95664 0L0.923768 0.0379099L0.888357 0.0734086L0.842923 0.108639L0.795085 0.144138L0.742034 0.174546L0.681368 0.204821L0.620834 0.235229L0.557762 0.260547L0.492151 0.280908L0.421462 0.301002L0.350773 0.313728L0.282756 0.323775L0.209528 0.328865L0.138839 0.331276L0.070689 0.323775L0.00507785 0.313728L0 0.344002" transform="translate(17.539835 9.080026)" id="Fill-38" fill="#FFFFFE" fill-rule="evenodd" stroke="none" />
      <path d="M0 0L0 0L0.00253893 0.0555923L0.00761678 0.111318L0.0150999 0.172001L0.0252556 0.230139L0.0378166 0.285731L0.0579944 0.344002L0.0808447 0.40214L0.113584 0.455321L0.148861 0.508368L0.189217 0.556592L0.239728 0.604549L0.297856 0.645138L0.363467 0.685593L0.436562 0.718413L0.519945 0.743731L0.610678 0.766504L0.615756 0.736229L0.52489 0.713456L0.446717 0.688005L0.378567 0.655185L0.312956 0.61982L0.259772 0.579365L0.214472 0.536231L0.174117 0.48814L0.138706 0.440184L0.111045 0.387003L0.0883279 0.333955L0.0681501 0.280774L0.0554555 0.225048L0.0454334 0.167045L0.0378166 0.111318L0.0327388 0.0555923L0.0352777 0L0 0" transform="translate(16.929155 8.657525)" id="Fill-39" fill="#FFFFFE" fill-rule="evenodd" stroke="none" />
      <path d="M0.905996 0L0.905996 0L0.817668 0.0151372L0.731879 0.0379099L0.648629 0.0656391L0.567784 0.101004L0.489478 0.141593L0.413845 0.192095L0.345695 0.24541L0.280084 0.306092L0.21955 0.369186L0.1665 0.440184L0.115989 0.516003L0.0781722 0.599459L0.0454334 0.685593L0.0227167 0.77655L0.00761678 0.872732L0 0.971458L0.0352777 0.971458L0.0378166 0.872732L0.0530502 0.781641L0.0756333 0.69564L0.108506 0.60964L0.146322 0.531141L0.191756 0.460411L0.244672 0.389548L0.300261 0.32632L0.365873 0.270594L0.434023 0.217547L0.504712 0.172001L0.582884 0.131412L0.658651 0.0960474L0.741901 0.0681842L0.822612 0.0454115L0.905996 0.0302743L0.905996 0" transform="translate(16.929155 7.6860666)" id="Fill-40" fill="#FFFFFE" fill-rule="evenodd" stroke="none" />
      <path d="M0.519945 0.0252509L0.492151 0.0252509L0.456739 0.0302074L0.421462 0.0328865L0.381106 0.0352977L0.338212 0.0402542L0.295184 0.0429333L0.249884 0.0480237L0.206856 0.0529801L0.1665 0.0580705L0.128683 0.0631609L0.0934057 0.065706L0.0605333 0.0707964L0.0352777 0.0732077L0.0150999 0.0757528L0.00494422 0.078432L0 0.078432L0 0.108706L0.00494422 0.108706L0.0201778 0.106161L0.0352777 0.103616L0.0605333 0.101071L0.0934057 0.0959804L0.128683 0.0935692L0.1665 0.0884788L0.206856 0.0833884L0.249884 0.078432L0.295184 0.0732077L0.338212 0.0707964L0.381106 0.065706L0.421462 0.0631609L0.456739 0.0606157L0.519945 0.0606157L0.519945 0.0252509" transform="translate(17.835152 7.6076345)" id="Fill-41" fill="#FFFFFE" fill-rule="evenodd" stroke="none" />
      <path d="M0.340617 0.0707294L0.355851 0.0580035L0.345695 0.0580035L0.322978 0.0555923L0.282623 0.0530471L0.23465 0.0479567L0.121067 0.0479567L0.0605333 0.0430003L0 0.0430003L0 0.078365L0.121067 0.078365L0.179061 0.0834554L0.282623 0.0834554L0.322978 0.0858666L0.345695 0.0885458L0.355851 0.0885458L0.370817 0.0758198L0.355851 0.0885458L0.368412 0.090957L0.370817 0.0758198L0.340617 0.0707294" transform="translate(18.355097 7.589885)" id="Fill-42" fill="#FFFFFE" fill-rule="evenodd" stroke="none" />
      <path d="M0.0630723 0L0.0605333 0L0.0579944 0.0480907L0.0505113 0.0985926L0.0428945 0.144138L0.0378166 0.16182L0.0680165 0.166911L0.0730943 0.149094L0.0807111 0.103683L0.0883279 0.0480907L0.095811 0L0.0630723 0" transform="translate(18.657898 7.4987946)" id="Fill-43" fill="#FFFFFE" fill-rule="evenodd" stroke="none" />
      <path d="M0 0.0329535L0 0.0354987L0.058128 0.0380439L0.111045 0.053181L0.161556 0.0759538L0.20445 0.106362L0.239728 0.141727L0.270195 0.184727L0.290373 0.230273L0.300395 0.283454L0.330728 0.283454L0.320573 0.225316L0.300395 0.16959L0.265117 0.121499L0.224762 0.0810442L0.176656 0.0456794L0.1212 0.0227727L0.0632059 0.00763556L0 0L0 0.0329535" transform="translate(18.420574 7.2153406)" id="Fill-44" fill="#FFFFFE" fill-rule="evenodd" stroke="none" />
      <path d="M0 0.159409L0.025122 0.174546L0.0503776 0.16182L0.08325 0.144138L0.126145 0.129001L0.1816 0.113864L0.242133 0.101138L0.307745 0.0885458L0.380973 0.0758198L0.4542 0.065773L0.532373 0.0555923L0.613217 0.0480907L0.693928 0.0404551L0.777179 0.0353647L1.01196 0.0353647L1.08252 0.0379099L1.08252 0.00750161L1.01196 0.00495642L0.936195 0L0.858023 0L0.777179 0.00495642L0.693928 0.0100468L0.613217 0.0176824L0.532373 0.0253179L0.4542 0.0353647L0.375895 0.0455455L0.302667 0.0581375L0.237189 0.0708634L0.176522 0.0834554L0.121067 0.0985925L0.0730943 0.113864L0.0351441 0.131546L0.00494422 0.149228L0.0301999 0.164366L0 0.159409" transform="translate(17.338057 7.2103844)" id="Fill-45" fill="#FFFFFE" fill-rule="evenodd" stroke="none" />
      <path d="M0.186678 0L0.176522 0.012592L0 0.622365L0.0301999 0.627322L0.206856 0.0176824L0.1967 0.0302743L0.186678 0L0.179061 0.00241123L0.176522 0.012592L0.186678 0" transform="translate(17.338057 6.747428)" id="Fill-46" fill="#FFFFFE" fill-rule="evenodd" stroke="none" />
      <path d="M1.12301 0.00763557L1.12301 0.00763557L1.03722 0.00254519L0.951429 0L0.71424 0L0.641012 0.00509038L0.567784 0.00763557L0.497229 0.0127259L0.428945 0.0176824L0.360795 0.0278631L0.297856 0.0379099L0.23465 0.0506358L0.174117 0.0633618L0.113584 0.0809102L0.0554555 0.101138L0 0.124044L0.0100221 0.154319L0.0656112 0.131546L0.123606 0.111318L0.179195 0.0936361L0.239728 0.0809102L0.302934 0.0683182L0.365873 0.0582714L0.428945 0.0480907L0.497229 0.0430003L0.567784 0.0379099L0.641012 0.0354987L0.951429 0.0354987L1.03722 0.0379099L1.12301 0.0379099L1.12301 0.00763557" transform="translate(17.524734 6.6233835)" id="Fill-47" fill="#FFFFFE" fill-rule="evenodd" stroke="none" />
      <path d="M0.86564 0.857594L0.86564 0.857594L0.878335 0.753912L0.878335 0.65773L0.860696 0.569184L0.832901 0.485729L0.792546 0.407364L0.741901 0.336501L0.681368 0.273273L0.618295 0.217547L0.545201 0.169456L0.469434 0.12391L0.388723 0.0885458L0.310417 0.0581375L0.227167 0.0353647L0.148995 0.0176824L0.070689 0.00509038L0 0L0 0.0302743L0.070689 0.0353647L0.143917 0.0479567L0.222223 0.065773L0.300261 0.0885458L0.378567 0.11882L0.454334 0.154319L0.529967 0.194774L0.598117 0.242865L0.661323 0.298591L0.716779 0.356728L0.76729 0.422367L0.802568 0.49591L0.830229 0.574275L0.848001 0.65773L0.848001 0.753912L0.835307 0.852638L0.86564 0.857594" transform="translate(18.647741 6.631019)" id="Fill-48" fill="#FFFFFE" fill-rule="evenodd" stroke="none" />
      <path d="M0.0303335 1.34091L0.0303335 1.34091L0.295184 0.00495642L0.26485 0L0 1.33582L0.0303335 1.34091" transform="translate(19.218199 7.4836574)" id="Fill-49" fill="#FFFFFE" fill-rule="evenodd" stroke="none" />
      <path d="M0.890762 0.0480907L0.885818 0.0329535L0.875796 0.0202275L0.858023 0.0127259L0.832768 0.00509038L0.804973 0.00254519L0.772234 0L0.734284 0L0.696467 0.00254519L0.656112 0.00763557L0.615623 0.0127259L0.575401 0.0176824L0.53745 0.0227727L0.499634 0.0304083L0.466761 0.0354987L0.434023 0.0430003L0.408767 0.0480907L0.391128 0.0506358L0.37095 0.0582714L0.345695 0.065773L0.3179 0.0758198L0.285161 0.091091L0.254828 0.106228L0.21955 0.124044L0.153805 0.16959L0.121067 0.197453L0.0932721 0.225182L0.0654776 0.258136L0.0428945 0.293366L0.025122 0.331544L0.0100221 0.371865L0.00253893 0.415L0 0.500866L0.012561 0.569318L0.0327388 0.61982L0.0630723 0.65773L0.100889 0.683182L0.143783 0.698319L0.186678 0.705955L0.229572 0.708366L0.305339 0.705955L0.375895 0.698319L0.441639 0.685593L0.499634 0.667911L0.555223 0.647683L0.603195 0.624911L0.648495 0.599593L0.688851 0.569318L0.724262 0.541321L0.754462 0.508502L0.782256 0.478094L0.804973 0.445274L0.822612 0.415L0.835307 0.384591L0.845329 0.354183L0.852945 0.326454L0.863101 0.255457L0.875796 0.182182L0.885818 0.111318L0.890762 0.0480907" transform="translate(17.731724 8.113524)" id="Fill-50" fill="#F1AD3D" fill-rule="evenodd" stroke="none" />
      <path d="M0 0.341591L0.00507785 0.28332L0.0252556 0.215001L0.0605333 0.154319L0.103561 0.101272L0.156478 0.0581375L0.217011 0.0278631L0.282623 0.00750161L0.353312 0L0.424001 0.00750161L0.489612 0.0278631L0.550145 0.0581375L0.603195 0.101272L0.64609 0.154319L0.681501 0.215001L0.701545 0.28332L0.706623 0.341591L0.63099 0.341591L0.628317 0.296046L0.613217 0.240319L0.588095 0.189817L0.555223 0.146683L0.514867 0.111318L0.466761 0.0860006L0.411306 0.0683182L0.353312 0.0630939L0.295317 0.0683182L0.239728 0.0860006L0.191889 0.111318L0.1514 0.146683L0.118661 0.189817L0.0932721 0.240319L0.0781722 0.296046L0.073228 0.341591L0 0.341591" transform="translate(23.821404 8.695435)" id="Fill-51" fill="#FFFFFE" fill-rule="evenodd" stroke="none" />
      <path d="M0 0.151774L0 0L0.138839 0L0.169173 0.00241123L0.196967 0.00750161L0.217145 0.0151372L0.234784 0.025184L0.247478 0.0404551L0.2575 0.0555923L0.262578 0.0732746L0.265117 0.090957L0.262578 0.11373L0.2575 0.131412L0.250017 0.146549L0.244806 0.151774L0.138839 0.151774L0.148995 0.149228L0.166767 0.146549L0.181867 0.141593L0.194428 0.136502L0.204584 0.129001L0.209662 0.121365L0.214606 0.108639L0.214606 0.090957L0.212067 0.078365L0.206989 0.0683182L0.199506 0.0630939L0.191889 0.0580035L0.179195 0.0555923L0.166767 0.0530471L0.0632059 0.0530471L0.0632059 0.151774L0 0.151774" transform="translate(24.048437 8.885252)" id="Fill-52" fill="#FFFFFE" fill-rule="evenodd" stroke="none" />
      <path d="M0.00253893 0L0 0.0151372L0.00761678 0.0885458L0.0277946 0.15673L0.0630723 0.217547L0.1061 0.268182L0.159017 0.311183L0.21955 0.344002L0.285161 0.36423L0.35585 0.371865L0.42654 0.36423L0.492151 0.344002L0.552684 0.311183L0.605734 0.268182L0.648629 0.217547L0.68404 0.15673L0.704084 0.0885458L0.711701 0.0151372L0.709162 0L0.633529 0L0.635934 0.0151372L0.630856 0.0758198L0.615756 0.131546L0.590634 0.179503L0.557762 0.222503L0.517406 0.258002L0.4693 0.285731L0.413845 0.303547L0.35585 0.308504L0.297856 0.303547L0.242267 0.285731L0.194428 0.258002L0.153939 0.222503L0.1212 0.179503L0.095811 0.131546L0.0807111 0.0758198L0.0757669 0.0151372L0.0757669 0L0.00253893 0" transform="translate(23.818865 9.037025)" id="Fill-53" fill="#FFFFFE" fill-rule="evenodd" stroke="none" />
      <path d="M0 0L0 0.154319L0.0632059 0.154319L0.0632059 0.0278631L0.126278 0.0278631L0.202045 0.154319L0.252423 0.154319L0.176789 0.0278631L0.194428 0.0278631L0.212067 0.0226388L0.227301 0.0175484L0.239728 0.00750161L0.244806 0L0.138839 0L0.126278 0.00241123L0.0632059 0.00241123L0.0632059 0L0 0" transform="translate(24.048437 9.037025)" id="Fill-54" fill="#FFFFFE" fill-rule="evenodd" stroke="none" />
      <path d="M0 2.73728L0.711701 2.73728L0.966796 1.29778L0.976685 1.24219L0.991918 1.18646L1.00702 1.13087L1.0272 1.07528L1.05245 1.01955L1.08279 0.966502L1.11552 0.915866L1.15601 0.867775L1.20145 0.824775L1.25169 0.78432L1.30982 0.746276L1.37543 0.716002L1.44866 0.690684L1.5295 0.670456L1.61783 0.655185L1.71618 0.650229L1.77925 0.650229L1.89284 0L1.82215 0.00509038L1.754 0.0127259L1.69092 0.0253179L1.63026 0.0430003L1.5748 0.0632278L1.52189 0.0885458L1.47137 0.116409L1.42354 0.146817L1.3781 0.182182L1.33507 0.217547L1.25436 0.298591L1.21655 0.341591L1.17873 0.389682L1.14078 0.435093L1.1055 0.485729L1.18113 0.0278631L0.471973 0.0278631L0 2.73728" transform="translate(19.422514 6.6461563)" id="Fill-56" fill="#FFFFFE" fill-rule="evenodd" stroke="none" />
      <path d="M0 2.73728L0.724262 2.73728L0.966529 1.29778L0.976551 1.24219L1.00194 1.13596L1.01945 1.08532L1.03976 1.03469L1.06488 0.986729L1.09521 0.94105L1.13049 0.898184L1.17098 0.86014L1.21641 0.822364L1.27187 0.791821L1.3324 0.764092L1.40322 0.74132L1.48126 0.721092L1.56719 0.708366L1.66554 0.700731L1.67315 0.700731L1.68331 0.703276L1.69587 0.705821L1.70856 0.705821L1.72112 0.708366L1.73128 0.710911L1.73876 0.713456L1.7413 0.713456L1.75146 0.673001L1.76148 0.627456L1.77417 0.57173L1.79181 0.505957L1.80945 0.435093L1.85489 0.2935L1.87506 0.24541L1.90032 0.197319L1.92557 0.149362L1.9507 0.106228L1.97355 0.0683182L1.99119 0.0380439L2.00388 0.0202275L2.00882 0.0127259L2.00629 0.0127259L1.99613 0.0101808L1.98357 0.00763556L1.96593 0.00509038L1.94829 0.00509038L1.92798 0.00254519L1.91034 0L1.89284 0L1.81453 0.00509038L1.74384 0.0127259L1.67823 0.0253179L1.6177 0.0405891L1.55957 0.0606826L1.50665 0.0860006L1.45868 0.111318L1.41325 0.141727L1.37022 0.174546L1.33 0.212456L1.29205 0.2505L1.25423 0.2935L1.21641 0.336501L1.181 0.384591L1.14318 0.435093L1.10537 0.485729L1.19623 0.0278631L0.471973 0.0278631L0 2.73728" transform="translate(12.739795 6.6461563)" id="Fill-58" fill="#FFFFFE" fill-rule="evenodd" stroke="none" />
      <path d="M0 0.280908L0 0.270594L0.0201778 0.204821L0.0554555 0.146817L0.0984836 0.0961813L0.1514 0.0555923L0.211933 0.025184L0.277545 0.00763557L0.348234 0L0.418923 0.00763557L0.484534 0.025184L0.545067 0.0555923L0.598117 0.0961813L0.641012 0.146817L0.676423 0.204821L0.696467 0.270594L0.696467 0.280908L0.623239 0.280908L0.60814 0.227727L0.583018 0.179637L0.550145 0.136502L0.50979 0.101272L0.461684 0.0734086L0.406228 0.0555923L0.348234 0.0506359L0.290239 0.0555923L0.23465 0.0734086L0.186811 0.101272L0.146322 0.136502L0.113584 0.179637L0.0881943 0.227727L0.0730943 0.280908L0 0.280908" transform="translate(23.82648 11.764262)" id="Fill-60" fill="#F1AD3D" fill-rule="evenodd" stroke="none" />
      <path d="M0 0.111318L0 0.0226388L0.169173 0.0226388L0.196967 0.0277292L0.217145 0.0328195L0.234784 0.0428663L0.247478 0.0555923L0.2575 0.0707294L0.262578 0.0885458L0.265117 0.111318L0.214606 0.111318L0.214606 0.0985926L0.212067 0.0858666L0.206989 0.0758198L0.199506 0.0707294L0.191889 0.065773L0.179195 0.0630939L0.166767 0.0606827L0.0632059 0.0606827L0.0632059 0.111318L0 0.111318" transform="translate(24.048437 11.933852)" id="Fill-61" fill="#F1AD3D" fill-rule="evenodd" stroke="none" />
      <path d="M0.0264583 0.0947748L0.0340751 0.0391825L0.107169 0.0391825L0.107169 0.0415937L0.102225 0.0947748L0.0264583 0.0947748" transform="translate(23.792406 12.005988)" id="Fill-62" fill="#F1AD3D" fill-rule="evenodd" stroke="none" />
      <path d="M0 0.0947748L0 0.0391825L0.0632059 0.0391825L0.0632059 0.0896844L0.126278 0.0896844L0.148995 0.084594L0.166767 0.0820488L0.181867 0.0770924L0.194428 0.072002L0.204584 0.0643665L0.209662 0.0567309L0.214606 0.0441389L0.214606 0.0391825L0.265117 0.0391825L0.262578 0.0567309L0.2575 0.072002L0.250017 0.084594L0.239728 0.0947748L0 0.0947748" transform="translate(24.048437 12.005988)" id="Fill-63" fill="#F1AD3D" fill-rule="evenodd" stroke="none" />
      <path d="M0.0314693 0.0947748L0.0263915 0.0415937L0.0263915 0.0391825L0.0996194 0.0391825L0.107236 0.0947748L0.0314693 0.0947748" transform="translate(24.42333 12.005988)" id="Fill-64" fill="#F1AD3D" fill-rule="evenodd" stroke="none" />
      <path d="M0 0L0 0.00750161L0.00761678 0.0809102L0.0277946 0.149228L0.0630723 0.209911L0.1061 0.263092L0.159017 0.306092L0.21955 0.336367L0.285161 0.356728L0.35585 0.36423L0.42654 0.356728L0.492151 0.336367L0.552684 0.306092L0.605734 0.263092L0.648629 0.209911L0.68404 0.149228L0.704084 0.0809102L0.711701 0.00750161L0.711701 0L0.635934 0L0.635934 0.00750161L0.630856 0.0681842L0.615756 0.12391L0.590634 0.172001L0.557762 0.215001L0.517406 0.2505L0.4693 0.278229L0.413845 0.295912L0.35585 0.301002L0.297856 0.295912L0.242267 0.278229L0.194428 0.2505L0.153939 0.215001L0.1212 0.172001L0.095811 0.12391L0.0807111 0.0681842L0.0757669 0.00750161L0.0757669 0L0 0" transform="translate(23.818865 12.100762)" id="Fill-65" fill="#F1AD3D" fill-rule="evenodd" stroke="none" />
      <path d="M0 0L0 0.146683L0.0632059 0.146683L0.0632059 0.0202275L0.126278 0.0202275L0.202045 0.146683L0.252423 0.146683L0.176789 0.0202275L0.194428 0.0202275L0.212067 0.0151372L0.227301 0.0100468L0.239728 0L0 0" transform="translate(24.048437 12.100762)" id="Fill-66" fill="#F1AD3D" fill-rule="evenodd" stroke="none" />
    </g>
  </g>
</svg>