<?xml version="1.0" encoding="utf-8"?>
<svg width="409px" height="45px" viewBox="0 0 409 45" version="1.1" xmlns:xlink="http://www.w3.org/1999/xlink" xmlns="http://www.w3.org/2000/svg">
  <defs>
    <radialGradient gradientUnits="objectBoundingBox" cx="49.42%" cy="50.450726%" fx="49.42%" fy="50.450726%" r="49.737144%" gradientTransform="translate(0.4942,0.50450724),scale(1,0.98939735),scale(1,0),translate(-0.4942,-0.50450724)" id="gradient_1">
      <stop offset="0.5618%" stop-color="#FFEEE0" />
      <stop offset="10.96%" stop-color="#FEE9D7" />
      <stop offset="27.93%" stop-color="#FDDBBF" />
      <stop offset="49.35%" stop-color="#FBC597" />
      <stop offset="74.4%" stop-color="#F8A560" />
      <stop offset="100%" stop-color="#F48120" />
    </radialGradient>
  </defs>
  <g id="credit-card-icons-copy">
    <g id="v-copy" transform="translate(83.68852 0)">
      <path d="M70.2984 42.5566C70.2984 43.8801 69.2046 45 67.912 45L2.38637 45C1.09375 45 0 43.8801 0 42.5566L0 2.44344C0 1.11991 1.09375 0 2.38637 0L67.912 0C69.2046 0 70.2984 1.11991 70.2984 2.44344L70.2984 42.5566L70.2984 42.5566Z" transform="matrix(1 0 0 1 -3.3768368E-13 2.213614E-13)" id="Path" fill="#FCFCFC" fill-rule="evenodd" stroke="none" />
      <g id="Group" transform="translate(14.119329 15.475112)">
        <g id="Group">
          <path d="M3.48012 13.4389L0 13.4389L2.1875 0L5.56819 0L3.48012 13.4389Z" transform="translate(14.8153515 0.30542988)" id="Path" fill="#0066B2" fill-rule="evenodd" stroke="none" />
          <path d="M11.9318 0.20362L8.65057 9.46833L8.25285 7.43213L8.25285 7.43213L7.05966 1.32353C7.05966 1.32353 6.96023 0.10181 5.46875 0.10181L0.0994319 0.10181L0 0.30543C0 0.30543 1.69034 0.61086 3.57955 1.83258L6.5625 13.5407L10.1421 13.5407L15.6108 0L11.9318 0L11.9318 0.20362Z" transform="translate(0 0.101809956)" id="Path" fill="#0066B2" fill-rule="evenodd" stroke="none" />
          <path d="M9.0483 13.5407L12.2301 13.5407L9.44603 0L6.66194 0C5.36932 0 5.07103 1.0181 5.07103 1.0181L0 13.5407L3.57955 13.5407L4.27557 11.5045L8.65057 11.5045L9.0483 13.5407ZM5.26989 8.75566L7.05966 3.66516L8.05398 8.75566L5.26989 8.75566Z" transform="translate(29.928997 0.20361991)" id="Shape" fill="#0066B2" stroke="none" />
          <path d="M9.74433 3.46154L10.2415 0.61086C10.2415 0.61086 8.75001 0 7.1591 0C5.46875 0 1.39205 0.71267 1.39205 4.47964C1.39205 7.94118 6.16478 8.04299 6.16478 9.87557C6.16478 11.7081 1.88921 11.4027 0.497159 10.181L0 13.2353C0 13.2353 1.49148 13.948 3.87784 13.948C6.26421 13.948 9.74433 12.7262 9.74433 9.36652C9.74433 5.90498 4.97159 5.49774 4.97159 3.97059C4.97159 2.44344 8.25285 2.64706 9.74433 3.46154Z" transform="translate(20.383537 -1.2056721E-14)" id="Path" fill="#0066B2" fill-rule="evenodd" stroke="none" />
        </g>
        <path d="M8.25285 7.33032L7.05966 1.22172C7.05966 1.22172 6.96023 0 5.46875 0L0.0994319 0L0 0.20362C0 0.20362 2.58523 0.71267 5.07103 2.85068C7.55682 4.88688 8.25285 7.33032 8.25285 7.33032Z" transform="translate(0 0.20361991)" id="Path" fill="#F9A533" fill-rule="evenodd" stroke="none" />
      </g>
    </g>
    <g id="pp-copy">
      <path d="M70.2984 42.5566C70.2984 43.8801 69.2046 45 67.912 45L2.38637 45C1.09375 45 0 43.8801 0 42.5566L0 2.44344C0 1.11991 1.09375 0 2.38637 0L67.912 0C69.2046 0 70.2984 1.11991 70.2984 2.44344L70.2984 42.5566L70.2984 42.5566Z" transform="matrix(1 0 0 1 2.1527334E-13 2.213614E-13)" id="Path" fill="#FCFCFC" fill-rule="evenodd" stroke="none" />
      <g id="pp" transform="translate(13.994033 17.816742)">
        <path d="M5.86648 0.40724C5.46875 0.20362 4.77273 0 3.77841 0C3.28125 0 2.88352 0 2.38637 0.10181C1.98864 0.20362 1.98864 0.20362 1.78977 0.20362C1.39205 0.30543 1.29261 0.71267 1.29261 0.71267L1.19318 1.32353C1.09375 1.73077 1.29261 1.73077 1.39205 1.62896C1.59091 1.52715 1.69034 1.52715 2.08807 1.42534C2.4858 1.32353 2.88352 1.22172 3.18182 1.32353C3.67898 1.32353 3.97727 1.42534 4.27557 1.52715C4.47443 1.62896 4.6733 1.83258 4.6733 2.0362C4.6733 2.13801 4.6733 2.13801 4.6733 2.23982C4.6733 2.23982 4.57387 2.34163 4.47443 2.34163C3.77841 2.34163 3.28125 2.44344 2.78409 2.54525C2.1875 2.64706 1.69034 2.74887 1.29261 2.95249C0.894887 3.15611 0.497159 3.46154 0.298296 3.76697C0.0994319 4.0724 0 4.47964 0 4.98869C0 5.49774 0.198864 5.80317 0.497159 6.1086C0.795455 6.41403 1.19318 6.51584 1.69034 6.51584C1.98864 6.51584 2.28693 6.51584 2.38637 6.41403C2.58523 6.41403 2.78409 6.31222 2.98296 6.21041C3.18182 6.1086 3.28125 6.00679 3.48012 5.90498C3.67898 5.80317 3.77841 5.70136 3.87784 5.59955L3.87784 5.59955L3.87784 5.80317C3.87784 5.80317 3.87784 5.80317 3.87784 5.80317L3.87784 5.80317C3.87784 6.00679 3.97727 6.21041 4.17614 6.21041L4.17614 6.21041L4.17614 6.21041L4.17614 6.21041C4.27557 6.21041 4.87216 6.21041 5.07103 6.21041L5.26989 6.21041C5.26989 6.21041 5.26989 6.21041 5.26989 6.21041C5.46875 6.21041 5.76705 6.00679 5.76705 5.80317L6.66194 2.0362C6.66194 1.93439 6.66194 1.83258 6.66194 1.73077C6.66194 1.62896 6.66194 1.52715 6.66194 1.42534C6.5625 1.0181 6.36364 0.61086 5.86648 0.40724ZM3.87784 4.88688C3.77841 4.98869 3.57955 5.0905 3.38068 5.0905C3.18182 5.19231 2.98296 5.19231 2.78409 5.19231C2.4858 5.19231 2.28693 5.19231 2.08807 5.0905C1.88921 4.98869 1.88921 4.88688 1.88921 4.68326C1.88921 4.47964 1.98864 4.27602 2.08807 4.0724C2.1875 3.97059 2.38637 3.76697 2.58523 3.76697C2.78409 3.66516 3.08239 3.66516 3.38068 3.56335C3.67898 3.56335 4.17614 3.46154 4.27557 3.46154C4.375 3.46154 4.375 3.46154 4.375 3.56335C4.375 3.66516 4.17614 4.27602 4.17614 4.58145C3.97728 4.78507 3.87784 4.88688 3.87784 4.88688Z" transform="translate(28.761683 1.8325793)" id="Shape" fill="#336699" stroke="none" />
        <path d="M5.47278 0.10181C5.17449 0.10181 4.87619 0.30543 4.77676 0.61086C4.77676 0.61086 3.08642 3.56335 2.88755 3.86878C2.78812 4.0724 2.68869 3.97059 2.68869 3.86878C2.68869 3.76697 2.19153 0.61086 2.19153 0.61086C2.0921 0.40724 1.89324 0.10181 1.59494 0.10181L0.501188 0.10181C0.202893 0.10181 0.103461 0.30543 0.103461 0.50905C0.103461 0.50905 0.898916 5.19231 1.09778 6.21041C1.19721 6.82127 1.09778 6.92308 1.09778 6.92308L0.103461 8.75566C-0.0954031 8.95928 0.00402882 9.1629 0.302325 9.1629L1.49551 9.1629C1.7938 9.1629 2.0921 8.95928 2.19153 8.75566L6.86483 0.71267C6.86483 0.71267 7.26256 0 6.86483 0C6.56653 0.10181 5.47278 0.10181 5.47278 0.10181" transform="translate(14.538894 1.8325793)" id="Path" fill="#003366" fill-rule="evenodd" stroke="none" />
        <path d="M5.29576 3.56335C4.89803 3.86878 4.5003 3.97059 3.80428 3.97059L3.50598 3.97059C3.20769 3.97059 3.10825 3.76697 3.10825 3.56335L3.50598 2.0362C3.60541 1.83258 3.80428 1.62896 4.10257 1.62896L4.5003 1.62896C4.89803 1.62896 5.29576 1.73077 5.49462 1.83258C5.69348 1.93439 5.79292 2.23982 5.79292 2.54525C5.79292 2.95249 5.59405 3.25792 5.29576 3.56335M7.78155 1.22172C7.68212 0.91629 7.38383 0.71267 7.18496 0.50905C6.88667 0.30543 6.58837 0.20362 6.19064 0.10181C5.79292 0 5.29576 0 4.7986 0L2.3128 0C2.0145 0 1.81564 0.20362 1.71621 0.40724L0.0258652 7.73756C-0.0735667 7.94118 0.125297 8.1448 0.423593 8.1448L1.61678 8.1448C1.91507 8.1448 2.11393 7.94118 2.21337 7.73756L2.61109 6.00679C2.71053 5.80317 2.90939 5.59955 3.20769 5.59955L3.50598 5.59955C4.89803 5.59955 6.09121 5.29412 6.88667 4.68326C7.68212 4.0724 8.07985 3.25792 8.07985 2.34163C7.98042 1.83258 7.98042 1.42534 7.78155 1.22172" id="Shape" fill="#003366" stroke="none" />
        <path d="M5.19632 3.56335C4.7986 3.86878 4.40087 3.97059 3.70485 3.97059L3.40655 3.97059C3.10825 3.97059 3.00882 3.76697 3.00882 3.56335L3.40655 2.0362C3.50598 1.83258 3.70485 1.62896 4.00314 1.62896L4.40087 1.62896C4.89803 1.62896 5.19632 1.73077 5.39519 1.83258C5.59405 2.0362 5.69348 2.23982 5.69348 2.54525C5.69348 2.95249 5.59405 3.35973 5.19632 3.56335M7.78155 1.22172C7.68212 0.91629 7.38383 0.71267 7.18496 0.50905C6.88667 0.30543 6.58837 0.20362 6.19064 0.10181C5.79292 0 5.29576 0 4.7986 0L2.3128 0C2.0145 0 1.81564 0.20362 1.71621 0.40724L0.0258652 7.73756C-0.0735667 7.94118 0.125297 8.1448 0.423593 8.1448L1.61678 8.1448C1.81564 8.1448 2.11393 7.94118 2.21337 7.73756L2.61109 6.00679C2.71053 5.80317 2.90939 5.49774 3.20769 5.59955L3.50598 5.59955C4.89803 5.59955 6.09121 5.29412 6.88667 4.68326C7.68212 4.0724 8.07985 3.25792 8.07985 2.34163C7.98042 1.83258 7.88099 1.52715 7.78155 1.22172" transform="translate(21.278427 0)" id="Shape" fill="#336699" stroke="none" />
        <path d="M5.96591 0.40724C5.56819 0.20362 4.87216 0 3.87784 0C3.38068 0 2.98296 0 2.4858 0.10181C2.08807 0.20362 2.08807 0.20362 1.88921 0.20362C1.49148 0.30543 1.39205 0.71267 1.39205 0.71267L1.29261 1.32353C1.09375 1.73077 1.29261 1.73077 1.39205 1.73077C1.59091 1.62896 1.69034 1.62896 2.08807 1.52715C2.4858 1.42534 2.88353 1.32353 3.18182 1.42534C3.67898 1.42534 3.97728 1.52715 4.27557 1.62896C4.47444 1.73077 4.6733 1.93439 4.6733 2.13801C4.6733 2.23982 4.6733 2.23982 4.6733 2.34163C4.6733 2.34163 4.57387 2.44344 4.47444 2.44344C3.77841 2.44344 3.28125 2.54525 2.78409 2.64706C2.1875 2.74887 1.69034 2.85068 1.29261 3.0543C0.894887 3.25792 0.49716 3.56335 0.298296 3.86878C0.0994319 4.17421 0 4.58145 0 5.0905C0 5.59955 0.198864 5.90498 0.49716 6.21041C0.795455 6.51584 1.19318 6.61765 1.69034 6.61765C1.98864 6.61765 2.28693 6.61765 2.38637 6.51584C2.58523 6.51584 2.78409 6.41403 2.98296 6.31222C3.18182 6.21041 3.28125 6.1086 3.48012 6.00679C3.67898 5.90498 3.77841 5.80317 3.87784 5.70136L3.87784 5.70136L3.87784 5.90498C3.87784 5.90498 3.87784 5.90498 3.87784 5.90498L3.87784 5.90498C3.87784 6.1086 3.97728 6.31222 4.17614 6.31222L4.17614 6.31222L4.17614 6.31222L4.17614 6.31222C4.375 6.31222 4.87216 6.31222 5.07103 6.31222L5.26989 6.31222C5.26989 6.31222 5.26989 6.31222 5.26989 6.31222C5.46875 6.31222 5.76705 6.1086 5.76705 5.90498L6.66194 2.13801C6.66194 2.0362 6.66194 1.93439 6.66194 1.83258C6.66194 1.73077 6.66194 1.62896 6.66194 1.52715C6.56251 1.0181 6.36364 0.61086 5.96591 0.40724ZM3.87784 4.88688C3.77841 4.98869 3.57955 5.0905 3.38068 5.0905C3.18182 5.19231 2.98296 5.19231 2.78409 5.19231C2.4858 5.19231 2.28693 5.19231 2.08807 5.0905C1.88921 4.98869 1.88921 4.88688 1.88921 4.68326C1.88921 4.47964 1.98864 4.27602 2.08807 4.0724C2.1875 3.97059 2.38637 3.76697 2.58523 3.76697C2.78409 3.66516 3.08239 3.66516 3.38068 3.56335C3.67898 3.56335 4.17614 3.46154 4.27557 3.46154C4.375 3.46154 4.375 3.46154 4.375 3.56335C4.375 3.66516 4.17614 4.27602 4.17614 4.58145C4.07671 4.68326 3.87784 4.88688 3.87784 4.88688Z" transform="translate(7.4832573 1.8325793)" id="Shape" fill="#003366" stroke="none" />
        <path d="M3.18182 0L2.08807 0C2.08807 0 2.08807 0 2.08807 0L2.08807 0C1.88921 0 1.59091 0.20362 1.59091 0.40724C1.59091 0.40724 1.59091 0.40724 1.59091 0.40724C1.59091 0.40724 1.59091 0.50905 1.49148 0.71267L0.0994319 7.43213C0.0994319 7.63575 0 7.73756 0 7.73756L0 7.73756C0 7.94118 0.0994319 8.1448 0.298296 8.1448L0.298296 8.1448L1.39205 8.1448C1.59091 8.1448 1.88921 7.94118 1.88921 7.73756C1.88921 7.73756 1.88921 7.73756 1.88921 7.73756L3.48012 0.50905L3.48012 0.50905C3.57955 0.20362 3.38069 0 3.18182 0Z" transform="translate(35.523052 0.101809956)" id="Path" fill="#336699" fill-rule="evenodd" stroke="none" />
        <g id="Group" transform="translate(39.45061 0)">
          <path d="M0.845172 1.66667C0.845172 1.66667 0.74574 1.66667 0.74574 1.66667C0.74574 1.66667 0.646308 1.66667 0.646308 1.66667C0.546876 1.66667 0.447444 1.66667 0.348012 1.55556C0.24858 1.55556 0.24858 1.44444 0.24858 1.33333L0.24858 0.555556L0.149148 0.555556L0.149148 0.333333L0.24858 0.333333L0.24858 0L0.447444 0L0.447444 0.333333L0.845172 0.333333L0.845172 0.555556L0.447444 0.555556L0.447444 1.11111C0.447444 1.22222 0.447444 1.22222 0.447444 1.22222C0.447444 1.22222 0.447444 1.33333 0.447444 1.33333C0.447444 1.33333 0.447444 1.33333 0.546876 1.44444C0.546876 1.44444 0.646308 1.44444 0.646308 1.44444C0.646308 1.44444 0.74574 1.44444 0.74574 1.44444C0.74574 1.44444 0.845172 1.44444 0.845172 1.44444L0.845172 1.44444L0.845172 1.66667L0.845172 1.66667Z" id="Path" fill="#336699" fill-rule="evenodd" stroke="none" />
          <path d="M1.78978 1.22222L1.59091 1.22222L1.59091 0.444445C1.59091 0.444445 1.59091 0.333333 1.59091 0.333333C1.59091 0.333333 1.59091 0.222222 1.59091 0.222222C1.59091 0.222222 1.59091 0.111111 1.49148 0.111111C1.49148 0.111111 1.39205 0.111111 1.39205 0.111111C1.29262 0.111111 1.29262 0.111111 1.19318 0.111111C1.09375 0.111111 1.09375 0.222222 0.99432 0.222222C0.99432 0.222222 0.99432 0.222222 0.99432 0.333333C0.99432 0.333333 0.99432 0.333333 0.99432 0.444445L0.99432 1.22222L0.795456 1.22222L0.795456 0.444445C0.795456 0.333333 0.795456 0.333333 0.795456 0.333333C0.795456 0.333333 0.795456 0.222222 0.795456 0.222222C0.795456 0.222222 0.795456 0.111111 0.696024 0.111111C0.696024 0.111111 0.596592 0.111111 0.596592 0.111111C0.49716 0.111111 0.49716 0.111111 0.397728 0.111111C0.298296 0.111111 0.298296 0.222222 0.198864 0.222222L0.198864 1.22222L0 1.22222L0 0L0.298296 0L0.298296 0.111111C0.397728 0.111111 0.397728 0 0.49716 0C0.596592 0 0.596592 0 0.696024 0C0.795456 0 0.795456 0 0.894888 0C0.99432 0 0.99432 0.111111 0.99432 0.111111C1.09375 0 1.09375 0 1.19318 0C1.29262 0 1.29262 0 1.39205 0C1.49148 0 1.59091 0 1.69034 0.111111C1.78978 0.222222 1.78978 0.333333 1.78978 0.444445L1.78978 1.22222L1.78978 1.22222Z" transform="translate(0.9446036 0.44444448)" id="Path" fill="#336699" fill-rule="evenodd" stroke="none" />
        </g>
      </g>
    </g>
    <g id="mc-copy" transform="translate(169.05081 0)">
      <path d="M70.2984 42.5566C70.2984 43.8801 69.2046 45 67.912 45L2.38637 45C1.09375 45 0 43.8801 0 42.5566L0 2.44344C0 1.11991 1.09375 0 2.38637 0L67.912 0C69.2046 0 70.2984 1.11991 70.2984 2.44344L70.2984 42.5566Z" id="Path" fill="#FCFCFC" fill-rule="evenodd" stroke="none" />
      <g id="Group-8" transform="translate(15.063932 10)">
        <path d="M12.4994 25L13.1455 24.983L13.7834 24.9368L14.4088 24.8569L15.0296 24.747L15.6335 24.608L16.2294 24.4392L16.8122 24.2411L17.3826 24.0176L17.9399 23.7647L18.4807 23.4905L19.0046 23.1869L19.5156 22.8623L20.0054 22.5124L20.4787 22.1414L20.935 21.7491L21.37 21.3318L21.7883 20.8973L22.181 20.4419L22.5527 19.9697L22.9032 19.4807L23.2284 18.9704L23.5328 18.4475L23.8073 17.9079L24.0607 17.351L24.2845 16.7822L24.4832 16.1999L24.6522 15.6056L24.7916 15.0025L24.9014 14.3828L24.9815 13.7588L25.028 13.122L25.045 12.4768L25.028 11.8358L24.9815 11.2035L24.9014 10.5793L24.7916 9.96798L24.6522 9.36495L24.4832 8.77465L24.2845 8.19283L24.0607 7.62775L23.8073 7.0754L23.5328 6.53578L23.2284 6.01714L22.9032 5.50676L22.5527 5.01759L22.181 4.54964L21.7883 4.0944L21.37 3.65994L20.935 3.24668L20.4787 2.85463L20.0054 2.48357L19.5156 2.13349L19.0046 1.80887L18.4807 1.50948L17.9399 1.23553L17.3826 0.982353L16.8122 0.759091L16.2294 0.560834L15.6335 0.392048L15.0296 0.252956L14.4088 0.143334L13.7834 0.0631832L13.1455 0.0169679L12.4994 0L11.8572 0.0169679L11.2193 0.0631832L10.5942 0.143334L9.97734 0.252956L9.37345 0.392048L8.77784 0.560834L8.199 0.759091L7.62889 0.982353L7.07555 1.23553L6.53898 1.50948L6.01539 1.80887L5.50835 2.13349L5.0183 2.48357L4.54526 2.85463L4.09324 3.24668L3.65822 3.65994L3.24422 4.0944L2.85147 4.54964L2.47974 5.01759L2.13329 5.50676L1.80786 6.01714L1.50815 6.53578L1.22947 7.0754L0.980087 7.62775L0.756201 8.19283L0.562063 8.77465L0.392974 9.36495L0.253633 9.96798L0.143815 10.5793L0.06352 11.2035L0.0169983 11.8358L0 12.4768L0.0169983 13.122L0.06352 13.7588L0.143815 14.3828L0.253633 15.0025L0.392974 15.6056L0.562063 16.1999L0.756201 16.7822L0.980087 17.351L1.22947 17.9079L1.50815 18.4475L1.80786 18.9704L2.13329 19.4807L2.47974 19.9697L2.85147 20.4419L3.24422 20.8973L3.65822 21.3318L4.09324 21.7491L4.54526 22.1414L5.0183 22.5124L5.50835 22.8623L6.01539 23.1869L6.53898 23.4905L7.07555 23.7647L7.62889 24.0176L8.199 24.2411L8.77784 24.4392L9.37345 24.608L9.97734 24.747L10.5942 24.8569L11.2193 24.9368L11.8572 24.983L12.4994 25" transform="translate(16.799253 0)" id="Fill-4" fill="#F1AD3D" fill-rule="evenodd" stroke="none" />
        <path d="M12.5456 25L13.1878 24.983L13.8257 24.9368L14.4508 24.8569L15.0674 24.747L15.6715 24.608L16.2672 24.4392L16.8458 24.2411L17.4161 24.0176L17.9695 23.7647L18.5058 23.4905L19.0298 23.1869L19.5367 22.8623L20.0267 22.5124L20.4997 22.1414L20.9515 21.7491L21.3868 21.3318L21.8008 20.8973L22.1935 20.4419L22.5653 19.9697L22.9117 19.4807L23.2369 18.9704L23.5368 18.4475L23.8155 17.9079L24.0647 17.351L24.2888 16.7822L24.4829 16.1999L24.6518 15.6056L24.7914 15.0025L24.9012 14.3828L24.9815 13.7588L25.028 13.122L25.0448 12.4768L25.028 11.8358L24.9815 11.2035L24.9012 10.5793L24.7914 9.96798L24.6518 9.36495L24.4829 8.77465L24.2888 8.19283L24.0647 7.62775L23.8155 7.0754L23.5368 6.53578L23.2369 6.01714L22.9117 5.50676L22.5653 5.01759L22.1935 4.54964L21.8008 4.0944L21.3868 3.65994L20.9515 3.24668L20.4997 2.85463L20.0267 2.48357L19.5367 2.13349L19.0298 1.80887L18.5058 1.50948L17.9695 1.23553L17.4161 0.982353L16.8458 0.759091L16.2672 0.560834L15.6715 0.392048L15.0674 0.252956L14.4508 0.143334L13.8257 0.0631832L13.1878 0.0169679L12.5456 0L11.8995 0.0169679L11.2616 0.0631832L10.6362 0.143334L10.0154 0.252956L9.41147 0.392048L8.81586 0.560834L8.23277 0.759091L7.66244 0.982353L7.10507 1.23553L6.56426 1.50948L6.04044 1.80887L5.52937 2.13349L5.03933 2.48357L4.56628 2.85463L4.11001 3.24668L3.67499 3.65994L3.25674 4.0944L2.86399 4.54964L2.49227 5.01759L2.14156 5.50676L1.81636 6.01714L1.51218 6.53578L1.23752 7.0754L0.984336 7.62775L0.760451 8.19283L0.561839 8.77465L0.39275 9.36495L0.253409 9.96798L0.143591 10.5793L0.0632963 11.2035L0.0167747 11.8358L0 12.4768L0.0167747 13.122L0.0632963 13.7588L0.143591 14.3828L0.253409 15.0025L0.39275 15.6056L0.561839 16.1999L0.760451 16.7822L0.984336 17.351L1.23752 17.9079L1.51218 18.4475L1.81636 18.9704L2.14156 19.4807L2.49227 19.9697L2.86399 20.4419L3.25674 20.8973L3.67499 21.3318L4.11001 21.7491L4.56628 22.1414L5.03933 22.5124L5.52937 22.8623L6.04044 23.1869L6.56426 23.4905L7.10507 23.7647L7.66244 24.0176L8.23277 24.2411L8.81586 24.4392L9.41147 24.608L10.0154 24.747L10.6362 24.8569L11.2616 24.9368L11.8995 24.983L12.5456 25" id="Fill-5" fill="#D82332" fill-rule="evenodd" stroke="none" />
        <path d="M0 0.67894L6.65305 0.67894L6.65305 0L0.574364 0L0 0.67894" transform="translate(19.45636 4.115391)" id="Fill-6" fill="#F1AD3D" fill-rule="evenodd" stroke="none" />
        <path d="M0 0.678717L7.64991 0.678717L7.64991 0L0.40125 0L0 0.678717" transform="translate(18.459496 5.625089)" id="Fill-7" fill="#F1AD3D" fill-rule="evenodd" stroke="none" />
        <path d="M0 0.67894L8.39336 0.67894L8.39336 0L0.295681 0L0 0.67894" transform="translate(17.716045 7.130099)" id="Fill-8" fill="#F1AD3D" fill-rule="evenodd" stroke="none" />
        <path d="M0 0.678717L8.90466 0.678717L8.90466 0L0.211361 0L0 0.678717" transform="translate(17.204752 8.639798)" id="Fill-9" fill="#F1AD3D" fill-rule="evenodd" stroke="none" />
        <path d="M0.211361 0.678941L8.84114 0.678941L8.84114 0L0 0L0.211361 0.678941" transform="translate(17.289297 15.934442)" id="Fill-10" fill="#F1AD3D" fill-rule="evenodd" stroke="none" />
        <path d="M0.316705 0.67894L8.30882 0.67894L8.30882 0L0 0L0.316705 0.67894" transform="translate(17.821613 17.443916)" id="Fill-11" fill="#F1AD3D" fill-rule="evenodd" stroke="none" />
        <path d="M0.426747 0.67894L7.52332 0.67894L7.52332 0L0 0L0.426747 0.67894" transform="translate(18.607115 18.949373)" id="Fill-12" fill="#F1AD3D" fill-rule="evenodd" stroke="none" />
        <path d="M0.595612 0.682959L6.45869 0.682959L6.45869 0L0 0L0.595612 0.682959" transform="translate(19.671745 20.454607)" id="Fill-13" fill="#F1AD3D" fill-rule="evenodd" stroke="none" />
        <path d="M0 0.67894L9.20436 0.67894L9.20436 0L0.130842 0L0 0.67894" transform="translate(16.905046 10.145031)" id="Fill-14" fill="#F1AD3D" fill-rule="evenodd" stroke="none" />
        <path d="M0 0.67894L3.51015 0.67894L3.51015 0L0.126593 0L0 0.67894" transform="translate(22.514713 14.429208)" id="Fill-15" fill="#F1AD3D" fill-rule="evenodd" stroke="none" />
        <path d="M0 0.683182L3.23147 0.683182L3.23147 0L0.126816 0L0 0.683182" transform="translate(22.793396 12.919509)" id="Fill-16" fill="#F1AD3D" fill-rule="evenodd" stroke="none" />
        <path d="M0 0L0.91254 0L0.91254 0.683182L0.0422721 0.683182L0 0" transform="translate(16.67266 12.919509)" id="Fill-17" fill="#F1AD3D" fill-rule="evenodd" stroke="none" />
        <path d="M3.5484 1.06273L3.48913 1.05849L3.43008 1.05L3.37506 1.04152L3.32026 1.03303L3.26949 1.02477L3.21469 1.01629L3.15967 1.00781L3.10063 0.999321L3.04158 0.990837L2.97381 0.986595L2.89799 0.982577L2.81769 0.978335L2.7289 0.978335L2.63183 0.982577L2.52179 0.990837L2.39945 0.999321L2.3149 1.01205L2.23461 1.02477L2.16281 1.05L2.09952 1.07523L2.04024 1.1047L1.98545 1.13864L1.90515 1.21856L1.87988 1.265L1.85863 1.31144L1.85013 1.3619L1.85013 1.4128L1.86288 1.4675L1.87988 1.5222L1.91365 1.57712L1.95592 1.63182L2.04024 1.71175L2.14179 1.77538L2.25988 1.83008L2.3867 1.87652L2.52179 1.91849L2.66113 1.96493L2.8007 2.01561L2.93579 2.07053L3.0626 2.14198L3.18092 2.23061L3.28649 2.33599L3.37506 2.4666L3.44283 2.6269L3.4851 2.8169L3.50188 3.0444L3.4851 3.31008L3.45535 3.50812L3.40481 3.68115L3.33704 3.84145L3.25249 3.98054L3.15542 4.10266L3.04561 4.20804L2.92729 4.30092L2.79645 4.38107L2.66113 4.44426L2.52179 4.49918L2.3782 4.54115L2.23058 4.57509L2.08677 4.60032L1.94743 4.61304L1.80786 4.62153L1.67702 4.62554L1.4954 4.62554L1.32654 4.62153L1.1787 4.62153L1.03913 4.61706L0.912541 4.61304L0.798473 4.60433L0.697155 4.59607L0.599862 4.58357L0.511291 4.57509L0.430997 4.55812L0.350702 4.54562L0.278907 4.52441L0.207111 4.50766L0.139565 4.48243L0.0717955 4.45698L0 4.43153L0.190113 3.49986L0.228359 3.50812L0.274657 3.52084L0.333704 3.53781L0.405499 3.55456L0.481544 3.57152L0.566089 3.58849L0.659132 3.60926L0.760451 3.62645L0.866019 3.64319L0.975837 3.65994L1.08991 3.67289L1.20822 3.68539L1.33079 3.68963L1.45313 3.69365L1.5757 3.69365L1.69827 3.68963L1.82061 3.6644L1.9179 3.63047L1.99395 3.58403L2.05299 3.52509L2.09527 3.46614L2.12904 3.3985L2.15029 3.33107L2.16706 3.26789L2.17556 3.14554L2.13754 3.04038L2.06574 2.95599L1.95995 2.8841L1.83336 2.82092L1.68552 2.75773L1.52068 2.69857L1.35606 2.63137L1.1872 2.55546L1.02661 2.4666L0.878768 2.35698L0.743453 2.22637L0.637884 2.06607L0.561839 1.87652L0.523816 1.64857L0.528066 1.37887L0.549314 1.21432L0.578837 1.05849L0.621109 0.915151L0.671657 0.780078L0.739203 0.653711L0.815472 0.543867L0.904042 0.438487L1.00961 0.345833L1.13218 0.265682L1.26727 0.198257L1.41936 0.13485L1.58845 0.0886351L1.77856 0.0506805L1.98545 0.0212099L2.21336 0.00424198L2.46274 0L2.61908 0L2.76267 0.00424198L2.89352 0.00848396L3.01183 0.0127259L3.1174 0.0212099L3.21469 0.0296939L3.29901 0.0379546L3.37506 0.0464385L3.44708 0.0549225L3.50613 0.0674252L3.56092 0.0759091L3.61169 0.0843931L3.65397 0.0926538L3.69199 0.0968958L3.73001 0.105603L3.76378 0.109845L3.5484 1.06273" transform="translate(11.421972 11.03473)" id="Fill-18" fill="#FFFFFE" fill-rule="evenodd" stroke="none" />
        <path d="M0.832246 0L2.00222 0L1.82911 1.02031L2.53454 1.02031L2.38245 1.97319L1.63899 1.9522L1.2335 4.30494L1.22925 4.38933L1.25027 4.461L1.29277 4.5157L1.34756 4.56214L1.42361 4.59161L1.50815 4.61706L1.60097 4.63381L1.70229 4.64229L1.79533 4.63805L1.87966 4.62956L1.95592 4.61706L2.02325 4.60009L2.07827 4.58335L2.11629 4.57062L2.14179 4.56214L2.15006 4.55812L2.00222 5.34222L1.9727 5.3632L1.94318 5.38017L1.91365 5.39692L1.8839 5.41411L1.85438 5.42661L1.82061 5.43934L1.78259 5.45206L1.74456 5.46456L1.70229 5.47729L1.66002 5.48555L1.60947 5.49403L1.5587 5.50252L1.5039 5.51078L1.44061 5.51926L1.37284 5.52775L1.30104 5.53601L0.980087 5.53601L0.810998 5.52351L0.663158 5.50676L0.528066 5.48131L0.413998 5.45206L0.316929 5.41411L0.236634 5.37169L0.164615 5.32123L0.109818 5.26631L0.0677696 5.20737L0.0380225 5.1357L0.0169983 5.06381L0.00424958 4.98388L0 4.89525L0 4.80237L0.0127487 4.7057L0.0252738 4.60009L0.832246 0" transform="translate(15.139234 10.103058)" id="Fill-20" fill="#FFFFFE" fill-rule="evenodd" stroke="none" />
        <path d="M1.23327 2.63137L1.22075 2.70281L1.2165 2.77872L1.225 2.85887L1.242 2.93902L1.27152 3.01917L1.30529 3.09508L1.35181 3.17501L1.40236 3.24668L1.46163 3.31857L1.52493 3.38175L1.59247 3.44493L1.66852 3.49562L1.74456 3.54205L1.82911 3.58001L1.91343 3.60926L1.99797 3.62645L2.10779 3.64319L2.21336 3.65569L2.3234 3.66842L2.433 3.6769L2.54281 3.68115L2.65688 3.68115L2.7667 3.6769L2.88099 3.66842L2.99483 3.65168L3.1089 3.63047L3.22722 3.60524L3.34129 3.56728L3.4596 3.52084L3.58195 3.47016L3.70026 3.40296L3.82283 3.33107L3.65374 4.36835L3.58642 4.40206L3.51865 4.436L3.45111 4.46122L3.38781 4.48645L3.32451 4.50766L3.25674 4.52865L3.1892 4.54562L3.1174 4.55812L3.04136 4.57085L2.95704 4.57911L2.86824 4.58759L2.77095 4.59607L2.66135 4.60032L2.54729 4.60032L2.41622 4.60433L2.27688 4.60433L2.06977 4.60032L1.85863 4.57911L1.64749 4.54964L1.43613 4.49918L1.22925 4.436L1.03063 4.35562L0.840522 4.25046L0.663158 4.12812L0.498319 3.98478L0.354728 3.81198L0.232385 3.61796L0.130842 3.39448L0.0590468 3.14554L0.0125251 2.86311L0 2.55099L0.0212479 2.20516L0.0380225 2.07053L0.06352 1.91447L0.0970693 1.74993L0.143591 1.57266L0.207111 1.39159L0.282932 1.21008L0.380225 1.02477L0.498319 0.847503L0.633635 0.67894L0.798473 0.518638L0.984113 0.375304L1.19547 0.248937L1.44038 0.143334L1.71504 0.0674252L2.01922 0.0169679L2.3612 0L2.52604 0.00424198L2.69915 0.0212099L2.87249 0.0506805L3.04561 0.0926538L3.21447 0.15606L3.37931 0.231969L3.5314 0.333107L3.67074 0.451213L3.79756 0.594547L3.90313 0.763333L3.98745 0.957348L4.04672 1.18061L4.08049 1.43357L4.08474 1.72023L4.05522 2.04084L3.9917 2.39516L3.97067 2.65213L0.891293 2.65213L1.08566 1.8216L2.93579 1.8216L2.94429 1.71622L2.94004 1.61508L2.93154 1.5222L2.91476 1.43803L2.88502 1.35766L2.85549 1.28599L2.81322 1.22281L2.77095 1.16387L2.7204 1.11318L2.66538 1.07099L2.60208 1.03303L2.53879 0.999321L2.47124 0.974093L2.40347 0.957348L2.33168 0.944622L2.25563 0.936138L2.17534 0.94038L2.09952 0.952883L2.0275 0.969851L1.9557 0.995079L1.88391 1.02879L1.82061 1.06697L1.75731 1.11318L1.70229 1.16387L1.64749 1.22281L1.59672 1.28599L1.5502 1.35342L1.5124 1.42531L1.47416 1.50121L1.44463 1.58561L1.41936 1.66978L1.40236 1.75819L1.23327 2.63137" transform="translate(17.373842 11.03473)" id="Fill-22" fill="#FFFFFE" fill-rule="evenodd" stroke="none" />
        <path d="M4.30863 1.46304L4.25383 1.43357L4.19903 1.40834L4.13976 1.37864L4.07646 1.34917L4.01317 1.32394L3.94115 1.29849L3.86935 1.27326L3.79331 1.24804L3.71324 1.22705L3.63272 1.21008L3.54415 1.19311L3.45535 1.18061L3.35829 1.17213L3.26099 1.16364L2.94854 1.16364L2.83872 1.17213L2.72465 1.18485L2.60656 1.20584L2.48802 1.23955L2.36992 1.28599L2.25161 1.34493L2.13306 1.42084L2.01944 1.51372L1.9094 1.62334L1.80383 1.75819L1.70252 1.91425L1.6097 2.09978L1.52068 2.31054L1.44061 2.54675L1.37306 2.81645L1.34779 2.96827L1.33057 3.11585L1.32207 3.26342L1.32654 3.40698L1.33929 3.55009L1.36859 3.68516L1.40661 3.81153L1.45313 3.93834L1.51665 4.05198L1.59247 4.16183L1.68127 4.2585L1.78259 4.34714L1.89688 4.42305L2.02772 4.48645L2.17131 4.54115L2.3319 4.57911L2.3867 4.59161L2.44999 4.60433L2.52604 4.61282L2.61058 4.6213L2.7034 4.62956L2.90626 4.62956L3.01183 4.6213L3.12165 4.60858L3.23169 4.58759L3.33704 4.55812L3.44283 4.52441L3.5484 4.47797L3.64547 4.42305L3.73426 4.35562L3.81881 4.27971L3.62869 5.40562L3.60342 5.42661L3.57792 5.45184L3.54415 5.48153L3.50613 5.50676L3.4596 5.54047L3.40033 5.56994L3.33301 5.59941L3.25697 5.62464L3.15967 5.65434L3.04986 5.67532L2.92326 5.69229L2.7752 5.70904L2.61058 5.71752L2.42069 5.72176L2.20508 5.71752L1.96845 5.70502L1.77431 5.68381L1.57995 5.64183L1.38581 5.57843L1.19122 5.49403L1.00536 5.3929L0.827997 5.26631L0.659132 5.11895L0.502792 4.95017L0.363227 4.7604L0.245134 4.54964L0.143815 4.31342L0.0677696 4.05623L0.0169983 3.77358L0 3.47441L0.00849916 3.14554L0.0550209 2.79547L0.0887938 2.62266L0.126816 2.45387L0.169088 2.28955L0.211361 2.13349L0.257882 1.98592L0.31268 1.83834L0.3677 1.69925L0.426523 1.56842L0.490267 1.43758L0.553563 1.31546L0.625135 1.19735L0.70118 1.08773L0.777449 0.982353L0.86177 0.881216L0.946314 0.788339L1.03488 0.699927L1.13218 0.615534L1.22925 0.535383L1.33057 0.463715L1.43636 0.39629L1.55043 0.332884L1.66449 0.278185L1.78259 0.227504L1.90515 0.181066L2.03622 0.139092L2.16706 0.10538L2.30215 0.0756859L2.44597 0.0504572L2.58934 0.0292473L2.74165 0.0125027L2.89374 0.00401872L3.05433 0L3.18942 0.00401872L3.32026 0.0125027L3.44686 0.0250054L3.57367 0.0419733L3.69199 0.0589412L3.80606 0.0841698L3.91587 0.10538L4.01719 0.130608L4.11449 0.155837L4.19903 0.181066L4.2791 0.206517L4.34687 0.231746L4.40592 0.252956L4.45647 0.269701L4.49471 0.286669L4.51976 0.295153L4.30863 1.46304" transform="translate(24.373121 9.913284)" id="Fill-24" fill="#FFFFFE" fill-rule="evenodd" stroke="none" />
        <path d="M3.86935 5.51502L2.69938 5.51502L2.7837 5.04729L2.7837 5.00487L2.71637 5.08926L2.64436 5.16517L2.57256 5.23282L2.49652 5.29176L2.42047 5.34668L2.34465 5.39312L2.2686 5.43107L2.18809 5.46881L2.10801 5.49828L1.94742 5.5407L1.86288 5.5532L1.77834 5.56592L1.69827 5.57419L1.61372 5.57865L1.52918 5.57865L1.30976 5.56146L1.10668 5.51502L0.920816 5.44358L0.751952 5.34668L0.599861 5.22433L0.46477 5.081L0.346452 4.92494L0.245134 4.74789L0.160589 4.5579L0.0930434 4.36009L0.0465217 4.15335L0.0127487 3.93834L0 3.72312L0.00447324 3.50388L0.0252738 3.28887L0.0632963 3.07387L0.126816 2.82516L0.202861 2.58895L0.291655 2.37395L0.397224 2.17145L0.507042 1.98167L0.633634 1.81311L0.7647 1.66129L0.904042 1.5222L1.05188 1.39985L1.20845 1.29447L1.36881 1.20182L1.52918 1.12993L1.69827 1.07099L1.86713 1.03303L2.03622 1.00758L2.20933 0.999321L2.3319 1.00334L2.44999 1.01629L2.55981 1.03728L2.66135 1.06675L2.75842 1.10046L2.84297 1.13841L2.92751 1.18485L3.00356 1.23107L3.0711 1.28175L3.1344 1.33667L3.1892 1.39137L3.24019 1.44629L3.28224 1.50121L3.32026 1.55591L3.35404 1.60659L3.37953 1.65705L3.67521 0L4.82417 0L3.86935 5.51502" transform="translate(35.212227 10.124044)" id="Fill-26" fill="#FFFFFE" fill-rule="evenodd" stroke="none" />
        <path d="M0.595612 2.47933L0.713929 2.47107L0.823747 2.44584L0.925066 2.41614L1.02236 2.3697L1.11093 2.31902L1.19547 2.25584L1.27554 2.1844L1.34756 2.10826L1.41086 2.02409L1.46991 1.93122L1.52493 1.83432L1.57145 1.73296L1.6135 1.6278L1.64727 1.51818L1.67679 1.40432L1.69804 1.29046L1.71929 1.17235L1.73182 1.05L1.73182 0.936138L1.72757 0.818256L1.71504 0.708411L1.69804 0.603031L1.66852 0.501893L1.63475 0.404774L1.59247 0.320604L1.54193 0.240453L1.48691 0.173028L1.42339 0.113864L1.35159 0.0634065L1.27554 0.0294706L1.19547 0.00848396L1.10668 0L0.992612 0.00848396L0.887044 0.0254519L0.789751 0.0591645L0.692681 0.101361L0.608137 0.15606L0.523817 0.223709L0.452021 0.295376L0.380002 0.375304L0.316705 0.467957L0.257659 0.565077L0.202638 0.666214L0.156116 0.775836L0.114068 0.8897L0.0802947 1.00356L0.046298 1.12591L0.0212479 1.24826L0 1.43379L0.00849916 1.63607L0.0380226 1.84281L0.0928198 2.04084L0.177364 2.21387L0.287182 2.35296L0.426524 2.44584L0.595612 2.47933" transform="translate(36.57254 12.139431)" id="Fill-28" fill="#F1AD3D" fill-rule="evenodd" stroke="none" />
        <path d="M3.8481 3.63471L3.67924 4.57062L2.61483 4.57062L2.64436 4.39782L2.6656 4.24198L2.68238 4.1241L2.69938 4.06047L2.64011 4.12812L2.57256 4.19554L2.49227 4.25873L2.4037 4.31789L2.30215 4.37683L2.19658 4.42751L2.08677 4.47797L1.9727 4.52017L1.85013 4.55812L1.72779 4.58781L1.60522 4.61304L1.47863 4.62979L1.35606 4.63827L1.2335 4.64251L1.11518 4.62979L1.00111 4.61304L0.853271 4.57509L0.718179 4.53311L0.599862 4.47797L0.494293 4.41479L0.401473 4.34736L0.316929 4.27145L0.249383 4.1913L0.190113 4.10691L0.139341 4.0185L0.097293 3.92562L0.0632963 3.83296L0.0380225 3.74031L0.0212479 3.64319L0.00849916 3.5463L0 3.45342L0 3.36077L0.0127487 3.19622L0.0380225 3.04016L0.0802947 2.89258L0.135092 2.74925L0.202861 2.6144L0.278907 2.49205L0.367477 2.37417L0.469019 2.26857L0.574588 2.17145L0.692905 2.08304L0.815248 2.00311L0.942064 1.93546L1.07716 1.87652L1.21672 1.83008L1.36031 1.79213L1.50793 1.7669L1.51665 1.7669L1.53768 1.76243L1.56742 1.75841L1.61372 1.75417L1.66427 1.74569L1.72354 1.74167L1.78684 1.73296L1.85863 1.72448L1.93043 1.71622L2.00222 1.70773L2.07827 1.70371L2.14604 1.69523L2.21358 1.69099L2.27688 1.68652L2.33615 1.6825L2.47974 1.6825L2.58106 1.68652L2.67388 1.69099L2.76692 1.69099L2.84297 1.69523L2.90201 1.69925L2.94429 1.70371L2.95681 1.70371L2.96553 1.67402L2.99081 1.59811L3.01183 1.5097L3.02033 1.42955L3.00333 1.33667L2.96553 1.25228L2.91476 1.17637L2.84722 1.11319L2.76692 1.05849L2.67813 1.02053L2.57681 0.995079L2.46699 0.986819L2.34868 0.982577L2.22186 0.978335L2.09102 0.978335L1.9557 0.982577L1.81636 0.991061L1.68127 1.00356L1.54618 1.01629L1.41511 1.03326L1.28852 1.05L1.16595 1.07099L1.05613 1.0922L0.954813 1.11319L0.86177 1.13864L0.785725 1.16387L0.726678 1.19334L0.680156 1.21856L0.980087 0.202499L1.07291 0.164544L1.16595 0.130832L1.26727 0.101138L1.36859 0.0801511L1.47013 0.0589412L1.57995 0.0421965L1.68977 0.0254519L1.80383 0.0169679L1.92215 0.00848396L2.04449 0.00424198L2.17131 0L2.57681 0L2.72465 0.00424198L2.87249 0.00848396L2.99081 0.0169679L3.1174 0.0379546L3.24847 0.0676484L3.38356 0.10538L3.51463 0.15606L3.64122 0.215225L3.76803 0.286669L3.88635 0.36682L3.9917 0.459697L4.08474 0.560835L4.16928 0.674698L4.23258 0.801288L4.27485 0.936138L4.30013 1.07947L4.30013 1.23977L4.27485 1.40834L3.8481 3.63471" transform="translate(7.379504 11.068443)" id="Fill-29" fill="#FFFFFE" fill-rule="evenodd" stroke="none" />
        <path d="M1.51643 0.0759091L1.51218 0.0549225L1.4954 0.0337126L1.46991 0.0209866L1.42786 0.0125027L1.38134 0.00424198L1.32632 0L1.19972 0L1.13195 0.00424198L1.06016 0.0125027L0.992612 0.0209866L0.925066 0.0294706L0.86177 0.0377313L0.8025 0.0506805L0.751952 0.0634064L0.70543 0.0759091L0.675683 0.0841698L0.64191 0.0968957L0.595612 0.113864L0.54909 0.13485L0.49407 0.160079L0.439272 0.189773L0.380226 0.219243L0.325205 0.252956L0.266158 0.295152L0.211137 0.337126L0.160589 0.388029L0.114068 0.438487L0.0717955 0.493409L0.0422721 0.55235L0.0167747 0.619775L0.00424958 0.687424L0 0.830535L0.0210242 0.944622L0.0632964 1.02879L0.118317 1.09197L0.181614 1.13439L0.253633 1.15962L0.320955 1.17235L0.388725 1.17637L0.515317 1.17235L0.629385 1.15962L0.739203 1.14266L0.836273 1.1172L0.920817 1.08796L1.00111 1.05L1.07291 1.01205L1.1362 0.965608L1.19122 0.923412L1.242 0.872955L1.28404 0.826516L1.31782 0.775836L1.34756 0.725378L1.37284 0.674698L1.39386 0.628259L1.40661 0.581821L1.44038 0.459697L1.46991 0.320381L1.4954 0.185531L1.51643 0.0759091" transform="translate(8.6932955 13.526783)" id="Fill-31" fill="#D82332" fill-rule="evenodd" stroke="none" />
        <path d="M1.14895 5.53601L0 5.53601L0.958839 0L2.95681 0L3.14692 3.28463L4.52826 0L6.61503 0L5.63494 5.53601L4.48599 5.53601L5.21244 1.39985L5.16614 1.39985L3.44686 5.53601L2.15006 5.53601L2.14156 5.3632L2.11204 4.90351L2.07402 4.25024L1.98947 2.74478L1.95145 2.08281L1.92193 1.60213L1.91343 1.39985L1.85013 1.39985L1.14895 5.53601" transform="translate(1.1912239 10.103058)" id="Fill-32" fill="#FFFFFE" fill-rule="evenodd" stroke="none" />
        <path d="M3.82708 3.63471L3.65397 4.57062L2.59381 4.57062L2.60208 4.39782L2.60633 4.246L2.60633 4.13236L2.61461 4.08168L2.55981 4.14486L2.49652 4.20805L2.42047 4.26721L2.33593 4.32637L2.24736 4.38107L2.14581 4.43153L2.04024 4.48221L1.93468 4.52441L1.82061 4.55812L1.70229 4.59183L1.58397 4.61304L1.46588 4.62979L1.34331 4.63827L1.225 4.64251L1.11093 4.62979L0.996861 4.61304L0.844771 4.57509L0.709679 4.53311L0.591362 4.47797L0.481544 4.41479L0.388501 4.34736L0.30843 4.27145L0.24066 4.1913L0.181614 4.10691L0.131066 4.0185L0.0930434 3.92562L0.0592704 3.83296L0.0380225 3.74031L0.0212479 3.64319L0.00849915 3.5463L0 3.45342L0 3.36077L0.00849915 3.19622L0.033773 3.04016L0.0717955 2.89258L0.126593 2.74925L0.190113 2.6144L0.270407 2.49205L0.358977 2.37417L0.45627 2.26857L0.565865 2.17145L0.680156 2.08304L0.802499 2.00311L0.933565 1.93546L1.06463 1.87652L1.20397 1.83008L1.34331 1.79213L1.4869 1.7669L1.49518 1.7669L1.51643 1.76243L1.54595 1.75841L1.58822 1.75417L1.64324 1.74569L1.70229 1.74167L1.76559 1.73296L1.83313 1.72448L1.90515 1.71622L1.98097 1.70773L2.05299 1.70371L2.12479 1.69523L2.19233 1.69099L2.25138 1.68652L2.31065 1.6825L2.45849 1.6825L2.55981 1.68652L2.65688 1.69099L2.74992 1.69099L2.83022 1.69523L2.89776 1.69925L2.93579 1.70371L2.95279 1.70371L2.96106 1.67402L2.97381 1.59811L2.98633 1.5097L2.99506 1.42955L2.97784 1.33667L2.94429 1.25228L2.88927 1.17637L2.82597 1.11319L2.74992 1.05849L2.66113 1.02053L2.56809 0.995079L2.46677 0.986819L2.34867 0.982577L2.22186 0.978335L2.09102 0.978335L1.9557 0.982577L1.81636 0.991061L1.68127 1.00356L1.54595 1.01629L1.41511 1.03326L1.28852 1.05L1.16595 1.07099L1.05613 1.0922L0.954589 1.11319L0.861546 1.13864L0.785725 1.16387L0.726454 1.19334L0.680156 1.21856L0.975837 0.202499L1.06866 0.164544L1.16595 0.130832L1.2628 0.101138L1.36456 0.0801511L1.46991 0.0589412L1.5757 0.0421965L1.68529 0.0254519L1.79958 0.0169679L1.91768 0.00848396L2.04024 0.00424198L2.16281 0L2.55981 0L2.7034 0.00424198L2.84699 0.00848396L2.96531 0.0169679L3.09213 0.0379546L3.22297 0.0676484L3.35828 0.10538L3.48935 0.15606L3.61997 0.215225L3.74679 0.286669L3.8651 0.36682L3.97067 0.459697L4.06774 0.560835L4.15228 0.674698L4.2158 0.801288L4.26233 0.936138L4.29163 1.07947L4.29163 1.23977L4.2706 1.40834L3.82708 3.63471" transform="translate(28.36504 11.068443)" id="Fill-34" fill="#FFFFFE" fill-rule="evenodd" stroke="none" />
        <path d="M0.0252739 0.969627L0.0505478 0.944399L0.223886 0.00848396L0.173115 0L0 0.935915L0.0252739 0.910686L0.0252739 0.969627L0.0462982 0.965609L0.0505478 0.944399L0.0252739 0.969627" transform="translate(31.993734 14.699131)" id="Fill-35" fill="#FFFFFE" fill-rule="evenodd" stroke="none" />
        <path d="M0.00402592 0.111408L0.0297471 0.141101L1.08991 0.141101L1.08991 0.0821604L0.0297471 0.0821604L0.0547973 0.111408L0.00402592 0.111408L0 0.141101L0.0297471 0.141101L0.00402592 0.111408" transform="translate(30.929102 15.527658)" id="Fill-36" fill="#FFFFFE" fill-rule="evenodd" stroke="none" />
        <path d="M0.145715 0.0334893L0.107693 0L0.0906947 0.0674252L0.0864451 0.181066L0.0864451 0.332884L0.077946 0.505689L0.128717 0.505689L0.137216 0.332884L0.145715 0.181066L0.141466 0.0674252L0.141466 0.0334893L0.103667 0L0.145715 0.0334893" transform="translate(30.85518 15.133376)" id="Fill-37" fill="#FFFFFE" fill-rule="evenodd" stroke="none" />
        <path d="M0 0.573337L0 0.573337L0.118317 0.590082L0.232385 0.602808L0.350702 0.598566L0.473269 0.590082L0.595612 0.573337L0.713929 0.552127L0.832246 0.518415L0.950339 0.484926L1.05613 0.442506L1.16573 0.392048L1.26727 0.341368L1.35606 0.282427L1.44463 0.223485L1.52068 0.164321L1.58822 0.0966725L1.64324 0.0334893L1.6012 0L1.54617 0.0631832L1.4869 0.122348L1.41086 0.181066L1.33079 0.24023L1.24199 0.290911L1.14045 0.341368L1.03913 0.392048L0.933565 0.434245L0.823747 0.468181L0.70543 0.50167L0.587112 0.52288L0.473269 0.539625L0.350702 0.548109L0.232385 0.552127L0.118317 0.539625L0.00849915 0.52288L0 0.573337" transform="translate(29.357653 15.133376)" id="Fill-38" fill="#FFFFFE" fill-rule="evenodd" stroke="none" />
        <path d="M0 0L0 0L0.00424958 0.0926538L0.0127487 0.185531L0.0252738 0.286669L0.0422721 0.383564L0.0632963 0.476218L0.0970693 0.573337L0.135315 0.670233L0.190113 0.758868L0.249159 0.84728L0.316705 0.927654L0.401249 1.00758L0.498542 1.07523L0.60836 1.14266L0.730703 1.19735L0.870268 1.23955L1.02213 1.27751L1.03063 1.22705L0.878544 1.18909L0.747702 1.14667L0.633634 1.09198L0.523816 1.03303L0.434799 0.965609L0.358977 0.893718L0.291431 0.813567L0.232161 0.733639L0.185863 0.645004L0.14784 0.556592L0.114068 0.467957L0.0928197 0.37508L0.076045 0.278408L0.0632963 0.185531L0.0547972 0.0926538L0.0590467 0L0 0" transform="translate(28.335516 14.429208)" id="Fill-39" fill="#FFFFFE" fill-rule="evenodd" stroke="none" />
        <path d="M1.51643 0L1.51643 0L1.36859 0.0252286L1.225 0.0631832L1.08566 0.109398L0.95034 0.16834L0.819274 0.235988L0.692681 0.320158L0.578613 0.409016L0.468795 0.510154L0.367477 0.61531L0.278683 0.733639L0.194139 0.860006L0.130842 0.999098L0.0760451 1.14266L0.0380225 1.29425L0.0127487 1.45455L0 1.6191L0.0590468 1.6191L0.0632963 1.45455L0.0887938 1.30273L0.126593 1.1594L0.181614 1.01607L0.24491 0.885234L0.320955 0.767352L0.409525 0.649246L0.502568 0.543866L0.612386 0.450989L0.726454 0.362578L0.844771 0.286669L0.975613 0.21902L1.10243 0.160079L1.24177 0.11364L1.37686 0.0756859L1.51643 0.0504572L1.51643 0" transform="translate(28.335516 12.810111)" id="Fill-40" fill="#FFFFFE" fill-rule="evenodd" stroke="none" />
        <path d="M0.87027 0.0420849L0.823748 0.0420849L0.764477 0.0503455L0.705431 0.0548108L0.637885 0.0588295L0.566089 0.0670902L0.49407 0.0715554L0.418248 0.0800394L0.346229 0.0883001L0.278683 0.096784L0.215387 0.105268L0.15634 0.10951L0.101319 0.117994L0.0590468 0.122013L0.0252738 0.126255L0.0082755 0.13072L0 0.13072L0 0.181177L0.0082755 0.181177L0.033773 0.176935L0.0590468 0.172693L0.101319 0.168451L0.15634 0.159967L0.215387 0.155948L0.278683 0.147464L0.346229 0.13898L0.418248 0.13072L0.49407 0.122013L0.566089 0.117994L0.637885 0.10951L0.705431 0.105268L0.764477 0.101026L0.87027 0.101026L0.87027 0.0420849" transform="translate(29.851946 12.679391)" id="Fill-41" fill="#FFFFFE" fill-rule="evenodd" stroke="none" />
        <path d="M0.570115 0.117882L0.595613 0.0966724L0.578614 0.0966724L0.540592 0.0926537L0.473046 0.0884117L0.392751 0.0799277L0.202638 0.0799277L0.101319 0.0716671L0 0.0716671L0 0.130608L0.202638 0.130608L0.299707 0.139092L0.473046 0.139092L0.540592 0.143111L0.578614 0.147576L0.595613 0.147576L0.620663 0.126366L0.595613 0.147576L0.616637 0.151595L0.620663 0.126366L0.570115 0.117882" transform="translate(30.722214 12.649809)" id="Fill-42" fill="#FFFFFE" fill-rule="evenodd" stroke="none" />
        <path d="M0.105568 0L0.101319 0L0.0970691 0.0801512L0.084544 0.164321L0.0717953 0.24023L0.0632962 0.269701L0.113844 0.278185L0.122343 0.248491L0.135091 0.172805L0.14784 0.0801512L0.160365 0L0.105568 0" transform="translate(31.229033 12.497991)" id="Fill-43" fill="#FFFFFE" fill-rule="evenodd" stroke="none" />
        <path d="M0 0.0549225L0 0.0591645L0.0972931 0.0634064L0.185863 0.0886351L0.270408 0.12659L0.342203 0.17727L0.40125 0.236211L0.452245 0.307878L0.486018 0.383788L0.502793 0.472423L0.553564 0.472423L0.536566 0.375527L0.502793 0.28265L0.443746 0.202499L0.3762 0.135074L0.295682 0.0761324L0.202862 0.0379546L0.105792 0.0127259L0 0L0 0.0549225" transform="translate(30.831808 12.025567)" id="Fill-44" fill="#FFFFFE" fill-rule="evenodd" stroke="none" />
        <path d="M0 0.265682L0.0420485 0.290911L0.0843206 0.269701L0.139341 0.24023L0.211137 0.215002L0.303957 0.189773L0.405276 0.168563L0.515094 0.147576L0.63766 0.126366L0.760227 0.109622L0.891069 0.0926538L1.02638 0.0801511L1.16148 0.0674252L1.30082 0.0589412L1.69379 0.0589412L1.81189 0.0631832L1.81189 0.0125027L1.69379 0.0082607L1.56698 0L1.43613 0L1.30082 0.0082607L1.16148 0.0167447L1.02638 0.0294706L0.891069 0.0421966L0.760227 0.0589412L0.629161 0.0759092L0.506594 0.0968958L0.397 0.118106L0.295457 0.139092L0.202638 0.164321L0.122343 0.189773L0.0588231 0.219244L0.00827549 0.248714L0.0505476 0.273943L0 0.265682" transform="translate(29.019922 12.017307)" id="Fill-45" fill="#FFFFFE" fill-rule="evenodd" stroke="none" />
        <path d="M0.312457 0L0.295458 0.0209867L0 1.03728L0.0505477 1.04554L0.34623 0.0294706L0.329231 0.0504573L0.312457 0L0.299708 0.00401872L0.295458 0.0209867L0.312457 0" transform="translate(29.019922 11.245713)" id="Fill-46" fill="#FFFFFE" fill-rule="evenodd" stroke="none" />
        <path d="M1.87966 0.012726L1.87966 0.012726L1.73606 0.00424199L1.59247 0L1.19547 0L1.07291 0.00848397L0.95034 0.012726L0.832246 0.0212099L0.717955 0.0294706L0.603888 0.0464386L0.498543 0.0631833L0.392751 0.0843932L0.291432 0.105603L0.190113 0.134851L0.0928198 0.168563L0 0.206741L0.0167747 0.257198L0.109818 0.219244L0.206887 0.185531L0.299931 0.15606L0.40125 0.134851L0.507042 0.113864L0.612387 0.0971192L0.717955 0.0801512L0.832246 0.0716672L0.95034 0.0631833L1.07291 0.0591645L1.59247 0.0591645L1.73606 0.0631833L1.87966 0.0631833L1.87966 0.012726" transform="translate(29.332378 11.038972)" id="Fill-47" fill="#FFFFFE" fill-rule="evenodd" stroke="none" />
        <path d="M1.44888 1.42932L1.44888 1.42932L1.47013 1.25652L1.47013 1.09622L1.44061 0.948641L1.39408 0.809548L1.32654 0.67894L1.24177 0.560834L1.14045 0.455455L1.03488 0.362578L0.91254 0.282427L0.785724 0.206517L0.650632 0.147576L0.519566 0.0968958L0.380225 0.0589412L0.249383 0.0294706L0.118317 0.00848396L0 0L0 0.0504572L0.118317 0.0589412L0.240884 0.0799278L0.37195 0.109622L0.502568 0.147576L0.633634 0.198034L0.76045 0.257198L0.887043 0.324623L1.00111 0.404774L1.1069 0.497651L1.19972 0.594547L1.28427 0.703945L1.34331 0.826516L1.38961 0.957125L1.41936 1.09622L1.41936 1.25652L1.39811 1.42106L1.44888 1.42932" transform="translate(31.212034 11.051699)" id="Fill-48" fill="#FFFFFE" fill-rule="evenodd" stroke="none" />
        <path d="M0.0507712 2.23485L0.0507712 2.23485L0.494068 0.0082607L0.443297 0L0 2.22637L0.0507712 2.23485" transform="translate(32.166847 12.472762)" id="Fill-49" fill="#FFFFFE" fill-rule="evenodd" stroke="none" />
        <path d="M1.49093 0.0801511L1.48266 0.0549225L1.46588 0.0337126L1.43613 0.0212099L1.39386 0.00848396L1.34734 0.00424198L1.29254 0L1.22902 0L1.16573 0.00424198L1.09818 0.0127259L1.03041 0.0212099L0.963088 0.0294706L0.899568 0.0379546L0.836272 0.0506805L0.781251 0.0591644L0.726454 0.0716671L0.684182 0.0801511L0.654659 0.084393L0.620886 0.097119L0.578613 0.109622L0.532092 0.126366L0.477295 0.151818L0.426523 0.177047L0.367477 0.206741L0.257435 0.28265L0.202638 0.329088L0.156116 0.375304L0.109594 0.430226L0.0717955 0.488944L0.0420484 0.552574L0.0167746 0.619775L0.00424958 0.691666L0 0.834777L0.0210242 0.948864L0.0547972 1.03303L0.105568 1.09622L0.168865 1.13864L0.24066 1.16387L0.312456 1.17659L0.384251 1.18061L0.511068 1.17659L0.629161 1.16387L0.739203 1.14266L0.836272 1.11318L0.929315 1.07947L1.00961 1.04152L1.08543 0.999321L1.15298 0.948864L1.21225 0.902202L1.2628 0.847503L1.30932 0.796822L1.34734 0.742123L1.37686 0.691666L1.39811 0.640985L1.41489 0.590305L1.42763 0.54409L1.44463 0.425761L1.46588 0.303636L1.48266 0.185531L1.49093 0.0801511" transform="translate(29.678831 13.52254)" id="Fill-50" fill="#F1AD3D" fill-rule="evenodd" stroke="none" />
        <path d="M0 0.569319L0.00849915 0.4722L0.0422721 0.358336L0.101319 0.257198L0.173338 0.168786L0.261908 0.0968958L0.363227 0.0464386L0.473045 0.0125027L0.591362 0L0.709679 0.0125027L0.819497 0.0464386L0.920816 0.0968958L1.00961 0.168786L1.08141 0.257198L1.14068 0.358336L1.17422 0.4722L1.18272 0.569319L1.05613 0.569319L1.05166 0.49341L1.02638 0.400533L0.984336 0.316363L0.929315 0.244472L0.861769 0.185531L0.781251 0.143334L0.688431 0.113864L0.591362 0.105157L0.494293 0.113864L0.401249 0.143334L0.321178 0.185531L0.253409 0.244472L0.198612 0.316363L0.156116 0.400533L0.130842 0.49341L0.122567 0.569319L0 0.569319" transform="translate(39.871555 14.492391)" id="Fill-51" fill="#FFFFFE" fill-rule="evenodd" stroke="none" />
        <path d="M0 0.252956L0 0L0.232384 0L0.283156 0.00401872L0.329677 0.0125027L0.36345 0.0252287L0.392973 0.0419733L0.414221 0.0674253L0.430996 0.0926539L0.439495 0.122125L0.443745 0.151595L0.439495 0.18955L0.430996 0.21902L0.418471 0.244249L0.409748 0.252956L0.232384 0.252956L0.249383 0.248714L0.27913 0.244249L0.304403 0.235988L0.325428 0.227504L0.342426 0.215002L0.350925 0.202276L0.359201 0.181066L0.359201 0.151595L0.354951 0.130609L0.346452 0.113864L0.333927 0.105157L0.321178 0.0966727L0.29993 0.0926539L0.27913 0.0884119L0.105792 0.0884119L0.105792 0.252956L0 0.252956" transform="translate(40.251556 14.808753)" id="Fill-52" fill="#FFFFFE" fill-rule="evenodd" stroke="none" />
        <path d="M0.00424958 0L0 0.0252286L0.0127487 0.147576L0.0465217 0.261217L0.105568 0.362578L0.177588 0.446971L0.266158 0.518638L0.367476 0.573337L0.477294 0.60705L0.595612 0.619776L0.713929 0.60705L0.823747 0.573337L0.925065 0.518638L1.01386 0.446971L1.08565 0.362578L1.14493 0.261217L1.17847 0.147576L1.19122 0.0252286L1.18697 0L1.06038 0L1.06441 0.0252286L1.05591 0.126366L1.03063 0.219243L0.988585 0.299171L0.933565 0.370838L0.866019 0.430003L0.7855 0.476218L0.692681 0.505912L0.595612 0.514173L0.498542 0.505912L0.405499 0.476218L0.325428 0.430003L0.257658 0.370838L0.202861 0.299171L0.160366 0.219243L0.135092 0.126366L0.126816 0.0252286L0.126816 0L0.00424958 0" transform="translate(39.867306 15.061708)" id="Fill-53" fill="#FFFFFE" fill-rule="evenodd" stroke="none" />
        <path d="M0 0L0 0.257198L0.105792 0.257198L0.105792 0.0464386L0.21136 0.0464386L0.338176 0.257198L0.422497 0.257198L0.295904 0.0464386L0.325428 0.0464386L0.354951 0.0377314L0.380448 0.0292474L0.401249 0.0125027L0.409748 0L0.232384 0L0.21136 0.00401872L0.105792 0.00401872L0.105792 0L0 0" transform="translate(40.251556 15.061708)" id="Fill-54" fill="#FFFFFE" fill-rule="evenodd" stroke="none" />
        <path d="M0 4.56214L1.19122 4.56214L1.61819 2.16296L1.63475 2.07031L1.66024 1.97743L1.68552 1.88478L1.71929 1.79212L1.76156 1.69925L1.81233 1.61084L1.86713 1.52644L1.9349 1.44629L2.01094 1.37462L2.09504 1.3072L2.19233 1.24379L2.30215 1.19334L2.42472 1.15114L2.56003 1.11743L2.70787 1.09197L2.87249 1.08371L2.97806 1.08371L3.16817 0L3.04985 0.00848396L2.93579 0.0212099L2.83022 0.0421965L2.72868 0.0716671L2.63586 0.10538L2.54729 0.147576L2.46274 0.194015L2.38267 0.244695L2.30663 0.303636L2.23461 0.362578L2.09951 0.497651L2.03622 0.569318L1.97292 0.649469L1.9094 0.725155L1.85035 0.809548L1.97695 0.0464385L0.789974 0.0464385L0 4.56214" transform="translate(32.508823 11.076927)" id="Fill-56" fill="#FFFFFE" fill-rule="evenodd" stroke="none" />
        <path d="M0 4.56214L1.21225 4.56214L1.61775 2.16296L1.63452 2.07031L1.67702 1.89326L1.70632 1.80887L1.74031 1.72448L1.78236 1.64455L1.83313 1.56842L1.89218 1.49697L1.95995 1.43357L2.036 1.37061L2.12881 1.3197L2.23013 1.27349L2.34867 1.23553L2.47929 1.20182L2.62311 1.18061L2.78772 1.16788L2.80047 1.16788L2.81747 1.17213L2.83849 1.17637L2.85974 1.17637L2.88077 1.18061L2.89776 1.18485L2.91029 1.18909L2.91454 1.18909L2.93154 1.12167L2.94831 1.04576L2.96956 0.952883L2.99908 0.843261L3.02861 0.725155L3.10465 0.489167L3.13842 0.409016L3.1807 0.328865L3.22297 0.248937L3.26502 0.177047L3.30326 0.113864L3.33279 0.0634064L3.35403 0.0337126L3.36231 0.0212099L3.35806 0.0212099L3.34106 0.0169679L3.32004 0.0127259L3.29051 0.00848396L3.26099 0.00848396L3.22699 0.00424198L3.19747 0L3.16817 0L3.03711 0.00848396L2.91879 0.0212099L2.80897 0.0421965L2.70765 0.0676484L2.61036 0.101138L2.52179 0.143334L2.44149 0.185531L2.36545 0.236211L2.29343 0.290911L2.22611 0.354094L2.16259 0.4175L2.09929 0.489167L2.036 0.560834L1.97672 0.640985L1.91343 0.725155L1.85013 0.809548L2.00222 0.0464385L0.789974 0.0464385L0 4.56214" transform="translate(21.323488 11.076927)" id="Fill-58" fill="#FFFFFE" fill-rule="evenodd" stroke="none" />
        <path d="M0 0.46818L0 0.450989L0.0337729 0.341367L0.0928197 0.244695L0.164839 0.160302L0.253409 0.0926536L0.354728 0.0419732L0.464546 0.0127259L0.582863 0L0.70118 0.0127259L0.810998 0.0419732L0.912317 0.0926536L1.00111 0.160302L1.07291 0.244695L1.13218 0.341367L1.16573 0.450989L1.16573 0.46818L1.04316 0.46818L1.01789 0.379545L0.975837 0.299394L0.920816 0.227504L0.85327 0.168786L0.772752 0.122347L0.679932 0.0926536L0.582863 0.0843929L0.485794 0.0926536L0.39275 0.122347L0.312679 0.168786L0.24491 0.227504L0.190113 0.299394L0.147617 0.379545L0.122343 0.46818L0 0.46818" transform="translate(39.880054 19.607103)" id="Fill-60" fill="#F1AD3D" fill-rule="evenodd" stroke="none" />
        <path d="M0 0.185531L0 0.0377314L0.283156 0.0377314L0.329677 0.0462154L0.36345 0.0546994L0.392973 0.0714441L0.414221 0.0926541L0.430996 0.117883L0.439495 0.147577L0.443745 0.185531L0.359201 0.185531L0.359201 0.164321L0.354951 0.143111L0.346452 0.126367L0.333927 0.117883L0.321178 0.109622L0.29993 0.105157L0.27913 0.101138L0.105792 0.101138L0.105792 0.185531L0 0.185531" transform="translate(40.251556 19.889753)" id="Fill-61" fill="#F1AD3D" fill-rule="evenodd" stroke="none" />
        <path d="M0.0442853 0.157958L0.0570341 0.0653044L0.179378 0.0653044L0.179378 0.0693231L0.171102 0.157958L0.0442853 0.157958" transform="translate(39.82302 20.00998)" id="Fill-62" fill="#F1AD3D" fill-rule="evenodd" stroke="none" />
        <path d="M0 0.157958L0 0.0653044L0.105792 0.0653044L0.105792 0.149474L0.21136 0.149474L0.249383 0.14099L0.27913 0.136748L0.304403 0.128488L0.325428 0.120004L0.342426 0.107278L0.350925 0.0945518L0.359201 0.0735651L0.359201 0.0653044L0.443745 0.0653044L0.439495 0.0945518L0.430996 0.120004L0.418471 0.14099L0.401249 0.157958L0 0.157958" transform="translate(40.251556 20.00998)" id="Fill-63" fill="#F1AD3D" fill-rule="evenodd" stroke="none" />
        <path d="M0.0526727 0.157958L0.0441735 0.0693231L0.0441735 0.0653044L0.166741 0.0653044L0.17949 0.157958L0.0526727 0.157958" transform="translate(40.879044 20.00998)" id="Fill-64" fill="#F1AD3D" fill-rule="evenodd" stroke="none" />
        <path d="M0 0L0 0.0125027L0.0127487 0.13485L0.0465217 0.248714L0.105568 0.349852L0.177588 0.438487L0.266158 0.510154L0.367476 0.560611L0.477294 0.594547L0.595612 0.60705L0.713929 0.594547L0.823747 0.560611L0.925065 0.510154L1.01386 0.438487L1.08565 0.349852L1.14493 0.248714L1.17847 0.13485L1.19122 0.0125027L1.19122 0L1.06441 0L1.06441 0.0125027L1.05591 0.11364L1.03063 0.206518L0.988585 0.286669L0.933565 0.358336L0.866019 0.4175L0.7855 0.463716L0.692681 0.493186L0.595612 0.50167L0.498542 0.493186L0.405499 0.463716L0.325428 0.4175L0.257658 0.358336L0.202861 0.286669L0.160366 0.206518L0.135092 0.11364L0.126816 0.0125027L0.126816 0L0 0" transform="translate(39.867306 20.167936)" id="Fill-65" fill="#F1AD3D" fill-rule="evenodd" stroke="none" />
        <path d="M0 0L0 0.244473L0.105792 0.244473L0.105792 0.0337126L0.21136 0.0337126L0.338176 0.244473L0.422497 0.244473L0.295904 0.0337126L0.325428 0.0337126L0.354951 0.0252287L0.380448 0.0167447L0.401249 0L0 0" transform="translate(40.251556 20.167936)" id="Fill-66" fill="#F1AD3D" fill-rule="evenodd" stroke="none" />
      </g>
    </g>
    <g id="dc-copy" transform="translate(254.4131 0)">
      <path d="M70.1991 42.5566C70.1991 43.8801 69.1068 45 67.8161 45L2.383 45C1.09221 45 0 43.8801 0 42.5566L0 2.44344C0 1.11991 1.09221 0 2.383 0L67.8161 0C69.1068 0 70.1991 1.11991 70.1991 2.44344L70.1991 42.5566Z" transform="matrix(1 0 0 1 2.1918437E-13 2.213614E-13)" id="Path" fill="#FCFCFC" fill-rule="evenodd" stroke="none" />
      <path d="M0 19.2421L48.5535 19.2421C49.8443 19.2421 50.9365 18.1222 50.9365 16.7986L50.9365 0C46.1705 2.95249 28.6952 13.4389 0 19.2421Z" transform="translate(19.361835 25.757917)" id="Path" fill="#F58220" fill-rule="evenodd" stroke="none" />
      <g id="Group" transform="translate(14.198679 18.936651)">
        <path d="M3.4752 0C1.58866 0 0 1.52715 0 3.46154C0 5.49774 1.48937 7.02489 3.4752 7.02489C5.46103 7.02489 6.9504 5.49774 6.9504 3.56335C6.9504 1.62896 5.36174 0 3.4752 0Z" transform="translate(18.368921 0)" id="Path" fill="url(#gradient_1)" fill-rule="evenodd" stroke="none" />
        <path d="M1.88654 0L0 0L0 6.71946L1.88654 6.71946C2.87945 6.71946 3.57449 6.51584 4.26953 5.90498C5.06387 5.29412 5.46103 4.27602 5.46103 3.35973C5.46103 1.32353 3.97166 0 1.88654 0ZM3.4752 4.98869C3.07804 5.39593 2.58158 5.49774 1.68796 5.49774L1.39008 5.49774L1.39008 1.0181L1.68796 1.0181C2.48229 1.0181 2.97874 1.11991 3.4752 1.52715C3.87237 1.93439 4.17024 2.54525 4.17024 3.15611C4.17024 3.97059 3.87237 4.58145 3.4752 4.98869Z" transform="translate(0 0.20361988)" id="Shape" fill="#001722" stroke="none" />
        <path d="M0 0L1.29079 0L1.29079 6.71946L0 6.71946L0 0Z" transform="translate(6.05678 0.20361988)" id="Rectangle" fill="#001722" fill-rule="evenodd" stroke="none" />
        <path d="M2.58158 2.64706C1.78725 2.34163 1.58866 2.13801 1.58866 1.83258C1.58866 1.42534 1.98583 1.11991 2.58158 1.11991C2.97874 1.11991 3.27662 1.32353 3.57449 1.62896L4.26953 0.71267C3.67378 0.20362 3.07804 0 2.383 0C1.1915 0 0.297874 0.81448 0.297874 1.93439C0.297874 2.85068 0.69504 3.35973 1.88654 3.76697C2.383 3.97059 2.68087 4.0724 2.78016 4.17421C3.07804 4.37783 3.17733 4.58145 3.17733 4.88688C3.17733 5.39593 2.78016 5.80317 2.18441 5.80317C1.58866 5.80317 1.09221 5.49774 0.794332 4.88688L0 5.70136C0.595749 6.61765 1.29079 7.02489 2.2837 7.02489C3.57449 7.02489 4.56741 6.1086 4.56741 4.78507C4.46812 3.66516 4.07095 3.15611 2.58158 2.64706Z" transform="translate(7.844026 0.10180994)" id="Path" fill="#001722" fill-rule="evenodd" stroke="none" />
        <path d="M0 3.56335C0 5.49774 1.48937 7.1267 3.4752 7.1267C4.07095 7.1267 4.46812 7.02489 5.06387 6.71946L5.06387 5.19231C4.56741 5.70136 4.07095 5.90498 3.4752 5.90498C2.18441 5.90498 1.29079 4.98869 1.29079 3.56335C1.29079 2.23982 2.2837 1.22172 3.4752 1.22172C4.07095 1.22172 4.56741 1.42534 5.06387 1.93439L5.06387 0.40724C4.46812 0.10181 4.07095 0 3.4752 0C1.58866 0 0 1.62896 0 3.56335Z" transform="translate(12.709309 0)" id="Path" fill="#001722" fill-rule="evenodd" stroke="none" />
        <path d="M3.17733 4.47964L1.39008 0L0 0L2.78016 6.82127L3.4752 6.82127L6.35465 0L4.96457 0L3.17733 4.47964Z" transform="translate(25.021452 0.20361988)" id="Path" fill="#001722" fill-rule="evenodd" stroke="none" />
        <path d="M0 6.71946L3.57449 6.71946L3.57449 5.59955L1.29079 5.59955L1.29079 3.76697L3.4752 3.76697L3.4752 2.64706L1.29079 2.64706L1.29079 1.11991L3.57449 1.11991L3.57449 0L0 0L0 6.71946Z" transform="translate(31.971853 0.20361988)" id="Path" fill="#001722" fill-rule="evenodd" stroke="none" />
        <path d="M4.17024 2.0362C4.17024 0.81448 3.27662 0 1.88654 0L0 0L0 6.71946L1.29079 6.71946L1.29079 3.97059L1.48937 3.97059L3.27662 6.71946L4.86528 6.71946L2.78016 3.86878C3.67379 3.76697 4.17024 3.0543 4.17024 2.0362ZM1.58866 3.15611L1.1915 3.15611L1.1915 1.11991L1.58866 1.11991C2.383 1.11991 2.78016 1.42534 2.78016 2.13801C2.87945 2.74887 2.48229 3.15611 1.58866 3.15611Z" transform="translate(36.439972 0.10180994)" id="Shape" fill="#001722" stroke="none" />
        <path d="M0.502438 0.254525C0.502438 0.127262 0.376829 -2.98023e-08 0.251219 -2.98023e-08L0 -2.98023e-08L0 0.763575L0.12561 0.763575L0.12561 0.50905L0.376829 0.763575L0.628048 0.763575L0.376829 0.50905C0.502438 0.381787 0.502438 0.254525 0.502438 0.254525ZM0.251219 0.254525L0.251219 0.254525L0.251219 -5.96046e-08L0.251219 -5.96046e-08C0.376829 -5.96046e-08 0.376829 -5.96046e-08 0.376829 0.127262C0.376829 0.254525 0.376829 0.254525 0.251219 0.254525Z" transform="translate(41.10667 0.5090497)" id="Shape" fill="#231F20" stroke="none" />
        <path d="M0.628048 0C0.251219 0 0 0.254525 0 0.636312C0 1.0181 0.251219 1.27262 0.628048 1.27262C1.00488 1.27262 1.2561 1.0181 1.2561 0.636312C1.2561 0.254525 1.00488 0 0.628048 0ZM0.628048 1.14536C0.376829 1.14536 0.12561 0.890837 0.12561 0.636312C0.12561 0.381787 0.376829 0.127262 0.628048 0.127262C0.879267 0.127262 1.13049 0.381787 1.13049 0.636312C1.13049 0.890837 1.00488 1.14536 0.628048 1.14536Z" transform="translate(40.808796 0.30542982)" id="Shape" fill="#231F20" stroke="none" />
      </g>
    </g>
    <g id="ae-copy" transform="translate(338.10162 0)">
      <path d="M70.2983 42.5566C70.2983 43.8801 69.2046 45 67.912 45L2.38637 45C1.09375 45 0 43.8801 0 42.5566L0 2.44344C0 1.11991 1.09375 0 2.38637 0L67.912 0C69.2046 0 70.2983 1.11991 70.2983 2.44344L70.2983 42.5566Z" transform="matrix(1 0 0 1 2.7014694E-13 2.213614E-13)" id="Path" fill="#FCFCFC" fill-rule="evenodd" stroke="none" />
      <g id="Group" transform="translate(7.556823 11.911765)">
        <path d="M14.3182 9.57014L14.3182 8.85747L14.0199 9.57014L11.1364 9.57014L10.7386 8.75566L10.7386 9.57014L5.26989 9.57014L4.6733 8.04299L3.57955 8.04299L2.88352 9.57014L0 9.57014L0 4.88688L2.08807 0.10181L6.06534 0.10181L6.66194 1.42534L6.66194 0.10181L11.5341 0.10181L12.6278 2.34163L13.6222 0L28.8352 0C28.8352 0 29.6307 0 30.1279 0.40724L30.1279 0L34.0057 0L34.0057 0.50905C34.0057 0.50905 34.7017 0 35.696 0C36.6904 0 42.4574 0 42.4574 0L43.054 1.42534L43.054 0L47.429 0L48.2245 1.42534L48.2245 0L52.4006 0L52.4006 9.46833L48.125 9.46833L47.1307 7.83937L47.1307 9.46833L41.7614 9.46833L40.9659 7.73756L39.9716 7.73756L39.2756 9.46833L36.0938 9.46833C36.0938 9.46833 34.9006 9.46833 34.0057 8.75566C34.0057 9.06109 34.0057 9.46833 34.0057 9.46833L27.6421 9.46833C27.6421 9.46833 27.6421 7.53394 27.6421 7.22851C27.6421 6.92308 27.4432 6.92308 27.4432 6.92308L27.2443 6.92308L27.2443 9.46833L14.3182 9.46833L14.3182 9.57014Z" id="Path" fill="#FFFFFF" fill-rule="evenodd" stroke="none" />
        <path d="M0 0L8.45171 0L9.64489 1.42534L10.8381 0L17.3011 0C17.3011 0 17.8977 0 18.4943 0.30543L18.4943 0C18.4943 0 23.5654 0 24.2614 0C24.9574 0 25.6534 0.40724 25.6534 0.40724L25.6534 0L33.0114 0L33.0114 0.30543C33.0114 0.30543 33.5085 0 34.2046 0C34.9006 0 38.9773 0 38.9773 0L38.9773 0.30543C38.9773 0.30543 39.5739 0 40.2699 0C40.8665 0 44.0483 0 44.0483 0L44.0483 8.95927C44.0483 8.95927 43.5512 9.57013 42.5568 9.57013L37.5853 9.57013L37.5853 9.2647C37.5853 9.2647 37.0881 9.57013 36.3921 9.57013C35.696 9.57013 23.1676 9.57013 23.1676 9.57013C23.1676 9.57013 23.1676 7.53394 23.1676 7.22851C23.1676 7.02489 23.0682 6.92308 22.8693 6.92308L22.6705 6.92308L22.6705 9.46832L18.4943 9.46832L18.4943 6.92308C18.4943 6.92308 17.9972 7.1267 17.3011 7.1267C16.5057 7.1267 15.8097 7.1267 15.8097 7.1267L15.8097 9.46832L10.7386 9.46832L9.54546 8.04298L8.35228 9.46832L0.0994319 9.46832L0.0994319 0L0 0Z" transform="translate(11.036939 11.606334)" id="Path" fill="#FFFFFF" fill-rule="evenodd" stroke="none" />
        <path d="M0 0L5.26989 0L5.26989 1.42534L1.59091 1.42534L1.59091 2.64706L5.17046 2.64706L5.17046 3.97059L1.59091 3.97059L1.59091 5.29412L5.26989 5.29412L5.26989 6.71946L0 6.71946L0 0Z" transform="translate(37.58525 13.031673)" id="Path" fill="#0078A9" fill-rule="evenodd" stroke="none" />
        <path d="M3.48012 2.44344C5.46875 2.54525 5.66762 3.56335 5.66762 4.68326C5.66762 5.90498 4.6733 6.61765 3.57955 6.61765L0.0994319 6.61765L0.0994319 5.19231L2.78409 5.19231C3.28125 5.19231 3.87784 5.19231 3.87784 4.58145C3.87784 4.27602 3.77841 4.0724 3.28125 4.0724C3.08239 4.0724 2.28693 3.97059 2.1875 3.97059C0.397728 3.97059 0 3.0543 0 1.93439C0 0.71267 0.894887 0 1.88921 0L5.26989 0L5.26989 1.42534L2.78409 1.42534C2.1875 1.42534 1.59091 1.32353 1.59091 2.0362C1.59091 2.44344 1.88921 2.54525 2.28693 2.54525C2.4858 2.44344 3.28125 2.54525 3.48012 2.44344Z" transform="translate(49.61651 13.133483)" id="Path" fill="#0078A9" fill-rule="evenodd" stroke="none" />
        <path d="M3.38068 2.44344C5.36932 2.54525 5.56818 3.56335 5.56818 4.68326C5.56818 5.90498 4.57387 6.61765 3.48011 6.61765L0.0994319 6.61765L0.0994319 5.19231L2.78409 5.19231C3.28125 5.19231 3.87784 5.19231 3.87784 4.58145C3.87784 4.27602 3.77841 4.0724 3.28125 4.0724C3.08239 4.0724 2.28693 3.97059 2.1875 3.97059C0.397727 3.97059 0 3.0543 0 1.93439C0 0.71267 0.894887 0 1.88921 0L5.26989 0L5.26989 1.42534L2.78409 1.42534C2.1875 1.42534 1.59091 1.32353 1.59091 2.0362C1.59091 2.44344 1.88921 2.54525 2.28693 2.54525C2.38636 2.44344 3.28125 2.54525 3.38068 2.44344Z" transform="translate(43.551163 13.133483)" id="Path" fill="#0078A9" fill-rule="evenodd" stroke="none" />
        <path d="M15.7102 0L10.0426 0L8.15341 2.13801L6.36364 0L0 0L0 6.71946L6.16478 6.71946L8.05398 4.47964L9.94319 6.71946L13.0256 6.71946L13.0256 4.47964L15.2131 4.47964C16.0085 4.47964 17.5994 4.47964 17.5994 2.13801C17.6989 0.40724 16.5057 0 15.7102 0ZM5.36932 5.29412L1.69034 5.29412L1.69034 3.97059L5.26989 3.97059L5.26989 2.64706L1.69034 2.64706L1.69034 1.42534L5.56819 1.42534L7.1591 3.25792L5.36932 5.29412ZM11.5341 6.1086L9.24716 3.25792L11.5341 0.61086L11.5341 6.1086ZM15.2131 3.0543L13.2244 3.0543L13.2244 1.42534L15.2131 1.42534C15.9091 1.42534 16.108 1.83258 16.108 2.23982C16.108 2.64706 15.8097 3.0543 15.2131 3.0543Z" transform="translate(12.130689 13.031673)" id="Shape" fill="#0078A9" stroke="none" />
        <path d="M4.97159 3.66516C5.86648 3.25792 6.06535 2.64706 6.06535 1.83258C6.06535 0.40724 4.87216 0 4.17614 0L0 0L0 6.71946L1.59091 6.71946L1.59091 4.37783L3.67898 4.37783C4.27557 4.37783 4.47444 4.98869 4.47444 5.49774L4.47444 6.71946L6.06535 6.71946L5.96591 5.29412C6.06535 4.27602 5.76705 3.76697 4.97159 3.66516ZM3.57955 2.95249L1.59091 2.95249L1.59091 1.42534L3.57955 1.42534C4.27557 1.42534 4.47444 1.83258 4.47444 2.23982C4.47444 2.64706 4.27557 2.95249 3.57955 2.95249Z" transform="translate(30.62502 13.031673)" id="Shape" fill="#0078A9" stroke="none" />
        <path d="M0 0L1.59091 0L1.59091 6.71946L0 6.71946L0 0Z" transform="translate(31.22161 1.4253392)" id="Rectangle" fill="#0078A9" fill-rule="evenodd" stroke="none" />
        <path d="M0 0L5.26989 0L5.26989 1.42534L1.59091 1.42534L1.59091 2.64706L5.17046 2.64706L5.17046 3.97059L1.59091 3.97059L1.59091 5.29412L5.26989 5.29412L5.26989 6.71946L0 6.71946L0 0Z" transform="translate(18.096601 1.4253392)" id="Path" fill="#0078A9" fill-rule="evenodd" stroke="none" />
        <path d="M4.97159 3.66516C5.86648 3.25792 6.06534 2.64706 6.06534 1.83258C6.06534 0.40724 4.87216 0 4.17614 0L0 0L0 6.71946L1.59091 6.71946L1.59091 4.37783L3.67898 4.37783C4.27557 4.37783 4.47443 4.98869 4.47443 5.49774L4.47443 6.71946L6.06534 6.71946L5.96591 5.29412C5.96591 4.27602 5.66762 3.76697 4.97159 3.66516ZM3.57955 2.95249L1.59091 2.95249L1.59091 1.42534L3.57955 1.42534C4.27557 1.42534 4.47443 1.83258 4.47443 2.23982C4.47443 2.64706 4.17614 2.95249 3.57955 2.95249Z" transform="translate(24.360811 1.4253392)" id="Shape" fill="#0078A9" stroke="none" />
        <path d="M14.2188 0L12.2301 4.47964L10.2415 0L7.75569 0L7.75569 6.51584L4.97159 0L2.88352 0L0 6.71946L1.69034 6.71946L2.28693 5.19231L5.46875 5.19231L6.06534 6.71946L9.3466 6.71946L9.3466 1.73077L11.5341 6.71946L13.0256 6.71946L15.2131 1.83258L15.2131 6.71946L16.804 6.71946L16.804 0L14.2188 0ZM2.88352 3.76697L3.87784 1.42534L4.87216 3.76697L2.88352 3.76697Z" transform="translate(0.09943188 1.4253392)" id="Shape" fill="#0078A9" stroke="none" />
        <path d="M15.7102 0L15.7102 4.68326L13.0256 0L10.6392 0L10.6392 6.31222L7.85512 1.80851e-15L5.76705 1.80851e-15L3.57955 5.19231C3.57955 5.19231 2.68466 5.19231 2.58523 5.19231C2.1875 5.0905 1.59091 4.78507 1.59091 3.66516L1.59091 3.15611C1.59091 1.52715 2.38637 1.42534 3.48012 1.42534L4.47443 1.42534L4.47443 3.61702e-15L2.38637 3.61702e-15C1.69034 3.61702e-15 0.0994319 0.61086 0 3.35973C0 5.19231 0.795455 6.71946 2.58523 6.71946L4.6733 6.71946L5.26989 5.19231L8.45171 5.19231L9.0483 6.71946L12.2301 6.71946L12.2301 1.83258L15.1136 6.71946L17.3011 6.71946L17.3011 3.61702e-15L15.7102 3.61702e-15L15.7102 0ZM5.86648 3.76697L6.8608 1.42534L7.85512 3.76697L5.86648 3.76697Z" transform="translate(33.80684 1.4253392)" id="Shape" fill="#0078A9" stroke="none" />
      </g>
    </g>
  </g>
</svg>