<?xml version="1.0" encoding="utf-8"?>
<svg width="42px" height="27px" viewBox="0 0 42 27" version="1.1" xmlns:xlink="http://www.w3.org/1999/xlink" xmlns="http://www.w3.org/2000/svg">
  <g id="v-copy">
    <path d="M42 25.5339C42 26.3281 41.3465 27 40.5743 27L1.42574 27C0.653465 27 0 26.3281 0 25.5339L0 1.46606C0 0.671946 0.653465 0 1.42574 0L40.5743 0C41.3465 0 42 0.671946 42 1.46606L42 25.5339L42 25.5339Z" transform="matrix(1 0 0 1 -3.3768368E-13 2.213614E-13)" id="Path" fill="#FCFCFC" stroke="none" />
    <g id="Group" transform="translate(8.435643 9.285068)">
      <g id="Group">
        <path d="M2.07921 8.06335L0 8.06335L1.30693 0L3.32673 0L2.07921 8.06335Z" transform="translate(8.851485 0.18325792)" id="Path" fill="#0066B2" stroke="none" />
        <path d="M7.12871 0.122172L5.16832 5.681L4.93069 4.45928L4.93069 4.45928L4.21782 0.794118C4.21782 0.794118 4.15842 0.061086 3.26733 0.061086L0.0594059 0.061086L0 0.183258C0 0.183258 1.0099 0.366516 2.13861 1.09955L3.92079 8.12443L6.05941 8.12443L9.32673 0L7.12871 0L7.12871 0.122172Z" transform="translate(0 0.061085973)" id="Path" fill="#0066B2" stroke="none" />
        <path d="M5.40594 8.12443L7.30693 8.12443L5.64356 0L3.9802 0C3.20792 0 3.0297 0.61086 3.0297 0.61086L0 8.12443L2.13861 8.12443L2.55446 6.90271L5.16832 6.90271L5.40594 8.12443ZM3.14851 5.25339L4.21782 2.1991L4.81188 5.25339L3.14851 5.25339Z" transform="translate(17.881187 0.122171946)" id="Shape" fill="#0066B2" stroke="none" />
        <path d="M5.82178 2.07692L6.11881 0.366516C6.11881 0.366516 5.22772 0 4.27723 0C3.26733 0 0.831683 0.427602 0.831683 2.68778C0.831683 4.76471 3.68317 4.82579 3.68317 5.92534C3.68317 7.02489 1.12871 6.84163 0.29703 6.1086L0 7.94118C0 7.94118 0.891089 8.36878 2.31683 8.36878C3.74257 8.36878 5.82178 7.63575 5.82178 5.61991C5.82178 3.54299 2.9703 3.29864 2.9703 2.38235C2.9703 1.46606 4.93069 1.58824 5.82178 2.07692Z" transform="translate(12.178218 -7.234032E-15)" id="Path" fill="#0066B2" stroke="none" />
      </g>
      <path d="M4.93069 4.39819L4.21782 0.733032C4.21782 0.733032 4.15842 0 3.26733 0L0.0594059 0L0 0.122172C0 0.122172 1.54455 0.427602 3.0297 1.71041C4.51485 2.93213 4.93069 4.39819 4.93069 4.39819Z" transform="translate(0 0.122171946)" id="Path" fill="#F9A533" stroke="none" />
    </g>
  </g>
</svg>