<?xml version="1.0" encoding="utf-8"?>
<svg width="42px" height="27px" viewBox="0 0 42 27" version="1.1" xmlns:xlink="http://www.w3.org/1999/xlink" xmlns="http://www.w3.org/2000/svg">
  <g id="pp-copy">
    <path d="M42 25.5339C42 26.3281 41.3465 27 40.5743 27L1.42574 27C0.653465 27 0 26.3281 0 25.5339L0 1.46606C0 0.671946 0.653465 0 1.42574 0L40.5743 0C41.3465 0 42 0.671946 42 1.46606L42 25.5339L42 25.5339Z" transform="matrix(1 0 0 1 2.1527334E-13 2.213614E-13)" id="Path" fill="#FCFCFC" stroke="none" />
    <g id="pp" transform="translate(8.360785 10.690045)">
      <path d="M3.50495 0.244344C3.26733 0.122172 2.85149 0 2.25743 0C1.9604 0 1.72277 0 1.42574 0.061086C1.18812 0.122172 1.18812 0.122172 1.06931 0.122172C0.831683 0.183258 0.772277 0.427602 0.772277 0.427602L0.712871 0.794118C0.653465 1.03846 0.772277 1.03846 0.831683 0.977376C0.950495 0.91629 1.0099 0.91629 1.24752 0.855204C1.48515 0.794118 1.72277 0.733032 1.90099 0.794118C2.19802 0.794118 2.37624 0.855204 2.55446 0.91629C2.67327 0.977376 2.79208 1.09955 2.79208 1.22172C2.79208 1.28281 2.79208 1.28281 2.79208 1.34389C2.79208 1.34389 2.73267 1.40498 2.67327 1.40498C2.25743 1.40498 1.9604 1.46606 1.66337 1.52715C1.30693 1.58824 1.0099 1.64932 0.772277 1.77149C0.534653 1.89367 0.29703 2.07692 0.178218 2.26018C0.0594059 2.44344 0 2.68778 0 2.99321C0 3.29864 0.118812 3.4819 0.29703 3.66516C0.475248 3.84842 0.712871 3.9095 1.0099 3.9095C1.18812 3.9095 1.36634 3.9095 1.42574 3.84842C1.54455 3.84842 1.66337 3.78733 1.78218 3.72624C1.90099 3.66516 1.9604 3.60407 2.07921 3.54299C2.19802 3.4819 2.25743 3.42081 2.31683 3.35973L2.31683 3.35973L2.31683 3.4819C2.31683 3.4819 2.31683 3.4819 2.31683 3.4819L2.31683 3.4819C2.31683 3.60407 2.37624 3.72624 2.49505 3.72624L2.49505 3.72624L2.49505 3.72624L2.49505 3.72624C2.55446 3.72624 2.91089 3.72624 3.0297 3.72624L3.14851 3.72624C3.14851 3.72624 3.14851 3.72624 3.14851 3.72624C3.26733 3.72624 3.44554 3.60407 3.44554 3.4819L3.9802 1.22172C3.9802 1.16063 3.9802 1.09955 3.9802 1.03846C3.9802 0.977376 3.9802 0.91629 3.9802 0.855204C3.92079 0.61086 3.80198 0.366516 3.50495 0.244344ZM2.31683 2.93213C2.25743 2.99321 2.13861 3.0543 2.0198 3.0543C1.90099 3.11538 1.78218 3.11538 1.66337 3.11538C1.48515 3.11538 1.36634 3.11538 1.24752 3.0543C1.12871 2.99321 1.12871 2.93213 1.12871 2.80995C1.12871 2.68778 1.18812 2.56561 1.24752 2.44344C1.30693 2.38235 1.42574 2.26018 1.54455 2.26018C1.66337 2.1991 1.84158 2.1991 2.0198 2.13801C2.19802 2.13801 2.49505 2.07692 2.55446 2.07692C2.61386 2.07692 2.61386 2.07692 2.61386 2.13801C2.61386 2.1991 2.49505 2.56561 2.49505 2.74887C2.37624 2.87104 2.31683 2.93213 2.31683 2.93213Z" transform="translate(17.18377 1.0995475)" id="Shape" fill="#336699" stroke="none" />
      <path d="M3.26973 0.061086C3.09152 0.061086 2.9133 0.183258 2.85389 0.366516C2.85389 0.366516 1.84399 2.13801 1.72518 2.32127C1.66577 2.44344 1.60637 2.38235 1.60637 2.32127C1.60637 2.26018 1.30934 0.366516 1.30934 0.366516C1.24993 0.244344 1.13112 0.061086 0.952902 0.061086L0.299437 0.061086C0.121219 0.061086 0.061813 0.183258 0.061813 0.30543C0.061813 0.30543 0.53706 3.11538 0.655872 3.72624C0.715278 4.09276 0.655872 4.15385 0.655872 4.15385L0.061813 5.25339C-0.0569989 5.37557 0.00240703 5.49774 0.180625 5.49774L0.893496 5.49774C1.07171 5.49774 1.24993 5.37557 1.30934 5.25339L4.10142 0.427602C4.10142 0.427602 4.33904 0 4.10142 0C3.9232 0.061086 3.26973 0.061086 3.26973 0.061086" transform="translate(8.686314 1.0995475)" id="Path" fill="#003366" stroke="none" />
      <path d="M3.16397 2.13801C2.92634 2.32127 2.68872 2.38235 2.27288 2.38235L2.09466 2.38235C1.91644 2.38235 1.85704 2.26018 1.85704 2.13801L2.09466 1.22172C2.15407 1.09955 2.27288 0.977376 2.4511 0.977376L2.68872 0.977376C2.92634 0.977376 3.16397 1.03846 3.28278 1.09955C3.40159 1.16063 3.461 1.34389 3.461 1.52715C3.461 1.77149 3.34219 1.95475 3.16397 2.13801M4.64912 0.733032C4.58971 0.549774 4.41149 0.427602 4.29268 0.30543C4.11446 0.183258 3.93625 0.122172 3.69862 0.061086C3.461 0 3.16397 0 2.86694 0L1.38179 0C1.20357 0 1.08476 0.122172 1.02535 0.244344L0.0154532 4.64253C-0.0439527 4.76471 0.0748592 4.88688 0.253077 4.88688L0.965948 4.88688C1.14417 4.88688 1.26298 4.76471 1.32238 4.64253L1.56001 3.60407C1.61941 3.4819 1.73823 3.35973 1.91644 3.35973L2.09466 3.35973C2.92634 3.35973 3.63922 3.17647 4.11446 2.80995C4.58971 2.44344 4.82733 1.95475 4.82733 1.40498C4.76793 1.09955 4.76793 0.855204 4.64912 0.733032" id="Shape" fill="#003366" stroke="none" />
      <path d="M3.10456 2.13801C2.86694 2.32127 2.62931 2.38235 2.21347 2.38235L2.03526 2.38235C1.85704 2.38235 1.79763 2.26018 1.79763 2.13801L2.03526 1.22172C2.09466 1.09955 2.21347 0.977376 2.39169 0.977376L2.62931 0.977376C2.92634 0.977376 3.10456 1.03846 3.22337 1.09955C3.34219 1.22172 3.40159 1.34389 3.40159 1.52715C3.40159 1.77149 3.34219 2.01584 3.10456 2.13801M4.64912 0.733032C4.58971 0.549774 4.41149 0.427602 4.29268 0.30543C4.11446 0.183258 3.93625 0.122172 3.69862 0.061086C3.461 0 3.16397 0 2.86694 0L1.38179 0C1.20357 0 1.08476 0.122172 1.02535 0.244344L0.0154532 4.64253C-0.0439527 4.76471 0.0748592 4.88688 0.253077 4.88688L0.965948 4.88688C1.08476 4.88688 1.26298 4.76471 1.32238 4.64253L1.56001 3.60407C1.61941 3.4819 1.73823 3.29864 1.91644 3.35973L2.09466 3.35973C2.92634 3.35973 3.63922 3.17647 4.11446 2.80995C4.58971 2.44344 4.82733 1.95475 4.82733 1.40498C4.76793 1.09955 4.70852 0.91629 4.64912 0.733032" transform="translate(12.712872 0)" id="Shape" fill="#336699" stroke="none" />
      <path d="M3.56436 0.244344C3.32673 0.122172 2.91089 0 2.31683 0C2.0198 0 1.78218 0 1.48515 0.061086C1.24752 0.122172 1.24752 0.122172 1.12871 0.122172C0.891089 0.183258 0.831683 0.427602 0.831683 0.427602L0.772277 0.794118C0.653465 1.03846 0.772277 1.03846 0.831683 1.03846C0.950495 0.977376 1.0099 0.977376 1.24752 0.91629C1.48515 0.855204 1.72277 0.794118 1.90099 0.855204C2.19802 0.855204 2.37624 0.91629 2.55446 0.977376C2.67327 1.03846 2.79208 1.16063 2.79208 1.28281C2.79208 1.34389 2.79208 1.34389 2.79208 1.40498C2.79208 1.40498 2.73267 1.46606 2.67327 1.46606C2.25743 1.46606 1.9604 1.52715 1.66337 1.58824C1.30693 1.64932 1.0099 1.71041 0.772277 1.83258C0.534653 1.95475 0.29703 2.13801 0.178218 2.32127C0.0594059 2.50452 0 2.74887 0 3.0543C0 3.35973 0.118812 3.54299 0.29703 3.72624C0.475248 3.9095 0.712871 3.97059 1.0099 3.97059C1.18812 3.97059 1.36634 3.97059 1.42574 3.9095C1.54455 3.9095 1.66337 3.84842 1.78218 3.78733C1.90099 3.72624 1.9604 3.66516 2.07921 3.60407C2.19802 3.54299 2.25743 3.4819 2.31683 3.42081L2.31683 3.42081L2.31683 3.54299C2.31683 3.54299 2.31683 3.54299 2.31683 3.54299L2.31683 3.54299C2.31683 3.66516 2.37624 3.78733 2.49505 3.78733L2.49505 3.78733L2.49505 3.78733L2.49505 3.78733C2.61386 3.78733 2.91089 3.78733 3.0297 3.78733L3.14851 3.78733C3.14851 3.78733 3.14851 3.78733 3.14851 3.78733C3.26733 3.78733 3.44554 3.66516 3.44554 3.54299L3.9802 1.28281C3.9802 1.22172 3.9802 1.16063 3.9802 1.09955C3.9802 1.03846 3.9802 0.977376 3.9802 0.91629C3.92079 0.61086 3.80198 0.366516 3.56436 0.244344ZM2.31683 2.93213C2.25743 2.99321 2.13861 3.0543 2.0198 3.0543C1.90099 3.11538 1.78218 3.11538 1.66337 3.11538C1.48515 3.11538 1.36634 3.11538 1.24752 3.0543C1.12871 2.99321 1.12871 2.93213 1.12871 2.80995C1.12871 2.68778 1.18812 2.56561 1.24752 2.44344C1.30693 2.38235 1.42574 2.26018 1.54455 2.26018C1.66337 2.1991 1.84158 2.1991 2.0198 2.13801C2.19802 2.13801 2.49505 2.07692 2.55446 2.07692C2.61386 2.07692 2.61386 2.07692 2.61386 2.13801C2.61386 2.1991 2.49505 2.56561 2.49505 2.74887C2.43564 2.80995 2.31683 2.93213 2.31683 2.93213Z" transform="translate(4.4708986 1.0995475)" id="Shape" fill="#003366" stroke="none" />
      <path d="M1.90099 0L1.24752 0C1.24752 0 1.24752 0 1.24752 0L1.24752 0C1.12871 0 0.950495 0.122172 0.950495 0.244344C0.950495 0.244344 0.950495 0.244344 0.950495 0.244344C0.950495 0.244344 0.950495 0.30543 0.891089 0.427602L0.0594059 4.45928C0.0594059 4.58145 0 4.64253 0 4.64253L0 4.64253C0 4.76471 0.0594059 4.88688 0.178218 4.88688L0.178218 4.88688L0.831683 4.88688C0.950495 4.88688 1.12871 4.76471 1.12871 4.64253C1.12871 4.64253 1.12871 4.64253 1.12871 4.64253L2.07921 0.30543L2.07921 0.30543C2.13861 0.122172 2.0198 0 1.90099 0Z" transform="translate(21.223373 0.061085973)" id="Path" fill="#336699" stroke="none" />
      <g id="Group" transform="translate(23.569908 0)">
        <path d="M0.504951 1C0.504951 1 0.445545 1 0.445545 1C0.445545 1 0.386139 1 0.386139 1C0.326733 1 0.267327 1 0.207921 0.933333C0.148515 0.933333 0.148515 0.866667 0.148515 0.8L0.148515 0.333333L0.0891089 0.333333L0.0891089 0.2L0.148515 0.2L0.148515 0L0.267327 0L0.267327 0.2L0.504951 0.2L0.504951 0.333333L0.267327 0.333333L0.267327 0.666667C0.267327 0.733333 0.267327 0.733333 0.267327 0.733333C0.267327 0.733333 0.267327 0.8 0.267327 0.8C0.267327 0.8 0.267327 0.8 0.326733 0.866667C0.326733 0.866667 0.386139 0.866667 0.386139 0.866667C0.386139 0.866667 0.445545 0.866667 0.445545 0.866667C0.445545 0.866667 0.504951 0.866667 0.504951 0.866667L0.504951 0.866667L0.504951 1L0.504951 1Z" id="Path" fill="#336699" stroke="none" />
        <path d="M1.06931 0.733333L0.950495 0.733333L0.950495 0.266667C0.950495 0.266667 0.950495 0.2 0.950495 0.2C0.950495 0.2 0.950495 0.133333 0.950495 0.133333C0.950495 0.133333 0.950495 0.0666667 0.891089 0.0666667C0.891089 0.0666667 0.831683 0.0666667 0.831683 0.0666667C0.772277 0.0666667 0.772277 0.0666667 0.712871 0.0666667C0.653465 0.0666667 0.653465 0.133333 0.594059 0.133333C0.594059 0.133333 0.594059 0.133333 0.594059 0.2C0.594059 0.2 0.594059 0.2 0.594059 0.266667L0.594059 0.733333L0.475248 0.733333L0.475248 0.266667C0.475248 0.2 0.475248 0.2 0.475248 0.2C0.475248 0.2 0.475248 0.133333 0.475248 0.133333C0.475248 0.133333 0.475248 0.0666667 0.415842 0.0666667C0.415842 0.0666667 0.356436 0.0666667 0.356436 0.0666667C0.29703 0.0666667 0.29703 0.0666667 0.237624 0.0666667C0.178218 0.0666667 0.178218 0.133333 0.118812 0.133333L0.118812 0.733333L0 0.733333L0 0L0.178218 0L0.178218 0.0666667C0.237624 0.0666667 0.237624 0 0.29703 0C0.356436 0 0.356436 0 0.415842 0C0.475248 0 0.475248 0 0.534653 0C0.594059 0 0.594059 0.0666667 0.594059 0.0666667C0.653465 0 0.653465 0 0.712871 0C0.772277 0 0.772277 0 0.831683 0C0.891089 0 0.950495 0 1.0099 0.0666667C1.06931 0.133333 1.06931 0.2 1.06931 0.266667L1.06931 0.733333L1.06931 0.733333Z" transform="translate(0.56435645 0.26666668)" id="Path" fill="#336699" stroke="none" />
      </g>
    </g>
  </g>
</svg>