<svg width="25" height="25" viewBox="0 0 25 25" fill="none" xmlns="http://www.w3.org/2000/svg">
<g clip-path="url(#clip0_26_4540)">
<path d="M0.916016 12.7625C0.916016 9.45053 2.09202 6.61853 4.44402 4.26653C6.79602 1.91453 9.62002 0.746532 12.916 0.762533C16.212 0.778532 19.044 1.94653 21.412 4.26653C23.78 6.58653 24.948 9.41853 24.916 12.7625C24.884 16.1065 23.716 18.9385 21.412 21.2585C19.108 23.5785 16.276 24.7465 12.916 24.7625C9.55602 24.7785 6.73202 23.6105 4.44402 21.2585C2.15602 18.9065 0.980016 16.0745 0.916016 12.7625ZM3.53202 12.7625C3.53202 15.3545 4.45202 17.5625 6.29202 19.3865C8.13202 21.2105 10.34 22.1305 12.916 22.1465C15.492 22.1625 17.7 21.2425 19.54 19.3865C21.38 17.5305 22.3 15.3225 22.3 12.7625C22.3 10.2025 21.38 7.99453 19.54 6.13853C17.7 4.28253 15.492 3.36253 12.916 3.37853C10.34 3.39453 8.13202 4.31453 6.29202 6.13853C4.45202 7.96253 3.53202 10.1705 3.53202 12.7625ZM7.01202 16.0505L10.3 12.7625L7.01202 9.47453L9.62802 6.85853L12.916 10.1465L16.204 6.85853L18.82 9.47453L15.532 12.7625L18.82 16.0505L16.204 18.6665L12.916 15.3785L9.62802 18.6665L7.01202 16.0505Z" fill="#EB5757"/>
</g>
<defs>
<clipPath id="clip0_26_4540">
<rect width="24" height="24" fill="white" transform="matrix(1 0 0 -1 0.916016 24.7627)"/>
</clipPath>
</defs>
</svg>
