<svg width="108" height="36" viewBox="0 0 108 36" fill="none" xmlns="http://www.w3.org/2000/svg">
<g clip-path="url(#clip0_1_3205)">
<g clip-path="url(#clip1_1_3205)">
<path d="M98.0723 9.85205H90.9595V35.3487H98.0723V9.85205Z" fill="white"/>
<path d="M77.9288 9.46631C74.1605 9.46631 70.814 10.9816 68.7489 13.6245L68.577 13.8444L68.4251 13.6105C66.7058 10.9377 63.7392 9.46631 60.0748 9.46631C56.7763 9.46631 53.9415 10.6378 52.0904 12.7668L51.7425 13.1667V9.85613H44.9675V35.3468H52.0804V22.5525C52.0804 18.1145 54.2214 15.5696 57.9577 15.5696C61.2983 15.5696 63.0635 17.7506 63.0635 21.8788V35.3488H70.1743V22.5545C70.1743 18.1165 72.3353 15.5716 76.0997 15.5716C79.3922 15.5716 81.2074 17.8126 81.2074 21.8808V35.3508H88.3182V20.7213C88.3182 13.5685 84.5319 9.46631 77.9228 9.46631" fill="white"/>
<path d="M94.5139 7.11283C95.2174 7.11323 95.9052 6.90498 96.4903 6.51444C97.0754 6.1239 97.5315 5.5686 97.801 4.91878C98.0705 4.26897 98.1412 3.55383 98.0042 2.86382C97.8672 2.17381 97.5287 1.53993 97.0314 1.04236C96.5341 0.544785 95.9004 0.205871 95.2104 0.0684834C94.5205 -0.0689038 93.8053 0.00140876 93.1554 0.270527C92.5054 0.539644 91.9499 0.995478 91.559 1.58037C91.1681 2.16526 90.9595 2.85294 90.9595 3.55642C90.9595 4.49929 91.3339 5.40358 92.0004 6.07048C92.6669 6.73738 93.571 7.1123 94.5139 7.11283Z" fill="white"/>
<path d="M13.1701 28.6894C12.5835 28.9105 11.9618 29.0236 11.335 29.0233C8.972 29.0233 6.97689 27.45 6.97689 25.5888V0.0341797H0V25.9226C0.199911 31.5082 5.19769 36.0002 11.325 36.0002C13.4549 36.0065 15.5482 35.4463 17.3903 34.3769C17.1524 34.177 16.9165 33.9771 16.6906 33.7771C15.1666 32.3544 13.9631 30.6235 13.1601 28.6994" fill="white"/>
<path d="M28.4164 9.46631C20.276 9.46631 14.3687 14.9898 14.3687 22.6005C14.3687 30.2111 20.276 35.7326 28.4164 35.7326C36.5268 35.7326 42.4102 30.2091 42.4102 22.6005C42.4102 14.9918 36.5208 9.46631 28.4164 9.46631ZM28.4164 29.9672C24.3262 29.9672 21.5774 27.0065 21.5774 22.6005C21.5774 18.1944 24.3182 15.2297 28.4164 15.2297C32.5146 15.2297 35.2134 18.1924 35.2134 22.6005C35.2134 27.0085 32.4846 29.9672 28.4164 29.9672Z" fill="white"/>
<path d="M101.952 35.3183V32.5916H101.094V31.9438H103.619V32.5916H102.763V35.3183H101.952ZM105.9 34.3428H105.398L104.714 33.2852V35.3183H103.915V31.9438H104.642L105.642 33.4672L106.642 31.9438H107.371V35.3183H106.572V33.3032L105.9 34.3428Z" fill="white"/>
</g>
</g>
<defs>
<clipPath id="clip0_1_3205">
<rect width="108" height="36" fill="white"/>
</clipPath>
<clipPath id="clip1_1_3205">
<rect width="108" height="36" fill="white"/>
</clipPath>
</defs>
</svg>
