<svg width="178" height="64" viewBox="0 0 178 64" fill="none" xmlns="http://www.w3.org/2000/svg">
<g clip-path="url(#clip0_1_753)">
<path d="M17.447 34.5062L18.2295 31.3792L18.6768 31.2676L21.0245 33.8362L24.1548 33.3894L24.3784 32.9427C24.2665 32.7193 24.0429 32.6076 23.8194 32.3843C23.2603 31.7143 22.4778 31.0444 22.0307 30.486C23.5958 29.816 24.8256 28.6991 25.1609 27.4708C25.2727 26.9124 25.2727 26.4658 25.1609 26.1308V26.0192C25.1609 26.0192 25.1609 25.9074 25.0491 25.9074C25.0491 25.7958 24.9373 25.7957 24.8256 25.684L24.7137 25.5725C24.602 25.4608 24.4901 25.4608 24.3784 25.4608C24.3784 25.4608 24.2665 25.4608 24.2665 25.3492C24.1548 25.2375 23.9312 25.2373 23.7076 25.2373H23.5958C23.4839 25.2373 23.2603 25.2373 23.0368 25.2373C22.8132 25.2373 22.4778 25.2375 22.1424 25.3492L16.4408 26.2424L14.2048 34.9529L17.447 34.5062ZM19.2357 27.8059L21.2481 27.4708C21.3598 27.4708 21.4717 27.4708 21.5834 27.4708H21.6952C21.807 27.4708 21.807 27.4709 21.807 27.5826C21.807 27.5826 21.807 27.5826 21.9188 27.6942L22.0307 27.8059C22.0307 27.8059 22.0307 27.8058 22.0307 27.9174C22.0307 28.0291 22.0307 28.0293 22.0307 28.1409C21.9188 28.3642 21.6952 28.6993 21.2481 28.811C21.1362 28.9226 20.9126 28.9226 20.8009 28.9226L18.9004 29.2576L19.2357 27.8059Z" fill="white"/>
<path d="M25.8328 33.2784C25.9447 33.2784 26.1682 33.2784 26.3918 33.2784C26.839 33.1668 27.2862 32.9435 27.7333 32.6084C27.8452 32.4967 27.957 32.3851 28.0688 32.1618C28.1806 31.9384 28.2924 31.7151 28.4042 31.4918C28.4042 31.2683 28.4042 31.1567 28.4042 30.9334C28.4042 30.9334 28.4042 30.8215 28.2924 30.8215C28.2924 30.7099 28.1806 30.5983 28.1806 30.5983L28.0688 30.4867C27.957 30.4867 27.957 30.375 27.8452 30.375C27.7333 30.375 27.7333 30.375 27.6216 30.375C27.5098 30.375 27.2862 30.375 27.1744 30.375C26.2801 30.4867 25.4975 31.2683 25.2739 32.1618C25.0503 32.7201 25.3856 33.1668 25.8328 33.2784Z" fill="white"/>
<path d="M7.94287 36.0704C8.72545 35.9588 9.39622 35.7355 9.9552 35.5122C12.3029 34.6187 13.8681 32.8319 14.427 30.8218C14.986 28.8117 14.2034 27.1367 11.8557 27.1367C11.8557 27.1367 11.8557 27.1367 11.744 27.1367C11.4086 27.1367 11.0731 27.1367 10.6259 27.2485L5.37154 28.0301L3.13562 36.7405L7.94287 36.0704ZM7.94287 29.8168L9.17263 29.5934C9.50802 29.5934 9.73161 29.4819 9.9552 29.4819C10.1788 29.4819 10.2906 29.4819 10.4024 29.4819C10.5142 29.4819 10.7378 29.5934 10.8495 29.5934C10.8495 29.5934 10.9614 29.5934 10.9614 29.7051C11.0731 29.7051 11.0731 29.8168 11.185 29.8168C11.5204 30.1519 11.5204 30.7102 11.4086 31.2685C11.2968 31.8268 10.9614 32.2737 10.4024 32.7204C9.84341 33.167 9.06083 33.6137 8.05466 33.7254L6.82491 33.9487C7.0485 33.167 7.0485 32.832 7.94287 29.8168Z" fill="white"/>
<path d="M153.168 26.8011L154.398 19.766L154.957 16.5275C155.07 15.8574 155.069 15.4108 155.069 14.8524C155.069 14.4057 155.07 13.959 154.957 13.624C154.957 13.4007 154.845 13.1772 154.845 12.9539C154.845 12.8422 154.845 12.8423 154.734 12.7307C154.734 12.6189 154.622 12.3955 154.51 12.2839C154.51 12.1722 154.398 12.1723 154.398 12.0607C154.287 11.9489 154.287 11.8371 154.175 11.7255C154.175 11.6138 154.063 11.6139 154.063 11.5023C153.951 11.3906 153.951 11.2788 153.84 11.2788C153.728 11.2788 153.728 11.1671 153.615 11.1671C153.504 11.0555 153.392 11.0556 153.281 10.9439C153.168 10.9439 153.168 10.8322 153.057 10.8322C152.945 10.8322 152.834 10.7205 152.721 10.7205C152.61 10.7205 152.61 10.7205 152.498 10.6087C152.386 10.6087 152.162 10.6087 152.051 10.6087C151.939 10.6087 151.939 10.6087 151.827 10.6087C151.604 10.6087 151.268 10.6087 151.045 10.7205C147.915 11.1671 145.678 14.1824 145.678 14.1824L148.026 0L142.213 0.893483L138.412 23.2278C136.958 27.5829 134.499 30.1514 131.592 31.1564C131.145 31.2681 130.81 31.3798 130.362 31.4914C130.251 31.4914 130.027 31.4914 129.915 31.6031C129.915 31.6031 129.803 31.6031 129.691 31.6031C129.58 31.6031 129.468 31.6031 129.244 31.6031C129.021 31.6031 128.908 31.6031 128.685 31.6031H128.574C128.461 31.6031 128.238 31.6031 128.127 31.4914H128.014C127.902 31.4914 127.679 31.3797 127.567 31.2679H127.455C127.232 31.1563 127.12 31.0447 127.008 30.9331L126.897 30.8213C126.785 30.7097 126.672 30.5981 126.561 30.3747C126.561 30.263 126.449 30.2629 126.449 30.1513C126.338 29.9279 126.225 29.7047 126.225 29.3697C125.778 26.8012 127.008 20.2126 129.691 19.766C129.803 19.766 129.803 19.766 129.915 19.766C130.027 19.766 130.138 19.766 130.138 19.8776C130.251 19.8776 130.251 19.9892 130.251 20.1008C130.251 20.2125 130.362 20.3243 130.362 20.436C130.362 20.436 130.362 20.436 130.362 20.5476C130.362 20.6593 130.362 20.8826 130.362 20.9944V21.106C130.362 21.3293 130.362 21.5525 130.251 21.7759V21.8876C130.251 22.1109 130.138 22.4461 130.138 22.781V22.8926C130.027 23.2277 130.027 23.5626 129.915 24.0094V24.121C129.803 24.5677 129.691 25.0145 129.58 25.5728L135.504 24.6794C135.617 24.2327 135.729 23.7861 135.84 23.3394C135.84 23.2278 135.84 23.116 135.952 22.8926C135.952 22.6693 136.064 22.3344 136.064 22.111C136.064 21.9994 136.064 21.776 136.064 21.6644C136.064 21.441 136.064 21.2177 136.064 20.9944C136.064 20.8826 136.064 20.6593 136.064 20.5476C136.064 20.3243 136.064 20.1009 136.064 19.9893C136.064 19.8776 136.064 19.6542 136.064 19.5424C136.064 19.3191 136.064 19.2075 135.952 18.9842C135.952 18.8724 135.952 18.7608 135.84 18.5375C135.84 18.3141 135.729 18.2026 135.729 18.0908C135.729 17.9792 135.617 17.8675 135.617 17.7559C135.617 17.6442 135.504 17.4207 135.393 17.309C135.393 17.1974 135.281 17.0858 135.281 16.9742C135.17 16.8625 135.17 16.7508 135.057 16.5275C135.057 16.4158 134.946 16.304 134.946 16.304C134.834 16.1924 134.723 16.0807 134.61 15.9691C134.61 15.8574 134.499 15.8573 134.499 15.7457C134.387 15.5224 134.163 15.4108 133.94 15.2991C133.716 15.1874 133.604 15.0757 133.381 14.8524C133.269 14.8524 133.269 14.7408 133.157 14.7408C133.045 14.629 132.821 14.6289 132.71 14.5173C132.598 14.5173 132.487 14.4057 132.374 14.4057C132.263 14.4057 132.04 14.2941 131.927 14.2941C131.815 14.2941 131.704 14.2941 131.592 14.2941C131.48 14.2941 131.257 14.2941 131.145 14.1824C131.033 14.1824 130.921 14.1824 130.81 14.1824C130.698 14.1824 130.586 14.1824 130.362 14.1824C130.027 14.1824 129.58 14.1824 129.132 14.2941C128.014 14.5174 127.12 14.8524 126.225 15.2991C125.891 15.4108 125.667 15.6341 125.444 15.8574C122.313 18.0908 120.859 22.2227 120.524 25.9079C120.076 27.1363 119.742 28.3646 119.295 29.258C118.847 30.263 118.512 31.0446 118.065 31.8263C117.282 33.1664 116.387 33.9481 115.717 34.0597H115.605C115.605 34.0597 115.605 34.0597 115.493 34.0597C115.493 34.0597 115.493 34.0597 115.382 34.0597H115.27C115.27 34.0597 115.158 34.0599 115.158 33.9482C115.158 33.9482 115.158 33.8365 115.046 33.8365C115.046 33.8365 115.046 33.8365 115.046 33.7248V33.6131V33.5014V33.3899V33.2781V33.1665V33.0547C115.046 32.9431 115.046 32.9432 115.046 32.8315V32.7199C115.046 32.6081 115.046 32.608 115.046 32.4963C115.046 32.3847 115.046 32.3848 115.046 32.2731C115.046 32.1615 115.046 32.0498 115.046 32.0498C115.046 31.9382 115.046 31.938 115.046 31.8263C115.046 31.7147 115.046 31.6031 115.046 31.4914C115.046 31.3798 115.046 31.3797 115.046 31.2679C115.046 31.1563 115.046 31.0447 115.046 30.9331C115.046 30.8214 115.046 30.7097 115.046 30.7097C115.046 30.5979 115.046 30.3746 115.158 30.2629C115.158 30.1513 115.158 30.1514 115.158 30.0397C115.158 29.8163 115.27 29.4814 115.27 29.258L117.393 16.9742L122.089 16.1924L122.76 12.5073L117.953 13.289L118.847 9.04538L112.922 9.9389L112.027 14.1824L109.456 14.6289L108.786 18.3142L111.469 17.8674L109.68 28.1413C108.114 33.1665 106.438 35.7348 105.208 35.8465H105.097C105.097 35.8465 105.097 35.8465 104.984 35.8465H104.873C104.873 35.8465 104.873 35.8465 104.761 35.7348C104.761 35.7348 104.761 35.7349 104.761 35.6233C104.761 35.6233 104.761 35.6233 104.761 35.5116V35.4C104.761 35.4 104.761 35.3998 104.761 35.2881V35.1765V35.0649V34.9533V34.8416C104.761 34.7299 104.761 34.7297 104.761 34.6181V34.5065C104.761 34.3949 104.761 34.3949 104.761 34.2832C104.761 34.1716 104.761 34.1715 104.761 34.0597C104.761 33.9481 104.761 33.8365 104.761 33.8365C104.761 33.7248 104.761 33.7248 104.761 33.6131C104.761 33.5014 104.761 33.3899 104.761 33.2781C104.761 33.1665 104.761 33.1664 104.761 33.0547C104.761 32.9431 104.761 32.8315 104.761 32.7199C104.761 32.6081 104.761 32.4963 104.761 32.4963C104.761 32.3847 104.761 32.1615 104.873 32.0498C104.873 31.9382 104.873 31.8263 104.873 31.8263C104.873 31.603 104.984 31.2681 104.984 31.0447L107.108 18.7609L101.184 19.6542L100.736 22.446C100.736 22.446 100.736 22.446 100.736 22.3342C100.736 22.2226 100.624 22.2227 100.624 22.111C100.512 21.9994 100.512 21.8876 100.401 21.7759C100.401 21.7759 100.401 21.776 100.401 21.6644C100.289 21.5526 100.177 21.4409 100.065 21.2176C100.065 21.2176 100.065 21.2177 99.9539 21.106C99.8416 20.9944 99.6181 20.7709 99.5059 20.6592C99.5059 20.6592 99.5059 20.6592 99.3946 20.6592C99.1711 20.5475 98.9476 20.436 98.7237 20.3243C98.5002 20.2126 98.2766 20.1008 97.9411 20.1008C97.9411 20.1008 97.9411 20.1008 97.8294 20.1008C97.6058 19.9892 97.2704 19.9893 96.935 19.9893H96.8232C96.5996 19.9893 96.376 19.9892 96.1524 20.1008C94.8108 20.3242 93.6929 20.9944 92.7985 22.111C92.4631 22.5577 92.1278 23.0043 91.7924 23.451C91.457 23.8977 91.2333 24.4562 91.0098 25.0145C90.2273 27.0245 89.6682 29.3697 89.4446 31.4914C88.8856 33.3899 88.2149 34.9533 87.6559 36.1817C86.7615 38.1918 85.8672 39.1968 85.0846 39.4201H84.9728C84.9728 39.4201 84.9728 39.4201 84.861 39.4201H84.7492C84.7492 39.4201 84.6374 39.4201 84.6374 39.3084C84.6374 39.3084 84.6374 39.3083 84.5256 39.1967C84.5256 39.1967 84.5256 39.1967 84.5256 39.085C84.5256 39.085 84.5256 39.0851 84.5256 38.9734V38.8618V38.75V38.6383V38.5266V38.4151V38.3034C84.5256 38.1918 84.5256 38.1916 84.5256 38.0799V37.9682C84.5256 37.8566 84.5256 37.8567 84.5256 37.745C84.5256 37.6334 84.5256 37.6333 84.5256 37.5215C84.5256 37.4099 84.5256 37.2983 84.5256 37.2983C84.5256 37.1867 84.5256 37.1867 84.5256 37.075C84.5256 36.9633 84.5256 36.8517 84.5256 36.7399C84.5256 36.6283 84.5256 36.6283 84.5256 36.5166C84.5256 36.405 84.5256 36.2933 84.5256 36.1817C84.5256 36.07 84.5256 36.07 84.5256 35.9583C84.5256 35.8466 84.5256 35.6233 84.6374 35.5116C84.6374 35.4 84.6374 35.3998 84.6374 35.2881C84.6374 35.0648 84.7492 34.7299 84.7492 34.5065L86.8733 22.2227L80.9482 23.1161L79.0475 34.0597C78.4886 35.8465 78.0414 37.0749 77.5943 38.0799C76.9234 39.6434 76.3645 40.3134 75.6937 40.3134H75.5819C75.47 40.3134 75.4701 40.3134 75.3583 40.3134C75.2464 40.3134 75.2464 40.2018 75.1347 40.2018C75.1347 40.0901 75.0229 40.0901 75.0229 39.9784C75.0229 39.8668 74.9111 39.755 74.9111 39.6434C74.9111 39.6434 74.9111 39.6435 74.9111 39.5318C74.9111 39.4201 74.9111 39.1967 74.9111 39.085V38.9734C74.9111 38.75 74.9111 38.5267 74.9111 38.3034V38.1918C74.9111 37.9683 74.9111 37.6334 75.0229 37.2983V37.1867C75.0229 36.8517 75.1347 36.405 75.2464 35.9583L77.3707 23.6745L71.5572 24.5677L69.7684 34.9533C69.6567 35.2882 69.5448 35.5115 69.4331 35.8465C69.4331 35.9582 69.3212 35.9583 69.3212 36.0699C69.2095 36.2933 69.2095 36.405 69.0977 36.6283C69.0977 36.7399 68.9859 36.8516 68.9859 36.9632C68.8741 37.1866 68.8741 37.2982 68.7623 37.5215C68.7623 37.6333 68.6505 37.745 68.6505 37.8567C68.5386 37.9683 68.5387 38.1918 68.4269 38.3034C68.4269 38.4151 68.3151 38.5266 68.3151 38.6383C68.2033 38.7499 68.2033 38.9733 68.0915 39.085C68.0915 39.1967 67.9797 39.3084 67.9797 39.4201C67.8679 39.5318 67.8679 39.6434 67.7561 39.755C67.6443 39.8667 67.6443 39.9784 67.5325 40.0901C67.4207 40.2018 67.4207 40.3135 67.309 40.4252C67.1971 40.5368 67.1971 40.6485 67.0854 40.7601C66.9735 40.8718 66.9735 40.9834 66.8618 41.0951C66.7499 41.2067 66.7499 41.3185 66.6381 41.3185C66.5264 41.4302 66.5264 41.5417 66.4145 41.6534C66.3028 41.7651 66.3028 41.7652 66.1909 41.8769C66.0792 41.9885 66.0792 42.1002 65.9673 42.1002C65.8556 42.2118 65.8556 42.2118 65.7438 42.3236C65.632 42.4352 65.632 42.4352 65.5202 42.5468C65.4084 42.6585 65.4084 42.6585 65.2966 42.7701C65.1848 42.8818 65.1848 42.8819 65.073 42.9936C64.9612 42.9936 64.9612 43.1052 64.8494 43.1052C64.7376 43.1052 64.7376 43.2169 64.6258 43.2169C64.514 43.2169 64.514 43.3285 64.4022 43.3285C64.2904 43.3285 64.1786 43.4402 64.1786 43.4402C64.0668 43.4402 64.0668 43.4402 63.9551 43.5519C63.8432 43.5519 63.7315 43.5519 63.7315 43.5519C63.6196 43.5519 63.6196 43.5519 63.5079 43.5519C63.396 43.5519 63.1725 43.5519 63.0606 43.5519L66.1909 25.4612L60.2657 26.3544L59.8186 29.1462C59.8186 29.1462 59.8186 29.1462 59.7068 29.0345C59.7068 28.9229 59.595 28.923 59.595 28.8113C59.595 28.8113 59.595 28.8113 59.595 28.6997C59.4831 28.588 59.4831 28.4764 59.3714 28.3646C59.2595 28.2529 59.1478 28.1412 59.036 27.9179C58.9242 27.8061 58.7006 27.5828 58.5888 27.4712C58.5888 27.4712 58.477 27.4712 58.477 27.3595C58.2534 27.2479 58.1416 27.1363 57.918 27.0245H57.8062C57.5826 26.9129 57.359 26.8011 57.0237 26.8011C56.8001 26.6895 56.4647 26.6896 56.1293 26.6896H56.0175C55.7939 26.6896 55.5703 26.6895 55.2349 26.8011C53.1108 27.1361 51.5456 28.588 50.5395 30.5981C49.8687 31.8264 49.4215 33.1664 49.0861 34.6181C48.6389 36.5165 48.4153 38.5267 48.3035 40.4252C48.1917 42.2118 48.3035 43.7752 48.5271 44.7802C48.6389 45.1152 48.6389 45.4503 48.7507 45.6736C48.7507 45.7854 48.8625 45.897 48.8625 45.897C48.9743 46.1203 48.9742 46.2319 49.0861 46.4552C49.0861 46.567 49.1979 46.6787 49.1979 46.7904C49.3097 46.9021 49.4215 47.1253 49.4215 47.237C49.5333 47.3487 49.5333 47.4604 49.6451 47.4604C49.7569 47.5721 49.8687 47.6836 49.9804 47.7953C50.0923 47.9071 50.204 47.9072 50.204 48.0188C50.3159 48.1305 50.4276 48.242 50.5395 48.3537C50.6512 48.4653 50.763 48.4655 50.8748 48.5772C50.9866 48.6888 51.0985 48.6888 51.3221 48.8005C51.4338 48.8005 51.5456 48.912 51.6574 48.912C51.7692 48.912 51.9928 49.0238 52.1046 49.0238C52.2164 49.0238 52.3281 49.0238 52.44 49.0238C52.6636 49.0238 52.999 49.0238 53.2226 49.0238C54.7877 48.8005 56.0175 47.6836 56.8001 46.6786L55.5703 54.8307C55.4585 55.1656 55.4585 55.5008 55.4585 55.8358C55.4585 55.9474 55.4585 56.059 55.4585 56.1707C55.4585 56.394 55.4585 56.6175 55.4585 56.8409C55.4585 56.9525 55.4585 57.0642 55.4585 57.1758C55.4585 57.3992 55.4585 57.5109 55.4585 57.7342C55.4585 57.8459 55.4585 57.9575 55.4585 58.0692C55.4585 58.1809 55.4585 58.4042 55.4585 58.5159C55.4585 58.6275 55.4585 58.7392 55.4585 58.851C55.4585 58.9626 55.4585 59.1858 55.5703 59.2975C55.5703 59.4091 55.5703 59.521 55.6821 59.6326C55.6821 59.7443 55.7939 59.8559 55.7939 60.0792C55.7939 60.1908 55.9056 60.3026 55.9056 60.4142C55.9056 60.5259 56.0175 60.6376 56.0175 60.7493C56.0175 60.861 56.1293 60.9727 56.1293 61.0844C56.1293 61.196 56.2411 61.3077 56.2411 61.4193C56.2411 61.5311 56.3529 61.6427 56.3529 61.6427C56.4647 61.7544 56.4647 61.866 56.5765 61.9777C56.5765 62.0894 56.6882 62.0894 56.6882 62.201C56.8001 62.3128 56.8001 62.4244 56.9118 62.4244C57.0237 62.5361 57.0237 62.536 57.1354 62.6476C57.2473 62.7593 57.359 62.7593 57.359 62.8709C57.4708 62.8709 57.4708 62.9828 57.5826 62.9828C57.6944 63.0944 57.8062 63.0944 57.918 63.206C58.0299 63.206 58.0299 63.3178 58.1416 63.3178C58.2534 63.4294 58.3652 63.4293 58.477 63.4293C58.5888 63.4293 58.5888 63.4294 58.7006 63.5411C58.9242 63.6528 59.0359 63.6528 59.2595 63.6528C59.2595 63.6528 59.2595 63.6528 59.3714 63.6528C59.595 63.6528 59.7068 63.6528 59.9304 63.6528C60.154 63.6528 60.3776 63.6528 60.6012 63.5411C63.2843 63.0944 65.073 59.521 66.0792 55.8358C66.3028 55.0541 66.4145 54.384 66.5264 53.6024C66.7499 52.1506 66.9735 50.8106 66.9735 49.6938C66.9735 48.3538 66.8618 47.3488 66.5264 46.5671C66.4145 46.3437 66.3028 46.0087 66.1909 45.7854C66.8618 45.4503 67.5325 44.8919 68.0915 44.2218C68.6505 43.5518 69.2095 42.8818 69.6567 41.9884C69.7684 42.3234 69.8803 42.5469 69.992 42.8819C69.992 42.9936 70.1038 42.9934 70.1038 43.1052C70.2157 43.3285 70.3274 43.4402 70.3274 43.5519C70.3274 43.6637 70.4393 43.6637 70.551 43.7753C70.6629 43.887 70.7746 43.9986 70.8864 44.1103C70.9982 44.2219 70.9982 44.2219 71.11 44.3337C71.2218 44.4453 71.3336 44.557 71.4454 44.557C71.5572 44.6687 71.5572 44.6687 71.669 44.6687C71.7808 44.7803 71.8925 44.7803 72.0044 44.892C72.1162 44.892 72.1161 45.0035 72.228 45.0035C72.3398 45.0035 72.4516 45.1154 72.6751 45.1154C72.787 45.1154 72.787 45.1154 72.8987 45.227C73.1223 45.227 73.2342 45.227 73.4577 45.227H73.5695C73.7931 45.227 74.0168 45.227 74.3521 45.1154C76.5881 44.7803 78.1532 43.1053 79.2712 40.6485C79.383 40.9835 79.4948 41.2067 79.6065 41.4301C79.6065 41.5417 79.7184 41.5417 79.7184 41.6534C79.8301 41.7651 79.942 41.9885 80.0537 42.1002C80.1656 42.2118 80.1655 42.2118 80.2773 42.3236C80.3891 42.4352 80.5009 42.5469 80.6127 42.6586C80.7245 42.7702 80.7245 42.7702 80.8363 42.8819C80.9482 42.9936 81.0599 42.9934 81.1717 43.1052C81.2835 43.1052 81.2835 43.2169 81.3953 43.2169C81.5071 43.3286 81.6189 43.3286 81.7307 43.4402C81.8425 43.4402 81.8425 43.5519 81.9542 43.5519C82.0661 43.5519 82.2897 43.6635 82.4014 43.6635H82.5133C82.7368 43.6635 82.9604 43.6635 83.184 43.6635C83.4076 43.6635 83.6312 43.6637 83.8548 43.5519C84.7492 43.4402 85.6436 42.9936 86.5379 42.3236C87.0969 41.8769 87.5441 41.4302 88.1031 40.7601C88.7739 39.8668 89.4447 38.8618 90.1154 37.6334C90.2273 37.9683 90.2273 38.1916 90.339 38.5266C90.339 38.6383 90.4508 38.75 90.4508 38.75C90.5626 38.9734 90.5626 39.0851 90.6744 39.3084C90.6744 39.4201 90.7862 39.5316 90.7862 39.6434C90.898 39.755 91.0098 39.9784 91.0098 40.0901C91.1216 40.2018 91.1216 40.3134 91.2334 40.3134C91.3452 40.4251 91.457 40.5368 91.5688 40.6485C91.6806 40.7601 91.6806 40.76 91.7924 40.8717C91.9042 40.9834 92.016 41.0951 92.1278 41.0951C92.2395 41.2067 92.3514 41.2068 92.4631 41.3185C92.575 41.4302 92.6867 41.4302 92.7985 41.5418C92.9103 41.5418 93.0221 41.6534 93.134 41.6534C93.2457 41.6534 93.4693 41.7652 93.5811 41.7652C93.6929 41.7652 93.8047 41.7652 93.9165 41.7652C94.1401 41.7652 94.3636 41.7652 94.6991 41.7652C97.7175 41.3185 99.5059 37.6334 99.5059 37.6334C99.5059 37.6334 99.5059 37.6334 99.5059 37.745C99.5059 37.8567 99.6181 37.8566 99.6181 37.9682C99.7304 38.0799 99.7304 38.1918 99.8416 38.3034C99.8416 38.3034 99.8416 38.3034 99.8416 38.4151C99.9539 38.5267 100.065 38.75 100.177 38.8618C100.177 38.8618 100.177 38.8618 100.289 38.9734C100.401 39.0851 100.624 39.3084 100.736 39.4201C100.736 39.4201 100.736 39.4201 100.848 39.4201C101.071 39.5318 101.295 39.7551 101.518 39.8668C101.742 39.9784 101.965 40.0901 102.301 40.2018C102.301 40.2018 102.301 40.2018 102.413 40.2018C102.637 40.3135 102.972 40.3134 103.307 40.3134H103.419C103.643 40.3134 103.867 40.3135 104.202 40.2018C106.773 39.7551 108.674 37.8567 110.239 35.0649C110.35 35.4 110.463 35.7349 110.574 35.9583C110.574 36.07 110.686 36.1817 110.686 36.1817C110.797 36.405 110.91 36.5166 110.91 36.6283C111.021 36.7399 111.021 36.8516 111.133 36.8516C111.245 36.9632 111.357 37.075 111.469 37.1867C111.58 37.2983 111.58 37.2982 111.692 37.4099C111.804 37.5216 111.916 37.6334 112.027 37.6334C112.139 37.745 112.139 37.745 112.251 37.745C112.363 37.8567 112.474 37.8566 112.587 37.9682C112.699 37.9682 112.699 38.0799 112.81 38.0799C112.922 38.0799 113.146 38.1918 113.257 38.1918C113.369 38.1918 113.369 38.1918 113.481 38.1918C113.704 38.1918 113.929 38.3034 114.152 38.3034C114.376 38.3034 114.71 38.3034 114.934 38.1918C117.953 37.745 120.189 34.9533 121.866 31.4914C121.978 31.8264 122.201 32.2731 122.313 32.6081C122.425 32.7199 122.425 32.8314 122.536 32.9431C122.648 33.1664 122.76 33.3897 122.984 33.6131C123.095 33.7248 123.208 33.8365 123.208 33.9482C123.319 34.1716 123.542 34.2832 123.655 34.3949C123.766 34.5065 123.878 34.6181 123.989 34.6181C124.214 34.7297 124.325 34.8416 124.549 34.9533C124.661 35.0649 124.772 35.0648 124.884 35.1765C125.108 35.2881 125.331 35.4 125.555 35.5116C125.667 35.5116 125.778 35.6233 125.891 35.6233C126.225 35.7349 126.672 35.8465 127.008 35.8465C127.008 35.8465 127.008 35.8465 127.12 35.8465C127.455 35.8465 127.902 35.9583 128.35 35.9583C128.908 35.9583 129.468 35.9582 130.027 35.8465C130.81 35.7348 131.592 35.5115 132.374 35.2881C133.045 35.0648 133.828 34.7299 134.387 34.2832C135.617 33.5015 136.734 32.6081 137.629 31.4914L137.182 34.1715L143.107 33.2781L145.455 19.9893C146.572 17.9792 147.915 16.8623 148.697 16.7507C148.809 16.7507 148.921 16.7507 149.032 16.7507H149.144C149.256 16.7507 149.256 16.7507 149.368 16.8623C149.368 16.8623 149.479 16.8625 149.479 16.9742L149.591 17.0858C149.591 17.0858 149.591 17.0858 149.703 17.1975C149.703 17.3091 149.815 17.4208 149.815 17.5326C149.815 17.6442 149.815 17.7558 149.815 17.9791L148.138 28.6997C148.138 28.923 148.138 29.258 148.138 29.4814C148.138 29.593 148.138 29.7046 148.138 29.7046C148.138 29.9279 148.138 30.0396 148.249 30.1513C148.249 30.2629 148.362 30.3747 148.362 30.3747C148.473 30.4864 148.473 30.5979 148.585 30.8213C148.585 30.933 148.697 31.0447 148.809 31.0447C148.921 31.1564 149.032 31.2679 149.032 31.3797C149.144 31.4913 149.144 31.4914 149.256 31.6031C149.368 31.7148 149.479 31.8263 149.591 31.8263C149.703 31.938 149.815 31.9382 149.815 32.0498C149.927 32.1615 150.038 32.1615 150.151 32.2731C150.262 32.2731 150.374 32.3847 150.485 32.3847C150.598 32.3847 150.709 32.4963 150.932 32.4963C151.045 32.4963 151.156 32.4963 151.268 32.4963C151.492 32.4963 151.715 32.4963 151.939 32.4963L152.945 32.2731C152.945 32.2731 152.945 32.2731 153.057 32.2731L167.032 29.9281L167.143 29.3697L168.373 22.446L153.168 26.8011ZM58.477 33.1665L57.4708 39.1967C57.4708 39.1967 57.4708 39.1968 57.4708 39.3084C57.4708 39.4201 57.359 39.5316 57.359 39.6434C57.359 39.755 57.2473 39.8668 57.1354 40.0901C57.1354 40.0901 57.1354 40.0901 57.1354 40.2018C57.0237 40.3135 56.9118 40.5368 56.9118 40.6485C56.9118 40.6485 56.9118 40.6485 56.9118 40.7601C56.8001 40.8718 56.6882 41.0952 56.5765 41.2068C56.5765 41.2068 56.5765 41.2068 56.4647 41.3185C56.3529 41.4302 56.2411 41.6536 56.0175 41.7652C56.0175 41.7652 56.0175 41.7652 55.9056 41.7652C55.7939 41.8769 55.5703 41.9885 55.3467 42.1002C55.1231 42.2118 54.8995 42.3236 54.676 42.3236C54.5641 42.3236 54.4524 42.3236 54.3405 42.3236H54.2287C54.1169 42.3236 54.1169 42.3234 54.0051 42.2117C54.0051 42.2117 53.8934 42.2118 53.8934 42.1002C53.7815 42.1002 53.7815 41.9885 53.6698 41.8769L53.5579 41.7652C53.4462 41.6536 53.4462 41.5418 53.3343 41.3185C53.2226 40.7601 53.2226 39.8668 53.3343 38.8618C53.4462 38.08 53.5579 37.2983 53.6698 36.5166C53.7815 36.2933 53.7815 35.9582 53.8934 35.7348C54.0051 35.1765 54.2287 34.6181 54.4523 34.1715C54.7877 33.1664 55.3467 32.3847 55.9056 31.938C56.2411 31.7147 56.4647 31.4914 56.8001 31.4914C56.9118 31.4914 57.0237 31.4914 57.2473 31.4914H57.359C57.4708 31.4914 57.5826 31.6031 57.6944 31.6031C57.6944 31.6031 57.6944 31.6031 57.8062 31.6031C57.918 31.7148 58.0299 31.8263 58.1416 31.938C58.1416 31.938 58.1416 32.0498 58.2535 32.0498C58.2535 32.1615 58.3652 32.1615 58.3652 32.2731C58.3652 32.2731 58.3652 32.3847 58.477 32.3847C58.477 32.4963 58.5888 32.4964 58.5888 32.6081V32.7199C58.5888 32.8315 58.5888 32.8314 58.7006 32.9431C58.7006 32.9431 58.7006 32.9431 58.7006 33.0547C58.477 33.0547 58.477 33.1665 58.477 33.1665C58.5888 33.1665 58.5888 33.1665 58.477 33.1665ZM63.5079 49.1355C63.2843 50.9222 62.9489 53.6023 62.3899 55.6124C62.2781 56.059 62.1663 56.5058 61.9427 56.8409C61.7191 57.3992 61.4955 57.8458 61.2719 58.1807C61.0483 58.4041 60.9365 58.5159 60.7129 58.5159C60.6012 58.5159 60.6012 58.5159 60.4893 58.5159C60.4893 58.5159 60.4893 58.5159 60.3776 58.5159H60.2657C60.2657 58.5159 60.2657 58.5158 60.154 58.4041C60.154 58.4041 60.154 58.4042 60.154 58.2926V58.1807V58.0692V57.9575V57.8458C60.154 57.7341 60.154 57.7341 60.154 57.6224V57.5109C60.154 57.3991 60.154 57.2875 60.154 57.1758V57.0641C60.154 56.8408 60.154 56.729 60.2657 56.5057L61.9427 46.232C62.837 46.232 63.8432 47.1255 63.5079 49.1355ZM98.612 32.7199C98.612 32.7199 98.5002 33.0547 98.1647 33.6131C97.9411 33.9481 97.7175 34.2831 97.494 34.6181C97.3822 34.8415 97.1586 34.9533 97.0468 35.0649C96.7115 35.4 96.2642 35.6233 95.817 35.6233C95.7053 35.6233 95.5934 35.6233 95.4817 35.6233H95.3698C95.2581 35.6233 95.2581 35.5116 95.1463 35.5116C95.1463 35.5116 95.0345 35.5116 95.0345 35.4C94.9227 35.2882 94.9227 35.2881 94.8109 35.1765L94.6991 35.0649C94.5872 34.9533 94.5872 34.7299 94.5872 34.5065C94.4755 34.0599 94.4755 33.5015 94.5872 32.8315C94.6991 31.7148 94.9227 30.2629 95.2581 29.0345C95.3698 28.4762 95.5934 28.0296 95.7053 27.5829C95.817 27.3596 95.9289 27.1361 96.0406 26.9128C96.4878 26.0194 96.935 25.4611 97.494 25.1261C97.6058 25.0144 97.8294 25.0145 97.9411 25.0145C98.053 25.0145 98.1647 25.0145 98.2766 25.0145C98.3884 25.0145 98.3883 25.0145 98.5002 25.0145C98.612 25.0145 98.612 25.1261 98.7237 25.1261L98.8356 25.2378C98.9476 25.2378 98.9476 25.3495 98.9476 25.3495L99.0589 25.4612C99.0589 25.5728 99.1711 25.5727 99.1711 25.6844L99.2824 25.796C99.2824 25.9078 99.3946 25.9079 99.3946 26.0195C99.3946 26.0195 99.3946 26.1312 99.5059 26.1312C99.5059 26.2429 99.5059 26.2428 99.6181 26.3544V26.4663C99.6181 26.5779 99.6181 26.5779 99.6181 26.5779V26.6896L98.612 32.7199Z" fill="white"/>
<path d="M46.1788 19.7656C47.0732 18.9839 52.8866 17.8671 54.0045 17.6438C54.1164 17.3088 54.1164 16.7503 54.2281 16.1919C54.34 15.6336 54.4517 14.9637 54.5636 14.2937C55.1225 10.1618 55.1225 4.24313 49.4209 2.79141C48.8619 2.67973 48.4147 2.56818 47.9675 2.45651C47.8558 2.45651 47.6322 2.45651 47.5203 2.45651C47.185 2.45651 46.8496 2.34473 46.626 2.34473C46.4024 2.34473 46.1788 2.34473 45.9552 2.34473C45.8434 2.34473 45.7316 2.34473 45.508 2.34473C45.1726 2.34473 44.949 2.45651 44.7254 2.45651C44.6136 2.45651 44.6136 2.45651 44.5019 2.45651C44.1664 2.56818 43.8311 2.56818 43.4957 2.67985C43.3839 2.67985 43.3839 2.67973 43.2721 2.79141C43.0485 2.90308 42.8249 2.90319 42.6013 3.01487C42.4895 3.01487 42.3777 3.12653 42.2659 3.12653C42.0423 3.23821 41.9306 3.34976 41.707 3.34976C41.5951 3.34976 41.4833 3.46155 41.3715 3.57322C41.1479 3.68489 41.0361 3.79645 40.8125 3.90812C40.7008 4.01979 40.5889 4.0199 40.4772 4.13158C40.2536 4.24324 40.1418 4.35481 39.9184 4.46647C39.8066 4.57815 39.8066 4.57826 39.6948 4.68993C39.4712 4.80161 39.2476 5.02484 39.1358 5.1365C39.1358 5.1365 39.0241 5.13661 39.0241 5.24829C38.8005 5.47163 38.5769 5.5833 38.3533 5.80664C38.2414 5.91832 38.2415 5.91832 38.1297 6.02998C38.0179 6.14166 37.906 6.25333 37.6824 6.365C37.5707 6.47667 37.5707 6.47667 37.4589 6.58835C37.3471 6.70002 37.2353 6.81169 37.1235 6.92336C37.0117 7.03503 37.0117 7.03503 36.8999 7.14671C36.7881 7.25837 36.6763 7.37005 36.6763 7.48171C36.6763 7.59339 36.5645 7.59339 36.5645 7.70506C36.4528 7.81673 36.3409 7.9284 36.3409 8.04008L36.2291 8.15174C36.1173 8.26342 36.0055 8.37508 35.8937 8.59843C34.3285 10.6085 33.4342 13.9586 33.0989 17.5322C32.7634 21.1056 33.4342 25.6841 34.9994 31.156C35.3347 31.9377 35.5583 32.9428 35.8937 33.8361C36.4528 35.6229 37.1235 38.0796 37.0117 40.2014C37.0117 40.6481 36.8999 40.983 36.8999 41.4297C36.8999 41.5413 36.7881 41.6532 36.7881 41.7648C36.6763 41.9882 36.6763 42.323 36.5645 42.5464C36.5645 42.6581 36.4528 42.7698 36.3409 42.9933C36.2291 43.2166 36.1173 43.4399 36.1173 43.5515C36.0055 43.6633 36.0055 43.7748 35.8937 43.8865C35.7819 43.9982 35.6702 44.2216 35.5583 44.3332C35.4466 44.445 35.3347 44.5566 35.223 44.6683C35.1111 44.7799 34.9994 44.8915 34.7758 45.0031C34.664 45.1148 34.5521 45.115 34.4404 45.2267C34.3285 45.3383 34.1049 45.45 33.9932 45.45C33.8814 45.5616 33.6578 45.5615 33.546 45.5615C33.3224 45.5615 33.2106 45.6733 32.987 45.6733C32.8752 45.6733 32.6516 45.6733 32.428 45.6733C32.0927 45.6733 31.8691 45.6733 31.5336 45.6733C27.3971 45.3383 25.832 42.6582 25.3849 39.8664C25.3849 39.5313 25.273 39.1964 25.273 38.8613C25.273 38.4147 25.273 38.0796 25.273 37.7447C25.273 37.633 25.273 37.6329 25.273 37.5212C25.273 37.2978 25.273 37.0745 25.273 36.8511C25.273 36.5162 25.273 36.1813 25.3849 35.9579L22.7017 36.4045L16.4411 37.2979L11.2985 38.0795L2.69014 39.4197L2.35476 40.9832L1.125 46.2317L14.4288 42.7697C14.5406 43.2165 14.6524 43.5515 14.7641 43.9982C14.7641 44.1099 14.876 44.2215 14.876 44.4448C14.9877 44.6682 15.0996 45.0032 15.0996 45.2267C15.2113 45.3383 15.2113 45.5616 15.3232 45.6733C15.435 45.8967 15.5467 46.1199 15.6586 46.4549C15.7703 46.6783 15.8822 46.79 15.8822 46.9017C15.9939 47.1251 16.1058 47.3483 16.2175 47.5716C16.3294 47.7949 16.4411 47.9068 16.5529 48.0184C16.6647 48.2417 16.7765 48.465 17.0001 48.6884C17.1119 48.8 17.2237 49.0234 17.3355 49.1351C17.4473 49.3585 17.6709 49.5818 17.7827 49.6935C17.8945 49.8051 18.0063 50.0285 18.2299 50.1402C18.4535 50.3635 18.5652 50.4751 18.7888 50.6986C18.9006 50.8102 19.1242 51.0334 19.2361 51.1451C19.4597 51.3685 19.5714 51.4801 19.795 51.7035C19.9068 51.8151 20.1304 51.9268 20.2422 52.0385C20.4658 52.1502 20.6894 52.3736 20.913 52.4852C21.0248 52.597 21.2484 52.7085 21.3602 52.8202C21.5838 52.9319 21.8074 53.1553 22.031 53.2669C22.1427 53.3787 22.3664 53.4903 22.4781 53.602C22.7017 53.7136 23.0372 53.8253 23.2607 54.0487C23.3725 54.1604 23.5961 54.1603 23.7079 54.2719C24.1551 54.4952 24.4905 54.607 24.9377 54.7187H25.0494C25.4966 54.8304 25.9439 54.942 26.5028 55.0536C26.6146 55.0536 26.8382 55.0537 26.95 55.1654C27.2854 55.1654 27.6208 55.277 27.9562 55.277C28.1798 55.277 28.4033 55.277 28.5152 55.277C28.8505 55.277 29.1859 55.277 29.4095 55.277C30.0803 55.277 30.6393 55.277 31.3101 55.1654C32.8752 54.9421 34.2168 54.607 35.5583 54.0487C36.8999 53.4903 38.1297 52.8202 39.2476 52.0385C39.8066 51.5918 40.3653 51.2569 40.8125 50.8102C41.8187 49.9169 42.7131 48.9117 43.3839 47.7949C43.7192 47.2366 44.0547 46.6784 44.39 46.0083C44.5019 45.785 44.5019 45.6733 44.6136 45.45C45.6198 43.1049 45.9552 40.5364 45.6198 37.633C45.508 36.2929 45.1726 34.8411 44.6136 33.5011C44.5019 33.2777 44.5019 33.0543 44.39 32.9427C43.7193 31.2676 42.9366 29.5925 41.8187 27.9174C41.4833 27.3591 41.148 26.8008 40.9244 26.354C40.3654 25.349 39.9184 24.2324 39.4712 23.2274C39.2476 22.7807 39.1358 22.2222 39.0241 21.7756C38.5769 19.8771 38.3533 18.0905 38.465 16.4154C38.5769 15.0754 38.8005 14.0704 39.0241 13.0653C39.2476 12.0603 39.6948 11.2785 40.1418 10.4968C40.3653 10.1618 40.5889 9.8267 40.8125 9.49168C41.5951 8.59831 42.3777 7.9284 43.1602 7.70506C43.3839 7.59339 43.6075 7.59339 43.9428 7.59339C44.0547 7.59339 44.0547 7.59339 44.1664 7.59339C44.39 7.59339 44.6136 7.59339 44.8372 7.59339C45.0609 7.59339 45.2845 7.70494 45.508 7.81662C45.508 7.81662 45.6198 7.81662 45.6198 7.92829C45.8434 8.03996 46.067 8.15163 46.1788 8.37497C46.8496 8.93333 47.2967 9.71514 47.4086 10.8319C47.5203 11.1668 47.5203 11.6136 47.5203 12.0603C47.5203 13.512 47.2967 15.2986 46.5141 17.3087C46.7377 18.202 46.5141 18.9839 46.1788 19.7656Z" fill="white"/>
<path d="M176.869 26.132C176.98 28.0303 175.639 29.5938 173.739 29.7054C171.838 29.8171 170.273 28.477 170.161 26.6903C170.05 24.9036 171.391 23.3402 173.291 23.2284C175.192 23.0051 176.757 24.3452 176.869 26.132ZM171.056 26.5786C171.167 28.477 173.067 29.7054 175.192 28.5887C175.416 28.477 175.639 28.2537 175.863 27.9187C176.869 25.6853 175.527 23.6752 173.515 23.7868C171.95 23.8985 170.944 25.1269 171.056 26.5786ZM173.18 28.1422H172.397L172.173 24.9036C172.509 24.7919 172.844 24.7919 173.403 24.6802C174.074 24.6802 174.297 24.6804 174.521 24.792C174.744 24.9037 174.856 25.1269 174.856 25.4619C174.856 25.7969 174.633 26.132 174.186 26.2436C174.521 26.3553 174.744 26.5787 174.856 27.0254C174.969 27.4721 175.08 27.6954 175.192 27.807L174.409 27.9187C174.297 27.807 174.186 27.472 174.074 27.137C173.962 26.802 173.739 26.6903 173.403 26.6903H173.067L173.18 28.1422ZM173.067 26.3553H173.403C173.85 26.3553 174.186 26.132 174.074 25.7969C174.074 25.4619 173.85 25.3504 173.291 25.3504C173.067 25.3504 172.956 25.3502 172.844 25.4619L173.067 26.3553Z" fill="white"/>
</g>
<defs>
<clipPath id="clip0_1_753">
<rect width="178" height="64" fill="white"/>
</clipPath>
</defs>
</svg>
