<svg width="15" height="15" viewBox="0 0 15 15" fill="none" xmlns="http://www.w3.org/2000/svg">
<g clip-path="url(#clip0_1_68)">
<path d="M7.01001 0.5C3.14092 0.5 0.0100098 3.63091 0.0100098 7.5C0.0100098 11.3691 3.14092 14.5 7.01001 14.5C10.8791 14.5 14.01 11.3691 14.01 7.5C14.01 3.63091 10.8791 0.5 7.01001 0.5ZM10.65 5.95364L6.83183 9.93091C6.71092 10.0582 6.5391 10.1218 6.37365 10.1218C6.23365 10.1218 6.08728 10.0773 5.97274 9.98182L3.42728 7.91364C3.15365 7.69091 3.11546 7.29 3.33183 7.01636C3.55456 6.74909 3.95546 6.70455 4.2291 6.92727L6.32274 8.62636L9.73365 5.06909C9.97547 4.82091 10.3827 4.81455 10.6309 5.05C10.8855 5.29182 10.8918 5.69909 10.65 5.95364Z" fill="#40A040"/>
</g>
<defs>
<clipPath id="clip0_1_68">
<rect width="14" height="14" fill="white" transform="translate(0.0100098 0.5)"/>
</clipPath>
</defs>
</svg>
