<svg width="42" height="40" viewBox="0 0 42 40" fill="none" xmlns="http://www.w3.org/2000/svg">
<g clip-path="url(#clip0_1_606)">
<path fill-rule="evenodd" clip-rule="evenodd" d="M37.001 20.2877C37.001 19.9846 36.8806 19.6939 36.6662 19.4795C36.4519 19.2652 36.1612 19.1448 35.8581 19.1448H8.90126L16.0948 11.9535C16.3094 11.7389 16.43 11.4479 16.43 11.1444C16.43 10.8409 16.3094 10.5498 16.0948 10.3352C15.8802 10.1206 15.5891 10 15.2856 10C14.9821 10 14.691 10.1206 14.4764 10.3352L5.33308 19.4785C5.22664 19.5847 5.1422 19.7108 5.08458 19.8496C5.02697 19.9885 4.99731 20.1373 4.99731 20.2877C4.99731 20.438 5.02697 20.5869 5.08458 20.7257C5.1422 20.8646 5.22664 20.9907 5.33308 21.0969L14.4764 30.2402C14.691 30.4548 14.9821 30.5754 15.2856 30.5754C15.5891 30.5754 15.8802 30.4548 16.0948 30.2402C16.3094 30.0256 16.43 29.7345 16.43 29.431C16.43 29.1275 16.3094 28.8364 16.0948 28.6218L8.90126 21.4306H35.8581C36.1612 21.4306 36.4519 21.3102 36.6662 21.0958C36.8806 20.8815 37.001 20.5908 37.001 20.2877Z" fill="#1A110C"/>
</g>
<defs>
<clipPath id="clip0_1_606">
<rect width="42" height="40" fill="white"/>
</clipPath>
</defs>
</svg>
