<?xml version="1.0" encoding="utf-8"?>
<svg width="636px" height="64px" viewBox="0 0 636 64" version="1.1" xmlns:xlink="http://www.w3.org/1999/xlink" xmlns="http://www.w3.org/2000/svg">
  <g id="LOGO" fill="#FFFFFF">
    <path d="M312.586 38.5156Q314.695 36.2305 314.695 31.9766Q314.695 27.7109 312.604 25.4375Q310.512 23.1641 306.563 23.1641Q302.613 23.1641 300.498 25.4199Q298.383 27.6758 298.383 31.9531Q298.383 36.2305 300.492 38.5156Q302.602 40.8008 306.539 40.8008Q310.477 40.8008 312.586 38.5156ZM349.066 38.5156Q351.176 36.2305 351.176 31.9766Q351.176 27.7109 349.084 25.4375Q346.992 23.1641 343.043 23.1641Q339.094 23.1641 336.979 25.4199Q334.863 27.6758 334.863 31.9531Q334.863 36.2305 336.973 38.5156Q339.082 40.8008 343.02 40.8008Q346.957 40.8008 349.066 38.5156ZM324.75 30.9453L331.547 30.9453L331.547 39.8281Q329.895 40.3672 328.436 40.584Q326.977 40.8008 325.453 40.8008Q321.574 40.8008 319.529 38.5215Q317.484 36.2422 317.484 31.9766Q317.484 27.8281 319.857 25.5078Q322.23 23.1875 326.438 23.1875Q329.074 23.1875 331.523 24.2422L330.316 27.1484Q328.441 26.2109 326.414 26.2109Q324.059 26.2109 322.641 27.793Q321.223 29.375 321.223 32.0469Q321.223 34.8359 322.365 36.3066Q323.508 37.7773 325.688 37.7773Q326.824 37.7773 327.996 37.543L327.996 33.9688L324.75 33.9688L324.75 30.9453ZM285.586 23.4336L285.586 40.5664L296.168 40.5664L296.168 37.5664L289.219 37.5664L289.219 23.4336L285.586 23.4336ZM303.281 36.3008Q302.191 34.8477 302.191 31.9766Q302.191 29.1055 303.293 27.6465Q304.395 26.1875 306.563 26.1875Q310.887 26.1875 310.887 31.9766Q310.887 37.7539 306.539 37.7539Q304.371 37.7539 303.281 36.3008ZM339.762 36.3008Q338.672 34.8477 338.672 31.9766Q338.672 29.1055 339.773 27.6465Q340.875 26.1875 343.043 26.1875Q347.367 26.1875 347.367 31.9766Q347.367 37.7539 343.02 37.7539Q340.852 37.7539 339.762 36.3008Z" />
  </g>
</svg>