<svg width="108" height="36" viewBox="0 0 108 36" fill="none" xmlns="http://www.w3.org/2000/svg">
<g clip-path="url(#clip0_1_936)">
<g clip-path="url(#clip1_1_936)">
<path d="M98.0723 9.85181H90.9595V35.3484H98.0723V9.85181Z" fill="#1E4746"/>
<path d="M77.9288 9.46606C74.1605 9.46606 70.814 10.9814 68.7489 13.6242L68.577 13.8441L68.4251 13.6102C66.7058 10.9374 63.7392 9.46606 60.0748 9.46606C56.7763 9.46606 53.9415 10.6375 52.0904 12.7666L51.7425 13.1664V9.85589H44.9675V35.3465H52.0804V22.5522C52.0804 18.1142 54.2214 15.5693 57.9577 15.5693C61.2983 15.5693 63.0635 17.7504 63.0635 21.8785V35.3485H70.1743V22.5542C70.1743 18.1162 72.3353 15.5713 76.0997 15.5713C79.3922 15.5713 81.2074 17.8123 81.2074 21.8805V35.3505H88.3182V20.7211C88.3182 13.5682 84.5319 9.46606 77.9228 9.46606" fill="#1E4746"/>
<path d="M94.5139 7.11283C95.2174 7.11323 95.9052 6.90498 96.4903 6.51444C97.0754 6.1239 97.5315 5.5686 97.801 4.91878C98.0705 4.26897 98.1412 3.55383 98.0042 2.86382C97.8672 2.17381 97.5287 1.53993 97.0314 1.04236C96.5341 0.544785 95.9004 0.205871 95.2104 0.0684834C94.5205 -0.0689038 93.8053 0.00140876 93.1554 0.270527C92.5054 0.539644 91.9499 0.995478 91.559 1.58037C91.1681 2.16526 90.9595 2.85294 90.9595 3.55642C90.9595 4.49929 91.3339 5.40358 92.0004 6.07048C92.6669 6.73738 93.571 7.1123 94.5139 7.11283Z" fill="#1E4746"/>
<path d="M13.1701 28.6892C12.5835 28.9102 11.9618 29.0233 11.335 29.023C8.972 29.023 6.97689 27.4497 6.97689 25.5886V0.0339355H0V25.9224C0.199911 31.5079 5.19769 35.9999 11.325 35.9999C13.4549 36.0063 15.5482 35.4461 17.3903 34.3766C17.1524 34.1767 16.9165 33.9768 16.6906 33.7769C15.1666 32.3542 13.9631 30.6232 13.1601 28.6992" fill="#1E4746"/>
<path d="M28.4164 9.46606C20.276 9.46606 14.3687 14.9896 14.3687 22.6002C14.3687 30.2108 20.276 35.7324 28.4164 35.7324C36.5268 35.7324 42.4102 30.2088 42.4102 22.6002C42.4102 14.9916 36.5208 9.46606 28.4164 9.46606ZM28.4164 29.9669C24.3262 29.9669 21.5774 27.0063 21.5774 22.6002C21.5774 18.1942 24.3182 15.2295 28.4164 15.2295C32.5146 15.2295 35.2134 18.1922 35.2134 22.6002C35.2134 27.0082 32.4846 29.9669 28.4164 29.9669Z" fill="#1E4746"/>
<path d="M101.952 35.3185V32.5917H101.094V31.944H103.619V32.5917H102.763V35.3185H101.952ZM105.9 34.3429H105.398L104.714 33.2854V35.3185H103.915V31.944H104.642L105.642 33.4673L106.642 31.944H107.371V35.3185H106.572V33.3034L105.9 34.3429Z" fill="#1E4746"/>
</g>
</g>
<defs>
<clipPath id="clip0_1_936">
<rect width="108" height="36" fill="white"/>
</clipPath>
<clipPath id="clip1_1_936">
<rect width="108" height="36" fill="white"/>
</clipPath>
</defs>
</svg>
