<svg width="81" height="15" viewBox="0 0 81 15" fill="none" xmlns="http://www.w3.org/2000/svg">
<g clip-path="url(#clip0_1_2873)">
<path d="M7.50011 0L9.70431 4.46619L14.633 5.18237L11.0666 8.65881L11.9085 13.5676L7.50011 11.25L3.09172 13.5676L3.93365 8.65881L0.367188 5.18237L5.29591 4.46619L7.50011 0Z" fill="#FFC42C"/>
<path d="M23.966 0L26.1702 4.46619L31.0989 5.18237L27.5324 8.65881L28.3743 13.5676L23.966 11.25L19.5576 13.5676L20.3995 8.65881L16.833 5.18237L21.7618 4.46619L23.966 0Z" fill="#FFC42C"/>
<path d="M40.4318 0L42.636 4.46619L47.5647 5.18237L43.9982 8.65881L44.8402 13.5676L40.4318 11.25L36.0234 13.5676L36.8653 8.65881L33.2988 5.18237L38.2276 4.46619L40.4318 0Z" fill="#FFC42C"/>
<path d="M56.8975 0L59.1017 4.46619L64.0305 5.18237L60.4641 8.65881L61.306 13.5676L56.8975 11.25L52.4892 13.5676L53.3312 8.65881L49.7646 5.18237L54.6933 4.46619L56.8975 0Z" fill="#FFC42C"/>
<path d="M73.3634 0L75.5676 4.46619L80.4963 5.18237L76.9299 8.65881L77.7718 13.5676L73.3634 11.25L68.955 13.5676L69.7969 8.65881L66.2305 5.18237L71.1592 4.46619L73.3634 0Z" fill="#FFC42C"/>
</g>
<defs>
<clipPath id="clip0_1_2873">
<rect width="81" height="15" fill="white"/>
</clipPath>
</defs>
</svg>
