<svg width="18" height="18" viewBox="0 0 18 18" fill="none" xmlns="http://www.w3.org/2000/svg">
<g clip-path="url(#clip0_1_2853)">
<g clip-path="url(#clip1_1_2853)">
<path d="M9 17.5C13.6944 17.5 17.5 13.6944 17.5 9C17.5 4.30558 13.6944 0.5 9 0.5C4.30558 0.5 0.5 4.30558 0.5 9C0.5 13.6944 4.30558 17.5 9 17.5Z" fill="#1E4746" stroke="#1E4746"/>
<path d="M11.8943 6.19117C12.0395 6.06712 12.2327 5.99854 12.4331 5.9999C12.6335 6.00126 12.8255 6.07246 12.9685 6.19847C13.1116 6.32448 13.1945 6.49544 13.1998 6.67529C13.2051 6.85514 13.1323 7.0298 12.9969 7.16242L8.88545 11.7782C8.81475 11.8465 8.72942 11.9014 8.63457 11.9394C8.53971 11.9775 8.43728 11.998 8.33339 11.9998C8.2295 12.0015 8.12629 11.9844 8.02993 11.9495C7.93357 11.9146 7.84604 11.8626 7.77257 11.7967L5.04602 9.34911C4.97009 9.2856 4.90919 9.20901 4.86695 9.12391C4.82471 9.03881 4.802 8.94694 4.80017 8.85379C4.79834 8.76065 4.81743 8.66812 4.8563 8.58173C4.89517 8.49535 4.95302 8.41688 5.02641 8.351C5.09979 8.28513 5.18721 8.23319 5.28344 8.1983C5.37967 8.16341 5.48274 8.14627 5.58651 8.14792C5.69028 8.14956 5.79262 8.16995 5.88742 8.20787C5.98222 8.24578 6.06754 8.30045 6.13829 8.36861L8.29603 10.3046L11.8748 6.21152C11.8812 6.2044 11.887 6.1976 11.8943 6.19117Z" fill="#ECEBEA"/>
</g>
</g>
<defs>
<clipPath id="clip0_1_2853">
<rect width="18" height="18" fill="white"/>
</clipPath>
<clipPath id="clip1_1_2853">
<rect width="18" height="18" fill="white"/>
</clipPath>
</defs>
</svg>
