<svg width="42" height="40" viewBox="0 0 42 40" fill="none" xmlns="http://www.w3.org/2000/svg">
<g clip-path="url(#clip0_1_610)">
<path fill-rule="evenodd" clip-rule="evenodd" d="M4.99902 20.2877C4.99902 19.9846 5.11944 19.6939 5.33378 19.4795C5.54811 19.2652 5.83882 19.1448 6.14194 19.1448H33.0987L25.9052 11.9535C25.6906 11.7389 25.57 11.4479 25.57 11.1444C25.57 10.8409 25.6906 10.5498 25.9052 10.3352C26.1198 10.1206 26.4109 10 26.7144 10C27.0179 10 27.309 10.1206 27.5236 10.3352L36.6669 19.4785C36.7733 19.5847 36.8578 19.7108 36.9154 19.8496C36.973 19.9885 37.0027 20.1373 37.0027 20.2877C37.0027 20.438 36.973 20.5869 36.9154 20.7257C36.8578 20.8646 36.7733 20.9907 36.6669 21.0969L27.5236 30.2402C27.309 30.4548 27.0179 30.5754 26.7144 30.5754C26.4109 30.5754 26.1198 30.4548 25.9052 30.2402C25.6906 30.0256 25.57 29.7345 25.57 29.431C25.57 29.1275 25.6906 28.8364 25.9052 28.6218L33.0987 21.4306H6.14194C5.83882 21.4306 5.54811 21.3102 5.33378 21.0958C5.11944 20.8815 4.99902 20.5908 4.99902 20.2877Z" fill="#1A110C"/>
</g>
<defs>
<clipPath id="clip0_1_610">
<rect width="42" height="40" fill="white"/>
</clipPath>
</defs>
</svg>
