<svg width="64" height="64" viewBox="0 0 64 64" fill="none" xmlns="http://www.w3.org/2000/svg">
<g clip-path="url(#clip0_1_588)">
<g clip-path="url(#clip1_1_588)">
<mask id="mask0_1_588" style="mask-type:luminance" maskUnits="userSpaceOnUse" x="0" y="0" width="64" height="64">
<path d="M64 0H0V64H64V0Z" fill="white"/>
</mask>
<g mask="url(#mask0_1_588)">
<path d="M32 64C49.6731 64 64 49.6731 64 32C64 14.3269 49.6731 0 32 0C14.3269 0 0 14.3269 0 32C0 49.6731 14.3269 64 32 64Z" fill="#5A3714"/>
<mask id="mask1_1_588" style="mask-type:luminance" maskUnits="userSpaceOnUse" x="20" y="11" width="23" height="41">
<path d="M43 11H20V52H43V11Z" fill="white"/>
</mask>
<g mask="url(#mask1_1_588)">
<path d="M40.5039 24.5494C41.0388 24.0215 41.3953 23.6695 41.9302 23.1416C40.6822 22.6137 41.3953 22.0858 40.8605 21.03C40.5039 20.5021 40.5039 20.1502 41.2171 19.6223C41.5736 19.2704 41.9302 19.2704 42.4651 19.0944C42.6434 19.0944 42.6434 19.0944 43 18.9185C43 18.5665 43 18.2146 42.8217 18.0386C42.4651 17.3348 41.9302 16.8069 41.5736 16.103C41.0388 15.5751 41.0388 15.5751 41.7519 14.6953C41.7519 14.6953 41.7519 14.6953 41.7519 14.5193C40.6822 13.2876 39.0775 12.7597 36.938 13.8155C37.1163 13.4635 37.1163 13.1116 37.2946 12.7597C36.7597 12.9356 36.4031 13.1116 35.8682 13.2876C36.2248 12.7597 36.2248 12.4077 36.4031 12.0558C36.5814 11.7039 36.7597 11.3519 37.1163 11C36.2248 11 35.3333 11.5279 34.6202 12.0558C33.907 12.5837 33.0155 13.2876 32.3023 13.8155C31.9457 12.9356 31.5891 12.0558 30.6977 11.7039C30.5194 12.0558 30.3411 12.2318 30.1628 12.5837C29.8062 13.1116 29.6279 13.8155 29.2713 14.3433C28.9147 14.6953 28.5581 15.0472 28.0233 15.3991C28.0233 15.0472 27.6667 14.8712 27.6667 14.5193C27.6667 13.9914 27.6667 13.4635 27.4884 12.9356H27.3101C26.9535 13.4635 26.4186 14.1674 26.062 14.6953C25.8837 15.3991 25.5271 15.927 25.1705 16.6309C24.814 15.927 24.6357 15.7511 24.2791 15.7511C24.2791 16.103 24.1008 16.6309 23.9225 16.9828C23.9225 16.9828 23.7442 16.9828 23.7442 17.1588C23.5659 16.8069 23.2093 16.279 23.031 15.927C22.1395 17.8627 21.7829 19.6223 22.1395 21.206L21.9612 21.382C21.4264 21.03 21.0698 20.8541 20.5349 20.6781H20.3566C20.7132 21.5579 20.8915 22.2618 21.0698 23.1416C20.8915 23.1416 20.7132 23.1416 20.3566 23.3176C20.5349 24.5494 21.2481 25.4292 21.9612 26.309C21.2481 26.485 20.7132 26.6609 20 26.8369C20.5349 27.5408 20.7132 28.2446 21.2481 28.9485C21.7829 29.6524 22.3178 30.0043 23.031 30.7082C22.6744 30.8841 22.3178 30.8841 21.9612 31.0601C22.3178 33.1717 22.8527 34.9313 23.9225 36.691C24.1008 36.867 24.4574 37.0429 24.2791 37.7468C24.1008 38.2747 23.7442 39.5064 23.5659 40.0343C23.2093 41.4421 23.2093 43.0257 23.3876 44.4335C24.1008 44.0815 24.2791 43.9056 24.814 44.2575C25.3488 45.1373 25.5271 45.8412 24.9922 47.073C24.6357 48.1288 24.6357 47.6009 24.1008 48.8326C25.1705 49.3605 26.2403 49.1845 27.4884 48.6567C27.4884 49.7124 26.7752 50.2403 26.2403 51.1202C27.6667 51.6481 28.9147 51.4721 30.1628 50.5923C29.9845 51.2961 29.9845 51.824 29.9845 52.3519C31.2326 52.176 31.7674 51.2961 32.4806 50.4163C33.3721 51.6481 34.4419 52.3519 36.0465 52.176C35.6899 51.2961 35.5116 50.2403 35.6899 49.1845C36.5814 49.8884 37.4729 50.2403 38.5426 50.4163C37.8295 49.7124 37.6512 49.3605 37.6512 49.0086C38.186 49.3605 38.7209 49.5365 39.4341 49.8884C39.0775 48.1288 38.8992 48.1288 39.0775 46.5451C40.1473 47.2489 40.5039 47.2489 41.2171 46.897C41.0388 46.1931 40.3256 44.9614 40.1473 44.2575C39.969 43.5536 38.8992 43.0257 38.8992 42.3219C38.8992 41.0901 38.8992 41.0901 40.1473 41.4421C40.3256 38.9785 39.7907 36.867 38.8992 34.9313C39.2558 34.9313 39.6124 34.7554 39.969 34.7554C39.6124 33.6996 39.2558 32.6438 38.8992 31.588C39.969 30.7082 40.8605 29.6524 41.3953 28.2446C40.8605 28.2446 40.5039 28.2446 39.969 28.4206C41.2171 26.8369 41.5736 26.309 41.5736 25.4292C41.0388 24.7253 40.8605 24.5494 40.5039 24.5494ZM29.6279 16.103C29.9845 15.927 30.3411 15.927 30.6977 15.927C31.5891 15.927 32.124 16.6309 32.4806 17.8627C32.6589 18.7425 32.4806 19.4464 31.7674 20.1502C30.6977 20.8541 29.093 20.1502 29.093 17.8627C28.9147 16.9828 29.093 16.4549 29.6279 16.103ZM27.6667 17.8627C28.2016 18.2146 28.9147 19.6223 28.9147 20.3262C28.7364 21.206 28.2016 21.5579 27.6667 21.9099C27.3101 22.0858 27.1318 21.9099 26.9535 21.7339C25.3488 19.0944 26.7752 17.5107 27.6667 17.8627ZM23.7442 21.03C24.1008 20.3262 25.1705 20.1502 25.7054 20.6781C25.8837 21.03 26.062 21.382 26.2403 21.7339C26.2403 22.2618 26.4186 22.9657 26.062 23.3176C25.7054 23.8455 24.9922 23.8455 24.6357 23.4936C23.7442 22.9657 23.3876 21.9099 23.7442 21.03ZM22.8527 24.9013C22.4961 24.3734 22.3178 23.8455 22.4961 23.1416C22.6744 22.6137 23.3876 22.6137 23.5659 22.9657C23.7442 23.3176 23.9225 23.4936 23.9225 23.6695C23.9225 24.0215 23.9225 24.3734 23.7442 24.7253C23.5659 25.0773 23.2093 25.0773 22.8527 24.9013ZM40.1473 17.6867C39.969 18.3906 39.6124 18.9185 39.0775 19.4464C38.3643 20.1502 38.186 20.8541 38.3643 21.5579C38.7209 22.9657 38.8992 24.1974 38.7209 25.6051C38.5426 26.6609 38.186 27.8927 37.8295 28.9485C37.1163 31.0601 36.7597 32.9957 36.938 35.1073C36.938 35.9871 36.7597 36.867 36.7597 37.7468C36.7597 38.4506 36.5814 39.1545 36.5814 39.8584C36.7597 41.97 36.5814 44.2575 35.8682 46.3691C35.5116 47.4249 34.9767 48.1288 33.907 48.4807C31.9457 49.1845 29.9845 48.8326 28.2016 47.9528C27.1318 47.4249 26.4186 46.1931 26.062 45.1373C25.3488 43.2017 25.1705 41.0901 25.3488 38.9785C25.5271 36.515 25.3488 34.2275 24.6357 31.9399C24.1008 30.1803 23.5659 28.5966 23.7442 26.8369C23.7442 25.7811 24.1008 25.2532 25.3488 25.0773C26.062 24.9013 26.5969 24.7253 27.1318 24.0215C27.4884 23.3176 28.2016 22.9657 29.093 22.9657C29.4496 22.9657 29.8062 22.7897 30.1628 22.6137C30.5194 22.4378 30.876 22.2618 31.4109 22.0858C32.4806 21.5579 33.1938 21.382 34.9767 22.6137C35.8682 23.3176 36.2248 22.6137 35.8682 22.2618C34.0853 20.8541 34.7984 20.3262 34.2636 19.6223C33.7287 19.0944 33.0155 17.8627 33.1938 17.3348C33.1938 16.6309 33.1938 16.103 33.7287 15.5751C35.155 14.5193 37.6512 14.3433 39.0775 15.3991C39.6124 15.7511 40.3256 16.6309 40.1473 17.6867Z" fill="#EBE4D6"/>
</g>
</g>
</g>
</g>
<defs>
<clipPath id="clip0_1_588">
<rect width="64" height="64" fill="white"/>
</clipPath>
<clipPath id="clip1_1_588">
<rect width="64" height="64" fill="white"/>
</clipPath>
</defs>
</svg>
