<?xml version="1.0" encoding="utf-8"?>
<svg width="38px" height="30px" viewBox="0 0 38 30" version="1.1" xmlns:xlink="http://www.w3.org/1999/xlink" xmlns="http://www.w3.org/2000/svg">
  <g id="Group-4" transform="translate(0.25 0.25)">
    <path d="M10.1842 0L6.06003 0L6.06003 4.33943L0 4.33943L0 5.78649L6.06003 5.78649L6.06003 8.72341L1.08504 8.72341L1.08504 10.1705L6.06003 10.1705L6.06003 13.1074L2.0473 13.1074L2.0473 14.5544L6.06003 14.5544L6.06003 20.0791L9.9129 20.0791C10.1135 21.6581 11.3581 22.8414 12.8425 22.8414C14.3269 22.8414 15.5715 21.6581 15.7721 20.0791L27.8513 20.0791C28.0519 21.6581 29.2965 22.8414 30.7809 22.8414C32.2653 22.8414 33.5099 21.6581 33.7105 20.0791L36.8 20.0791L36.8 10.5663C36.7169 6.26799 34.4692 3.46299 31.0193 3.46299L31.0189 3.46264L26.6847 3.46264L26.6847 0L22.9154 0C22.9576 0.320883 22.9795 0.648761 22.9795 0.98205C22.9795 1.15284 22.9738 1.3222 22.9625 1.48994L25.3197 1.48994L25.3196 18.6747L15.6091 18.6747C15.2079 17.404 14.1248 16.4381 12.8002 16.4381C11.5165 16.4381 10.3926 17.3595 9.99131 18.6747L7.34226 18.6747L7.34226 1.48994L10.137 1.48994C10.1257 1.3222 10.12 1.15284 10.12 0.98205C10.12 0.648761 10.1419 0.320883 10.1842 0ZM33.5049 18.6747L35.3124 18.6747L35.3108 10.609C35.3108 7.10186 33.6648 4.90987 30.9766 4.90987L26.6425 4.90987L26.6425 18.6747L27.8871 18.6747C28.2883 17.3595 29.3715 16.4381 30.696 16.4381C32.0205 16.4381 33.1036 17.404 33.5049 18.6747ZM11.1951 19.6833C11.1951 20.6475 11.9177 21.4369 12.8002 21.4369C13.6827 21.4369 14.4053 20.6475 14.4053 19.6833C14.4053 18.7192 13.6827 17.9298 12.8002 17.9298C11.9177 17.9298 11.1951 18.7192 11.1951 19.6833ZM29.0923 19.6833C29.0923 20.6475 29.815 21.4369 30.6974 21.4369C31.5799 21.4369 32.3025 20.6475 32.3025 19.6833C32.3025 18.7192 31.5799 17.9298 30.6974 17.9298C29.815 17.9298 29.0923 18.7192 29.0923 19.6833Z" transform="translate(0 5.9586205)" id="Combined-Shape" fill="#000000" fill-rule="evenodd" stroke="none" />
    <g id="clock" transform="translate(10.12 0)">
      <path d="M6.42976 0C2.88445 0 0 3.11365 0 6.94067C0 10.7677 2.88445 13.8813 6.42976 13.8813C9.97507 13.8813 12.8595 10.7677 12.8595 6.94067C12.8595 3.11365 9.97507 0 6.42976 0ZM6.42976 13.0138C3.32751 13.0138 0.803724 10.2894 0.803724 6.94067C0.803724 3.59191 3.32751 0.867588 6.42976 0.867588C9.53201 0.867588 12.0558 3.59191 12.0558 6.94067C12.0558 10.2894 9.53201 13.0138 6.42976 13.0138Z" id="Shape" fill="#000000" stroke="#000000" stroke-width="0.5" />
      <path d="M0.803724 0L0 0L0 4.51752L2.52889 7.24736L3.09715 6.63395L0.803724 4.15829L0.803724 0Z" transform="translate(6.027898 2.6027632)" id="Path" fill="#000000" stroke="#000000" stroke-width="0.5" />
    </g>
  </g>
</svg>