<svg width="42" height="11" viewBox="0 0 42 11" fill="none" xmlns="http://www.w3.org/2000/svg">
<g clip-path="url(#clip0_1_459)">
<g clip-path="url(#clip1_1_459)">
<path d="M10.931 3.75839C10.5981 3.06016 9.96709 2.60912 9.01624 2.60912C8.72438 2.61422 8.43758 2.68628 8.17797 2.81974C7.91836 2.95321 7.69291 3.14452 7.51894 3.37892L7.48422 3.4212V0.684632C7.48422 0.668819 7.47796 0.65365 7.46674 0.642467C7.45561 0.631285 7.44042 0.625 7.42463 0.625H6.08018C6.06454 0.625285 6.04966 0.63169 6.03871 0.642843C6.02776 0.653995 6.02161 0.669002 6.02161 0.684632V8.53439C6.02161 8.54991 6.02779 8.5648 6.03874 8.57579C6.04973 8.58678 6.06462 8.59293 6.08018 8.59293H7.52003C7.53563 8.59293 7.55067 8.58677 7.56181 8.57582C7.57294 8.56488 7.57936 8.54999 7.57962 8.53439V5.1874C7.57962 4.53685 8.01331 4.07609 8.70721 4.07609C9.46617 4.07609 9.65813 4.70057 9.65813 5.33703V8.53439C9.65813 8.54991 9.66424 8.5648 9.67527 8.57579C9.68622 8.58678 9.70114 8.59293 9.71663 8.59293H11.1532C11.1689 8.59293 11.1839 8.58677 11.195 8.57582C11.2062 8.56488 11.2126 8.54999 11.2128 8.53439V5.14619C11.2128 5.0302 11.2128 4.91635 11.1977 4.80576C11.173 4.44336 11.0826 4.08846 10.931 3.75839Z" fill="#5A31F4"/>
<path d="M3.74236 4.92196C3.74236 4.92196 3.00943 4.74957 2.73946 4.68016C2.46949 4.61079 1.99785 4.46334 1.99785 4.1066C1.99785 3.74991 2.37841 3.63607 2.76439 3.63607C3.15038 3.63607 3.57973 3.72931 3.61334 4.15756C3.6147 4.17301 3.6218 4.18737 3.63325 4.1978C3.6447 4.20826 3.65965 4.21404 3.67514 4.21396L5.09438 4.20852C5.10274 4.20856 5.11099 4.20684 5.11868 4.20354C5.12633 4.20024 5.13322 4.19536 5.13893 4.18925C5.14463 4.18314 5.14901 4.17594 5.15179 4.16806C5.15456 4.16019 5.15569 4.15182 5.15509 4.14346C5.06726 2.77303 3.86486 2.28296 2.75572 2.28296C1.44057 2.28296 0.47886 3.15033 0.47886 4.1066C0.47886 4.80485 0.676189 5.45971 2.22771 5.91511C2.49985 5.99424 2.86956 6.09725 3.19266 6.18725C3.58081 6.29566 3.79005 6.45939 3.79005 6.71742C3.79005 7.01667 3.35638 7.22484 2.93028 7.22484C2.31336 7.22484 1.87534 6.99605 1.83956 6.58516C1.8377 6.57012 1.83037 6.55629 1.81897 6.54627C1.80758 6.5363 1.79291 6.53082 1.77776 6.53094L0.361764 6.53742C0.353463 6.53742 0.345247 6.53907 0.337604 6.54234C0.329961 6.54556 0.323049 6.55032 0.317282 6.55632C0.311513 6.56225 0.307007 6.56934 0.304031 6.5771C0.301056 6.58486 0.299673 6.59311 0.299965 6.6014C0.365018 7.89489 1.61404 8.59201 2.77849 8.59201C4.51324 8.59201 5.29714 7.61622 5.29714 6.70227C5.29931 6.2729 5.20065 5.29494 3.74236 4.92196Z" fill="#5A31F4"/>
<path d="M22 2.60715C21.279 2.60715 20.6751 3.00614 20.2859 3.48754V2.66353C20.2859 2.64819 20.2799 2.63346 20.2691 2.62251C20.2584 2.61156 20.2437 2.60527 20.2284 2.60498H18.8818C18.8663 2.60498 18.8514 2.61115 18.8404 2.62213C18.8294 2.63311 18.8232 2.648 18.8232 2.66353V10.3615C18.8235 10.3768 18.8298 10.3915 18.8408 10.4022C18.8517 10.4129 18.8664 10.4189 18.8818 10.4189H20.3228C20.3379 10.4189 20.3526 10.4129 20.3633 10.4021C20.3742 10.3913 20.3802 10.3767 20.3802 10.3615V7.83092H20.4019C20.6307 8.18005 21.2562 8.59855 22.0737 8.59855C23.6111 8.59855 24.8927 7.32351 24.8927 5.60072C24.8938 3.94725 23.6187 2.60715 22 2.60715ZM21.8667 7.13162C21.5631 7.13912 21.2643 7.0561 21.0082 6.89301C20.7521 6.72996 20.5504 6.49423 20.4288 6.21606C20.3073 5.93785 20.2714 5.62971 20.3257 5.33106C20.3801 5.03233 20.5221 4.7566 20.7338 4.53902C20.9456 4.32145 21.2174 4.17186 21.5144 4.10942C21.8116 4.04695 22.1205 4.07443 22.4019 4.18836C22.6834 4.30228 22.9245 4.49751 23.0945 4.74902C23.2645 5.00057 23.3556 5.29708 23.3564 5.60072C23.3595 5.79913 23.3234 5.99627 23.2502 6.18073C23.177 6.3652 23.068 6.53338 22.9296 6.67566C22.7912 6.8179 22.626 6.93141 22.4436 7.00963C22.2612 7.08793 22.0652 7.12937 21.8667 7.13162Z" fill="#5A31F4"/>
<path d="M14.5598 2.26855C13.2164 2.26855 12.5463 2.72501 12.0086 3.09039L11.9923 3.10123C11.9646 3.12022 11.9451 3.14897 11.9376 3.18174C11.9302 3.2145 11.9354 3.24887 11.9522 3.27796L12.4835 4.19303C12.4935 4.21017 12.507 4.22487 12.5234 4.23612C12.5397 4.24737 12.5583 4.25487 12.5778 4.25809C12.5969 4.26154 12.6165 4.26072 12.6353 4.25565C12.6541 4.25059 12.6714 4.24144 12.6862 4.22884L12.7285 4.19412C13.005 3.96211 13.4484 3.65202 14.5218 3.56745C15.1192 3.51974 15.6353 3.67587 16.0158 4.03148C16.4343 4.41747 16.6848 5.0409 16.6848 5.69903C16.6848 6.91009 15.9714 7.67119 14.8254 7.68638C13.881 7.68098 13.2468 7.18875 13.2468 6.46122C13.2468 6.07523 13.4213 5.82372 13.7618 5.57217C13.7877 5.5536 13.8062 5.52619 13.8135 5.4951C13.8209 5.46402 13.8168 5.43132 13.8019 5.40304L13.3248 4.50098C13.316 4.48482 13.3041 4.47057 13.2898 4.45905C13.2754 4.4475 13.259 4.43892 13.2414 4.43374C13.2233 4.42838 13.2043 4.42684 13.1856 4.42928C13.167 4.43172 13.149 4.43802 13.1329 4.44784C12.5973 4.7655 11.9403 5.34664 11.976 6.46339C12.0194 7.88483 13.2012 8.97012 14.7375 9.01455H14.8146H14.9197C16.7455 8.95493 18.064 7.59968 18.064 5.76188C18.064 4.07487 16.8344 2.26855 14.5598 2.26855Z" fill="#5A31F4"/>
<path d="M30.5718 3.13599H29.6566C29.6352 3.13626 29.6146 3.14492 29.5995 3.16011C29.5843 3.1753 29.5756 3.19583 29.5753 3.2173V5.13745C29.5756 5.15882 29.5843 5.17922 29.5995 5.19426C29.6148 5.20926 29.6353 5.2177 29.6566 5.2177H30.5718C31.129 5.2177 31.5399 4.77857 31.5399 4.17685C31.5399 3.57509 31.129 3.13599 30.5718 3.13599Z" fill="#5A31F4"/>
<path d="M33.3828 6.53276C33.3828 6.81139 33.6181 6.96645 34.028 6.96645C34.5852 6.96645 34.9148 6.66503 34.9148 6.1305V5.97656L34.08 6.01991C33.6398 6.04163 33.3828 6.22481 33.3828 6.53276Z" fill="#5A31F4"/>
<path d="M40.1591 0.642344H27.8642C27.6625 0.64234 27.4628 0.68209 27.2764 0.75931C27.0901 0.836534 26.9208 0.949716 26.7782 1.09239C26.6356 1.23507 26.5226 1.40444 26.4455 1.59083C26.3684 1.77722 26.3288 1.97698 26.3289 2.17868V8.90952C26.3289 9.31681 26.4906 9.70737 26.7785 9.99548C27.0664 10.2836 27.4569 10.4456 27.8642 10.4459H40.1591C40.3613 10.4465 40.5611 10.4072 40.7479 10.3304C40.9346 10.2536 41.1045 10.1407 41.2478 9.99818C41.3906 9.85568 41.5043 9.68637 41.5819 9.49996C41.6595 9.31351 41.6996 9.1136 41.7 8.9117V2.18085C41.7004 1.97851 41.6606 1.77808 41.5834 1.59108C41.5061 1.40408 41.3925 1.23421 41.2496 1.09123C41.1064 0.948257 40.9361 0.834992 40.749 0.757956C40.5623 0.68092 40.3616 0.641627 40.1591 0.642344ZM30.6181 5.97346H29.651C29.6294 5.97346 29.6087 5.98201 29.5935 5.99727C29.5782 6.0125 29.5697 6.0332 29.5697 6.05476V7.43176C29.5697 7.45332 29.5611 7.47398 29.5458 7.48925C29.5306 7.50447 29.5099 7.51306 29.4883 7.51306H28.8075C28.786 7.51276 28.7655 7.5041 28.7502 7.48891C28.7351 7.47372 28.7264 7.45321 28.7261 7.43176V2.46491C28.7261 2.44335 28.7347 2.42267 28.7499 2.40741C28.7652 2.39217 28.7859 2.3836 28.8075 2.3836H30.6181C31.6437 2.3836 32.3778 3.13062 32.3778 4.17905C32.3778 5.22751 31.6492 5.97563 30.6235 5.97563L30.6181 5.97346ZM35.714 7.43063C35.7141 7.44143 35.7121 7.45208 35.708 7.4621C35.704 7.47207 35.6981 7.48118 35.6905 7.48887C35.6829 7.49652 35.6739 7.5026 35.664 7.50672C35.654 7.51092 35.6434 7.51306 35.6326 7.51306H34.9896C34.9789 7.51306 34.9682 7.51092 34.9583 7.50672C34.9484 7.5026 34.9394 7.49652 34.9318 7.48887C34.9242 7.48118 34.9182 7.47207 34.9142 7.4621C34.9102 7.45208 34.9082 7.44143 34.9083 7.43063V7.2821C34.9094 7.26908 34.9063 7.25607 34.8994 7.24497C34.8925 7.23387 34.8821 7.22532 34.8699 7.22056C34.8577 7.2158 34.8444 7.21508 34.8317 7.21857C34.8191 7.22202 34.808 7.22948 34.7999 7.2398C34.608 7.44908 34.2958 7.60085 33.7981 7.60085C33.0652 7.60085 32.5806 7.21921 32.5806 6.56C32.5735 6.39927 32.6067 6.2393 32.6771 6.09466C32.7475 5.94999 32.853 5.82522 32.9838 5.73166C33.2484 5.53325 33.6582 5.43027 34.2665 5.40638L34.9116 5.38471V5.19605C34.9116 4.8155 34.6557 4.65395 34.2448 4.65395C33.8339 4.65395 33.5748 4.79922 33.514 5.03667C33.5092 5.05347 33.4989 5.06814 33.4848 5.07833C33.4706 5.08857 33.4534 5.09375 33.436 5.09307H32.7996C32.7878 5.09334 32.7762 5.09108 32.7655 5.0864C32.7547 5.08171 32.7452 5.07474 32.7374 5.06592C32.7296 5.05715 32.7239 5.0468 32.7206 5.03555C32.7173 5.0243 32.7165 5.01249 32.7182 5.0009C32.8137 4.43712 33.2799 4.00883 34.2741 4.00883C35.3301 4.00883 35.7107 4.50001 35.7107 5.43785L35.714 7.43063ZM39.7189 4.20833L38.2879 8.02587C37.9628 8.91278 37.3934 9.14048 36.77 9.14048C36.6525 9.14333 36.5352 9.12908 36.4219 9.09818C36.4043 9.09342 36.3886 9.08296 36.3775 9.06848C36.3663 9.05401 36.3602 9.03623 36.3602 9.01797V8.43788C36.3601 8.42577 36.3627 8.41373 36.3679 8.40275C36.373 8.39172 36.3805 8.38201 36.3897 8.37425C36.3991 8.36648 36.41 8.3609 36.4218 8.35778C36.4335 8.35475 36.4458 8.3543 36.4577 8.35658C36.556 8.37522 36.6558 8.38467 36.7559 8.38475C36.9283 8.39341 37.0986 8.34395 37.2396 8.24427C37.3805 8.1446 37.484 8.00048 37.5334 7.83503L37.5754 7.70168C37.5821 7.68383 37.5821 7.66426 37.5754 7.64637L36.2376 4.20942C36.2335 4.19712 36.2324 4.18407 36.2343 4.17125C36.2362 4.15842 36.2411 4.14623 36.2486 4.1357C36.2561 4.12512 36.266 4.1165 36.2775 4.11046C36.2889 4.10442 36.3016 4.1012 36.3146 4.10101H36.9651C36.9818 4.10116 36.998 4.1063 37.0118 4.11579C37.0254 4.12524 37.036 4.13858 37.0421 4.15415L37.9508 6.57849C37.9568 6.59427 37.9673 6.60792 37.9815 6.61756C37.9954 6.62716 38.0119 6.63234 38.0288 6.63234C38.0456 6.63234 38.0621 6.62716 38.076 6.61756C38.0903 6.60792 38.1008 6.59427 38.1068 6.57849L38.895 4.16063C38.9003 4.14413 38.9108 4.12977 38.9246 4.11965C38.9389 4.10952 38.9558 4.10412 38.973 4.10427H39.6398C39.6529 4.1042 39.6656 4.1072 39.6769 4.11294C39.6885 4.11871 39.6986 4.12711 39.7061 4.13742C39.714 4.14777 39.7193 4.15977 39.7215 4.17245C39.7234 4.18512 39.7226 4.19817 39.7189 4.21051V4.20833Z" fill="#5A31F4"/>
</g>
</g>
<defs>
<clipPath id="clip0_1_459">
<rect width="42" height="11" fill="white"/>
</clipPath>
<clipPath id="clip1_1_459">
<rect width="42" height="10.5" fill="white" transform="translate(0 0.25)"/>
</clipPath>
</defs>
</svg>
