<svg width="106" height="18" viewBox="0 0 106 18" fill="none" xmlns="http://www.w3.org/2000/svg">
<path d="M9 0L11.2112 5.95648L17.5595 6.21885L12.5779 10.1625L14.2901 16.2812L9 12.762L3.70993 16.2812L5.42213 10.1625L0.440491 6.21885L6.78875 5.95648L9 0Z" fill="#FF6B12"/>
<path d="M31.019 0L33.2302 5.95648L39.5785 6.21885L34.5969 10.1625L36.3091 16.2812L31.019 12.762L25.7289 16.2812L27.4411 10.1625L22.4595 6.21885L28.8078 5.95648L31.019 0Z" fill="#FF6B12"/>
<path d="M53.038 0L55.2492 5.95648L61.5975 6.21885L56.6159 10.1625L58.3281 16.2812L53.038 12.762L47.7479 16.2812L49.4601 10.1625L44.4785 6.21885L50.8268 5.95648L53.038 0Z" fill="#FF6B12"/>
<path d="M75.057 0L77.2682 5.95648L83.6165 6.21885L78.6349 10.1625L80.3471 16.2812L75.057 12.762L69.7669 16.2812L71.4791 10.1625L66.4975 6.21885L72.8458 5.95648L75.057 0Z" fill="#FF6B12"/>
<path d="M97.076 0L99.2872 5.95648L105.636 6.21885L100.654 10.1625L102.366 16.2812L97.076 12.762L91.7859 16.2812L93.4981 10.1625L88.5165 6.21885L94.8648 5.95648L97.076 0Z" fill="#FF6B12"/>
</svg>
