<svg width="108" height="21" viewBox="0 0 108 21" fill="none" xmlns="http://www.w3.org/2000/svg">
<g clip-path="url(#clip0_1_3075)">
<path d="M10.1761 0.840332L13.1033 6.77142L19.6486 7.72252L14.9124 12.3392L16.0305 18.8581L10.1761 15.7803L4.3218 18.8581L5.43987 12.3392L0.703613 7.72252L7.24897 6.77142L10.1761 0.840332Z" fill="#FFC42C"/>
<path d="M32.1211 0.840332L35.0484 6.77142L41.5937 7.72252L36.8574 12.3392L37.9756 18.8581L32.1211 15.7803L26.2668 18.8581L27.385 12.3392L22.6487 7.72252L29.194 6.77142L32.1211 0.840332Z" fill="#FFC42C"/>
<path d="M54.0663 0.840332L56.9935 6.77142L63.5389 7.72252L58.8026 12.3392L59.9206 18.8581L54.0663 15.7803L48.212 18.8581L49.33 12.3392L44.5938 7.72252L51.1392 6.77142L54.0663 0.840332Z" fill="#FFC42C"/>
<path d="M76.0114 0.840332L78.9385 6.77142L85.4838 7.72252L80.7475 12.3392L81.8657 18.8581L76.0114 15.7803L70.1569 18.8581L71.2751 12.3392L66.5388 7.72252L73.0842 6.77142L76.0114 0.840332Z" fill="#FFC42C"/>
<path d="M97.9564 0.840332L100.884 6.77142L107.429 7.72252L102.693 12.3392L103.811 18.8581L97.9564 15.7803L92.1021 18.8581L93.2202 12.3392L88.4839 7.72252L95.0293 6.77142L97.9564 0.840332Z" fill="#FFC42C"/>
</g>
<defs>
<clipPath id="clip0_1_3075">
<rect width="108" height="20.4" fill="white" transform="translate(0 0.600098)"/>
</clipPath>
</defs>
</svg>
