<?xml version="1.0" encoding="UTF-8"?>
<svg width="14px" height="12px" viewBox="0 0 14 12" version="1.1" xmlns="http://www.w3.org/2000/svg" xmlns:xlink="http://www.w3.org/1999/xlink">
    <!-- Generator: Sketch 55.1 (78136) - https://sketchapp.com -->
    <title>Icon/Social 20px/twitter [#154]</title>
    <desc>Created with Sketch.</desc>
    <g id="WIP" stroke="none" stroke-width="1" fill="none" fill-rule="evenodd">
        <g id="Footer-Copy-2" transform="translate(-170.000000, -58.000000)" fill="#000000">
            <g id="Group-11" transform="translate(170.000000, 57.000000)">
                <path d="M4.42123188,12.88 C9.72600725,12.88 12.6275725,8.57055717 12.6275725,4.83382295 C12.6275725,4.7111489 12.6275725,4.58916403 12.6191377,4.46786834 C13.1835652,4.06814392 13.6706739,3.57193428 14.057971,3.00404992 C13.5322029,3.2328577 12.9733986,3.38309895 12.401942,3.44926023 C13.0036232,3.09571087 13.4541812,2.54023175 13.669971,1.88482153 C13.1034348,2.21424959 12.4841812,2.44650327 11.8382174,2.57124485 C10.745913,1.43271942 8.91907971,1.37758501 7.75718841,2.44857081 C7.00860145,3.13912921 6.69018841,4.1687642 6.92284783,5.15084577 C4.60398551,5.03644188 2.44327536,3.96269937 0.978434783,2.19633091 C0.212978261,3.4885435 0.604492754,5.14119725 1.87181884,5.97097003 C1.41282609,5.95787561 0.963673913,5.83657992 0.562318841,5.61742066 L0.562318841,5.65325803 C0.563021739,6.99922666 1.53091304,8.1584275 2.87626087,8.42514018 C2.45171014,8.53885488 2.00607246,8.5553952 1.57449275,8.47338278 C1.95194928,9.62569182 3.03511594,10.414803 4.2687029,10.4375459 C3.2473913,11.2245895 1.98568841,11.6518812 0.686731884,11.6505028 C0.457586957,11.6498136 0.228442029,11.6367192 0,11.6098412 C1.31934058,12.4396139 2.85376812,12.88 4.42123188,12.8779325" id="Icon/Social-20px/twitter-[#154]"></path>
            </g>
        </g>
    </g>
</svg>