<svg width="118" height="64" viewBox="0 0 118 64" fill="none" xmlns="http://www.w3.org/2000/svg">
<g clip-path="url(#clip0_469_3850)">
<path d="M11.5059 18.8564H19.1006C20.948 18.8564 23.3846 18.8564 24.6428 19.6279C26.0226 20.4568 27.1059 21.9651 27.1059 24.0414C27.1059 26.2904 25.9352 27.9791 23.9966 28.7774V28.8388C26.5776 29.3723 27.984 31.3257 27.984 33.9317C27.984 37.0404 25.7831 40.0032 21.6208 40.0032H11.5059V18.8564ZM14.2921 27.9446H19.8685C23.0349 27.9446 24.3273 26.7894 24.3273 24.5672C24.3273 21.6351 22.2746 21.2206 19.8685 21.2206H14.2921V27.9446ZM14.2921 37.6276H21.2749C23.6773 37.6276 25.2053 36.1461 25.2053 33.8396C25.2053 31.084 23.0044 30.3164 20.6591 30.3164H14.2921V37.6276Z" fill="black"/>
<path d="M35.1113 29.4336C35.1113 38.3145 27.9803 45.5144 19.1806 45.5144C10.3846 45.5144 3.25359 38.3145 3.25359 29.4336C3.25359 20.5528 10.3846 13.3529 19.1806 13.3529C27.9803 13.3567 35.1113 20.5566 35.1113 29.4336ZM19.1844 10.9043C9.0542 10.9043 0.839844 19.198 0.839844 29.4259C0.839844 39.6539 9.0542 47.9476 19.1844 47.9476C29.3183 47.9476 37.5326 39.6539 37.5326 29.4259C37.5326 19.198 29.3183 10.9043 19.1844 10.9043Z" fill="black"/>
<path d="M37.4908 51.8584H0.874023V54.2878H37.4908V51.8584Z" fill="black"/>
<path d="M36.3466 49.1833C36.3922 49.1833 36.434 49.1795 36.4759 49.1795C36.5139 49.1757 36.5519 49.168 36.5823 49.1565C36.6165 49.1411 36.6393 49.1181 36.6583 49.0912C36.6773 49.0605 36.6849 49.0221 36.6849 48.9723C36.6849 48.93 36.6773 48.8917 36.6621 48.8686C36.6469 48.8418 36.6241 48.8226 36.5975 48.8111C36.5709 48.7957 36.5443 48.788 36.5063 48.7804C36.4721 48.7765 36.4416 48.7765 36.4036 48.7765H36.1414V49.1872H36.3466V49.1833ZM36.434 48.6077C36.5861 48.6077 36.6963 48.6384 36.7724 48.6998C36.8446 48.7612 36.8826 48.8533 36.8826 48.9799C36.8826 49.0989 36.8484 49.1795 36.7876 49.2371C36.7229 49.2908 36.6431 49.3215 36.5443 49.333L36.9092 49.901H36.6963L36.3466 49.3445H36.1376V49.901H35.9361V48.6115H36.434V48.6077ZM35.537 49.6247C35.5788 49.7398 35.6434 49.8435 35.727 49.9279C35.8069 50.0123 35.9019 50.0776 36.0121 50.1275C36.1185 50.1735 36.2402 50.1965 36.3656 50.1965C36.4949 50.1965 36.6127 50.1735 36.7191 50.1275C36.8294 50.0776 36.9244 50.0123 37.0042 49.9279C37.084 49.8435 37.1487 49.7437 37.1905 49.6247C37.2361 49.5096 37.2627 49.3867 37.2627 49.2524C37.2627 49.1181 37.2399 48.9953 37.1905 48.8801C37.1449 48.765 37.0802 48.6652 37.0042 48.5808C36.9206 48.4964 36.8256 48.4311 36.7191 48.3851C36.6127 48.339 36.4911 48.3121 36.3656 48.3121C36.2402 48.3121 36.1185 48.339 36.0121 48.3851C35.9019 48.435 35.8031 48.5002 35.727 48.5808C35.6434 48.6652 35.5826 48.765 35.537 48.8801C35.4914 48.9953 35.4685 49.1143 35.4685 49.2524C35.4647 49.3829 35.4876 49.5096 35.537 49.6247ZM35.3545 48.8149C35.4115 48.6806 35.4914 48.5693 35.5902 48.4695C35.689 48.3697 35.8069 48.2968 35.9399 48.2392C36.0729 48.1817 36.2174 48.1548 36.3618 48.1548C36.5139 48.1548 36.6545 48.1817 36.7914 48.2392C36.9206 48.2968 37.0384 48.3697 37.1335 48.4695C37.2323 48.5693 37.3159 48.6844 37.3691 48.8149C37.43 48.9492 37.4566 49.0951 37.4566 49.2524C37.4566 49.4098 37.43 49.5556 37.3691 49.6899C37.3121 49.8281 37.2323 49.9432 37.1335 50.043C37.0346 50.1466 36.9206 50.2196 36.7914 50.2771C36.6545 50.3309 36.5139 50.3577 36.3618 50.3577C36.2136 50.3577 36.0729 50.3309 35.9399 50.2771C35.8069 50.2196 35.689 50.1466 35.5902 50.043C35.4914 49.9432 35.4115 49.8281 35.3545 49.6899C35.2937 49.5556 35.2709 49.4098 35.2709 49.2524C35.2671 49.0951 35.2937 48.9492 35.3545 48.8149Z" fill="black"/>
<path d="M5.3141 2.76033C5.22668 2.61833 5.12024 2.49552 4.991 2.39189C4.86176 2.28443 4.71352 2.20384 4.55007 2.14243C4.38662 2.08486 4.21556 2.05416 4.03691 2.05416C3.71001 2.05416 3.43252 2.1194 3.20065 2.24605C2.97258 2.3727 2.78632 2.54541 2.64568 2.76033C2.50503 2.97525 2.3986 3.22088 2.33398 3.49721C2.26936 3.77353 2.23515 4.05754 2.23515 4.34922C2.23515 4.62938 2.26556 4.90187 2.33398 5.16669C2.3986 5.4315 2.50123 5.66945 2.64568 5.88437C2.78632 6.09546 2.97258 6.26816 3.20065 6.39481C3.42872 6.52146 3.70621 6.58671 4.03691 6.58671C4.48165 6.58671 4.83135 6.44854 5.07843 6.17605C5.32931 5.89972 5.48136 5.53896 5.53837 5.08993H6.94861C6.9106 5.50826 6.81557 5.88437 6.65972 6.22211C6.50387 6.55984 6.30241 6.84768 6.04773 7.0818C5.79305 7.31974 5.49656 7.50012 5.15826 7.62677C4.81995 7.74959 4.44363 7.81483 4.03691 7.81483C3.53135 7.81483 3.07521 7.72656 2.66848 7.54618C2.26176 7.36964 1.92345 7.12401 1.64217 6.8093C1.36468 6.49844 1.15181 6.13 1.00357 5.70783C0.85532 5.28566 0.779297 4.83279 0.779297 4.34538C0.779297 3.84645 0.851519 3.38207 1.00357 2.95606C1.15181 2.53006 1.36468 2.15394 1.64217 1.83924C1.91965 1.52069 2.26176 1.27123 2.66848 1.09085C3.07141 0.910468 3.52755 0.818359 4.03691 0.818359C4.40182 0.818359 4.74773 0.87209 5.07083 0.975713C5.39393 1.08317 5.68662 1.23669 5.9413 1.4401C6.19598 1.64351 6.40884 1.89297 6.57609 2.19232C6.74335 2.49168 6.84978 2.83709 6.89159 3.22088H5.48135C5.45475 3.05201 5.40153 2.8985 5.3141 2.76033Z" fill="black"/>
<path d="M8.84522 6.49849C9.04289 6.69038 9.32797 6.79016 9.69669 6.79016C9.96277 6.79016 10.1908 6.72492 10.3847 6.59059C10.5748 6.45627 10.6926 6.31427 10.7382 6.16459H11.8976C11.7113 6.74411 11.4262 7.16244 11.0423 7.4119C10.6584 7.66137 10.1946 7.78802 9.65107 7.78802C9.27476 7.78802 8.93265 7.72661 8.63236 7.6038C8.32826 7.48098 8.07359 7.30828 7.86072 7.08568C7.65165 6.86308 7.48821 6.59443 7.37418 6.27973C7.26014 5.96886 7.20312 5.62345 7.20312 5.25117C7.20312 4.89041 7.26013 4.55268 7.37797 4.24181C7.49581 3.93094 7.66306 3.65845 7.87973 3.43201C8.09639 3.20558 8.35487 3.0252 8.65517 2.89471C8.95546 2.76422 9.28616 2.69897 9.65107 2.69897C10.0578 2.69897 10.4151 2.77957 10.7192 2.93692C11.0233 3.09812 11.2704 3.3092 11.4642 3.57785C11.6581 3.8465 11.7987 4.15353 11.8862 4.49511C11.9736 4.83668 12.004 5.19744 11.9774 5.57355H8.51832C8.53733 5.99188 8.64376 6.30659 8.84522 6.49849ZM10.3315 3.95396C10.1718 3.78126 9.93237 3.69299 9.61307 3.69299C9.40401 3.69299 9.22915 3.72753 9.08851 3.80045C8.94787 3.87337 8.83762 3.96164 8.754 4.06526C8.67037 4.17272 8.61335 4.28402 8.57914 4.403C8.54493 4.52197 8.52593 4.6256 8.51832 4.72154H10.6622C10.6014 4.38381 10.4911 4.12667 10.3315 3.95396Z" fill="black"/>
<path d="M13.8244 2.81799V3.71605H13.8434C13.9042 3.56638 13.9878 3.42821 14.0943 3.29772C14.2007 3.17107 14.3185 3.05978 14.4554 2.9715C14.5922 2.88323 14.7367 2.81031 14.8925 2.76042C15.0484 2.71053 15.208 2.6875 15.3753 2.6875C15.4627 2.6875 15.5577 2.70285 15.6642 2.73355V3.96935C15.6033 3.95784 15.5273 3.94633 15.4399 3.93865C15.3525 3.93098 15.2688 3.9233 15.189 3.9233C14.9495 3.9233 14.7443 3.96552 14.577 4.04611C14.4098 4.12671 14.2767 4.23801 14.1741 4.38001C14.0715 4.52201 13.9992 4.6832 13.9574 4.87126C13.9156 5.05931 13.8928 5.26272 13.8928 5.48148V7.66524H12.5776V2.81799H13.8244Z" fill="black"/>
<path d="M19.1842 2.81798V3.70837H18.2187V6.10705C18.2187 6.33348 18.2568 6.48316 18.329 6.55608C18.4012 6.629 18.5532 6.66738 18.7737 6.66738C18.8497 6.66738 18.9182 6.66354 18.9866 6.6597C19.055 6.65203 19.1196 6.64435 19.1804 6.63284V7.66139C19.0702 7.68058 18.9448 7.6921 18.8079 7.69977C18.6711 7.70745 18.538 7.71129 18.4088 7.71129C18.2035 7.71129 18.0097 7.69593 17.831 7.66907C17.6486 7.6422 17.4889 7.58847 17.3483 7.50404C17.2076 7.42344 17.1012 7.30831 17.0176 7.15863C16.9377 7.00895 16.8959 6.81322 16.8959 6.5676V3.71221H16.0977V2.82182H16.8959V1.37109H18.2111V2.82182H19.1842V2.81798Z" fill="black"/>
<path d="M19.9521 2.06956V0.971924H21.2673V2.06956H19.9521ZM21.2673 2.81795V7.65753H19.9521V2.81795H21.2673Z" fill="black"/>
<path d="M21.792 3.70834V2.81795H22.5788V2.44184C22.5788 2.01199 22.7119 1.65891 22.9779 1.38258C23.244 1.10625 23.6469 0.971924 24.1829 0.971924C24.3008 0.971924 24.4186 0.975762 24.5364 0.987276C24.6543 0.994952 24.7683 1.00646 24.8785 1.0103V2.00432C24.7227 1.98513 24.563 1.97745 24.3958 1.97745C24.2171 1.97745 24.0879 2.01967 24.0119 2.1041C23.9358 2.18853 23.8978 2.33054 23.8978 2.53011V2.82179H24.8063V3.71218H23.8978V7.6652H22.5788V3.71218H21.792V3.70834Z" fill="black"/>
<path d="M25.6958 2.06956V0.971924H27.011V2.06956H25.6958ZM27.0148 2.81795V7.65753H25.6958V2.81795H27.0148Z" fill="black"/>
<path d="M29.09 6.49835C29.2877 6.69024 29.5728 6.79003 29.9415 6.79003C30.2076 6.79003 30.4357 6.72478 30.6295 6.59046C30.8196 6.45613 30.9374 6.31413 30.983 6.16445H32.1424C31.9561 6.74397 31.671 7.1623 31.2909 7.41177C30.907 7.66123 30.4433 7.78788 29.8997 7.78788C29.5234 7.78788 29.1813 7.72647 28.881 7.60366C28.5769 7.48085 28.3222 7.30814 28.1093 7.08555C27.9003 6.86295 27.7368 6.5943 27.6228 6.27959C27.5087 5.96872 27.4517 5.62331 27.4517 5.25103C27.4517 4.89027 27.5125 4.55254 27.6266 4.24167C27.7444 3.91929 27.9117 3.65063 28.1283 3.4242C28.345 3.19776 28.6035 3.01738 28.9038 2.88689C29.2041 2.75641 29.5348 2.69116 29.8997 2.69116C30.3064 2.69116 30.6637 2.77176 30.9678 2.92911C31.2719 3.0903 31.519 3.30139 31.7129 3.57004C31.9067 3.83869 32.0474 4.14572 32.1348 4.48729C32.2222 4.82887 32.2526 5.18963 32.2298 5.56574H28.7707C28.7859 5.99175 28.8924 6.30645 29.09 6.49835ZM30.5801 3.95383C30.4242 3.78112 30.181 3.69285 29.8617 3.69285C29.6526 3.69285 29.4778 3.72739 29.3371 3.80031C29.1965 3.87323 29.0862 3.9615 29.0026 4.06513C28.919 4.17259 28.862 4.28389 28.8278 4.40286C28.7935 4.52184 28.7745 4.62546 28.7669 4.72141H30.907C30.8462 4.38367 30.7359 4.12653 30.5801 3.95383Z" fill="black"/>
<path d="M36.225 7.04353C36.0692 7.30451 35.8677 7.4964 35.6168 7.61154C35.3659 7.72668 35.0846 7.78425 34.7691 7.78425C34.4118 7.78425 34.0963 7.71516 33.8227 7.57316C33.549 7.43116 33.3247 7.2431 33.1498 7.00132C32.975 6.75953 32.842 6.4832 32.7507 6.17233C32.6595 5.86146 32.6177 5.53524 32.6177 5.19751C32.6177 4.87129 32.6633 4.56042 32.7507 4.25723C32.8381 3.95403 32.975 3.68922 33.1498 3.45511C33.3247 3.22483 33.549 3.03678 33.8112 2.89861C34.0773 2.75661 34.3852 2.68753 34.7387 2.68753C35.0238 2.68753 35.2937 2.74894 35.5484 2.87175C35.8069 2.99456 36.0083 3.1711 36.1566 3.40905H36.1756V0.97583H37.4908V7.66143H36.2402V7.04353H36.225ZM36.168 4.64869C36.13 4.46447 36.0692 4.30328 35.9779 4.16128C35.8867 4.01928 35.7727 3.90798 35.6282 3.81971C35.4876 3.73143 35.3051 3.68922 35.0922 3.68922C34.8794 3.68922 34.6931 3.73143 34.5449 3.81971C34.3966 3.90798 34.2788 4.02311 34.1876 4.16512C34.1001 4.30712 34.0355 4.47215 33.9937 4.65637C33.9519 4.84058 33.9329 5.03248 33.9329 5.23205C33.9329 5.42011 33.9557 5.60816 33.9975 5.79238C34.0393 5.98044 34.1115 6.14547 34.2066 6.29514C34.3016 6.44098 34.4232 6.55996 34.5677 6.65207C34.7121 6.74418 34.887 6.78639 35.0922 6.78639C35.3089 6.78639 35.4876 6.74418 35.6358 6.65591C35.7803 6.56764 35.8981 6.4525 35.9855 6.30282C36.073 6.15698 36.1338 5.98811 36.1718 5.80389C36.2098 5.61584 36.2288 5.42394 36.2288 5.22437C36.225 5.0248 36.206 4.83291 36.168 4.64869Z" fill="black"/>
<path d="M4.08573 59.0584C4.02111 58.5902 3.57637 58.2333 3.06701 58.2333C2.14713 58.2333 1.80122 59.0239 1.80122 59.849C1.80122 60.6319 2.14713 61.4225 3.06701 61.4225C3.69421 61.4225 4.04772 60.9889 4.12374 60.3671H5.11965C5.01321 61.5415 4.21117 62.2938 3.06701 62.2938C1.62256 62.2938 0.774902 61.2038 0.774902 59.849C0.774902 58.452 1.62256 57.3621 3.06701 57.3621C4.09333 57.3621 4.9524 57.9684 5.07784 59.0584H4.08573Z" fill="black"/>
<path d="M7.25988 58.6824C8.32421 58.6824 9.00843 59.3924 9.00843 60.4823C9.00843 61.5646 8.32421 62.2746 7.25988 62.2746C6.20316 62.2746 5.51514 61.5608 5.51514 60.4823C5.51514 59.3962 6.20316 58.6824 7.25988 58.6824ZM7.25988 61.5723C7.89468 61.5723 8.08094 61.0235 8.08094 60.4862C8.08094 59.9374 7.89088 59.3924 7.25988 59.3924C6.63269 59.3924 6.44263 59.9412 6.44263 60.4862C6.44263 61.0235 6.63269 61.5723 7.25988 61.5723Z" fill="black"/>
<path d="M9.58252 58.7706H10.4644V59.4038H10.4796C10.6469 58.974 11.1068 58.6785 11.5592 58.6785C11.6238 58.6785 11.7036 58.69 11.7606 58.7092V59.5804C11.6732 59.5612 11.5364 59.5497 11.4261 59.5497C10.7457 59.5497 10.51 60.0448 10.51 60.6435V62.1786H9.58252V58.7706Z" fill="black"/>
<path d="M12.1215 58.7745H13.0034V59.2082H13.0148C13.2353 58.8474 13.6002 58.6824 14.0183 58.6824C15.0789 58.6824 15.554 59.5459 15.554 60.513C15.554 61.4226 15.0599 62.2746 14.0716 62.2746C13.6686 62.2746 13.2809 62.0981 13.0604 61.7604H13.0452V63.3838H12.1177V58.7745H12.1215ZM14.6265 60.49C14.6265 59.9489 14.4099 59.3885 13.8169 59.3885C13.2087 59.3885 13.0148 59.9374 13.0148 60.49C13.0148 61.0427 13.2239 61.5723 13.8245 61.5723C14.4327 61.5723 14.6265 61.0427 14.6265 60.49Z" fill="black"/>
<path d="M17.5877 58.6824C18.652 58.6824 19.34 59.3924 19.34 60.4823C19.34 61.5646 18.652 62.2746 17.5877 62.2746C16.531 62.2746 15.8467 61.5608 15.8467 60.4823C15.8467 59.3962 16.531 58.6824 17.5877 58.6824ZM17.5877 61.5723C18.2225 61.5723 18.4125 61.0235 18.4125 60.4862C18.4125 59.9374 18.2225 59.3924 17.5877 59.3924C16.9605 59.3924 16.7704 59.9412 16.7704 60.4862C16.7742 61.0235 16.9643 61.5723 17.5877 61.5723Z" fill="black"/>
<path d="M19.914 58.7706H20.7959V59.4038H20.8111C20.9783 58.974 21.4383 58.6785 21.8868 58.6785C21.9514 58.6785 22.0312 58.69 22.0883 58.7092V59.5804C22.0046 59.5612 21.8678 59.5497 21.7538 59.5497C21.0733 59.5497 20.8377 60.0448 20.8377 60.6435V62.1786H19.9102V58.7706H19.914Z" fill="black"/>
<path d="M22.362 59.8222C22.4152 58.9434 23.1906 58.6824 23.9509 58.6824C24.6237 58.6824 25.4333 58.8321 25.4333 59.6495V61.4226C25.4333 61.7335 25.4637 62.0405 25.5512 62.1825H24.6085C24.5781 62.0751 24.5477 61.9638 24.5439 61.8525C24.2512 62.1633 23.8216 62.2746 23.4073 62.2746C22.7687 62.2746 22.2593 61.9523 22.2593 61.2538C22.2593 60.4823 22.8333 60.2981 23.4073 60.2175C23.9775 60.1331 24.5058 60.1523 24.5058 59.7685C24.5058 59.3655 24.2284 59.308 23.9053 59.308C23.5517 59.308 23.3237 59.4538 23.2895 59.8222H22.362ZM24.502 60.5169C24.3424 60.655 24.0193 60.6627 23.7304 60.7165C23.4415 60.774 23.183 60.8738 23.183 61.2192C23.183 61.5685 23.4491 61.6529 23.7532 61.6529C24.4754 61.6529 24.5058 61.0734 24.5058 60.87V60.5169H24.502Z" fill="black"/>
<path d="M27.3036 58.7744H27.984V59.3999H27.3036V61.0886C27.3036 61.4072 27.3834 61.4839 27.6951 61.4839C27.7939 61.4839 27.8851 61.4762 27.984 61.457V62.1901C27.8281 62.217 27.6229 62.2246 27.4404 62.2246C26.874 62.2246 26.3761 62.0903 26.3761 61.4148V59.4038H25.8135V58.7782H26.3761V57.7573H27.3036V58.7744Z" fill="black"/>
<path d="M29.6111 58.2487H28.6836V57.4773H29.6111V58.2487ZM28.6836 58.7745H29.6111V62.1825H28.6836V58.7745Z" fill="black"/>
<path d="M31.9753 58.6824C33.0396 58.6824 33.7277 59.3924 33.7277 60.4823C33.7277 61.5646 33.0396 62.2746 31.9753 62.2746C30.9186 62.2746 30.2344 61.5608 30.2344 60.4823C30.2344 59.3962 30.9186 58.6824 31.9753 58.6824ZM31.9753 61.5723C32.6101 61.5723 32.8002 61.0235 32.8002 60.4862C32.8002 59.9374 32.6101 59.3924 31.9753 59.3924C31.3481 59.3924 31.1581 59.9412 31.1581 60.4862C31.1581 61.0235 31.3481 61.5723 31.9753 61.5723Z" fill="black"/>
<path d="M34.3242 58.7745H35.206V59.2504H35.225C35.4607 58.8666 35.8636 58.6824 36.259 58.6824C37.2435 58.6824 37.4943 59.2427 37.4943 60.087V62.1825H36.5669V60.2559C36.5669 59.6956 36.4034 59.4192 35.9739 59.4192C35.4683 59.4192 35.2555 59.7033 35.2555 60.3979V62.1864H34.328V58.7745H34.3242Z" fill="black"/>
<mask id="mask0_469_3850" style="mask-type:luminance" maskUnits="userSpaceOnUse" x="61" y="4" width="57" height="56">
<path d="M117.384 4H61.3843V60H117.384V4Z" fill="white"/>
</mask>
<g mask="url(#mask0_469_3850)">
<path d="M96.5057 26.4C96.8861 26.0618 97.2031 25.766 97.5835 25.4173C96.6748 25.0475 97.2348 24.6249 96.7382 23.9064C96.4635 23.5154 96.5163 23.2301 97.0446 22.8498C97.3299 22.6384 97.668 22.5434 97.985 22.406C98.0906 22.3637 98.1963 22.3532 98.3759 22.3215C98.3231 22.0679 98.3336 21.8143 98.2386 21.6664C97.9216 21.1909 97.594 20.726 97.2136 20.335C96.8016 19.9124 96.7699 19.9441 97.3616 19.3313C97.3827 19.3101 97.3827 19.2784 97.4144 19.215C96.5057 18.2641 95.3118 17.9577 93.6318 18.6762C93.7269 18.3803 93.8114 18.1373 93.8959 17.8626C93.5684 18.0211 93.3042 18.1479 92.9133 18.3275C93.0823 17.9471 93.1774 17.7041 93.3042 17.4717C93.4416 17.2181 93.6106 16.975 93.7902 16.6792C93.1246 16.732 92.4801 17.0173 91.8461 17.44C91.2227 17.852 90.6204 18.3064 89.9865 18.7501C89.6378 18.169 89.4053 17.4822 88.708 17.1864C88.6129 17.4083 88.5495 17.5879 88.4544 17.7675C88.2219 18.1796 88.0318 18.6128 87.7253 18.9826C87.4718 19.289 87.0914 19.532 86.7638 19.8067C86.6476 19.5954 86.4891 19.4052 86.4363 19.1622C86.3623 18.8241 86.3835 18.4437 86.3518 18.0739C86.3201 18.0739 86.2778 18.0739 86.2461 18.0634C85.9291 18.4966 85.5804 18.9298 85.2952 19.3735C85.0099 19.8173 84.7774 20.2717 84.5027 20.7683C84.2068 20.1871 84.0695 20.0815 83.7102 20.1237C83.6363 20.4196 83.5623 20.726 83.4989 21.0218C83.4461 21.0535 83.3933 21.0747 83.3404 21.1064C83.1714 20.8317 83.0023 20.5569 82.8333 20.2717C82.0725 21.6664 81.7767 22.9132 82.0514 24.0015C82.0091 24.0437 81.9563 24.0754 81.9035 24.1177C81.5653 23.9803 81.2272 23.843 80.8785 23.7056L80.7835 23.769C80.9208 24.3079 81.0687 24.8467 81.2061 25.3962C81.0793 25.4384 80.9208 25.5018 80.7306 25.5758C80.8363 26.4739 81.3963 27.0762 81.9457 27.7313C81.4385 27.8792 80.9948 27.9954 80.4136 28.1645C80.7623 28.7034 81.0265 29.2105 81.3963 29.6437C81.7767 30.0875 82.2627 30.4573 82.7382 30.9117C82.4212 30.9962 82.1465 31.0807 81.8506 31.1547C82.0619 32.7079 82.5163 33.923 83.3616 35.2015C83.4567 35.36 83.7842 35.4233 83.5835 35.92C83.4144 36.332 83.1502 37.1245 83.0657 37.5366C82.8333 38.5932 82.7804 39.6286 82.8861 40.6958C83.3933 40.4211 83.5412 40.3683 84.0272 40.569C84.4182 41.2558 84.5344 41.7418 84.2069 42.5766C83.8899 43.3901 83.8793 43.0098 83.5201 43.8339C84.3548 44.2671 85.2529 44.1086 86.1721 43.7071C86.2144 44.4784 85.5804 44.9117 85.1367 45.4294C86.225 45.8203 87.1759 45.6301 88.1585 45.0173C88.0846 45.5034 88.0212 45.8837 87.9578 46.3064C88.9404 46.2113 89.4053 45.5984 89.8491 44.9328C90.5148 45.8309 91.3918 46.2852 92.628 46.2324C92.3216 45.5456 92.1842 44.8694 92.311 44.1086C92.9767 44.5841 93.674 44.8588 94.5087 44.9645C94.4136 44.6369 94.3291 44.3728 94.234 44.0558C94.6989 44.2671 95.1004 44.4467 95.5759 44.6686C95.2906 43.4218 95.185 43.443 95.2906 42.2173C96.1148 42.6928 96.4423 42.7456 96.9178 42.5132C96.8016 41.9637 96.1676 41.1396 96.0936 40.5901C96.0197 40.0301 95.185 39.7449 95.1744 39.1743C95.1638 38.2973 95.2272 38.255 96.0831 38.4875C96.1676 36.7335 95.8295 35.1698 95.0582 33.7433C95.3752 33.6905 95.6182 33.6377 95.9563 33.5743C95.6604 32.7713 95.3857 32.0317 95.1004 31.292C95.914 30.6158 96.6219 29.8339 97.0657 28.8724C96.6748 28.8935 96.3367 28.9147 95.9246 28.9464C96.8861 27.8264 97.1185 27.4037 97.1714 26.7486C96.9601 26.6535 96.7487 26.5584 96.5268 26.4634L96.5057 26.4ZM88.0212 20.3667C88.2748 20.2611 88.5495 20.166 88.8136 20.166C89.4899 20.166 89.9442 20.6626 90.1555 21.5396C90.3352 22.2898 90.2612 22.723 89.5955 23.2301C88.8559 23.8007 87.5457 23.3041 87.4929 21.5607C87.4506 20.9479 87.588 20.5569 88.0106 20.3667H88.0212ZM86.4152 21.6241C86.8906 21.8143 87.4084 22.9132 87.3238 23.452C87.2287 24.0332 86.8378 24.2973 86.3835 24.5192C86.151 24.6354 85.9925 24.5932 85.8763 24.3713C84.6295 22.4588 85.7706 21.36 86.4046 21.6135L86.4152 21.6241ZM83.3299 23.843C83.5623 23.283 84.4393 23.1667 84.8725 23.6317C85.0838 23.8535 85.2212 24.1177 85.2635 24.4347C85.3163 24.8362 85.3691 25.2588 85.1367 25.5864C84.9042 25.9245 84.3548 25.9879 83.9955 25.7343C83.3827 25.3011 83.0129 24.572 83.3193 23.843H83.3299ZM82.6853 26.643C82.3472 26.3577 82.1676 25.8928 82.3684 25.449C82.5269 25.1109 83.0235 25.0581 83.2559 25.3539C83.3616 25.5018 83.4355 25.6709 83.4567 25.8611C83.4778 26.1147 83.4884 26.3788 83.3404 26.5796C83.1925 26.7803 82.8755 26.8015 82.6853 26.643ZM96.1887 21.4973C96.0725 21.9411 95.7238 22.406 95.3435 22.723C94.7729 23.1984 94.6884 23.7162 94.8469 24.3079C95.111 25.2694 95.3329 26.2415 95.1533 27.2241C95.0053 28.0483 94.7729 28.8724 94.477 29.6649C93.917 31.123 93.6001 32.6022 93.7057 34.1449C93.748 34.7577 93.6212 35.3811 93.5684 36.0045C93.5261 36.4905 93.3993 36.9871 93.4627 37.4626C93.6423 39.0475 93.431 40.5796 92.9344 42.1011C92.7019 42.7984 92.2476 43.3796 91.434 43.6437C89.9125 44.1298 88.4121 43.9079 87.0069 43.3056C86.0559 42.9041 85.4959 42.1011 85.1895 41.2241C84.6929 39.7871 84.4499 38.3079 84.6295 36.8181C84.8302 35.0852 84.6929 33.3947 84.1329 31.7147C83.7314 30.4996 83.351 29.2739 83.4567 27.9849C83.5201 27.1818 83.7631 26.8543 84.6612 26.6747C85.2318 26.5584 85.6861 26.3683 85.9925 25.8822C86.3095 25.3962 86.8167 25.1426 87.5035 25.1637C87.7887 25.1743 88.1057 25.0581 88.3804 24.9524C88.708 24.8256 89.0038 24.6566 89.3208 24.5086C90.1555 24.1388 90.7578 24.0649 92.0891 24.8679C92.8393 25.3222 93.0506 24.8679 92.7231 24.6354C91.3178 23.6739 91.9201 23.1773 91.4446 22.7864C90.9797 22.406 90.5042 21.5607 90.5359 21.0852C90.5676 20.5569 90.557 20.1977 91.0219 19.8701C92.0891 19.0988 94.0755 18.9932 95.1955 19.7117C95.8612 20.1343 96.4001 20.7154 96.1993 21.4867L96.1887 21.4973Z" fill="#1A110C"/>
<path d="M64.5435 32.5073V31.7148L62.4092 31.662V32.4439L61.3843 32.2008L61.4265 30.0454L64.5858 30.1299V29.3691L65.6107 29.3903L65.5579 32.539L64.5435 32.5178V32.5073Z" fill="#1A110C"/>
<path d="M65.0402 26.8861L64.5647 27.1502C64.3957 27.2453 64.2055 27.277 64.0153 27.2347L62.2613 26.9283C62.0712 26.8966 61.9127 26.8015 61.7964 26.6642L61.49 26.2627C61.3844 26.1253 61.3421 25.9668 61.3844 25.7978L61.6274 24.8151C61.6696 24.6566 61.7753 24.5193 61.9444 24.4242L62.4198 24.16C62.5889 24.0649 62.7685 24.0332 62.9693 24.0755L64.7232 24.3819C64.9134 24.4136 65.0719 24.5087 65.1881 24.6461L65.4945 25.0476C65.6002 25.1849 65.6425 25.3434 65.6002 25.5125L65.3572 26.4951C65.3149 26.6536 65.2093 26.791 65.0402 26.8861ZM64.4908 25.8083C64.5436 25.6076 64.4062 25.4385 64.1738 25.3963L63.001 25.1955C62.7685 25.1532 62.5678 25.2695 62.5149 25.4596V25.523C62.4515 25.7238 62.5889 25.8929 62.8213 25.9351L63.9942 26.1359C64.2266 26.1781 64.4274 26.0619 64.4802 25.8717V25.8083H64.4908Z" fill="#1A110C"/>
<path d="M66.5828 22.7441L65.9383 22.966C65.7164 23.0399 65.4734 23.0399 65.2515 22.966L63.2334 22.2158C63.0115 22.1312 62.853 21.9833 62.7579 21.7931L62.5043 21.2331C62.4198 21.0429 62.4198 20.8316 62.5043 20.6414L63.0854 19.4897C63.1805 19.2995 63.3496 19.1622 63.5715 19.0777L64.216 18.8558C64.4379 18.7818 64.6809 18.7818 64.9028 18.8558L66.9209 19.606C67.1428 19.6905 67.3013 19.8384 67.3964 20.0286L67.65 20.5886C67.7345 20.7788 67.7345 20.9901 67.65 21.1803L67.0688 22.332C66.9738 22.5222 66.8047 22.6595 66.5828 22.7441ZM66.2447 21.2965C66.3609 21.0641 66.2447 20.821 65.9805 20.726L64.6281 20.2188C64.3639 20.1237 64.0787 20.2188 63.9624 20.4407L63.9307 20.5146C63.8145 20.7471 63.9307 20.9901 64.1949 21.0852L65.5473 21.5924C65.8115 21.6875 66.0968 21.5924 66.213 21.3705L66.2447 21.2965Z" fill="#1A110C"/>
<path d="M66.8787 17.4083L66.5934 17.4506C66.4983 17.4612 66.3927 17.4506 66.3187 17.3872L65.801 17.0385C65.727 16.9857 65.6742 16.9012 65.653 16.8061L65.6002 16.5419C65.5791 16.4468 65.6002 16.3517 65.6636 16.2778L66.1496 15.6332C66.213 15.5593 66.287 15.5064 66.3927 15.4853L66.6779 15.443C66.773 15.4325 66.8787 15.443 66.9527 15.5064L67.4704 15.8551C67.5444 15.9079 67.5972 15.9925 67.6183 16.0876L67.6712 16.3623C67.6923 16.4574 67.6712 16.5525 67.6078 16.6264L67.1217 17.271C67.0583 17.3449 66.9844 17.3978 66.8787 17.4189V17.4083ZM66.921 16.6159C66.9949 16.5208 66.9632 16.4045 66.8681 16.3412L66.6885 16.2249C66.5934 16.1615 66.4666 16.1721 66.3927 16.2672L66.3715 16.2989C66.2976 16.394 66.3293 16.5102 66.4244 16.5736L66.604 16.6898C66.6991 16.7532 66.8259 16.7427 66.8998 16.6476L66.921 16.6159ZM67.407 14.0061L67.7768 13.52L69.0976 18.317L68.7278 18.803L67.407 14.0061ZM70.0802 16.8378L69.7949 16.88C69.6998 16.8906 69.5942 16.88 69.5202 16.8166L69.0025 16.4679C68.9285 16.4151 68.8757 16.3306 68.8545 16.2355L68.8017 15.9713C68.7806 15.8762 68.8017 15.7812 68.8651 15.7072L69.3512 15.0627C69.4145 14.9887 69.4885 14.9359 69.5942 14.9147L69.8795 14.8725C69.9745 14.8619 70.0802 14.8725 70.1542 14.9359L70.6719 15.2845C70.7459 15.3374 70.7987 15.4219 70.8198 15.517L70.8727 15.7917C70.8938 15.8868 70.8727 15.9819 70.8093 16.0559L70.3232 16.7004C70.2598 16.7744 70.1859 16.8272 70.0802 16.8378ZM70.1225 16.0453C70.1964 15.9502 70.1647 15.834 70.0696 15.7706L69.89 15.6544C69.7949 15.591 69.6681 15.6015 69.5942 15.6966L69.573 15.7283C69.4991 15.8234 69.5308 15.9396 69.6259 16.003L69.8055 16.1193C69.9006 16.1827 70.0274 16.1721 70.1013 16.077L70.1225 16.0453Z" fill="#1A110C"/>
<path d="M72.1619 11.8083L72.6691 11.6076L73.6518 10.9736C73.8208 10.868 73.9159 10.7623 73.8419 10.6883L73.8102 10.6566C73.8102 10.6566 73.7257 10.6038 73.6201 10.6355L72.1936 10.9842C71.8767 11.0687 71.4857 10.9842 71.2744 10.7517L71.0208 10.477C70.894 10.3397 70.8412 10.1706 70.8835 10.0121L70.968 9.6423C70.9997 9.49438 71.0948 9.33589 71.2638 9.21966L72.8382 8.20532L73.6412 8.87098L73.134 9.07174L72.331 9.58947C72.1619 9.69513 72.0774 9.80079 72.1408 9.87476L72.1725 9.90645C72.1725 9.90645 72.2676 9.94872 72.3838 9.92759L73.7997 9.56834C74.1378 9.48381 74.4865 9.56834 74.6978 9.81136L74.9514 10.0861C75.0782 10.2234 75.131 10.3925 75.0887 10.551L75.0042 10.9208C74.9725 11.0687 74.8774 11.2272 74.7084 11.3434L72.9967 12.4423L72.1408 11.8083H72.1619Z" fill="#1A110C"/>
<path d="M77.1804 9.24068L76.705 9.07163C76.5359 9.0188 76.4091 8.90257 76.3352 8.74408L75.3948 6.79993L75.1201 6.47238L76.3457 5.91238L76.4303 6.32446L77.2544 8.03616C77.3495 8.22634 77.5503 8.30031 77.751 8.20521L77.9518 8.11012C78.142 8.02559 78.2265 7.82483 78.1314 7.63465L77.3072 5.92295L77.0325 5.5954L78.2582 5.0354L78.3427 5.44748L79.2831 7.39163C79.357 7.55012 79.3676 7.71917 79.3042 7.87767L79.1246 8.34257C79.0612 8.50106 78.945 8.62785 78.7865 8.70182L77.677 9.19842C77.5186 9.27238 77.3389 9.28295 77.1699 9.21955L77.1804 9.24068Z" fill="#1A110C"/>
<path d="M82.3264 7.78256L81.6713 4.92973L81.46 4.52822L83.9535 4.02105C84.1437 3.97879 84.3339 4.01049 84.4924 4.10558L84.9679 4.40143C85.1264 4.49653 85.2426 4.64445 85.2849 4.82407L85.6652 6.46181C85.7075 6.64143 85.6652 6.82105 85.5702 6.96898L85.2637 7.41275C85.1581 7.57124 84.9996 7.6769 84.8094 7.7086L82.3158 8.21577V7.772H82.3264V7.78256ZM84.0592 6.89502C84.2917 6.84219 84.4185 6.652 84.3762 6.44068L84.1226 5.34181C84.0698 5.13049 83.869 5.00369 83.6366 5.04596L83.0237 5.17275L83.4464 7.02181L84.0592 6.89502Z" fill="#1A110C"/>
<path d="M87.0599 6.81057L86.9119 4.39094L86.7534 4.04226L88.6659 4L88.5391 4.35925L88.687 6.77887L88.8561 7.12755L86.9331 7.16981L87.0493 6.81057H87.0599Z" fill="#1A110C"/>
<path d="M89.9125 6.1132L90.557 6.25056L92.0468 6.36678C92.3004 6.38791 92.48 6.36678 92.5012 6.28225V6.25056C92.5012 6.25056 92.4906 6.17659 92.3638 6.13433L90.7789 5.60603C90.4302 5.4898 90.1555 5.24678 90.2083 4.98263L90.2717 4.67621C90.3034 4.52829 90.4197 4.39093 90.6098 4.3064L91.0431 4.11621C91.2121 4.04225 91.4551 3.98942 91.7193 4.01055L94.0966 4.20074L94.1389 5.04603L93.4944 4.90867L92.2687 4.81357C92.0151 4.79244 91.8355 4.81357 91.8144 4.8981V4.9298C91.8144 4.9298 91.8461 5.00376 91.9729 5.05659L93.5683 5.57433C93.9487 5.70112 94.16 5.94414 94.1072 6.19772L94.0438 6.50414C94.0121 6.65206 93.8959 6.78942 93.7057 6.87395L93.2725 7.06414C93.1034 7.1381 92.8604 7.19093 92.5963 7.1698L90.0182 6.96905L89.9019 6.1132H89.9125Z" fill="#1A110C"/>
<path d="M94.5193 8.20528L96.0303 4.58113L96.0831 4L100.479 5.1834L100.172 6.58868L99.6016 6.28226L97.5835 5.73283L97.2665 6.49358L98.957 6.94792L99.4536 6.97962L98.9042 8.30038L98.4816 8.08906L96.791 7.63472L96.3472 8.69132L96.2944 9.26189L94.1284 8.68075L94.5193 8.18415V8.20528Z" fill="#1A110C"/>
<path d="M99.8871 9.38875L102.402 6.64158L102.603 6.11328L104.716 7.51856L104.409 7.9729L103.554 11.8189L103.522 12.4529L102.074 11.4914L102.381 11.0371L102.465 10.6778L101.292 9.89592L101.06 10.1601L100.859 10.6884L99.4116 9.72687L99.8766 9.37819L99.8871 9.38875ZM102.74 9.52611L103.173 7.75102L102.032 9.06121L102.74 9.52611Z" fill="#1A110C"/>
<path d="M104.726 12.5479L104.705 11.8611C104.705 11.6181 104.779 11.3962 104.938 11.2166L106.438 9.58944C106.596 9.40982 106.818 9.31473 107.061 9.30416L107.759 9.27246C108.002 9.27246 108.213 9.35699 108.393 9.51548L109.65 10.6672C109.83 10.8257 109.935 11.037 109.946 11.28L109.978 11.9668C109.978 12.1993 109.935 12.4 109.787 12.5585L109.587 12.7804L108.234 11.9245L108.361 11.7872C108.53 11.6076 108.498 11.3328 108.287 11.1321L108.033 10.8996C107.822 10.6989 107.516 10.72 107.315 10.9313L106.322 12.0091C106.121 12.231 106.131 12.5268 106.343 12.7276L106.596 12.96C106.808 13.1502 107.093 13.1608 107.273 12.9811L107.41 12.8332L108.361 14.1117L108.192 14.3019C108.044 14.4604 107.843 14.5238 107.621 14.5343L106.924 14.566C106.681 14.566 106.459 14.4921 106.279 14.3336L105.011 13.1819C104.832 13.0234 104.737 12.8015 104.726 12.5585V12.5479Z" fill="#1A110C"/>
<path d="M109.333 16.3622L111.203 14.8935L110.823 14.3124L110.506 14.0271L111.446 13.4988L113.158 16.0875L112.397 16.8905L112.249 16.4784L111.869 15.8973L109.999 17.3659L109.724 17.7252L108.932 16.5207L109.333 16.341V16.3622Z" fill="#1A110C"/>
<path d="M110.559 19.437L114.014 18.0318L114.447 17.7253L115.271 19.0884L114.701 19.1835L111.256 20.5887L110.812 20.9057L109.988 19.5427L110.559 19.437Z" fill="#1A110C"/>
<path d="M112.186 23.378L112.45 22.8709C112.545 22.6912 112.693 22.5644 112.873 22.5116L114.542 21.9939C114.722 21.941 114.912 21.9622 115.081 22.0573L115.556 22.332C115.726 22.4271 115.842 22.5856 115.895 22.7758L116.286 24.2022C116.338 24.3924 116.317 24.5931 116.222 24.7727L115.958 25.2799C115.863 25.4595 115.715 25.5863 115.535 25.6392L113.866 26.1569C113.686 26.2097 113.496 26.1886 113.327 26.0935L112.852 25.8188C112.683 25.7237 112.566 25.5652 112.513 25.375L112.123 23.9486C112.07 23.7584 112.091 23.5577 112.186 23.378ZM113.316 24.5297C113.38 24.7622 113.591 24.889 113.813 24.815L114.933 24.4663C115.155 24.4029 115.271 24.181 115.208 23.9486L115.113 23.621C115.049 23.3886 114.838 23.2618 114.616 23.3358L113.496 23.6844C113.274 23.7478 113.158 23.9697 113.221 24.2022L113.316 24.5297Z" fill="#1A110C"/>
<path d="M113.623 27.6574L116.708 27.425L117.162 27.2454L117.226 28.5872L115.366 30.7533L116.856 30.6476L117.31 30.468L117.395 32.3805L116.93 32.2642L113.39 32.5284L113.338 31.3239L115.197 29.1578L113.707 29.2635L113.253 29.4431L113.168 27.5306L113.633 27.6469L113.623 27.6574Z" fill="#1A110C"/>
<path d="M65.6211 47.3314L65.7056 46.8031C65.7373 46.6235 65.8324 46.4544 65.9909 46.3487L67.3856 45.345C67.5441 45.2393 67.7237 45.197 67.9139 45.2182L68.4528 45.3027C68.643 45.3344 68.8015 45.4295 68.9177 45.5774L69.7102 46.6446C69.8264 46.7925 69.8581 46.9721 69.8369 47.1623L69.7841 47.6906C69.763 47.8597 69.6996 48.0076 69.5728 48.0921L69.4037 48.2084L68.4634 47.4053L68.6113 47.2997C68.7381 47.2046 68.7381 47.0038 68.6113 46.8136L68.4422 46.5812C68.2943 46.391 68.0724 46.3699 67.8928 46.4861L66.9736 47.1518C66.7834 47.2891 66.7411 47.5216 66.8785 47.7012L67.0369 47.9125C67.1743 48.0921 67.4173 48.1555 67.6075 48.0182L67.8505 47.8386L68.1041 47.5216L68.96 48.6733L68.5796 48.8106L68.1569 49.117L67.9139 49.4235L67.0264 49.1804C66.8468 49.1382 66.6777 49.0536 66.5615 48.9057L65.769 47.8386C65.6528 47.6906 65.6211 47.5004 65.6528 47.3208L65.6211 47.3314Z" fill="#1A110C"/>
<path d="M68.8121 51.9486L68.7804 51.3463C68.7699 51.135 68.8333 50.9342 68.9812 50.7863L70.7457 48.821L70.9887 48.3667L72.1932 49.4444L71.7706 49.7297L70.2174 51.452C70.0484 51.6422 70.0589 51.9063 70.2491 52.0754L70.4499 52.2444C70.6401 52.4135 70.9042 52.4029 71.0732 52.2127L72.6264 50.4905L72.8695 50.0361L74.074 51.1139L73.6513 51.3992L71.8868 53.3644C71.7495 53.5229 71.5593 53.6075 71.3479 53.618L70.7457 53.6497C70.5344 53.6497 70.3336 53.5969 70.1751 53.449L69.0868 52.4769C68.9284 52.3395 68.8333 52.1493 68.8227 51.938L68.8121 51.9486Z" fill="#1A110C"/>
<path d="M73.3766 54.8121L75.3736 52.9524L75.5215 52.6038L77.2332 53.523L76.9902 53.8294L76.3351 56.4075L76.314 56.8302L75.1411 56.2068L75.3842 55.9004L75.4581 55.6573L74.5072 55.1502L74.3276 55.3298L74.1796 55.6785L73.0068 55.0445L73.3766 54.8121ZM75.68 54.8755L76.0076 53.6815L75.0989 54.5585L75.6694 54.8649L75.68 54.8755Z" fill="#1A110C"/>
<path d="M79.5263 57.3162L80.192 54.1676L80.2131 53.6604L81.9565 54.4423C82.0939 54.5057 82.1995 54.6325 82.2629 54.8227L82.4531 55.351C82.5165 55.5306 82.5376 55.7208 82.4954 55.911L82.358 56.5872C82.3158 56.7879 82.2312 56.9464 82.1044 57.0415L81.8297 57.2317L81.9143 58.3834L82.0305 58.954L80.9422 58.4679L80.995 57.9713L80.9316 57.1578L80.5618 56.9993L80.4139 57.7178L80.3927 58.2249L79.3467 57.76L79.5263 57.3268V57.3162ZM81.1641 56.1963C81.3226 56.2702 81.481 56.1646 81.5339 55.9321L81.5761 55.7313C81.6184 55.5095 81.5339 55.2981 81.3754 55.2136L80.9739 55.034L80.7731 56.0061L81.1746 56.1857L81.1641 56.1963Z" fill="#1A110C"/>
<path d="M84.883 59.2182L85.9819 56.228L85.9607 55.7737L88.1479 55.9533L88.0634 56.3971L88.6868 59.5246L88.877 60.0001L87.3871 59.8733L87.4822 59.4295L87.4294 59.1337L86.2249 59.0386L86.1298 59.3239L86.1509 59.7782L84.6611 59.6514L84.9147 59.2182H84.883ZM87.2392 58.1827L86.9856 56.7246L86.5102 58.1193L87.2392 58.1827Z" fill="#1A110C"/>
<path d="M90.5043 59.5669L90.0817 56.7141L89.9126 56.302L90.9059 56.1646L92.6598 57.7601L92.4591 56.3865L92.29 55.9744L93.7059 55.7737L93.6636 56.2069L94.1391 59.4824L93.2515 59.6092L91.4976 58.0137L91.6983 59.3978L91.8674 59.8099L90.4515 60.0001L90.4938 59.5669H90.5043Z" fill="#1A110C"/>
<path d="M98.767 58.4046L97.7421 55.6679L96.9496 55.9532L96.5164 56.2491L96.2417 54.9389L99.7919 53.6604L100.447 54.8332L99.9293 54.8861L99.1368 55.1713L100.162 57.9079L100.479 58.3623L98.8304 58.954L98.767 58.4151V58.4046Z" fill="#1A110C"/>
<path d="M103.257 56.3547L101.831 53.5547L101.535 53.206L103.839 51.5471L104.473 52.4347L104.092 52.5615L103.036 53.3222L103.3 53.8294L104.187 53.1954L104.388 52.9524L104.885 53.9139L104.61 54.0196L103.722 54.6535L103.997 55.1818L105.085 54.3894L105.445 53.9879L105.772 55.0973L103.405 56.809L103.279 56.3335L103.257 56.3547Z" fill="#1A110C"/>
<path d="M107.325 53.2167L105.117 50.8076L104.705 50.5329L107.061 48.3774L107.97 49.1065L107.558 49.3284L106.47 50.3216L106.871 50.7548L107.78 49.9201L107.97 49.6348L108.731 50.4695L108.435 50.6386L107.526 51.4733L107.938 51.9276L109.048 50.9027L109.386 50.4273L109.988 51.4416L107.568 53.671L107.325 53.2273V53.2167Z" fill="#1A110C"/>
<path d="M110.432 50.0996L108.266 48.1026L107.885 47.9019L109.174 45.6302C109.269 45.4611 109.407 45.3449 109.576 45.3132L110.062 45.2181C110.231 45.1864 110.389 45.2287 110.527 45.3555L111.774 46.4966C111.911 46.6234 111.995 46.803 112.027 47.0143L112.101 47.6166C112.133 47.8279 112.101 48.0287 111.995 48.2083L110.706 50.48L110.442 50.089L110.432 50.0996ZM111.002 48.0709C111.118 47.8596 111.087 47.5955 110.918 47.4475L110.083 46.6762C109.914 46.5283 109.713 46.5706 109.597 46.7819L109.28 47.3419L110.685 48.6309L111.002 48.0709Z" fill="#1A110C"/>
<path d="M113.686 40.9811C114.563 40.9811 115.271 40.2732 115.271 39.3962C115.271 38.5192 114.563 37.8113 113.686 37.8113C112.809 37.8113 112.101 38.5192 112.101 39.3962C112.101 40.2732 112.809 40.9811 113.686 40.9811Z" fill="#1A110C"/>
<path d="M64.0258 40.9811C64.9028 40.9811 65.6107 40.2732 65.6107 39.3962C65.6107 38.5192 64.9028 37.8113 64.0258 37.8113C63.1488 37.8113 62.4409 38.5192 62.4409 39.3962C62.4409 40.2732 63.1488 40.9811 64.0258 40.9811Z" fill="#1A110C"/>
</g>
</g>
<defs>
<clipPath id="clip0_469_3850">
<rect width="116.609" height="62.5654" fill="white" transform="translate(0.774902 0.818359)"/>
</clipPath>
</defs>
</svg>
