<svg width="52" height="27" viewBox="0 0 52 27" fill="none" xmlns="http://www.w3.org/2000/svg">
<g clip-path="url(#clip0_469_3828)">
<g clip-path="url(#clip1_469_3828)">
<path d="M15.5689 17.3023H18.7982C18.7982 17.4456 17.145 19.0413 14.658 19.0413C11.9252 19.0413 8.83093 16.9009 8.76828 13.4754C8.70562 9.92566 11.7999 7.59897 14.658 7.6993C16.9763 7.78052 17.8583 8.43983 19.1548 9.70111C19.1548 9.70111 21.0249 9.70111 22.9239 9.70589H26.8713C26.6448 8.8507 26.0905 7.56075 25.141 6.22302C25.0591 6.11314 24.9819 5.99848 24.8952 5.88859C22.9962 3.38035 19.6947 0.838674 14.5616 0.829119C8.53211 0.819563 3.88103 4.81841 2.34834 9.70589C2.32906 9.76322 2.30979 9.82533 2.29533 9.88266C2.29533 9.88744 2.29533 9.88744 2.29051 9.89222C1.97722 10.9863 1.80371 12.1425 1.80371 13.3321C1.81335 14.4739 1.96276 15.568 2.23749 16.6C3.20626 20.1688 5.72218 23.1118 9.043 24.6932C9.07192 24.7075 9.09602 24.7171 9.12494 24.7314C9.1394 24.741 9.15868 24.7458 9.17796 24.7553C10.8504 25.5102 12.7301 25.9306 14.7303 25.9449C18.9621 25.9115 22.707 23.8571 25.0157 20.7135C25.0639 20.6466 25.1073 20.5797 25.1555 20.5128C26.5918 18.4776 27.4352 16.0075 27.4352 13.3416C27.4352 12.6776 27.3822 12.0278 27.281 11.3924H15.5689V17.3023Z" fill="#1A110C"/>
<path d="M41.6875 15.0138L41.0223 14.1204H33.0938L36.3182 18.7355C32.9637 19.3853 29.7971 16.6047 29.8405 13.3703C29.8887 10.0642 32.5781 7.58941 35.7977 7.6133C39.3306 7.63241 42.8539 11.4067 41.6875 15.0138ZM46.4446 20.6848C46.4446 20.6848 48.7966 17.6415 48.8063 13.6808C48.8255 5.89814 43.3262 0.843443 35.6531 0.82911C31.2093 0.824333 27.4354 2.97425 25.146 6.11791C26.0955 7.45564 26.6498 8.74559 26.8763 9.60078H23.3627C23.1844 10.1502 23.0446 10.7139 22.9434 11.292H27.2812C27.3824 11.9275 27.4354 12.5772 27.4354 13.2413C27.4354 15.9072 26.592 18.3772 25.1557 20.4125C27.392 23.5991 31.0984 25.9115 35.6965 25.9115C38.7474 25.9115 40.9018 24.6215 41.2922 24.4161L42.102 25.4719H49.91L46.4446 20.6848Z" fill="#1A110C"/>
</g>
</g>
<defs>
<clipPath id="clip0_469_3828">
<rect width="51" height="26" fill="white" transform="translate(0.484375 0.723999)"/>
</clipPath>
<clipPath id="clip1_469_3828">
<rect width="51" height="26" fill="white" transform="translate(0.484375 0.723999)"/>
</clipPath>
</defs>
</svg>
