<svg width="107" height="18" viewBox="0 0 107 18" fill="none" xmlns="http://www.w3.org/2000/svg">
<g clip-path="url(#clip0_469_3846)">
<path d="M9.54388 0.859375L11.7551 6.81586L18.1034 7.07823L13.1218 11.0219L14.834 17.1406L9.54388 13.6214L4.25381 17.1406L5.96601 11.0219L0.984375 7.07823L7.33263 6.81586L9.54388 0.859375Z" fill="#0055B8"/>
<path d="M31.663 0.859375L33.8742 6.81586L40.2225 7.07823L35.2409 11.0219L36.9531 17.1406L31.663 13.6214L26.3729 17.1406L28.0851 11.0219L23.1035 7.07823L29.4518 6.81586L31.663 0.859375Z" fill="#0055B8"/>
<path d="M53.7817 0.859375L55.9929 6.81586L62.3412 7.07823L57.3596 11.0219L59.0718 17.1406L53.7817 13.6214L48.4916 17.1406L50.2038 11.0219L45.2222 7.07823L51.5705 6.81586L53.7817 0.859375Z" fill="#0055B8"/>
<path d="M75.9008 0.859375L78.112 6.81586L84.4603 7.07823L79.4787 11.0219L81.1909 17.1406L75.9008 13.6214L70.6107 17.1406L72.3229 11.0219L67.3413 7.07823L73.6896 6.81586L75.9008 0.859375Z" fill="#0055B8"/>
<path d="M98.02 0.859375L100.231 6.81586L106.58 7.07823L101.598 11.0219L103.31 17.1406L98.02 13.6214L92.7299 17.1406L94.442 11.0219L89.4604 7.07823L95.8088 6.81586L98.02 0.859375Z" fill="#0055B8"/>
</g>
<defs>
<clipPath id="clip0_469_3846">
<rect width="105.596" height="16.2812" fill="white" transform="translate(0.984375 0.859375)"/>
</clipPath>
</defs>
</svg>
