<svg width="121" height="31" viewBox="0 0 121 31" fill="none" xmlns="http://www.w3.org/2000/svg">
<g clip-path="url(#clip0_469_3826)">
<path d="M8.11727 11.7655C9.16214 8.99233 10.1998 6.30696 11.1938 3.59233C11.339 3.20452 11.5058 3.03623 11.934 3.0655C12.5725 3.1094 13.2183 3.1094 13.8713 3.0655C14.2777 3.04355 14.3502 3.18989 14.3502 3.57038C14.343 9.82648 14.343 16.0679 14.343 22.3167C14.343 24.1753 14.3357 26.0411 14.3502 27.8923C14.3502 28.2289 14.2632 28.346 13.9221 28.3387C13.0369 28.3167 12.1444 28.3094 11.2591 28.3387C10.8093 28.3606 10.7657 28.1704 10.7657 27.7899C10.773 23.2533 10.773 18.7314 10.773 14.2021V13.7923C10.773 13.7923 10.7222 13.7704 10.7004 13.7631C10.461 14.4289 10.207 15.0801 9.96757 15.746C9.51044 16.9899 9.06056 18.2484 8.61068 19.4923C8.52361 19.7118 8.45105 19.8728 8.15355 19.8728C7.85605 19.8728 7.74721 19.7338 7.65288 19.485C6.96355 17.5899 6.2597 15.6875 5.47605 13.7777V14.3045C5.47605 18.7972 5.46879 23.2899 5.4833 27.7899C5.4833 28.2143 5.41074 28.3679 4.95361 28.346C4.08288 28.3021 3.2194 28.324 2.34141 28.3387C2.0294 28.346 1.88428 28.2875 1.88428 27.9143C1.89153 19.7631 1.89153 11.6265 1.88428 3.47526C1.88428 3.14599 1.97135 3.05087 2.29062 3.0655C2.99446 3.08745 3.68379 3.08745 4.38038 3.0655C4.7069 3.05818 4.85928 3.16062 4.97538 3.47526C5.95495 6.08745 6.96355 8.70696 7.95763 11.3118C8.00117 11.4582 8.04471 11.5753 8.12452 11.7728L8.11727 11.7655Z" fill="#1A110C"/>
<path d="M30.0595 13.9387C30.0595 10.5216 30.0668 7.11915 30.0523 3.72402C30.0523 3.22646 30.1466 3.05085 30.669 3.08012C31.4817 3.13134 32.3017 3.10207 33.1288 3.08744C33.3973 3.08744 33.4917 3.17524 33.4844 3.44598C33.4626 4.185 33.4771 4.92402 33.4771 5.66305C33.4771 13.0313 33.4771 20.4143 33.4844 27.7826C33.4844 28.2289 33.4118 28.4118 32.9184 28.3752C32.4032 28.324 31.8735 28.3313 31.3511 28.3752C30.8504 28.4191 30.64 28.2509 30.5167 27.746C29.7402 24.5704 28.9276 21.3948 28.1221 18.2338C27.8682 17.246 27.607 16.2509 27.2732 15.2704V15.8411C27.2732 19.8289 27.2659 23.8094 27.2804 27.7972C27.2804 28.2509 27.1861 28.4118 26.7145 28.3899C25.88 28.346 25.0383 28.3679 24.2038 28.3826C23.9426 28.3826 23.8048 28.3167 23.8483 28.0313C23.8556 27.9582 23.8483 27.8923 23.8483 27.8191C23.8483 19.763 23.8483 11.707 23.841 3.64354C23.841 3.18988 23.9644 3.08744 24.3925 3.10939C25.1544 3.13866 25.9163 3.13134 26.6927 3.10939C27.0265 3.10207 27.1643 3.20451 27.2587 3.5411C28.1294 6.9289 29.0291 10.3094 29.9144 13.6972C29.9216 13.785 29.9217 13.8874 30.0595 13.9533V13.9387Z" fill="#1A110C"/>
<path d="M96.7576 14.0557V3.93624C96.7576 3.37526 97.043 3.09477 97.6138 3.09477C98.2959 3.09477 98.9707 3.13868 99.6528 3.08746C100.146 3.04355 100.204 3.2338 100.204 3.68014C100.182 6.45331 100.197 9.22648 100.197 11.9997C100.197 17.2606 100.19 22.5362 100.204 27.7972C100.204 28.2582 100.103 28.4118 99.6383 28.3753C99.0506 28.3314 98.4556 28.3314 97.8606 28.3753C97.4832 28.3972 97.3599 28.2362 97.2656 27.8996C96.2279 23.8094 95.1976 19.7265 94.1527 15.6509C94.1092 15.4753 94.0511 15.2923 93.9423 15.1167V19.185C93.9423 22.0826 93.935 24.9728 93.9495 27.8704C93.9495 28.2582 93.8552 28.3899 93.4561 28.3679C92.6434 28.3387 91.8235 28.346 90.9963 28.3679C90.6843 28.3753 90.5464 28.3167 90.5464 27.9436C90.5537 19.807 90.5537 11.6557 90.5464 3.51185C90.5464 3.19721 90.619 3.08746 90.9528 3.10209C91.7654 3.12404 92.5854 3.12404 93.4126 3.10209C93.7463 3.09477 93.8552 3.21916 93.935 3.52648C94.8348 6.97282 95.7345 10.4338 96.6415 13.8801C96.6488 13.9021 96.6706 13.924 96.7431 14.0704L96.7576 14.0557Z" fill="#1A110C"/>
<path d="M68.9884 15.6362V24.6947C68.9884 25.0606 68.9957 25.4338 68.9449 25.7996C68.7127 27.3728 67.8057 28.2216 66.2166 28.3167C64.896 28.3899 63.5681 28.4045 62.2548 28.3094C60.8253 28.2069 59.8675 27.2996 59.6716 25.8728C59.6208 25.4704 59.5845 25.0679 59.5845 24.6728V6.76792C59.5845 6.16792 59.6136 5.57523 59.7732 4.99719C60.0634 3.89962 60.8326 3.29962 61.8992 3.18255C63.4883 3.01426 65.0992 2.99231 66.6883 3.18255C68.2048 3.3728 68.9449 4.30206 68.9594 5.9045C68.9812 9.15328 68.9667 12.4021 68.9667 15.6508C68.9667 15.6508 68.9739 15.6484 68.9884 15.6435V15.6362ZM65.4112 15.7606V7.18499C65.4112 6.79719 65.3096 6.42402 64.8742 6.4167C64.33 6.40938 63.7133 6.14597 63.2779 6.70938C63.2126 6.78255 63.2126 6.90694 63.2053 7.0167C63.1981 7.22889 63.1836 7.44109 63.1836 7.64597V23.8021C63.1836 25.024 63.2271 25.0679 64.4461 25.0533C65.2806 25.0533 65.4112 24.9289 65.4112 24.0728V15.7606Z" fill="#1A110C"/>
<path d="M79.3142 14.5533V24.7679C79.3142 25.2948 79.3069 25.8216 79.1763 26.3411C78.9078 27.5045 78.0879 28.207 76.8253 28.3021C75.3814 28.4045 73.9374 28.4192 72.4934 28.3021C71.0422 28.1997 70.1497 27.2777 69.9973 25.8143C69.9538 25.4484 69.932 25.0753 69.932 24.7094C69.932 17.707 69.932 10.6972 69.9248 3.69477C69.9248 3.21916 70.0264 3.05087 70.5198 3.08014C71.3325 3.12404 72.1597 3.12404 72.9796 3.08014C73.4367 3.05819 73.5528 3.18258 73.5528 3.65819C73.5311 10.4192 73.5456 17.1728 73.5456 23.9338V24.4094C73.5456 24.5118 73.5456 24.6436 73.5964 24.7167C74.0245 25.3094 74.6412 25.0021 75.1855 25.0314C75.5845 25.0533 75.7079 24.746 75.7369 24.4021C75.7587 24.2265 75.7442 24.0509 75.7442 23.8753C75.7442 17.1362 75.7514 10.3899 75.7369 3.65087C75.7369 3.1899 75.853 3.05087 76.3101 3.08014C77.1446 3.12404 77.9863 3.10941 78.8208 3.08014C79.2271 3.07282 79.3432 3.18258 79.3359 3.59965C79.3069 7.25087 79.3142 10.9094 79.3142 14.5533Z" fill="#1A110C"/>
<path d="M105.907 3.12401C106.589 3.12401 107.264 3.13133 107.946 3.1167C108.236 3.10938 108.323 3.21182 108.352 3.49718C108.853 8.23865 109.376 12.9728 109.891 17.7216C110.254 21.1094 110.602 24.4899 110.979 27.863C111.023 28.2874 110.907 28.3679 110.522 28.3606C109.688 28.3386 108.846 28.3386 108.011 28.3606C107.699 28.3679 107.605 28.2728 107.583 27.9508C107.496 26.685 107.373 25.4338 107.293 24.1752C107.271 23.8167 107.192 23.6484 106.778 23.6704C106.139 23.7143 105.494 23.7143 104.841 23.6704C104.441 23.6484 104.347 23.7947 104.318 24.1533C104.217 25.4045 104.064 26.663 103.963 27.9289C103.934 28.2801 103.825 28.3752 103.491 28.3606C102.678 28.3386 101.858 28.3386 101.031 28.3606C100.668 28.3679 100.552 28.2728 100.588 27.8996C100.9 25.3899 101.198 22.8947 101.488 20.385C101.822 17.5167 102.134 14.6411 102.468 11.7582C102.758 9.2484 103.041 6.73865 103.353 4.24353C103.491 3.13865 103.513 3.13865 104.616 3.13865H105.893L105.907 3.12401ZM105.82 8.58255H105.769C105.748 8.67767 105.726 8.78011 105.719 8.87523C105.523 10.9826 105.319 13.0899 105.124 15.2118C104.978 16.8143 104.841 18.4313 104.695 20.0338C104.666 20.3191 104.717 20.4435 105.044 20.4216C105.523 20.3923 106.016 20.3996 106.509 20.4216C106.858 20.4435 106.894 20.3191 106.865 19.9899C106.72 18.5777 106.611 17.1655 106.488 15.7533C106.248 13.3606 106.038 10.9679 105.827 8.58255H105.82Z" fill="#1A110C"/>
<path d="M40.7769 3.12405C41.6259 3.13137 42.4821 3.02161 43.3311 3.21186C44.5356 3.48259 45.2104 4.2143 45.3482 5.44357C45.5151 6.96552 45.399 8.48747 45.4353 10.0167C45.4353 10.2509 45.3337 10.3094 45.1233 10.3094C44.1292 10.3021 43.1351 10.3021 42.1411 10.3094C41.8145 10.3094 41.829 10.1265 41.829 9.90698C41.829 9.0143 41.8363 8.1143 41.829 7.22161C41.8218 6.5704 41.6331 6.38747 40.9801 6.38015C39.645 6.3582 39.6232 6.38747 39.6232 7.74844C39.6232 8.61186 39.6522 9.46796 39.6159 10.3314C39.5724 11.2094 39.8771 11.8826 40.4504 12.5119C41.7855 14.0119 43.0989 15.5411 44.4122 17.0558C45.0217 17.7436 45.4281 18.5119 45.4281 19.4631C45.4281 21.4753 45.5151 23.5021 45.399 25.5143C45.2975 27.2192 44.3106 28.1997 42.5982 28.2948C41.2921 28.368 39.986 28.3826 38.6871 28.2875C37.1706 28.185 36.1765 27.2192 36.0967 25.7119C36.0242 24.307 36.0677 22.9094 36.0459 21.5045C36.0459 21.2411 36.1403 21.1753 36.3797 21.1753C37.352 21.1826 38.3243 21.1826 39.3039 21.1753C39.6087 21.168 39.6304 21.3216 39.6304 21.5558C39.6232 22.4484 39.6232 23.3484 39.6304 24.2411C39.6304 24.8411 39.8118 25.0241 40.4068 25.046C41.8218 25.0972 41.8508 25.068 41.8508 23.6631C41.8508 22.7704 41.8436 21.8704 41.8508 20.9777C41.8581 20.385 41.6549 19.8948 41.2631 19.4484C39.8844 17.868 38.542 16.2509 37.1343 14.707C36.3579 13.8509 36.0024 12.9143 36.0387 11.7582C36.0895 10.0167 36.0459 8.27527 36.0604 6.54844C36.0604 6.19722 36.0604 5.83869 36.1257 5.49479C36.387 4.05332 37.3593 3.19722 38.8323 3.12405C39.4781 3.09479 40.1384 3.12405 40.7987 3.12405H40.7769Z" fill="#1A110C"/>
<path d="M15.2063 15.6874C15.2063 11.6776 15.2135 7.68252 15.199 3.68008C15.199 3.23374 15.2716 3.08008 15.7505 3.08008C17.9781 3.10935 20.2057 3.10203 22.4334 3.08008C22.8107 3.08008 22.9558 3.15325 22.934 3.56301C22.905 4.36788 22.9123 5.17276 22.934 5.98496C22.9413 6.31423 22.8397 6.39471 22.5277 6.39471C21.4538 6.37276 20.3726 6.40203 19.2842 6.3874C18.9359 6.38008 18.8126 6.45325 18.8126 6.84105C18.8343 9.02154 18.8343 11.1947 18.8126 13.3752C18.8126 13.7996 18.9504 13.8728 19.3132 13.8581C20.0969 13.8289 20.8806 13.8581 21.6642 13.8508C21.9327 13.8508 22.027 13.924 22.027 14.2093C22.0198 15.0508 22.0053 15.8996 22.027 16.7411C22.0343 17.0923 21.8892 17.1508 21.5844 17.1435C20.779 17.1215 19.9881 17.1508 19.1826 17.1362C18.8924 17.1289 18.8053 17.224 18.8053 17.5167C18.8126 19.9093 18.8126 22.2947 18.8053 24.6874C18.8053 25.0167 18.8924 25.0972 19.2117 25.0972C20.3073 25.0752 21.4103 25.0972 22.5059 25.0898C22.8179 25.0898 22.934 25.163 22.9268 25.4996C22.905 26.3191 22.905 27.1532 22.9268 27.9801C22.934 28.2874 22.8615 28.4118 22.5277 28.4045C20.2275 28.3972 17.9273 28.3825 15.6344 28.4045C15.1628 28.4045 15.1918 28.163 15.1918 27.8484V15.6874H15.2063Z" fill="#1A110C"/>
<path d="M58.634 14.524V24.8997C58.634 25.185 58.6413 25.4557 58.6122 25.7411C58.4163 27.3436 57.5166 28.2216 55.9057 28.3167C54.5706 28.3899 53.2282 28.4045 51.8931 28.3167C50.3258 28.2143 49.3244 27.2118 49.2446 25.6167C49.1793 24.2704 49.2229 22.9167 49.2156 21.5704C49.2156 21.3143 49.2882 21.2338 49.5421 21.2411C50.5144 21.2484 51.4868 21.2484 52.4663 21.2411C52.7493 21.2411 52.8219 21.3362 52.8146 21.5997C52.8074 22.4631 52.8074 23.3192 52.8146 24.1826C52.8146 24.8997 53.0033 25.0679 53.7144 25.0753C55.0205 25.0826 55.0422 25.0679 55.0422 23.7289C55.0422 17.0631 55.0495 10.3899 55.035 3.72404C55.035 3.19721 55.1801 3.08014 55.6735 3.10209C56.508 3.14599 57.3497 3.13136 58.1841 3.10209C58.5687 3.09477 58.6775 3.19721 58.6775 3.59965C58.634 7.22892 58.6485 10.8728 58.6485 14.524H58.634Z" fill="#1A110C"/>
<path d="M111.407 15.768C111.407 11.7289 111.415 7.68991 111.4 3.66552C111.4 3.18991 111.523 3.06552 111.988 3.08747C112.837 3.13138 113.693 3.11674 114.542 3.08747C114.97 3.06552 115.043 3.21186 115.043 3.6143C115.035 10.5655 115.043 17.5094 115.021 24.4606C115.021 24.9875 115.166 25.0899 115.659 25.0753C116.661 25.0314 117.677 25.0753 118.678 25.0533C118.99 25.046 119.106 25.1411 119.099 25.4631C119.077 26.3045 119.091 27.1533 119.099 27.9948C119.099 28.2582 119.026 28.3606 118.75 28.3606C116.421 28.3533 114.085 28.3533 111.756 28.3606C111.306 28.3606 111.422 28.0533 111.422 27.8265C111.415 23.8094 111.415 19.7924 111.415 15.7753L111.407 15.768Z" fill="#1A110C"/>
<path d="M34.0576 5.91911C34.0576 5.09959 34.0649 4.27277 34.0576 3.45325C34.0576 3.18984 34.1229 3.07277 34.4059 3.0874C34.8268 3.10935 35.2404 3.09472 35.6612 3.0874C35.9152 3.08008 36.0458 3.11667 35.9878 3.43862C35.6612 5.13618 35.3637 6.84106 35.0372 8.53862C34.9429 9.01423 34.5656 8.72886 34.3189 8.78008C34.0504 8.8313 34.0649 8.61179 34.0649 8.4435V5.92642L34.0576 5.91911Z" fill="#1A110C"/>
<path d="M80.228 15.6727C80.228 11.6557 80.2352 7.62395 80.2207 3.60688C80.2207 3.18249 80.3078 3.05078 80.7577 3.05078C82.7241 3.08005 84.6905 3.0581 86.6569 3.08005C86.9471 3.08005 87.2519 3.10932 87.5348 3.16786C88.7684 3.40932 89.3997 4.11907 89.552 5.37029C89.6173 5.85322 89.6391 6.35078 89.6391 6.83371V13.5727C89.6391 13.9971 89.6101 14.4142 89.5448 14.824C89.3997 15.7093 88.9498 16.3605 88.0936 16.6459C87.7453 16.763 87.7308 16.9313 87.7816 17.224C88.3475 19.9093 88.9135 22.602 89.4867 25.2874C89.6609 26.1435 89.8423 26.9922 90.0382 27.8483C90.1108 28.1776 90.06 28.324 89.6681 28.3093C88.7248 28.2874 87.7888 28.2874 86.8455 28.3093C86.519 28.3166 86.3956 28.2142 86.3303 27.8996C85.7063 24.724 85.0533 21.5483 84.4147 18.38C84.3422 18.0215 84.2696 17.663 84.197 17.3044C84.168 17.1581 84.0955 17.0922 83.9576 17.0922C83.7689 17.0922 83.7907 17.2313 83.7907 17.3483V17.7142C83.7907 21.0874 83.7834 24.4532 83.798 27.8264C83.798 28.2142 83.7109 28.3459 83.3191 28.324C82.4483 28.2947 81.5849 28.2947 80.7069 28.324C80.3078 28.3313 80.2134 28.2215 80.2134 27.8264C80.2425 23.7654 80.2352 19.7044 80.2352 15.6581L80.228 15.6727ZM83.8052 10.1044V12.4679C83.8052 13.3947 84.2648 13.8435 85.1839 13.8142C85.8514 13.7922 86.0401 13.6166 86.0546 12.9215C86.0619 11.9922 86.0546 11.063 86.0546 10.141C86.0546 9.16054 86.0619 8.18005 86.0546 7.19956C86.0473 6.55566 85.8587 6.36542 85.2564 6.3581C84.8936 6.35078 84.5236 6.38005 84.1608 6.35078C83.8487 6.32883 83.7834 6.45322 83.798 6.73859C83.8052 7.88005 83.8052 8.99225 83.8052 10.1118V10.1044Z" fill="#1A110C"/>
</g>
<defs>
<clipPath id="clip0_469_3826">
<rect width="120" height="30" fill="white" transform="translate(0.484375 0.723999)"/>
</clipPath>
</defs>
</svg>
