<svg width="123" height="28" viewBox="0 0 123 28" fill="none" xmlns="http://www.w3.org/2000/svg">
<g clip-path="url(#clip0_469_3827)">
<path fill-rule="evenodd" clip-rule="evenodd" d="M122.872 26.7826H116.739L116.776 25.3112H117.297C117.891 25.2744 117.78 24.7962 117.78 24.7962C117.78 24.7962 117.817 13.3929 117.817 11.333C117.817 9.27305 116.999 9.53054 116.999 9.53054C115.512 9.56732 115.252 11.0019 115.252 11.0019C115.252 11.0019 115.252 24.4284 115.252 24.833C115.252 25.2376 115.661 25.2376 115.661 25.2376L116.107 25.2744V26.709H110.197V25.3848L110.606 25.348C111.126 25.3112 111.052 24.6123 111.052 24.6123C111.052 24.6123 111.089 3.49784 111.052 2.8725C111.014 2.21038 110.234 2.35752 110.234 2.35752H109.713L109.751 0.996479C111.832 0.959689 115.103 0.297568 115.103 0.297568V8.61092L115.438 8.64771C115.958 7.6913 116.999 6.84525 119.081 6.80847C121.98 6.84525 121.98 10.3398 121.98 10.3398C121.98 10.3398 121.906 24.1341 121.906 24.8698C121.906 25.6055 122.984 25.5319 122.984 25.5319L122.872 26.7826ZM109.825 9.01555H106.888L106.777 24.0605C106.777 24.0605 106.74 25.2008 107.483 25.2008C108.227 25.2008 108.078 24.0237 108.078 24.0237V20.3453H109.936L109.862 24.3916C109.676 25.679 108.747 27.1504 105.847 27.1504C102.948 27.1504 102.576 24.9801 102.576 24.9801L102.613 8.94198H101.201V7.17632H102.465C104.323 5.85207 105.29 2.10002 105.29 2.10002H106.814V7.10275H109.751V9.01555H109.825ZM101.833 27.0401H95.3653V25.3112C95.3653 25.3112 95.4024 25.3112 95.8857 25.3112C96.3689 25.3112 96.2574 24.6123 96.2574 24.6123C96.2574 24.6123 96.2574 3.64498 96.2574 2.94607C96.2574 2.24716 95.6626 2.43108 95.6626 2.43108H94.9935V0.738989C97.5213 0.775769 100.346 0.223999 100.346 0.223999V24.7226C100.309 25.2744 101.015 25.2744 101.015 25.2744L101.87 25.348V27.0401H101.833ZM94.9564 25.4583C94.6218 26.4515 94.2129 27.2976 92.0197 27.1504C89.8266 27.0033 89.5664 25.3112 89.5664 25.3112H89.1946C89.1946 25.3112 88.5255 27.3711 85.8119 27.1872C83.0612 27.0033 82.4664 23.8398 82.5408 20.6395C82.6151 17.4393 84.5481 15.3425 88.8229 14.1654V9.71446C88.8229 9.71446 88.8229 8.79484 87.336 8.64771C85.8491 8.50057 85.6261 9.01555 85.7004 9.19948C85.7004 9.19948 87.7077 10.4502 87.1873 11.7744C86.6669 13.0987 84.7339 13.1354 84.1392 12.3997C83.5444 11.6641 82.9125 9.23626 84.9198 7.76487C86.9271 6.29348 92.726 6.18313 93.1349 10.5973V24.7962C93.1349 24.7962 93.4695 25.348 93.7297 24.8698L93.804 22.8834H94.9935C95.0307 22.957 95.2909 24.4651 94.9564 25.4583ZM86.9271 17.9175C86.3324 19.7199 86.6669 22.8466 86.7041 23.472C86.7413 24.1341 87.2617 24.7226 88.0051 24.5755C88.7486 24.4284 88.9716 23.7294 88.9716 23.7294L89.0088 15.6368C89.0088 15.6736 87.5219 16.115 86.9271 17.9175ZM75.701 16.7403C75.701 16.7403 75.9241 21.5959 75.9241 22.4788C75.9241 23.3616 76.0728 25.0905 77.9314 25.1273C80.2732 25.1273 80.0502 22.8834 80.0502 22.8834V20.6027H81.9088C81.6115 25.5687 81.1282 27.224 76.6303 27.224C72.0953 27.224 71.0173 20.2349 71.2032 18.0278C71.4262 15.8207 71.0545 6.84525 77.0764 6.84525C83.1727 6.84525 82.0947 16.7771 82.0947 16.7771H75.701V16.7403ZM77.0392 8.61092C75.5895 8.61092 75.7382 10.3398 75.7382 10.3398V15.0115H78.1916V10.5973C78.1916 10.5973 78.4518 8.61092 77.0392 8.61092ZM70.1995 3.09321C70.1995 3.09321 70.1995 23.9502 70.1995 24.6123C70.1995 25.2744 71.166 25.3848 71.166 25.3848H71.8351V26.7826H63.843V25.348C63.843 25.348 64.3263 25.348 64.9582 25.348C65.553 25.348 65.6273 24.6859 65.6273 24.6859V14.5333H60.7577C60.7577 14.5333 60.7577 24.0237 60.7577 24.7594C60.7577 25.4583 61.6127 25.3848 61.6127 25.3848H62.5048V26.8194H54.5871V25.2376C54.5871 25.2376 55.1075 25.2376 55.6279 25.2376C56.1855 25.2376 56.2598 24.6123 56.2598 24.6123C56.2598 24.6123 56.2598 4.0864 56.2598 3.20356C56.2598 2.32073 55.4792 2.50465 55.4792 2.50465H54.6986V0.738989L62.4676 0.665416V2.32073C62.4676 2.32073 62.1703 2.32073 61.464 2.32073C60.7577 2.32073 60.7577 2.98286 60.7577 2.98286V12.7308H65.6645C65.6645 12.7308 65.6645 3.64498 65.6645 2.98286C65.6645 2.32073 64.8838 2.32073 64.8838 2.32073H63.8802V0.738989H71.6864V2.32073C71.6864 2.32073 71.166 2.32073 70.6456 2.32073C70.088 2.32073 70.1995 3.09321 70.1995 3.09321ZM54.4756 21.6327C54.141 25.4951 52.4311 27.4079 49.4573 27.1872C47.0039 26.9297 46.5578 25.7158 46.5578 25.7158C46.5578 25.7158 46.0374 25.7158 46.1118 26.0469C46.1489 26.3779 46.1118 26.8562 46.1118 26.8562H44.6249V20.4924H46.2976C46.2976 20.4924 46.4835 25.1273 48.3049 25.2376C50.1264 25.348 51.5761 24.3916 50.1264 21.1177C50.1264 21.1177 45.5542 16.63 44.9966 14.4965C44.439 12.363 44.1416 8.86841 47.0411 7.2131C49.2714 5.96242 52.2824 8.02237 52.2824 8.02237V7.36024H53.6949V12.9883H52.0965C52.0965 12.9883 51.9478 9.788 50.9442 9.19948C49.9405 8.57414 47.5243 8.9052 48.3793 11.7376C49.1599 14.5333 54.8101 17.8071 54.4756 21.6327ZM43.8442 8.05915L42.7291 7.17632L44.6249 5.07959C44.6249 5.07959 42.5804 4.04961 42.9149 2.28395C43.2495 0.518277 46.8924 0.15043 47.2641 2.61501C47.673 5.07959 45.0709 7.24989 43.8442 8.05915ZM42.8778 24.6123C42.8778 25.2744 43.4725 25.3112 43.4725 25.3112H43.8071V26.9297H37.748V25.2376C37.748 25.2376 37.748 25.2376 38.3055 25.2376C38.8631 25.2376 38.7888 24.5387 38.7888 24.5387C38.7888 24.5387 38.7516 13.0251 38.7516 11.9951C38.7516 11.0019 39.1977 9.56732 37.6364 9.56732C36.0752 9.56732 36.038 11.2962 36.038 11.2962C36.038 11.2962 36.038 24.318 36.038 24.833C36.038 25.3112 36.6328 25.4583 36.6328 25.4583H37.0045V26.8929H30.6852V25.2376C30.6852 25.2376 30.9082 25.2376 31.4658 25.2376C32.0234 25.2376 31.9862 24.5387 31.9862 24.5387C31.9862 24.5387 31.9862 10.4869 31.9862 9.71446C31.9862 8.94198 31.2056 9.16269 31.2056 9.16269H30.5737V7.36024C31.4658 7.36024 34.8857 7.13953 35.4804 6.95561C36.1124 6.77168 36.038 7.58095 36.038 7.58095V8.68449C36.038 8.68449 37.1904 6.80847 39.6809 6.88204C42.6919 6.88204 42.8778 9.71446 42.8778 9.71446C42.8778 9.71446 42.8778 23.9502 42.8778 24.6123ZM31.0569 16.7403H24.7004C24.7004 16.7403 24.9235 21.5959 24.9235 22.4788C24.9235 23.3616 25.0722 25.0905 26.9308 25.1273C29.2726 25.1273 29.0496 22.8834 29.0496 22.8834V20.6027H30.8711C30.5737 25.5687 30.0904 27.224 25.5554 27.224C21.0575 27.224 19.9424 20.2349 20.1654 18.0278C20.3884 15.8207 20.0167 6.84525 26.0015 6.84525C32.1349 6.80847 31.0569 16.7403 31.0569 16.7403ZM26.0015 8.61092C24.5517 8.61092 24.7004 10.3398 24.7004 10.3398V15.0115H27.1538V10.5973C27.1538 10.5973 27.4512 8.61092 26.0015 8.61092ZM19.2361 3.16678C19.2361 3.16678 19.3476 23.4352 19.3476 24.4284C19.3476 25.4215 20.3512 25.2008 20.3512 25.2008H20.7973V26.8562H12.9911V25.2376H13.9948C14.8869 25.2376 14.8126 24.1341 14.8126 24.1341V8.57414L10.7979 26.9665H8.60472L4.73879 8.39021C4.73879 8.39021 4.73879 23.1777 4.73879 24.318C4.73879 25.4951 5.77962 25.1273 5.77962 25.1273H6.67176V26.8929H1.09589V25.2376H1.72783C2.65714 25.2376 2.65714 23.9134 2.65714 23.9134C2.65714 23.9134 2.65714 4.19675 2.65714 3.16678C2.65714 2.17359 1.72783 2.3943 1.72783 2.3943H0.984375L1.05872 0.665416H7.63825L11.0953 16.0047L14.3665 0.665416H20.7973V2.3943C20.7973 2.3943 20.7973 2.3943 20.0167 2.3943C19.2361 2.3943 19.2361 3.16678 19.2361 3.16678Z" fill="#1A110C"/>
</g>
<defs>
<clipPath id="clip0_469_3827">
<rect width="122" height="27" fill="white" transform="translate(0.984375 0.223999)"/>
</clipPath>
</defs>
</svg>
