<svg width="81" height="81" viewBox="0 0 81 81" fill="none" xmlns="http://www.w3.org/2000/svg">
<g clip-path="url(#clip0_469_3854)">
<g clip-path="url(#clip1_469_3854)">
<mask id="mask0_469_3854" style="mask-type:luminance" maskUnits="userSpaceOnUse" x="0" y="0" width="81" height="81">
<path d="M80.4844 0.724121H0.484375V80.7241H80.4844V0.724121Z" fill="white"/>
</mask>
<g mask="url(#mask0_469_3854)">
<path d="M40.4844 80.7241C62.5758 80.7241 80.4844 62.8155 80.4844 40.7241C80.4844 18.6327 62.5758 0.724121 40.4844 0.724121C18.393 0.724121 0.484375 18.6327 0.484375 40.7241C0.484375 62.8155 18.393 80.7241 40.4844 80.7241Z" fill="#345A40"/>
<path d="M57.9486 21.495L57.8801 19.8075L56.2016 20.0009C55.5438 20.0753 40.026 21.9831 32.02 33.3491C29.4188 37.0277 28.4515 41.5575 29.3712 45.7747C29.8206 47.8343 30.7105 49.6914 31.9218 51.2152C30.2551 57.9116 30.7581 63.4206 30.8027 63.87C30.8831 64.6795 31.5646 65.2807 32.3623 65.2807C32.4158 65.2807 32.4694 65.2807 32.523 65.2718C33.3861 65.1855 34.014 64.4146 33.9248 63.5545C33.9158 63.4622 33.5289 59.1914 34.6391 53.6974C34.776 53.7866 34.9099 53.8878 35.0498 53.9712C36.645 54.8968 38.4307 55.364 40.3206 55.364C41.3801 55.364 42.4724 55.2182 43.5825 54.9206C47.898 53.7718 51.8504 50.5604 54.4248 46.111L54.4367 46.0932C58.5885 38.6795 57.9754 22.1944 57.9486 21.498V21.495ZM51.7045 44.5485C49.5736 48.2241 46.2373 50.9682 42.776 51.8878C40.5081 52.492 38.3771 52.2747 36.6242 51.2539C36.2135 51.0158 35.8295 50.7241 35.4635 50.4087C37.1956 44.6408 40.7313 38.236 47.8771 34.0039C48.6212 33.5634 48.8682 32.5991 48.4277 31.8551C47.9873 31.1081 47.026 30.864 46.2789 31.3045C39.1718 35.5128 35.27 41.5247 33.148 47.239C32.8474 46.5694 32.6033 45.8581 32.4396 45.1051C31.7075 41.745 32.4873 38.12 34.5855 35.1587C40.3057 27.0337 50.7551 24.2241 54.8533 23.4087C54.892 27.8134 54.6867 39.2182 51.7075 44.5515L51.7045 44.5485Z" fill="white"/>
</g>
</g>
</g>
<defs>
<clipPath id="clip0_469_3854">
<rect width="80" height="80" fill="white" transform="translate(0.484375 0.724121)"/>
</clipPath>
<clipPath id="clip1_469_3854">
<rect width="80" height="80" fill="white" transform="translate(0.484375 0.724121)"/>
</clipPath>
</defs>
</svg>
