<svg width="170" height="21" viewBox="0 0 170 21" fill="none" xmlns="http://www.w3.org/2000/svg">
<g clip-path="url(#clip0_469_3829)">
<g clip-path="url(#clip1_469_3829)">
<mask id="mask0_469_3829" style="mask-type:luminance" maskUnits="userSpaceOnUse" x="0" y="0" width="169" height="21">
<path d="M168.984 0.723999H0.984375V20.724H168.984V0.723999Z" fill="white"/>
</mask>
<g mask="url(#mask0_469_3829)">
<path d="M163.021 4.49817L157.056 10.7269L163.021 16.9557L168.986 10.7269L163.021 4.49817Z" fill="#1A110C"/>
<path d="M15.0566 10.6011C15.8377 9.87211 16.3882 8.91246 16.6352 7.84935C16.8822 6.78624 16.814 5.66985 16.4396 4.64813C16.0653 3.62642 15.4024 2.7476 14.5389 2.12816C13.6754 1.50872 12.6521 1.17789 11.6044 1.17951H0.984375V20.2652H11.8837C12.9623 20.2668 14.0144 19.916 14.8925 19.2621C15.7706 18.6081 16.4307 17.6836 16.7805 16.6182C17.1303 15.5528 17.1522 14.3999 16.843 13.3209C16.5339 12.2419 15.9092 11.2909 15.0566 10.6011ZM3.41028 3.71925H11.6044C12.3336 3.71925 13.0328 4.0217 13.5484 4.56006C14.064 5.09843 14.3536 5.82861 14.3536 6.58997C14.3536 7.35133 14.064 8.08151 13.5484 8.61987C13.0328 9.15824 12.3336 9.46069 11.6044 9.46069H3.41028V3.71925ZM11.8837 17.7419H3.41028V11.9906H11.8837C12.6133 11.9906 13.3129 12.2932 13.8288 12.8319C14.3447 13.3706 14.6345 14.1012 14.6345 14.8629C14.6345 15.6247 14.3447 16.3553 13.8288 16.894C13.3129 17.4327 12.6133 17.7353 11.8837 17.7353M107.95 10.6011C108.731 9.87211 109.282 8.91246 109.529 7.84935C109.776 6.78624 109.708 5.66985 109.333 4.64813C108.959 3.62642 108.296 2.7476 107.433 2.12816C106.569 1.50872 105.546 1.17789 104.498 1.17951H93.8784V20.2652H104.777C105.856 20.2657 106.907 19.9141 107.785 19.2597C108.663 18.6053 109.322 17.6808 109.672 16.6155C110.022 15.5502 110.044 14.3974 109.735 13.3184C109.426 12.2394 108.802 11.2882 107.95 10.5978M96.3043 3.71597H104.498C105.228 3.71597 105.927 4.01859 106.443 4.55727C106.959 5.09594 107.249 5.82653 107.249 6.58833C107.249 7.35013 106.959 8.08072 106.443 8.61939C105.927 9.15806 105.228 9.46069 104.498 9.46069H96.3043V3.71597ZM104.777 17.7386H96.3043V11.9906H104.777C105.507 11.9906 106.207 12.2932 106.722 12.8319C107.238 13.3706 107.528 14.1012 107.528 14.8629C107.528 15.6247 107.238 16.3553 106.722 16.894C106.207 17.4327 105.507 17.7353 104.777 17.7353M22.3688 1.17951H24.7948V20.2652H22.3688V1.17951ZM123.927 0.723999C122.034 0.724647 120.183 1.31159 118.609 2.41062C117.034 3.50965 115.808 5.07141 115.083 6.89842C114.359 8.72544 114.17 10.7357 114.54 12.675C114.91 14.6142 115.822 16.3955 117.161 17.7934C118.5 19.1914 120.206 20.1433 122.064 20.5288C123.921 20.9144 125.846 20.7162 127.595 19.9593C129.345 19.2025 130.84 17.921 131.892 16.2768C132.944 14.6327 133.505 12.6997 133.505 10.7224C133.503 8.07086 132.493 5.52876 130.697 3.65417C128.901 1.77958 126.467 0.725734 123.927 0.723999ZM123.927 18.1908C122.513 18.1902 121.132 17.7518 119.956 16.9311C118.781 16.1104 117.865 14.9443 117.325 13.5802C116.784 12.216 116.643 10.7151 116.919 9.26725C117.195 7.81936 117.876 6.4895 118.876 5.4458C119.876 4.4021 121.15 3.69144 122.537 3.40366C123.924 3.11588 125.361 3.26391 126.667 3.82902C127.973 4.39414 129.089 5.35098 129.875 6.57855C130.66 7.80612 131.079 9.2493 131.079 10.7256C131.077 12.7053 130.323 14.6031 128.982 16.0026C127.641 17.4021 125.823 18.1891 123.927 18.1908ZM51.4516 10.7224C51.4509 12.3176 51.9396 13.8712 52.8461 15.1553C53.7526 16.4394 55.0292 17.3865 56.4887 17.8578C57.9483 18.329 59.514 18.2997 60.9564 17.774C62.3988 17.2483 63.642 16.2539 64.5038 14.9367L65.1879 13.8913L67.1902 15.3234L66.506 16.3688C65.3511 18.1312 63.6861 19.4611 61.7549 20.1639C59.8236 20.8666 57.7277 20.9052 55.7739 20.274C53.8202 19.6428 52.1113 18.3749 50.8976 16.6561C49.6839 14.9374 49.0291 12.8579 49.0291 10.7224C49.0291 8.58681 49.6839 6.50737 50.8976 4.78857C52.1113 3.06978 53.8202 1.80193 55.7739 1.17072C57.7277 0.539514 59.8236 0.578105 61.7549 1.28084C63.6861 1.98358 65.3511 3.31355 66.506 5.07596L67.1902 6.12135L65.1879 7.55343L64.5038 6.50804C63.642 5.19077 62.3988 4.19641 60.9564 3.67073C59.514 3.14504 57.9483 3.11567 56.4887 3.58694C55.0292 4.0582 53.7526 5.0053 52.8461 6.2894C51.9396 7.57351 51.4509 9.12707 51.4516 10.7224ZM85.4677 1.17951H87.8936V20.2652H85.4677V12.3543H74.3644V20.2652H71.9384V1.17951H74.3644V9.81789H85.4646L85.4677 1.17951ZM40.3608 11.9939C41.7341 11.9939 43.0512 11.4242 44.0223 10.4101C44.9934 9.3961 45.539 8.02076 45.539 6.58669C45.539 5.15262 44.9934 3.77728 44.0223 2.76324C43.0512 1.7492 41.7341 1.17951 40.3608 1.17951H30.6916V20.2652H33.1176V11.9906H36.1931L42.5105 20.2652H45.6143L39.2969 11.9906L40.3608 11.9939ZM33.1176 9.45413V3.71269H40.3639C41.093 3.71269 41.7923 4.01514 42.3079 4.55351C42.8234 5.09187 43.1131 5.82205 43.1131 6.58341C43.1131 7.34478 42.8234 8.07495 42.3079 8.61332C41.7923 9.15168 41.093 9.45413 40.3639 9.45413H33.1176ZM145.914 10.4569L153.606 20.2652H150.468L144.345 12.469L138.229 20.2652H135.09L142.779 10.4569L135.511 1.17951H138.649L144.348 8.4579L150.051 1.17951H153.189L145.914 10.4569Z" fill="#1A110C"/>
</g>
</g>
</g>
<defs>
<clipPath id="clip0_469_3829">
<rect width="169" height="20" fill="white" transform="translate(0.484375 0.723999)"/>
</clipPath>
<clipPath id="clip1_469_3829">
<rect width="169" height="20" fill="white" transform="translate(0.484375 0.723999)"/>
</clipPath>
</defs>
</svg>
