<svg width="142" height="49" viewBox="0 0 142 49" fill="none" xmlns="http://www.w3.org/2000/svg">
<g clip-path="url(#clip0_469_3851)">
<g clip-path="url(#clip1_469_3851)">
<mask id="mask0_469_3851" style="mask-type:luminance" maskUnits="userSpaceOnUse" x="0" y="0" width="142" height="49">
<path d="M141.484 0.723999H0.484375V48.724H141.484V0.723999Z" fill="white"/>
</mask>
<g mask="url(#mask0_469_3851)">
<path d="M50.9405 26.745L51.3831 24.9765L51.636 24.9133L52.9638 26.366L54.7342 26.1134L54.8607 25.8607C54.7974 25.7344 54.671 25.6712 54.5445 25.5449C54.2284 25.166 53.7858 24.7871 53.5329 24.4713C54.4181 24.0923 55.1136 23.4607 55.3033 22.766C55.3665 22.4502 55.3665 22.1976 55.3033 22.0081V21.945C55.3033 21.945 55.3033 21.8818 55.24 21.8818C55.24 21.8187 55.1768 21.8186 55.1136 21.7554L55.0504 21.6923C54.9871 21.6292 54.9239 21.6292 54.8607 21.6292C54.8607 21.6292 54.7974 21.6292 54.7974 21.566C54.7342 21.5029 54.6078 21.5028 54.4813 21.5028H54.4181C54.3548 21.5028 54.2284 21.5028 54.1019 21.5028C53.9755 21.5028 53.7858 21.5029 53.5961 21.566L50.3714 22.0712L49.1069 26.9976L50.9405 26.745ZM51.9522 22.9555L53.0903 22.766C53.1535 22.766 53.2167 22.766 53.28 22.766H53.3432C53.4064 22.766 53.4064 22.766 53.4064 22.8292C53.4064 22.8292 53.4064 22.8292 53.4696 22.8923L53.5329 22.9555C53.5329 22.9555 53.5329 22.9554 53.5329 23.0186C53.5329 23.0818 53.5329 23.0818 53.5329 23.145C53.4696 23.2713 53.3432 23.4608 53.0903 23.5239C53.027 23.5871 52.9006 23.5871 52.8374 23.5871L51.7625 23.7766L51.9522 22.9555Z" fill="#213521"/>
<path d="M55.6821 26.0504C55.7454 26.0504 55.8718 26.0504 55.9983 26.0504C56.2512 25.9873 56.5041 25.861 56.757 25.6715C56.8203 25.6083 56.8835 25.5452 56.9467 25.4189C57.01 25.2925 57.0732 25.1662 57.1364 25.0399C57.1364 24.9136 57.1364 24.8504 57.1364 24.7241C57.1364 24.7241 57.1364 24.6609 57.0732 24.6609C57.0732 24.5977 57.0099 24.5346 57.0099 24.5346L56.9467 24.4715C56.8835 24.4715 56.8835 24.4083 56.8203 24.4083C56.757 24.4083 56.757 24.4083 56.6938 24.4083C56.6306 24.4083 56.5041 24.4083 56.4409 24.4083C55.9351 24.4715 55.4925 24.9136 55.366 25.4189C55.2395 25.7346 55.4292 25.9873 55.6821 26.0504Z" fill="#213521"/>
<path d="M45.5656 27.6292C46.0082 27.566 46.3876 27.4397 46.7037 27.3134C48.0315 26.8081 48.9167 25.7975 49.2328 24.6607C49.549 23.5238 49.1064 22.5765 47.7786 22.5765C47.7786 22.5765 47.7786 22.5765 47.7154 22.5765C47.5257 22.5765 47.336 22.5765 47.0831 22.6397L44.1113 23.0817L42.8467 28.0081L45.5656 27.6292ZM45.5656 24.0923L46.2611 23.966C46.4508 23.966 46.5772 23.9029 46.7037 23.9029C46.8302 23.9029 46.8934 23.9029 46.9566 23.9029C47.0198 23.9029 47.1463 23.966 47.2095 23.966C47.2095 23.966 47.2728 23.9659 47.2728 24.0291C47.336 24.0291 47.336 24.0923 47.3992 24.0923C47.5889 24.2818 47.5889 24.5975 47.5257 24.9133C47.4624 25.2291 47.2728 25.4818 46.9566 25.7344C46.6405 25.9871 46.1979 26.2397 45.6288 26.3029L44.9333 26.4292C45.0598 25.9871 45.0598 25.7976 45.5656 24.0923Z" fill="#213521"/>
<path d="M127.7 22.387L128.396 18.4081L128.712 16.5766C128.775 16.1976 128.775 15.945 128.775 15.6292C128.775 15.3766 128.775 15.1239 128.712 14.9345C128.712 14.8081 128.649 14.6818 128.649 14.5554C128.649 14.4923 128.649 14.4923 128.585 14.4292C128.585 14.366 128.522 14.2397 128.459 14.1765C128.459 14.1133 128.396 14.1134 128.396 14.0502C128.332 13.9871 128.332 13.9239 128.269 13.8607C128.269 13.7975 128.206 13.7976 128.206 13.7345C128.143 13.6713 128.143 13.6081 128.08 13.6081C128.016 13.6081 128.016 13.5449 127.953 13.5449C127.89 13.4818 127.827 13.4818 127.763 13.4187C127.7 13.4187 127.7 13.3555 127.637 13.3555C127.574 13.3555 127.51 13.2923 127.447 13.2923C127.384 13.2923 127.384 13.2923 127.321 13.2291C127.258 13.2291 127.131 13.2291 127.068 13.2291C127.005 13.2291 127.005 13.2291 126.941 13.2291C126.815 13.2291 126.625 13.2291 126.499 13.2923C124.728 13.5449 123.464 15.2502 123.464 15.2502L124.792 7.22913L121.504 7.73445L119.354 20.366C118.532 22.8292 117.141 24.2818 115.497 24.8502C115.244 24.9134 115.054 24.9766 114.801 25.0397C114.738 25.0397 114.612 25.0397 114.549 25.1029C114.549 25.1029 114.485 25.1029 114.422 25.1029C114.359 25.1029 114.296 25.1029 114.169 25.1029C114.043 25.1029 113.98 25.1029 113.853 25.1029H113.79C113.727 25.1029 113.6 25.1029 113.537 25.0397H113.474C113.41 25.0397 113.284 24.9765 113.221 24.9133H113.158C113.031 24.8502 112.968 24.7871 112.905 24.7239L112.841 24.6607C112.778 24.5975 112.715 24.5345 112.652 24.4081C112.652 24.345 112.588 24.3449 112.588 24.2818C112.525 24.1554 112.462 24.0292 112.462 23.8397C112.209 22.3871 112.905 18.6608 114.422 18.4081C114.485 18.4081 114.485 18.4081 114.549 18.4081C114.612 18.4081 114.675 18.4081 114.675 18.4713C114.738 18.4713 114.738 18.5344 114.738 18.5975C114.738 18.6607 114.801 18.7239 114.801 18.7871C114.801 18.7871 114.801 18.7871 114.801 18.8502C114.801 18.9134 114.801 19.0397 114.801 19.1029V19.166C114.801 19.2923 114.801 19.4186 114.738 19.5449V19.6081C114.738 19.7344 114.675 19.9239 114.675 20.1134V20.1765C114.612 20.366 114.612 20.5554 114.549 20.8081V20.8712C114.485 21.1239 114.422 21.3766 114.359 21.6923L117.71 21.187C117.773 20.9344 117.836 20.6818 117.9 20.4292C117.9 20.366 117.9 20.3028 117.963 20.1765C117.963 20.0502 118.026 19.8608 118.026 19.7345C118.026 19.6713 118.026 19.545 118.026 19.4818C118.026 19.3555 118.026 19.2292 118.026 19.1029C118.026 19.0397 118.026 18.9134 118.026 18.8502C118.026 18.7239 118.026 18.5976 118.026 18.5345C118.026 18.4713 118.026 18.3449 118.026 18.2818C118.026 18.1554 118.026 18.0923 117.963 17.966C117.963 17.9028 117.963 17.8397 117.9 17.7133C117.9 17.587 117.836 17.5239 117.836 17.4608C117.836 17.3976 117.773 17.3345 117.773 17.2713C117.773 17.2081 117.71 17.0818 117.647 17.0186C117.647 16.9554 117.584 16.8923 117.584 16.8292C117.52 16.766 117.52 16.7029 117.457 16.5766C117.457 16.5134 117.394 16.4502 117.394 16.4502C117.331 16.387 117.267 16.3239 117.204 16.2608C117.204 16.1976 117.141 16.1975 117.141 16.1344C117.078 16.0081 116.951 15.945 116.825 15.8818C116.698 15.8187 116.635 15.7555 116.509 15.6292C116.445 15.6292 116.445 15.566 116.382 15.566C116.319 15.5029 116.193 15.5028 116.129 15.4397C116.066 15.4397 116.003 15.3766 115.94 15.3766C115.876 15.3766 115.75 15.3134 115.687 15.3134C115.623 15.3134 115.56 15.3134 115.497 15.3134C115.434 15.3134 115.307 15.3134 115.244 15.2502C115.181 15.2502 115.118 15.2502 115.054 15.2502C114.991 15.2502 114.928 15.2502 114.801 15.2502C114.612 15.2502 114.359 15.2502 114.106 15.3134C113.474 15.4397 112.968 15.6292 112.462 15.8818C112.272 15.945 112.146 16.0713 112.019 16.1976C110.249 17.4608 109.427 19.7976 109.237 21.8818C108.984 22.5766 108.795 23.2713 108.542 23.7766C108.289 24.345 108.099 24.787 107.846 25.2291C107.404 25.987 106.898 26.4291 106.519 26.4923H106.455C106.455 26.4923 106.455 26.4923 106.392 26.4923C106.392 26.4923 106.392 26.4923 106.329 26.4923H106.266C106.266 26.4923 106.202 26.4923 106.202 26.4292C106.202 26.4292 106.202 26.366 106.139 26.366C106.139 26.366 106.139 26.366 106.139 26.3029V26.2397V26.1765V26.1134V26.0502V25.9871V25.9239C106.139 25.8607 106.139 25.8608 106.139 25.7976V25.7345C106.139 25.6713 106.139 25.6712 106.139 25.6081C106.139 25.5449 106.139 25.545 106.139 25.4818C106.139 25.4187 106.139 25.3555 106.139 25.3555C106.139 25.2923 106.139 25.2923 106.139 25.2291C106.139 25.166 106.139 25.1029 106.139 25.0397C106.139 24.9766 106.139 24.9765 106.139 24.9133C106.139 24.8502 106.139 24.7871 106.139 24.7239C106.139 24.6608 106.139 24.5975 106.139 24.5975C106.139 24.5344 106.139 24.4081 106.202 24.3449C106.202 24.2818 106.202 24.2818 106.202 24.2187C106.202 24.0923 106.266 23.9029 106.266 23.7766L107.467 16.8292L110.123 16.387L110.502 14.3029L107.783 14.745L108.289 12.3449L104.938 12.8502L104.432 15.2502L102.978 15.5028L102.598 17.5871L104.116 17.3344L103.104 23.145C102.219 25.9871 101.271 27.4397 100.575 27.5028H100.512C100.512 27.5028 100.512 27.5028 100.449 27.5028H100.386C100.386 27.5028 100.386 27.5028 100.322 27.4397C100.322 27.4397 100.322 27.4397 100.322 27.3766C100.322 27.3766 100.322 27.3766 100.322 27.3134V27.2502C100.322 27.2502 100.322 27.2502 100.322 27.187V27.1239V27.0608V26.9976V26.9345C100.322 26.8713 100.322 26.8712 100.322 26.8081V26.745C100.322 26.6818 100.322 26.6818 100.322 26.6187C100.322 26.5555 100.322 26.5554 100.322 26.4923C100.322 26.4291 100.322 26.366 100.322 26.366C100.322 26.3029 100.322 26.3028 100.322 26.2397C100.322 26.1765 100.322 26.1134 100.322 26.0502C100.322 25.9871 100.322 25.987 100.322 25.9239C100.322 25.8607 100.322 25.7976 100.322 25.7345C100.322 25.6713 100.322 25.6081 100.322 25.6081C100.322 25.5449 100.322 25.4187 100.386 25.3555C100.386 25.2923 100.386 25.2291 100.386 25.2291C100.386 25.1028 100.449 24.9134 100.449 24.7871L101.65 17.8397L98.2992 18.3449L98.0463 19.9239C98.0463 19.9239 98.0463 19.9239 98.0463 19.8607C98.0463 19.7975 97.983 19.7976 97.983 19.7345C97.9198 19.6713 97.9198 19.6081 97.8566 19.5449C97.8566 19.5449 97.8566 19.545 97.8566 19.4818C97.7934 19.4187 97.7301 19.3554 97.6669 19.2291C97.6669 19.2291 97.6669 19.2292 97.6037 19.166C97.5404 19.1029 97.414 18.9765 97.3508 18.9133C97.3508 18.9133 97.3508 18.9133 97.2875 18.9133C97.1611 18.8502 97.0346 18.7871 96.9082 18.7239C96.7817 18.6608 96.6552 18.5975 96.4656 18.5975C96.4656 18.5975 96.4656 18.5975 96.4023 18.5975C96.2759 18.5344 96.0862 18.5345 95.8965 18.5345H95.8333C95.7068 18.5345 95.5804 18.5344 95.4539 18.5975C94.6952 18.7239 94.0629 19.1029 93.557 19.7345C93.3673 19.9871 93.1777 20.2397 92.988 20.4923C92.7983 20.7449 92.6718 21.0608 92.5454 21.3766C92.1028 22.5134 91.7866 23.8397 91.6602 25.0397C91.344 26.1134 90.9647 26.9976 90.6485 27.6923C90.1427 28.8292 89.6369 29.3976 89.1943 29.5239H89.131C89.131 29.5239 89.131 29.5239 89.0678 29.5239H89.0046C89.0046 29.5239 88.9413 29.5239 88.9413 29.4608C88.9413 29.4608 88.9413 29.4607 88.8781 29.3975C88.8781 29.3975 88.8781 29.3975 88.8781 29.3344C88.8781 29.3344 88.8781 29.3345 88.8781 29.2713V29.2081V29.145V29.0818V29.0186V28.9555V28.8923C88.8781 28.8292 88.8781 28.8291 88.8781 28.766V28.7028C88.8781 28.6397 88.8781 28.6397 88.8781 28.5766C88.8781 28.5134 88.8781 28.5133 88.8781 28.4502C88.8781 28.387 88.8781 28.3239 88.8781 28.3239C88.8781 28.2608 88.8781 28.2608 88.8781 28.1976C88.8781 28.1345 88.8781 28.0713 88.8781 28.0081C88.8781 27.945 88.8781 27.945 88.8781 27.8818C88.8781 27.8187 88.8781 27.7555 88.8781 27.6923C88.8781 27.6292 88.8781 27.6292 88.8781 27.566C88.8781 27.5029 88.8781 27.3766 88.9413 27.3134C88.9413 27.2502 88.9413 27.2502 88.9413 27.187C88.9413 27.0607 89.0046 26.8713 89.0046 26.745L90.2059 19.7976L86.8548 20.3029L85.7799 26.4923C85.4638 27.5028 85.2109 28.1975 84.9579 28.766C84.5786 29.6502 84.2624 30.0291 83.883 30.0291H83.8198C83.7566 30.0291 83.7566 30.0291 83.6934 30.0291C83.6301 30.0291 83.6301 29.966 83.5669 29.966C83.5669 29.9029 83.5037 29.9029 83.5037 29.8397C83.5037 29.7766 83.4404 29.7133 83.4404 29.6502C83.4404 29.6502 83.4404 29.6502 83.4404 29.5871C83.4404 29.5239 83.4404 29.3975 83.4404 29.3344V29.2713C83.4404 29.145 83.4404 29.0187 83.4404 28.8923V28.8292C83.4404 28.7029 83.4404 28.5134 83.5037 28.3239V28.2608C83.5037 28.0713 83.5669 27.8187 83.6301 27.566L84.8315 20.6187L81.5436 21.1239L80.5319 26.9976C80.4687 27.1871 80.4055 27.3133 80.3422 27.5028C80.3422 27.566 80.279 27.566 80.279 27.6292C80.2158 27.7555 80.2158 27.8187 80.1526 27.945C80.1526 28.0081 80.0893 28.0712 80.0893 28.1344C80.0261 28.2607 80.0261 28.3239 79.9629 28.4502C79.9629 28.5133 79.8996 28.5766 79.8996 28.6397C79.8364 28.7029 79.8364 28.8292 79.7732 28.8923C79.7732 28.9555 79.71 29.0186 79.71 29.0818C79.6467 29.1449 79.6467 29.2712 79.5835 29.3344C79.5835 29.3975 79.5203 29.4608 79.5203 29.5239C79.457 29.5871 79.457 29.6502 79.3938 29.7133C79.3306 29.7765 79.3306 29.8397 79.2674 29.9029C79.2041 29.966 79.2041 30.0292 79.1409 30.0923C79.0777 30.1555 79.0777 30.2187 79.0144 30.2818C78.9512 30.345 78.9512 30.4081 78.888 30.4712C78.8248 30.5344 78.8248 30.5976 78.7615 30.5976C78.6983 30.6608 78.6983 30.7239 78.6351 30.787C78.5718 30.8502 78.5718 30.8502 78.5086 30.9134C78.4454 30.9766 78.4454 31.0397 78.3821 31.0397C78.3189 31.1029 78.3189 31.1029 78.2557 31.166C78.1925 31.2292 78.1925 31.2291 78.1292 31.2923C78.066 31.3554 78.066 31.3554 78.0028 31.4186C77.9395 31.4818 77.9396 31.4818 77.8763 31.545C77.8131 31.545 77.8131 31.6081 77.7499 31.6081C77.6866 31.6081 77.6866 31.6713 77.6234 31.6713C77.5602 31.6713 77.5602 31.7344 77.497 31.7344C77.4337 31.7344 77.3705 31.7976 77.3705 31.7976C77.3073 31.7976 77.3073 31.7976 77.244 31.8608C77.1808 31.8608 77.1176 31.8608 77.1176 31.8608C77.0543 31.8608 77.0543 31.8608 76.9911 31.8608C76.9279 31.8608 76.8014 31.8608 76.7382 31.8608L78.5086 21.6292L75.1575 22.1344L74.9046 23.7133C74.9046 23.7133 74.9046 23.7133 74.8413 23.6502C74.8413 23.587 74.7781 23.5871 74.7781 23.5239C74.7781 23.5239 74.7781 23.5239 74.7781 23.4608C74.7149 23.3976 74.7149 23.3345 74.6517 23.2713C74.5884 23.2081 74.5252 23.1449 74.462 23.0186C74.3987 22.9554 74.2723 22.8291 74.2091 22.766C74.2091 22.766 74.1458 22.766 74.1458 22.7028C74.0194 22.6397 73.9561 22.5766 73.8297 22.5134H73.7665C73.64 22.4502 73.5135 22.387 73.3239 22.387C73.1974 22.3239 73.0077 22.3239 72.818 22.3239H72.7548C72.6283 22.3239 72.5019 22.3239 72.3122 22.387C71.1108 22.5765 70.2256 23.3976 69.6566 24.5345C69.2772 25.2292 69.0243 25.987 68.8346 26.8081C68.5817 27.8818 68.4552 29.0187 68.392 30.0923C68.3288 31.1029 68.392 31.987 68.5185 32.5554C68.5817 32.7449 68.5817 32.9345 68.6449 33.0608C68.6449 33.1239 68.7082 33.187 68.7082 33.187C68.7714 33.3133 68.7714 33.3765 68.8346 33.5028C68.8346 33.566 68.8978 33.6292 68.8978 33.6923C68.9611 33.7555 69.0243 33.8818 69.0243 33.9449C69.0875 34.0081 69.0875 34.0713 69.1508 34.0713C69.214 34.1345 69.2772 34.1975 69.3404 34.2607C69.4037 34.3239 69.4669 34.3239 69.4669 34.3871C69.5301 34.4502 69.5934 34.5133 69.6566 34.5765C69.7198 34.6397 69.783 34.6397 69.8463 34.7029C69.9095 34.766 69.9727 34.766 70.0992 34.8292C70.1624 34.8292 70.2256 34.8923 70.2889 34.8923C70.3521 34.8923 70.4786 34.9555 70.5418 34.9555C70.605 34.9555 70.6682 34.9555 70.7315 34.9555C70.8579 34.9555 71.0476 34.9555 71.1741 34.9555C72.0593 34.8292 72.7548 34.1975 73.1974 33.6291L72.5019 38.2397C72.4387 38.4291 72.4387 38.6187 72.4387 38.8081C72.4387 38.8713 72.4387 38.9344 72.4387 38.9975C72.4387 39.1239 72.4387 39.2502 72.4387 39.3766C72.4387 39.4397 72.4387 39.5029 72.4387 39.566C72.4387 39.6923 72.4387 39.7555 72.4387 39.8818C72.4387 39.945 72.4387 40.0081 72.4387 40.0713C72.4387 40.1345 72.4387 40.2608 72.4387 40.3239C72.4387 40.3871 72.4387 40.4502 72.4387 40.5134C72.4387 40.5766 72.4387 40.7028 72.5019 40.766C72.5019 40.8291 72.5019 40.8923 72.5651 40.9555C72.5651 41.0187 72.6283 41.0818 72.6283 41.2081C72.6283 41.2712 72.6916 41.3344 72.6916 41.3975C72.6916 41.4607 72.7548 41.5239 72.7548 41.5871C72.7548 41.6502 72.818 41.7134 72.818 41.7766C72.818 41.8397 72.8813 41.9029 72.8813 41.966C72.8813 42.0292 72.9445 42.0923 72.9445 42.0923C73.0077 42.1555 73.0077 42.2187 73.0709 42.2818C73.0709 42.345 73.1342 42.345 73.1342 42.4081C73.1974 42.4713 73.1974 42.5344 73.2606 42.5344C73.3239 42.5976 73.3239 42.5975 73.3871 42.6607C73.4503 42.7239 73.5135 42.7239 73.5135 42.787C73.5768 42.787 73.5768 42.8502 73.64 42.8502C73.7032 42.9134 73.7665 42.9133 73.8297 42.9765C73.8929 42.9765 73.8929 43.0397 73.9561 43.0397C74.0194 43.1029 74.0826 43.1028 74.1458 43.1028C74.2091 43.1028 74.2091 43.1029 74.2723 43.166C74.3987 43.2292 74.462 43.2292 74.5884 43.2292C74.5884 43.2292 74.5884 43.2292 74.6517 43.2292C74.7781 43.2292 74.8413 43.2292 74.9678 43.2292C75.0943 43.2292 75.2207 43.2292 75.3472 43.166C76.8647 42.9134 77.8763 40.8923 78.4454 38.8081C78.5718 38.366 78.6351 37.9871 78.6983 37.545C78.8247 36.7239 78.9512 35.966 78.9512 35.3345C78.9512 34.5766 78.888 34.0081 78.6983 33.566C78.6351 33.4397 78.5718 33.2502 78.5086 33.1239C78.888 32.9345 79.2674 32.6186 79.5835 32.2397C79.8996 31.8607 80.2158 31.4818 80.4687 30.9765C80.5319 31.166 80.5952 31.2923 80.6584 31.4818C80.6584 31.545 80.7216 31.5449 80.7216 31.6081C80.7848 31.7344 80.8481 31.7976 80.8481 31.8608C80.8481 31.9239 80.9113 31.9239 80.9745 31.9871C81.0378 32.0502 81.101 32.1134 81.1642 32.1766C81.2274 32.2397 81.2274 32.2397 81.2907 32.3029C81.3539 32.366 81.4171 32.4292 81.4804 32.4292C81.5436 32.4923 81.5436 32.4923 81.6068 32.4923C81.67 32.5555 81.7333 32.5555 81.7965 32.6187C81.8597 32.6187 81.8597 32.6818 81.923 32.6818C81.9862 32.6818 82.0494 32.745 82.1759 32.745C82.2391 32.745 82.2391 32.745 82.3023 32.8081C82.4288 32.8081 82.492 32.8081 82.6185 32.8081H82.6817C82.8082 32.8081 82.9346 32.8081 83.1243 32.745C84.3889 32.5555 85.2741 31.6081 85.9064 30.2187C85.9696 30.4081 86.0328 30.5344 86.096 30.6607C86.096 30.7239 86.1593 30.7239 86.1593 30.787C86.2225 30.8502 86.2857 30.9766 86.349 31.0397C86.4122 31.1029 86.4122 31.1029 86.4754 31.166C86.5387 31.2292 86.6019 31.2923 86.6651 31.3555C86.7283 31.4187 86.7283 31.4187 86.7916 31.4818C86.8548 31.545 86.918 31.5449 86.9813 31.6081C87.0445 31.6081 87.0445 31.6713 87.1077 31.6713C87.1709 31.7345 87.2342 31.7345 87.2974 31.7976C87.3606 31.7976 87.3606 31.8608 87.4239 31.8608C87.4871 31.8608 87.6135 31.9239 87.6768 31.9239H87.74C87.8665 31.9239 87.9929 31.9239 88.1194 31.9239C88.2458 31.9239 88.3723 31.9239 88.4987 31.8608C89.0046 31.7976 89.5104 31.545 90.0162 31.166C90.3324 30.9134 90.5853 30.6608 90.9014 30.2818C91.2808 29.7766 91.6602 29.2081 92.0396 28.5134C92.1028 28.7029 92.1028 28.8291 92.166 29.0186C92.166 29.0818 92.2292 29.145 92.2292 29.145C92.2925 29.2713 92.2925 29.3345 92.3557 29.4608C92.3557 29.5239 92.4189 29.587 92.4189 29.6502C92.4821 29.7133 92.5454 29.8397 92.5454 29.9029C92.6086 29.966 92.6086 30.0291 92.6718 30.0291C92.7351 30.0923 92.7983 30.1555 92.8615 30.2187C92.9248 30.2818 92.9248 30.2818 92.988 30.3449C93.0512 30.4081 93.1144 30.4712 93.1777 30.4712C93.2409 30.5344 93.3041 30.5345 93.3673 30.5976C93.4306 30.6608 93.4938 30.6608 93.557 30.7239C93.6203 30.7239 93.6835 30.787 93.7467 30.787C93.81 30.787 93.9364 30.8502 93.9996 30.8502C94.0629 30.8502 94.1261 30.8502 94.1893 30.8502C94.3158 30.8502 94.4422 30.8502 94.6319 30.8502C96.3391 30.5976 97.3508 28.5134 97.3508 28.5134C97.3508 28.5134 97.3508 28.5134 97.3508 28.5766C97.3508 28.6397 97.414 28.6397 97.414 28.7028C97.4772 28.766 97.4772 28.8292 97.5404 28.8923C97.5404 28.8923 97.5404 28.8923 97.5404 28.9555C97.6037 29.0187 97.6669 29.145 97.7301 29.2081C97.7301 29.2081 97.7301 29.2081 97.7934 29.2713C97.8566 29.3345 97.983 29.4608 98.0463 29.5239C98.0463 29.5239 98.0463 29.5239 98.1095 29.5239C98.236 29.5871 98.3624 29.7134 98.4889 29.7766C98.6153 29.8397 98.7418 29.9029 98.9315 29.966C98.9315 29.966 98.9315 29.966 98.9947 29.966C99.1212 30.0292 99.3109 30.0291 99.5005 30.0291H99.5638C99.6902 30.0291 99.8167 30.0292 100.006 29.966C101.46 29.7134 102.535 28.6397 103.42 27.0608C103.484 27.2502 103.547 27.4397 103.61 27.566C103.61 27.6292 103.673 27.6923 103.673 27.6923C103.736 27.8187 103.8 27.8818 103.8 27.945C103.863 28.0081 103.863 28.0712 103.926 28.0712C103.989 28.1344 104.053 28.1976 104.116 28.2608C104.179 28.3239 104.179 28.3239 104.242 28.387C104.306 28.4502 104.369 28.5134 104.432 28.5134C104.495 28.5766 104.495 28.5766 104.558 28.5766C104.622 28.6397 104.685 28.6397 104.748 28.7028C104.811 28.7028 104.811 28.766 104.875 28.766C104.938 28.766 105.064 28.8292 105.127 28.8292C105.191 28.8292 105.191 28.8292 105.254 28.8292C105.38 28.8292 105.507 28.8923 105.633 28.8923C105.76 28.8923 105.949 28.8923 106.076 28.8292C107.783 28.5766 109.048 26.9976 109.996 25.0397C110.059 25.2292 110.186 25.4818 110.249 25.6713C110.312 25.7345 110.312 25.7975 110.375 25.8607C110.439 25.987 110.502 26.1133 110.628 26.2397C110.692 26.3028 110.755 26.366 110.755 26.4292C110.818 26.5555 110.945 26.6187 111.008 26.6818C111.071 26.745 111.134 26.8081 111.197 26.8081C111.324 26.8712 111.387 26.9345 111.514 26.9976C111.577 27.0608 111.64 27.0607 111.703 27.1239C111.83 27.187 111.956 27.2502 112.083 27.3134C112.146 27.3134 112.209 27.3766 112.272 27.3766C112.462 27.4397 112.715 27.5028 112.905 27.5028C112.905 27.5028 112.905 27.5028 112.968 27.5028C113.158 27.5028 113.41 27.566 113.663 27.566C113.98 27.566 114.296 27.566 114.612 27.5028C115.054 27.4397 115.497 27.3133 115.94 27.187C116.319 27.0607 116.762 26.8713 117.078 26.6187C117.773 26.1766 118.406 25.6713 118.911 25.0397L118.658 26.5554L122.01 26.0502L123.337 18.5345C123.97 17.3976 124.728 16.766 125.171 16.7028C125.234 16.7028 125.297 16.7028 125.361 16.7028H125.424C125.487 16.7028 125.487 16.7028 125.55 16.766C125.55 16.766 125.614 16.766 125.614 16.8292L125.677 16.8923C125.677 16.8923 125.677 16.8923 125.74 16.9555C125.74 17.0187 125.803 17.0818 125.803 17.145C125.803 17.2081 125.803 17.2712 125.803 17.3975L124.855 23.4608C124.855 23.5871 124.855 23.7766 124.855 23.9029C124.855 23.966 124.855 24.0291 124.855 24.0291C124.855 24.1554 124.855 24.2186 124.918 24.2818C124.918 24.3449 124.981 24.4081 124.981 24.4081C125.045 24.4713 125.045 24.5344 125.108 24.6607C125.108 24.7239 125.171 24.7871 125.234 24.7871C125.297 24.8502 125.361 24.9133 125.361 24.9765C125.424 25.0397 125.424 25.0397 125.487 25.1029C125.55 25.166 125.614 25.2291 125.677 25.2291C125.74 25.2923 125.803 25.2923 125.803 25.3555C125.866 25.4187 125.93 25.4187 125.993 25.4818C126.056 25.4818 126.119 25.5449 126.183 25.5449C126.246 25.5449 126.309 25.6081 126.436 25.6081C126.499 25.6081 126.562 25.6081 126.625 25.6081C126.752 25.6081 126.878 25.6081 127.005 25.6081L127.574 25.4818C127.574 25.4818 127.574 25.4818 127.637 25.4818L135.54 24.1555L135.604 23.8397L136.299 19.9239L127.7 22.387ZM74.1458 25.9871L73.5768 29.3975C73.5768 29.3975 73.5768 29.3976 73.5768 29.4608C73.5768 29.5239 73.5135 29.587 73.5135 29.6502C73.5135 29.7133 73.4503 29.7766 73.3871 29.9029C73.3871 29.9029 73.3871 29.9029 73.3871 29.966C73.3239 30.0292 73.2606 30.1555 73.2606 30.2187C73.2606 30.2187 73.2606 30.2187 73.2606 30.2818C73.1974 30.345 73.1342 30.4713 73.0709 30.5345C73.0709 30.5345 73.0709 30.5345 73.0077 30.5976C72.9445 30.6608 72.8813 30.7871 72.7548 30.8502C72.7548 30.8502 72.7548 30.8502 72.6916 30.8502C72.6283 30.9134 72.5019 30.9766 72.3754 31.0397C72.249 31.1029 72.1225 31.166 71.9961 31.166C71.9328 31.166 71.8696 31.166 71.8064 31.166H71.7431C71.6799 31.166 71.6799 31.166 71.6167 31.1028C71.6167 31.1028 71.5535 31.1029 71.5535 31.0397C71.4902 31.0397 71.4902 30.9766 71.427 30.9134L71.3638 30.8502C71.3005 30.7871 71.3005 30.7239 71.2373 30.5976C71.1741 30.2818 71.1741 29.7766 71.2373 29.2081C71.3005 28.766 71.3638 28.3239 71.427 27.8818C71.4902 27.7555 71.4902 27.566 71.5535 27.4397C71.6167 27.1239 71.7431 26.8081 71.8696 26.5554C72.0593 25.987 72.3754 25.5449 72.6916 25.2923C72.8813 25.166 73.0077 25.0397 73.1974 25.0397C73.2606 25.0397 73.3239 25.0397 73.4503 25.0397H73.5135C73.5768 25.0397 73.64 25.1029 73.7032 25.1029C73.7032 25.1029 73.7032 25.1029 73.7665 25.1029C73.8297 25.166 73.8929 25.2291 73.9561 25.2923C73.9561 25.2923 73.9561 25.3555 74.0194 25.3555C74.0194 25.4187 74.0826 25.4187 74.0826 25.4818C74.0826 25.4818 74.0826 25.5449 74.1458 25.5449C74.1458 25.6081 74.2091 25.6081 74.2091 25.6713V25.7345C74.2091 25.7976 74.2091 25.7975 74.2723 25.8607C74.2723 25.8607 74.2723 25.8607 74.2723 25.9239C74.1458 25.9239 74.1458 25.9871 74.1458 25.9871C74.2091 25.9871 74.2091 25.9871 74.1458 25.9871ZM76.9911 35.0187C76.8647 36.0292 76.675 37.5449 76.3588 38.6818C76.2956 38.9344 76.2324 39.1871 76.1059 39.3766C75.9795 39.6923 75.853 39.9449 75.7265 40.1344C75.6001 40.2607 75.5369 40.3239 75.4104 40.3239C75.3472 40.3239 75.3472 40.3239 75.2839 40.3239C75.2839 40.3239 75.2839 40.3239 75.2207 40.3239H75.1575C75.1575 40.3239 75.1575 40.3239 75.0943 40.2607C75.0943 40.2607 75.0943 40.2608 75.0943 40.1976V40.1344V40.0713V40.0081V39.9449C75.0943 39.8818 75.0943 39.8818 75.0943 39.8186V39.7555C75.0943 39.6923 75.0943 39.6292 75.0943 39.566V39.5028C75.0943 39.3765 75.0943 39.3133 75.1575 39.187L76.1059 33.3766C76.6117 33.3766 77.1808 33.8818 76.9911 35.0187ZM96.8449 25.7345C96.8449 25.7345 96.7817 25.9239 96.592 26.2397C96.4656 26.4291 96.3391 26.6186 96.2126 26.8081C96.1494 26.9344 96.023 26.9976 95.9597 27.0608C95.77 27.2502 95.5171 27.3766 95.2642 27.3766C95.201 27.3766 95.1378 27.3766 95.0745 27.3766H95.0113C94.9481 27.3766 94.9481 27.3134 94.8848 27.3134C94.8848 27.3134 94.8216 27.3134 94.8216 27.2502C94.7584 27.1871 94.7584 27.187 94.6952 27.1239L94.6319 27.0608C94.5687 26.9976 94.5687 26.8713 94.5687 26.745C94.5055 26.4923 94.5055 26.1766 94.5687 25.7976C94.6319 25.166 94.7584 24.3449 94.9481 23.6502C95.0113 23.3344 95.1378 23.0818 95.201 22.8292C95.2642 22.7029 95.3274 22.5765 95.3907 22.4502C95.6436 21.9449 95.8965 21.6291 96.2126 21.4397C96.2759 21.3765 96.4023 21.3766 96.4656 21.3766C96.5288 21.3766 96.592 21.3766 96.6552 21.3766C96.7185 21.3766 96.7185 21.3766 96.7817 21.3766C96.8449 21.3766 96.8449 21.4397 96.9082 21.4397L96.9714 21.5028C97.0346 21.5028 97.0346 21.566 97.0346 21.566L97.0978 21.6292C97.0978 21.6923 97.1611 21.6923 97.1611 21.7554L97.2243 21.8186C97.2243 21.8818 97.2875 21.8818 97.2875 21.945C97.2875 21.945 97.2875 22.0081 97.3508 22.0081C97.3508 22.0713 97.3508 22.0712 97.414 22.1344V22.1976C97.414 22.2608 97.414 22.2608 97.414 22.2608V22.3239L96.8449 25.7345Z" fill="#213521"/>
<path d="M67.19 18.4082C67.6959 17.9661 70.9838 17.3346 71.6161 17.2082C71.6793 17.0188 71.6793 16.7029 71.7425 16.3871C71.8057 16.0713 71.869 15.6924 71.9322 15.3135C72.2483 12.9767 72.2483 9.62923 69.0237 8.80817C68.7075 8.74502 68.4546 8.68192 68.2017 8.61876C68.1385 8.61876 68.012 8.61876 67.9488 8.61876C67.7591 8.61876 67.5694 8.55554 67.443 8.55554C67.3165 8.55554 67.19 8.55554 67.0636 8.55554C67.0004 8.55554 66.9371 8.55554 66.8107 8.55554C66.621 8.55554 66.4945 8.61876 66.3681 8.61876C66.3048 8.61876 66.3048 8.61876 66.2416 8.61876C66.0519 8.68192 65.8622 8.68192 65.6726 8.74508C65.6093 8.74508 65.6093 8.74502 65.5461 8.80817C65.4196 8.87133 65.2932 8.8714 65.1667 8.93455C65.1035 8.93455 65.0403 8.99771 64.977 8.99771C64.8506 9.06087 64.7874 9.12396 64.6609 9.12396C64.5977 9.12396 64.5344 9.18718 64.4712 9.25034C64.3448 9.3135 64.2815 9.3766 64.1551 9.43975C64.0918 9.50291 64.0286 9.50297 63.9654 9.56613C63.8389 9.62929 63.7757 9.69238 63.6494 9.75554C63.5861 9.8187 63.5861 9.81876 63.5229 9.88192C63.3965 9.94508 63.27 10.0713 63.2068 10.1345C63.2068 10.1345 63.1435 10.1346 63.1435 10.1977C63.0171 10.324 62.8906 10.3872 62.7642 10.5135C62.7009 10.5767 62.7009 10.5767 62.6377 10.6398C62.5745 10.703 62.5112 10.7661 62.3848 10.8293C62.3216 10.8924 62.3216 10.8924 62.2583 10.9556C62.1951 11.0188 62.1319 11.0819 62.0686 11.1451C62.0054 11.2082 62.0054 11.2082 61.9422 11.2714C61.879 11.3346 61.8157 11.3977 61.8157 11.4609C61.8157 11.524 61.7525 11.524 61.7525 11.5872C61.6893 11.6503 61.626 11.7135 61.626 11.7767L61.5628 11.8398C61.4996 11.903 61.4364 11.9661 61.3731 12.0924C60.4879 13.2293 59.9821 15.124 59.7924 17.1451C59.6027 19.1661 59.9821 21.7556 60.8673 24.8503C61.057 25.2924 61.1834 25.8609 61.3731 26.3661C61.6893 27.3767 62.0686 28.7661 62.0054 29.9661C62.0054 30.2188 61.9422 30.4082 61.9422 30.6608C61.9422 30.724 61.879 30.7872 61.879 30.8503C61.8157 30.9767 61.8157 31.1661 61.7525 31.2924C61.7525 31.3555 61.6893 31.4188 61.626 31.5451C61.5628 31.6714 61.4996 31.7977 61.4996 31.8609C61.4364 31.924 61.4364 31.9871 61.3731 32.0503C61.3099 32.1134 61.2467 32.2398 61.1834 32.303C61.1202 32.3661 61.057 32.4293 60.9938 32.4924C60.9305 32.5556 60.8673 32.6187 60.7408 32.6819C60.6776 32.745 60.6144 32.7451 60.5512 32.8082C60.4879 32.8714 60.3615 32.9346 60.2982 32.9346C60.235 32.9977 60.1086 32.9976 60.0453 32.9976C59.9189 32.9976 59.8556 33.0609 59.7292 33.0609C59.666 33.0609 59.5395 33.0609 59.413 33.0609C59.2234 33.0609 59.0969 33.0609 58.9072 33.0609C56.5678 32.8714 55.6825 31.3556 55.4296 29.7767C55.4296 29.5872 55.3664 29.3977 55.3664 29.2082C55.3664 28.9556 55.3664 28.7661 55.3664 28.5767C55.3664 28.5135 55.3664 28.5134 55.3664 28.4503C55.3664 28.324 55.3664 28.1976 55.3664 28.0713C55.3664 27.8819 55.3664 27.6924 55.4296 27.5661L53.9121 27.8187L50.3713 28.324L47.4628 28.7661L42.5942 29.524L42.4045 30.4082L41.709 33.3767L49.2332 31.4187C49.2964 31.6713 49.3597 31.8609 49.4229 32.1135C49.4229 32.1767 49.4861 32.2398 49.4861 32.3661C49.5494 32.4924 49.6126 32.6819 49.6126 32.8082C49.6758 32.8714 49.6758 32.9977 49.7391 33.0609C49.8023 33.1872 49.8655 33.3134 49.9287 33.5029C49.992 33.6292 50.0552 33.6925 50.0552 33.7556C50.1184 33.8819 50.1817 34.0082 50.2449 34.1345C50.3081 34.2608 50.3713 34.324 50.4346 34.3872C50.4978 34.5135 50.561 34.6398 50.6875 34.7661C50.7507 34.8292 50.8139 34.9556 50.8772 35.0188C50.9404 35.1451 51.0669 35.2714 51.1301 35.3346C51.1933 35.3977 51.2565 35.524 51.383 35.5872C51.5095 35.7135 51.5727 35.7767 51.6991 35.903C51.7624 35.9661 51.8888 36.0924 51.9521 36.1555C52.0785 36.2819 52.1417 36.345 52.2682 36.4713C52.3314 36.5345 52.4579 36.5976 52.5211 36.6608C52.6476 36.724 52.774 36.8503 52.9005 36.9135C52.9637 36.9767 53.0902 37.0398 53.1534 37.1029C53.2799 37.1661 53.4063 37.2924 53.5328 37.3556C53.596 37.4188 53.7225 37.4819 53.7857 37.5451C53.9121 37.6082 54.1018 37.6714 54.2283 37.7977C54.2915 37.8609 54.418 37.8608 54.4812 37.924C54.7341 38.0503 54.9238 38.1135 55.1767 38.1767H55.2399C55.4929 38.2398 55.7458 38.3029 56.0619 38.3661C56.1252 38.3661 56.2516 38.3661 56.3148 38.4293C56.5045 38.4293 56.6942 38.4925 56.8839 38.4925C57.0104 38.4925 57.1368 38.4925 57.2 38.4925C57.3897 38.4925 57.5794 38.4925 57.7059 38.4925C58.0852 38.4925 58.4014 38.4925 58.7808 38.4293C59.666 38.303 60.4247 38.1135 61.1834 37.7977C61.9422 37.4819 62.6377 37.1029 63.27 36.6608C63.5861 36.4082 63.9022 36.2188 64.1551 35.9661C64.7241 35.4609 65.23 34.8924 65.6093 34.2608C65.799 33.945 65.9887 33.6293 66.1784 33.2503C66.2416 33.124 66.2416 33.0609 66.3048 32.9346C66.8739 31.6082 67.0636 30.1556 66.8739 28.5135C66.8107 27.7556 66.621 26.9345 66.3048 26.1766C66.2416 26.0503 66.2416 25.924 66.1784 25.8608C65.799 24.9134 65.3564 23.9661 64.7241 23.0187C64.5344 22.7029 64.3448 22.3871 64.2183 22.1345C63.9022 21.5661 63.6494 20.9346 63.3964 20.3661C63.27 20.1135 63.2068 19.7976 63.1435 19.545C62.8906 18.4713 62.7642 17.4609 62.8274 16.5135C62.8906 15.7556 63.0171 15.1872 63.1435 14.6188C63.27 14.0503 63.5229 13.6082 63.7757 13.1661C63.9022 12.9767 64.0286 12.7871 64.1551 12.5976C64.5977 12.0924 65.0403 11.7135 65.4829 11.5872C65.6093 11.524 65.7358 11.524 65.9255 11.524C65.9887 11.524 65.9887 11.524 66.0519 11.524C66.1784 11.524 66.3048 11.524 66.4313 11.524C66.5578 11.524 66.6842 11.5871 66.8107 11.6503C66.8107 11.6503 66.8739 11.6503 66.8739 11.7134C67.0004 11.7766 67.1268 11.8398 67.19 11.9661C67.5694 12.2819 67.8223 12.724 67.8856 13.3556C67.9488 13.5451 67.9488 13.7977 67.9488 14.0503C67.9488 14.8714 67.8223 15.8819 67.3797 17.0187C67.5062 17.524 67.3797 17.9661 67.19 18.4082Z" fill="#213521"/>
<path d="M141.104 22.0081C141.167 23.0817 140.408 23.9659 139.334 24.0291C138.259 24.0923 137.373 23.3344 137.31 22.3238C137.247 21.3133 138.006 20.4291 139.081 20.3659C140.155 20.2396 141.041 20.9975 141.104 22.0081ZM137.816 22.2607C137.879 23.3344 138.954 24.0291 140.155 23.3975C140.282 23.3344 140.408 23.2081 140.535 23.0186C141.104 21.7554 140.345 20.6186 139.207 20.6817C138.322 20.7449 137.753 21.4396 137.816 22.2607ZM139.017 23.145H138.575L138.448 21.3133C138.638 21.2502 138.828 21.2502 139.144 21.187C139.523 21.187 139.65 21.1871 139.776 21.2502C139.903 21.3134 139.966 21.4396 139.966 21.6291C139.966 21.8186 139.839 22.0081 139.586 22.0712C139.776 22.1344 139.903 22.2607 139.966 22.5134C140.029 22.766 140.092 22.8923 140.155 22.9554L139.713 23.0186C139.65 22.9554 139.586 22.7659 139.523 22.5765C139.46 22.387 139.334 22.3238 139.144 22.3238H138.954L139.017 23.145ZM138.954 22.1344H139.144C139.397 22.1344 139.586 22.0081 139.523 21.8186C139.523 21.6291 139.397 21.566 139.081 21.566C138.954 21.566 138.891 21.5659 138.828 21.6291L138.954 22.1344Z" fill="#213521"/>
<path d="M19.1992 46.8924C28.488 46.8924 36.018 37.0239 36.018 24.8504C36.018 12.6768 28.488 2.80823 19.1992 2.80823C9.91039 2.80823 2.38037 12.6768 2.38037 24.8504C2.38037 37.0239 9.91039 46.8924 19.1992 46.8924Z" fill="#BDA888"/>
<path d="M39.6225 15.6293C39.6225 13.9872 38.2947 12.724 36.714 12.724C36.3346 12.724 35.9552 12.7871 35.5758 12.9766C35.3862 12.5345 35.1965 12.1556 34.9435 11.7766C37.0301 11.6503 38.674 9.88189 38.674 7.73453C38.674 5.52399 36.8404 3.75554 34.6274 3.75554C33.5525 3.75554 32.5409 4.19765 31.7821 4.95555C31.4027 5.3345 31.0866 5.77659 30.8969 6.28185C28.1149 3.56606 24.7637 1.73453 21.0332 1.35558C20.97 1.35558 20.97 1.35558 20.9068 1.35558C20.6539 1.35558 20.4642 1.29236 20.2113 1.29236C20.148 1.29236 20.148 1.29236 20.0848 1.29236C19.8319 1.29236 19.579 1.29236 19.3261 1.29236C9.01975 1.29236 0.610352 11.8397 0.610352 24.9134C0.610352 37.9871 8.95652 48.5345 19.3261 48.5345C29.6323 48.5345 38.0418 37.9871 38.0418 24.9134C38.0418 24.6608 38.0418 24.4082 38.0418 24.1556C38.0418 24.0924 38.0418 24.0292 38.0418 23.966C38.0418 23.7766 38.0418 23.5871 38.0418 23.3976C38.0418 23.3345 38.0418 23.2714 38.0418 23.2714C38.0418 22.7661 37.9785 22.2608 37.9153 21.7555C37.9153 21.7555 37.9153 21.7556 37.9153 21.6924C37.7888 20.6187 37.5992 19.6081 37.4095 18.5976C38.674 18.1555 39.6225 17.0187 39.6225 15.6293ZM19.3893 47.5872C9.58881 47.5872 1.62201 37.4187 1.62201 24.8503C1.62201 12.2819 9.58881 2.11344 19.3893 2.11344C23.6888 2.11344 27.609 4.07132 30.644 7.2292C30.644 7.35552 30.644 7.54505 30.644 7.73453C30.644 9.69242 32.035 11.2713 33.8687 11.6503C34.1848 12.2187 34.5009 12.7872 34.7539 13.4187C34.1216 13.924 33.7422 14.7451 33.7422 15.6293C33.7422 16.3872 34.0583 17.145 34.5642 17.7134C35.07 18.2187 35.7023 18.5345 36.461 18.5345C36.9036 20.5556 37.1566 22.6398 37.1566 24.8503C37.1566 37.4187 29.1897 47.5872 19.3893 47.5872Z" fill="#BDA888"/>
<path d="M22.7399 31.7346C22.8031 31.4819 22.9928 30.9767 23.056 30.5346C23.056 30.5346 22.9928 30.5346 22.9928 30.4714C22.8664 30.4083 22.6767 30.4083 22.5502 30.4083C22.2341 30.4083 21.8547 30.4083 21.5386 30.4714C21.2856 30.5346 21.0327 30.5977 20.7798 30.6609C20.9063 30.9135 21.2224 31.482 21.4121 31.861C21.9179 31.6715 22.487 31.7346 22.7399 31.7346Z" fill="#CC6328"/>
<path d="M25.0793 30.1555C24.6999 30.0924 24.3838 30.0293 24.0044 29.903C24.0044 29.9661 23.9412 30.0293 23.9412 30.0924C23.8779 30.2819 23.7515 30.4714 23.625 30.724L23.4986 30.9135L23.3089 30.7871C23.2457 31.2924 23.056 31.8608 22.9927 31.9872C23.2457 32.4293 23.4986 32.9345 23.7515 33.4398C23.9412 33.8187 24.1309 34.1976 24.2573 34.5766C24.6999 32.2397 24.9528 30.7871 25.0793 30.1555Z" fill="#5A3714"/>
<path d="M19.7053 22.2609C19.5788 22.2609 19.1994 22.8292 18.8833 23.3976C19.1362 23.4608 19.3891 23.4609 19.642 23.524C19.8949 23.524 20.1479 23.5872 20.3375 23.5872C20.0846 22.9556 19.7685 22.324 19.7053 22.2609Z" fill="white"/>
<path d="M21.3496 22.8292C21.2231 22.8292 20.907 23.2713 20.7805 23.524C20.7805 23.524 20.7805 23.5871 20.7173 23.5871C20.8437 23.5871 20.9702 23.5871 21.1599 23.5871C21.4128 23.5871 21.7289 23.5871 21.9818 23.5871C21.7922 23.2082 21.476 22.8292 21.3496 22.8292Z" fill="white"/>
<path d="M20.1478 46.7029C24.4473 46.7029 31.0863 40.9556 31.0863 38.3029C30.2643 35.7766 28.3675 33.0608 27.6087 32.1135C27.5455 32.9345 27.4191 33.8187 27.2294 33.945H27.1661H27.1029C26.5339 34.0081 26.028 34.1344 25.9648 34.2608C26.028 34.3239 26.0913 34.324 26.1545 34.3871C26.4074 34.5766 26.9132 34.8924 26.9132 35.5871C26.9132 36.2187 25.2693 39.566 23.9415 42.1555L22.1711 45.0608C22.5505 43.0398 23.0563 40.5134 23.1827 39.945L23.1195 39.8187C21.8549 37.8608 19.7052 37.0398 18.6303 36.5977C18.2509 36.4713 18.1244 36.4081 18.0612 36.345C17.8715 36.1555 17.9348 35.6503 17.998 34.9556C17.998 34.8292 18.0612 34.6398 18.0612 34.5135C17.998 34.5766 17.9348 34.5766 17.8083 34.6398C17.5554 34.8292 17.176 35.0187 16.7966 35.0818C16.2276 35.145 11.6751 31.7977 10.7267 30.9135C10.2208 31.3556 7.94459 33.566 6.30064 36.4713C6.23741 41.8397 14.7733 46.7029 20.1478 46.7029Z" fill="#911A1D"/>
<path d="M20.5901 40.3239C20.5901 40.4503 20.4637 40.5765 20.274 40.5765L19.452 40.7029C17.9345 40.9555 16.3538 41.0186 14.7731 40.8923L13.1291 40.7029C12.7498 40.6397 12.4336 40.4503 12.4336 40.1976V39.6291C12.4336 39.566 12.4968 39.4397 12.5601 39.4397C12.6865 39.3134 12.813 39.3134 13.0027 39.3134H13.0659L14.2673 39.5028C15.5318 39.6291 16.8596 39.6291 18.1874 39.5028L20.2107 39.3134C20.3372 39.3134 20.4637 39.3134 20.5269 39.3766C20.5269 39.3766 20.5901 39.4397 20.5901 39.5028V40.3239Z" fill="#213521"/>
<path d="M24.1947 34.8923C24.0682 34.387 23.8153 33.8818 23.5624 33.3766C23.3095 32.9345 23.0566 32.4292 22.8036 31.9871C22.614 31.9871 22.0449 31.924 21.4126 32.1766L21.3494 32.4924V32.5555C21.4126 32.6818 21.5391 32.8713 21.6023 32.9976L21.6655 33.124L21.5391 33.187C21.4758 33.2502 21.4126 33.2503 21.2862 33.2503L21.1597 35.4608C22.1714 36.7239 22.9933 37.7976 23.3727 38.3029C23.7521 37.0397 23.9418 35.9028 24.1947 34.8923Z" fill="#CC6328"/>
<path d="M23.1191 18.8504C23.1191 19.482 23.6249 19.9872 24.2572 19.9872C24.8895 19.9872 25.3953 19.482 25.3953 18.8504C25.3953 18.2188 24.8895 17.7135 24.2572 17.7135C23.6249 17.7135 23.1191 18.2188 23.1191 18.8504Z" fill="white"/>
<path d="M19.452 18.8504C19.452 18.2188 18.9462 17.7135 18.3139 17.7135C17.6816 17.7135 17.1758 18.2188 17.1758 18.8504C17.1758 19.482 17.6816 19.9872 18.3139 19.9872C18.9462 19.9872 19.452 19.482 19.452 18.8504Z" fill="white"/>
<path d="M12.0544 28.2608L11.6118 28.6397C12.0544 28.8924 12.497 29.0187 13.0028 29.145C13.5719 29.2713 14.141 29.3345 14.71 29.2713H14.8997C14.9629 29.2713 15.0262 29.2713 15.1526 29.2713C15.3423 29.2713 15.4688 29.2713 15.6584 29.2713C15.9746 29.2713 16.2907 29.3345 16.6069 29.4608C17.1759 29.6503 17.6185 29.9661 17.9979 30.4082C18.0611 30.345 18.1244 30.345 18.1876 30.2819C18.3141 30.2187 18.3773 30.1555 18.5037 30.0924C18.6934 29.9661 18.8831 29.9029 19.0728 29.8397C19.0096 29.7134 19.0096 29.5871 18.9463 29.524C19.0728 29.4608 19.1993 29.4608 19.2625 29.5871C19.3257 29.6503 19.3257 29.7134 19.3257 29.7766C19.3889 29.9029 19.4522 30.0292 19.4522 30.2187C19.5154 30.4082 19.5786 30.5976 19.5786 30.7871C19.8315 30.6607 20.0845 30.5344 20.3374 30.4713C20.6535 30.3449 21.0329 30.2186 21.349 30.1555C21.7284 30.0923 22.0445 30.0292 22.4239 30.0924C22.6136 30.0924 22.8033 30.0923 22.993 30.1555C23.0562 30.1555 23.1827 30.2187 23.2459 30.2819C23.2459 30.2819 23.3091 30.2818 23.3091 30.3449C23.3723 30.2186 23.4356 30.0924 23.4988 29.9661C23.562 29.8397 23.6253 29.7765 23.6253 29.6502C23.6885 29.5239 23.8149 29.4608 24.0046 29.4608C24.0046 29.524 23.9414 29.5871 23.9414 29.6502C24.1311 29.7134 24.3208 29.7766 24.5105 29.7766C24.7634 29.8397 25.0163 29.8397 25.2692 29.8397C25.5221 29.8397 25.775 29.7765 25.9647 29.7134C26.0912 29.6502 26.2176 29.6503 26.3441 29.524C26.3441 29.524 26.3441 29.524 26.2809 29.524C26.2176 29.4608 26.0912 29.3976 26.028 29.2713C25.9647 29.2082 25.8383 29.0819 25.775 28.9555C25.7118 28.8292 25.6486 28.7029 25.5854 28.5766L25.5221 28.4502L25.6486 28.3871C25.8383 28.2607 25.9647 28.1345 26.0912 28.0082C26.1544 27.945 26.2176 27.8818 26.2809 27.7555L26.3441 27.6924C26.2809 27.6292 26.2176 27.566 26.2176 27.5028C26.1544 27.3765 26.028 27.2503 26.028 27.0608C25.9647 26.9345 25.9647 26.745 25.9015 26.6187C25.9015 26.4924 25.9015 26.3028 25.9015 26.1765H26.1544V26.3661C26.2809 26.4292 26.3441 26.4292 26.4706 26.4292C26.5338 26.4292 26.5338 26.4292 26.597 26.4292C26.5338 26.3029 26.5338 26.1766 26.5338 26.1134C26.5338 25.924 26.5338 25.7344 26.5338 25.5449C26.5338 25.2923 26.597 25.1029 26.597 24.8503C26.4706 24.724 26.3441 24.5976 26.2176 24.4713C26.0912 24.4082 26.028 24.2819 25.9015 24.2187C25.8383 24.1555 25.775 24.1555 25.775 24.0924C25.775 24.2187 25.775 24.2819 25.775 24.4082C25.775 24.5976 25.7118 24.7871 25.5854 24.9134C25.4589 25.0397 25.3324 25.166 25.206 25.2923C25.0795 25.3555 24.8898 25.4187 24.7634 25.4819C24.7002 25.6082 24.5737 25.7976 24.4472 25.8607L24.384 25.7345C24.5105 25.6082 24.5737 25.4819 24.6369 25.3555C24.6369 25.2924 24.7002 25.1661 24.7002 25.1029C24.1311 25.2924 23.562 25.4186 22.993 25.5449C22.3607 25.6713 21.6652 25.7345 21.0329 25.7345C20.4006 25.7345 19.7051 25.6713 19.0728 25.6081C18.7567 25.5449 18.4405 25.4819 18.1244 25.4187C17.9347 25.3555 17.8082 25.3555 17.6185 25.2923C17.5553 25.2923 17.4289 25.2292 17.3656 25.2292C17.3024 25.2292 17.2392 25.1661 17.2392 25.1661C17.2392 25.1661 17.2392 25.166 17.2392 25.2292C17.1127 25.4186 16.923 25.6082 16.7966 25.7345L16.6701 25.6081C16.7966 25.4818 16.9863 25.2924 17.1127 25.1661C17.1759 25.0397 17.3024 24.9134 17.3656 24.724C17.1759 24.724 16.9863 24.7239 16.7966 24.6607C16.5436 24.5976 16.354 24.5345 16.101 24.4713C15.8481 24.4082 15.6584 24.2819 15.4688 24.1555C15.2791 24.0292 15.0894 23.9029 14.8997 23.7766L14.7732 23.7134L14.8997 23.5871L15.6584 22.8924C15.5952 22.8292 15.532 22.7029 15.4688 22.5766C15.4055 22.4503 15.3423 22.3239 15.2791 22.1344V22.0082H15.4055C15.4688 22.0082 15.532 22.0082 15.532 21.945C15.5952 21.945 15.6584 21.8819 15.6584 21.8819C15.7217 21.8819 15.7217 21.8186 15.7849 21.8186C15.6584 21.6923 15.532 21.566 15.4688 21.4397C15.3423 21.2502 15.2791 21.0607 15.1526 20.8713C15.0894 20.6818 15.0262 20.4924 14.9629 20.3029C14.9629 20.1766 14.8997 20.1134 14.8997 19.9871L14.8365 19.6713L14.7732 19.4187L15.0262 19.4819C15.1526 19.545 15.3423 19.6081 15.4688 19.6081C15.532 19.6081 15.5952 19.6081 15.7217 19.6081H15.7849C15.7849 19.5449 15.7217 19.4819 15.7217 19.4187C15.7217 19.2924 15.6584 19.1661 15.6584 19.0397C15.6584 18.7871 15.6584 18.5344 15.7217 18.2818C15.7849 18.0292 15.8481 17.7766 15.9114 17.524L16.0378 17.145L16.1643 16.8924C16.0378 16.8292 15.9746 16.7661 15.8481 16.6397C15.7217 16.5134 15.6584 16.324 15.5952 16.1976C15.532 15.8187 15.5952 15.4397 15.8481 15.1871L15.9114 15.1239L15.9746 15.2503C16.1643 15.5029 16.4172 15.6923 16.7333 15.7555C16.9863 15.8186 17.2392 15.8819 17.4921 15.8819C17.3656 15.6924 17.2392 15.5029 17.1759 15.2503C17.1127 15.124 17.1127 14.9976 17.0495 14.8081C17.0495 14.6818 17.0495 14.4924 17.1127 14.3661L17.3024 14.4292C17.3024 14.4924 17.3024 14.5555 17.3024 14.6187C17.3656 14.6187 17.4289 14.6187 17.5553 14.6187C17.6818 14.6187 17.8082 14.6818 17.8715 14.8081C18.0611 14.9344 18.1876 15.124 18.2508 15.3134C18.3773 15.5029 18.4405 15.6923 18.567 15.8186C18.6302 15.9449 18.6934 16.0081 18.8199 16.0713C18.8199 16.0081 18.8831 16.0082 18.8831 15.945C18.9463 15.8187 19.0096 15.6292 19.0728 15.5028L19.1993 15.2503L19.3257 15.4397C19.7051 16.0081 20.1477 16.5765 20.6535 17.0186C20.9064 17.2713 21.1593 17.4607 21.4755 17.6502C21.6652 17.7765 21.9181 17.9028 22.171 18.0292C22.1078 17.7134 22.0445 17.4608 22.0445 17.145C22.0445 16.9555 21.9813 16.7661 21.9813 16.5766C21.9813 16.3871 21.9813 16.1976 21.9813 16.0082L22.0445 15.7555L22.2342 15.945C22.3607 16.0082 22.4239 16.1345 22.5504 16.1976C22.6136 16.2608 22.6768 16.2608 22.8033 16.324C22.8665 16.0082 22.8665 15.7555 22.9297 15.4397C22.993 15.1239 23.0562 14.8082 23.1827 14.4292L23.3723 14.4923C23.3091 14.6186 23.3091 14.7449 23.2459 14.8713C23.2459 14.8713 23.2459 14.8713 23.3091 14.8713C23.3723 14.8713 23.4356 14.8713 23.4988 14.8713C23.6253 14.8713 23.7517 14.9345 23.8782 14.9976H23.9414V15.0608C24.0046 15.2503 24.1311 15.4397 24.1943 15.6292C24.3208 15.8187 24.384 16.0081 24.5105 16.1344C24.6369 16.3239 24.7002 16.5134 24.7634 16.7028C24.8266 16.8292 24.8266 17.0187 24.8266 17.145H25.5221V17.524L24.5105 17.4608C25.0795 17.5871 25.5221 18.1555 25.5221 18.724C25.5221 18.9766 25.4589 19.2924 25.2692 19.4819C25.2692 19.7976 25.3324 20.1134 25.4589 20.4292C25.5221 20.5555 25.5854 20.6819 25.7118 20.745C25.8383 20.8082 25.9647 20.8081 26.0912 20.8081H26.2176V20.9345C26.2809 21.2503 26.2176 21.5661 26.0912 21.8819C26.028 22.0082 25.9647 22.1976 25.8383 22.2608C25.775 22.324 25.6486 22.4502 25.5221 22.4502C25.5221 22.5765 25.5221 22.6397 25.5854 22.766C25.6486 22.8923 25.6486 23.0187 25.7118 23.145H25.775C26.2176 23.2713 26.597 23.4607 26.9132 23.7134C26.9132 23.5871 26.9132 23.3976 26.9132 23.2713C26.9132 23.0819 26.9132 22.9555 26.8499 22.766C26.8499 22.7028 26.7867 22.5766 26.7867 22.5134C26.7867 22.4503 26.7235 22.324 26.7235 22.324L26.5338 22.0082H26.9132C26.9764 22.0082 27.0396 22.0082 27.1028 22.0082C27.1661 22.0082 27.2293 22.0082 27.2925 21.945C27.3558 21.8819 27.419 21.8818 27.4822 21.8186C26.9764 21.1871 26.6602 20.4292 26.4073 19.6713C26.2809 19.2924 26.2176 18.8503 26.0912 18.4082C26.028 18.2187 26.028 17.9661 25.9647 17.7766L25.9015 17.4608C25.9015 17.3976 25.8383 17.2713 25.8383 17.2082C25.7118 16.8292 25.5221 16.4502 25.3324 16.1344C25.1428 15.7555 24.9531 15.3766 24.7634 14.9976C24.5737 14.6187 24.384 14.2397 24.3208 13.7976C24.2576 13.6082 24.2576 13.3555 24.3208 13.1029C24.384 12.9134 24.4472 12.7871 24.5737 12.6607C24.0046 12.0292 23.3723 11.5239 22.7401 11.0186C22.4239 10.766 22.0445 10.5766 21.7284 10.324L21.8549 10.3871C21.7916 10.3239 21.6652 10.2608 21.6019 10.1976C21.2858 10.0082 21.0329 9.75554 20.7167 9.56606C20.4638 9.37659 20.1477 9.1239 19.8948 8.87126C19.7683 8.80811 19.7051 8.68185 19.5786 8.6187C19.5154 8.55554 19.3889 8.42922 19.3257 8.36606V8.42922C19.3257 8.55554 19.3257 8.68185 19.3257 8.74501C19.3257 8.80817 19.3257 8.80811 19.3257 8.87126C19.3257 8.93442 19.3257 9.06074 19.3889 9.1239C19.3889 9.25021 19.4522 9.37653 19.5154 9.43968L19.4522 9.50284L19.3889 9.56606C19.3257 9.43975 19.2625 9.31337 19.1993 9.18705C19.136 9.06074 19.136 8.93448 19.136 8.74501V8.68185C18.8199 8.49238 18.5037 8.30291 18.1876 8.05027C17.4921 7.60817 16.8598 7.03974 16.2907 6.47131C16.2275 6.59763 16.2275 6.66079 16.1643 6.7871C16.101 6.97658 16.0378 7.16606 15.9746 7.35554C15.9114 7.54501 15.8481 7.73442 15.7849 7.9239C15.7217 8.11337 15.7217 8.30284 15.6584 8.49232C15.7217 8.61863 15.7849 8.68179 15.7849 8.80811L15.6584 8.87126L15.532 8.93448C15.4688 8.80817 15.4055 8.68185 15.2791 8.6187C15.2158 8.6187 15.2158 8.55547 15.1526 8.55547C15.0262 8.93442 14.8997 9.37653 14.7732 9.75547C14.5836 10.1976 14.3939 10.7029 14.141 11.145C13.888 11.5871 13.5719 12.0292 13.319 12.4082C13.0661 12.724 12.8132 12.9765 12.5602 13.2923C12.6235 13.2923 12.6867 13.2923 12.7499 13.2923L12.8132 13.4187L12.9396 13.2923C13.1293 13.2923 13.2558 13.2292 13.4454 13.1029L13.5087 13.2292L13.5719 13.3555C13.3822 13.4819 13.1925 13.5449 13.0028 13.6081C12.9396 13.7976 12.8132 13.9871 12.7499 14.1765C12.6235 14.4292 12.497 14.6819 12.3706 14.9345C12.1176 15.4397 11.928 15.945 11.8015 16.5134C11.675 17.0819 11.4854 17.5871 11.3589 18.1555C11.2324 18.5976 11.1692 19.0397 11.106 19.5449C11.1692 19.5449 11.2324 19.5449 11.3589 19.5449C11.4854 19.5449 11.5486 19.6081 11.675 19.6081C11.675 19.6081 11.7383 19.6082 11.7383 19.6713C11.8015 19.4819 11.928 19.2924 11.9912 19.0397L12.2441 19.1661C12.1809 19.3555 12.0544 19.6082 11.9912 19.7976C11.9912 19.8608 11.9912 19.8607 11.9912 19.9239V20.0503C11.7383 20.9976 11.5486 21.945 11.4854 22.8924C11.3589 23.7766 11.2957 24.6607 11.2324 25.5449L11.5486 25.4187V25.1029H11.8015V25.7345V26.0503C11.8015 26.1766 11.8015 26.3029 11.7383 26.3661C11.675 26.745 11.6118 27.124 11.5486 27.5661C11.5486 27.5661 11.6118 27.5661 11.6118 27.6292C11.675 27.6292 11.7383 27.6924 11.8015 27.6924C11.928 27.6924 11.9912 27.6924 12.1176 27.6924C12.1176 27.6292 12.1809 27.5028 12.1809 27.4397L12.5602 27.5028C12.5602 27.6923 12.497 27.8187 12.4338 28.0082C12.3073 28.0082 12.1809 28.1976 12.0544 28.2608Z" fill="#5A3714"/>
<path d="M25.0797 24.9135C25.0797 25.0398 25.0164 25.103 25.0164 25.2293C25.0797 25.1662 25.2061 25.1662 25.2693 25.1031C25.3958 25.0399 25.5223 24.9136 25.5855 24.7873C25.6487 24.661 25.7119 24.5346 25.7119 24.3451C25.7119 24.2188 25.7119 24.0925 25.7119 23.9662C25.5223 23.8398 25.2693 23.7767 25.0797 23.7767C24.8267 23.7136 24.5738 23.7136 24.2577 23.7767H24.068C23.1196 23.9031 22.1079 23.9031 21.1595 23.8399C20.9698 23.8399 20.7801 23.8399 20.5904 23.7767C20.2743 23.7767 19.9581 23.7135 19.642 23.7135C19.1994 23.6504 18.6936 23.5873 18.251 23.461C18.1877 23.461 18.1245 23.3346 18.1877 23.2715C18.3774 23.3346 18.5039 23.3346 18.6936 23.3977C19.0097 22.8925 19.5155 22.0714 19.7685 22.1346C20.0214 22.1977 20.4007 22.9557 20.5904 23.5873C20.5904 23.5241 20.6537 23.5241 20.6537 23.461C20.9698 23.0188 21.2227 22.703 21.4124 22.703C21.6653 22.703 22.0447 23.2714 22.2344 23.6504C22.4241 23.6504 22.5505 23.6504 22.7402 23.6504C23.1828 23.6504 23.5622 23.5873 24.0048 23.5241C24.0048 23.5241 24.068 23.5241 24.068 23.461C24.1312 23.3978 24.1945 23.3977 24.2577 23.3346C24.5106 23.2083 24.7635 23.1452 25.0797 23.1452C25.2061 23.1452 25.3958 23.1452 25.5223 23.1452C25.459 23.082 25.459 23.0188 25.3958 22.8925C25.3326 22.7662 25.3326 22.5767 25.3326 22.3872V22.261H25.459C25.5855 22.261 25.6487 22.1977 25.7752 22.1346C25.8384 22.0714 25.9649 21.9451 25.9649 21.8188C26.0913 21.6293 26.0913 21.3767 26.0913 21.124C25.9649 21.124 25.8384 21.061 25.6487 20.9978C25.5855 20.9346 25.459 20.8714 25.459 20.8083C25.3958 20.7451 25.3958 20.6188 25.3326 20.5556C25.2693 20.303 25.2061 20.0504 25.2061 19.7346C24.9532 19.9873 24.5738 20.1136 24.1945 20.1136C23.5622 20.0504 22.9931 19.5451 22.9931 18.9135C22.9299 18.2188 23.4357 17.5873 24.068 17.461L22.8667 17.3977V17.0188L24.6371 17.0819C24.6371 16.9556 24.6371 16.8293 24.5738 16.703C24.5106 16.5135 24.4474 16.324 24.3841 16.1346C24.2577 15.9451 24.1945 15.7557 24.068 15.6294C23.9415 15.4399 23.8783 15.3135 23.7519 15.124C23.6886 15.0609 23.5622 15.061 23.4989 15.061C23.4357 15.061 23.3725 15.061 23.3725 15.061C23.3093 15.061 23.246 15.061 23.246 15.061C23.246 15.1241 23.1828 15.2504 23.1828 15.3136C23.1196 15.6294 23.0563 15.9452 23.0563 16.3241V16.4504H22.9299C22.8034 16.4504 22.7402 16.4504 22.677 16.3872C22.6137 16.3872 22.5505 16.3241 22.4873 16.261C22.4241 16.1978 22.3608 16.1977 22.2976 16.1346C22.2976 16.1977 22.2976 16.324 22.2976 16.3872C22.2976 16.5767 22.2976 16.7662 22.3608 16.9557C22.4241 17.3346 22.4241 17.7135 22.5505 18.0293L22.6137 18.2819L22.3608 18.2189C21.9815 18.0925 21.6653 17.9662 21.3492 17.7767C21.033 17.5873 20.7169 17.3346 20.464 17.1452C19.9581 16.7031 19.5788 16.1978 19.1994 15.6925C19.1994 15.7557 19.1362 15.7556 19.1362 15.8188C19.0729 15.9451 19.0097 16.0714 19.0097 16.1346L18.9465 16.3241L18.7568 16.261C18.5671 16.1346 18.3774 15.9451 18.251 15.8188C18.1245 15.6293 17.998 15.4399 17.9348 15.3136C17.8084 15.1241 17.7451 14.9977 17.6187 14.8714C17.4922 14.7451 17.3658 14.7452 17.2393 14.682C17.2393 14.8083 17.3025 14.9346 17.3658 15.061C17.4922 15.3136 17.6187 15.5662 17.7451 15.7556L17.8716 15.882L17.6819 15.9452C17.3658 16.0083 16.9864 16.0083 16.6702 15.882C16.4173 15.7557 16.1012 15.6294 15.9115 15.3767C15.785 15.5662 15.7218 15.8188 15.785 16.0714C15.8483 16.324 16.1012 16.5767 16.3541 16.703L16.4806 16.7662L16.4173 16.8925L16.2909 17.2083L16.1644 17.5241C16.1012 17.7767 16.038 17.9662 15.9747 18.2189C15.9115 18.4715 15.9115 18.6609 15.9115 18.9135C15.9115 19.0398 15.9115 19.1662 15.9747 19.2293C15.9747 19.3556 16.038 19.4819 16.1012 19.5451L16.1644 19.6715L16.038 19.7346C15.9115 19.7978 15.8483 19.7978 15.7218 19.7978C15.6586 19.7978 15.5321 19.7978 15.4689 19.7978C15.3424 19.7978 15.2792 19.7346 15.1528 19.7346V19.7978C15.1528 19.9241 15.216 19.9873 15.216 20.1136C15.2792 20.3031 15.3424 20.4925 15.4057 20.682C15.4689 20.8715 15.5954 21.0609 15.7218 21.1872C15.8483 21.3135 15.9747 21.5031 16.1012 21.6294L16.2276 21.6925L16.1644 21.8188C16.1012 21.9451 15.9747 22.0083 15.8483 22.0714C15.785 22.0714 15.7218 22.1346 15.6586 22.1346H15.5954C15.5954 22.1977 15.6586 22.324 15.7218 22.3872C15.785 22.5135 15.8483 22.6398 15.9747 22.7662L16.038 22.8925L15.9747 22.9557L15.2792 23.6504C15.4057 23.7767 15.5321 23.8398 15.7218 23.9662C15.9115 24.0925 16.1012 24.1557 16.3541 24.2188C16.5438 24.282 16.7967 24.3452 16.9864 24.4083C17.1761 24.4715 17.429 24.4715 17.6187 24.4715H17.7451L17.6819 24.5977C17.6187 24.724 17.6187 24.8504 17.5554 24.9767C17.6187 24.9767 17.6187 25.0399 17.6819 25.0399C17.7451 25.0399 17.8084 25.1031 17.8716 25.1031C17.998 25.1662 18.1877 25.1662 18.3142 25.2293C18.6303 25.2925 18.9465 25.3557 19.2626 25.4188C19.8949 25.5452 20.5272 25.5451 21.1595 25.5451C21.7918 25.5451 22.4241 25.482 23.0563 25.3557C23.6886 25.2294 24.3209 25.1031 24.89 24.8504L25.0797 24.7873V24.9135ZM16.9864 18.8504C16.9864 18.282 17.3658 17.7767 17.8716 17.5873H16.7967V17.2083L19.7685 17.1452V17.5241H18.6936C19.2626 17.7136 19.642 18.2188 19.642 18.7873C19.642 19.5452 19.0729 20.1136 18.3142 20.1136C17.5554 20.1767 16.9864 19.5452 16.9864 18.8504Z" fill="#E8C5AA"/>
<path d="M20.4008 32.4294C20.4641 32.6188 20.5273 32.7451 20.5905 32.8714C20.717 32.9977 20.8434 33.0609 20.9699 33.1241C21.0964 33.1241 21.2228 33.1241 21.286 33.1241C21.286 33.0609 21.2228 33.0609 21.2228 32.9977C21.1596 32.9346 21.0964 32.8083 21.0964 32.7451C21.0331 32.682 21.0331 32.5557 21.0331 32.4294C21.0331 32.303 21.0331 32.2399 21.0964 32.1136C20.9067 31.7346 20.5905 31.103 20.4641 30.8504C20.1479 30.9767 19.895 31.103 19.5789 31.2294L19.326 31.3557V31.103C19.326 30.8503 19.2627 30.5346 19.1995 30.282C19.1995 30.2188 19.1995 30.2188 19.1995 30.1556C19.0098 30.2188 18.8834 30.282 18.6937 30.4083C18.5672 30.4715 18.504 30.5346 18.3775 30.5978C18.2511 30.6609 18.1878 30.724 18.1246 30.7872L17.9982 30.9136L17.8717 30.7872C17.4923 30.3451 17.0497 30.0294 16.4807 29.8399C16.3542 29.7767 16.1645 29.7767 16.0381 29.7135C17.3659 30.9135 19.4524 33.3136 21.0331 35.3346L21.0964 33.3767H21.0331C20.8434 33.3136 20.6538 33.2504 20.5273 33.0609C20.4008 32.9346 20.3376 32.7451 20.3376 32.5556L20.2744 32.6188C20.2112 32.682 20.0847 32.7451 19.9582 32.7451C19.8318 32.7451 19.7686 32.7451 19.6421 32.7451C19.5156 32.7451 19.4524 32.6819 19.326 32.6819L19.1363 32.6188L19.2627 32.4925C19.326 32.4294 19.4524 32.303 19.5156 32.1767C19.5789 32.0504 19.6421 31.9872 19.7053 31.8609C19.8318 31.9241 19.8318 31.9873 19.8318 32.1136C19.8318 32.1767 19.7686 32.2399 19.7053 32.303C19.6421 32.3662 19.6421 32.4294 19.5789 32.4925H19.6421C19.7053 32.4925 19.8318 32.4925 19.895 32.4925C20.0215 32.4925 20.1479 32.3662 20.2744 32.303C20.2744 32.1767 20.2744 32.1136 20.2744 31.9873C20.4008 31.9873 20.4641 32.0504 20.4641 32.1767C20.4641 32.2399 20.4641 32.3662 20.5273 32.4294C20.4008 32.3662 20.4008 32.3662 20.4008 32.4294C20.4008 32.3662 20.4008 32.3662 20.4008 32.4294Z" fill="#5A3714"/>
<path d="M10.7896 30.4713V30.5977L10.9161 30.6608C11.7381 31.3555 16.2273 34.766 16.7331 34.766C17.0493 34.766 17.3654 34.5135 17.6183 34.3872C17.9345 34.1977 18.1241 34.0713 18.2506 34.2608C18.3138 34.3239 18.3138 34.5135 18.2506 34.9556C18.1874 35.2714 18.1241 36.0292 18.2506 36.1555C18.3138 36.2187 18.5035 36.2818 18.7564 36.345C19.7681 36.7239 21.9179 37.5451 23.1824 39.4398L23.4354 38.6818C22.9295 37.9871 17.808 31.4187 15.595 29.5872C15.4685 29.5872 15.4053 29.5872 15.2789 29.5872C15.2156 29.5872 15.1524 29.5872 15.0892 29.5872H14.8363C14.204 29.6503 13.5717 29.6503 13.0026 29.524C12.4968 29.3977 12.0542 29.2713 11.6116 29.0187C10.9793 29.6503 10.8528 30.2187 10.7896 30.4713Z" fill="#213521"/>
<path d="M22.4243 44.0503L23.6889 38.7451L23.7521 38.6188C24.7638 33.9451 25.2696 31.103 25.3961 30.1556H25.4593C25.7122 30.1556 26.0284 30.1556 26.2813 30.0293C26.3445 30.0293 26.3445 30.0293 26.4077 29.9662C26.6607 30.0925 27.1033 30.4082 27.293 30.6609C27.3562 30.7872 27.4194 31.2293 27.3562 31.6715C27.3562 32.4293 27.1665 33.4398 27.04 33.6293C26.5974 33.6924 25.7755 33.8188 25.7122 34.1345C25.649 34.324 25.8387 34.4503 25.9651 34.5767C26.2181 34.7661 26.6607 35.0188 26.5974 35.524C26.4077 37.1661 22.4243 44.0503 22.4243 44.0503Z" fill="#213521"/>
<path d="M26.2812 24.0292C26.4076 24.0923 26.5341 24.2186 26.5973 24.2818C26.6605 24.345 26.787 24.4713 26.8502 24.5345C26.9767 24.6608 27.1032 24.7871 27.1664 24.9134C27.3561 25.1029 27.5458 25.2923 27.6722 25.545C27.8619 25.7344 27.9884 25.9871 28.178 26.2397L28.3677 26.5555L28.4942 26.745L28.5574 26.8081L28.6206 26.8713C28.7471 27.0608 28.9368 27.1871 29.1897 27.3134C29.4426 27.4398 29.6323 27.5029 29.8852 27.5661C30.391 27.6924 30.8969 27.7555 31.4027 27.7555C31.9085 27.6923 32.4144 27.5661 32.7937 27.2503C32.7937 27.2503 32.857 27.1871 32.857 27.1239C32.857 27.0608 32.9202 26.9977 32.9202 26.9345C32.9834 26.8082 32.9834 26.6818 32.9834 26.5555C33.0466 26.3029 33.0466 26.0503 33.1099 25.7977L33.1731 25.4187V25.2292C33.1731 25.166 33.1731 25.1661 33.1731 25.1029C33.1731 25.0398 33.1099 24.9134 33.0466 24.9134C32.9834 24.9134 32.9834 24.8503 32.9202 24.8503C32.857 24.8503 32.7937 24.7871 32.7305 24.7871C32.2247 24.6608 31.7188 24.5976 31.1498 24.5976H31.0233C30.9601 24.5976 30.9601 24.5976 30.9601 24.5976C30.8969 24.5976 30.8969 24.5976 30.8336 24.6608C30.7704 24.7239 30.7072 24.7871 30.644 24.8503C30.644 24.9134 30.644 24.9134 30.5807 24.9765V25.1661C30.5807 25.2924 30.5175 25.4186 30.5175 25.545C30.5175 25.6713 30.4543 25.7976 30.4543 25.9239C30.391 26.0502 30.391 26.1766 30.3278 26.3661C30.2646 26.4292 30.2014 26.5555 30.0749 26.5555C30.0117 26.6186 29.8852 26.6187 29.822 26.6187C29.6323 26.6187 29.5058 26.6187 29.3162 26.6187C29.1897 26.5556 29 26.5556 28.8736 26.4292C28.8103 26.3661 28.7471 26.3661 28.6839 26.3029C28.6206 26.2398 28.5574 26.1766 28.5574 26.1134C28.431 25.924 28.2413 25.6713 28.1148 25.4819C27.8619 25.1661 27.609 24.8503 27.2928 24.5345C27.2296 24.4713 27.1664 24.4081 27.0399 24.345C26.9767 24.2818 26.9767 24.2819 26.9135 24.2187C26.7238 24.0924 26.5341 23.9029 26.3444 23.8398C26.1547 23.7134 25.965 23.6503 25.7121 23.5871C25.4592 23.524 25.2695 23.4608 25.0166 23.4608C24.8901 23.4608 24.7637 23.4608 24.6372 23.524C24.7637 23.524 24.8901 23.524 25.0798 23.524C25.396 23.5871 25.6489 23.6503 25.9018 23.7766C26.0283 23.8398 26.1547 23.9029 26.2812 24.0292Z" fill="#CC6328"/>
<path d="M32.0347 21.7556C32.0347 21.8187 32.0347 21.9451 32.0347 22.0083C31.7818 21.8188 31.6553 21.5029 31.6553 21.1871C31.6553 20.6187 32.0978 20.1135 32.7301 20.1135C32.7933 20.1135 32.8565 20.1135 32.8565 20.1135C32.4139 20.4925 32.0347 21.124 32.0347 21.7556ZM34.4374 21.2504C34.4374 20.303 33.6785 19.545 32.7301 19.545C31.7817 19.545 31.0229 20.303 31.0229 21.2504C31.0229 22.1977 31.7817 22.9556 32.7301 22.9556C33.6785 22.9556 34.4374 22.1977 34.4374 21.2504Z" fill="white"/>
<path d="M36.6504 13.2924C35.3226 13.2924 34.311 14.3661 34.311 15.6293C34.311 16.9556 35.3858 17.966 36.6504 17.966C37.9782 17.966 38.9899 16.8924 38.9899 15.6293C39.0531 14.3661 37.9782 13.2924 36.6504 13.2924ZM35.3858 16.1977C35.0065 16.0082 34.88 15.4398 35.0697 14.9345C35.2594 14.4924 35.702 14.1766 36.1446 14.1766C36.271 14.1766 36.3343 14.1766 36.4607 14.2397C35.702 14.6818 35.3226 15.3135 35.3858 16.1977Z" fill="white"/>
<path d="M38.105 7.73441C38.105 5.83966 36.5243 4.32385 34.6275 4.32385C32.7306 4.32385 31.1499 5.9028 31.1499 7.79757C31.1499 9.69231 32.7306 11.2713 34.6275 11.2713C36.5876 11.2081 38.105 9.62915 38.105 7.73441ZM32.6674 8.87119C32.0983 8.49224 31.7189 7.41862 32.2248 6.4081C32.6041 5.77652 33.2997 5.27122 34.0584 5.27122C34.2481 5.27122 34.4378 5.27121 34.6275 5.33437C33.11 6.09226 32.4777 7.22909 32.6674 8.87119Z" fill="white"/>
<path d="M20.1477 38.9344L18.1244 39.1239C16.8598 39.2502 15.532 39.2502 14.2674 39.1239L13.0661 38.9344C12.7499 38.9344 12.497 38.9975 12.3073 39.187C12.1809 39.3133 12.1177 39.4397 12.1177 39.566V40.1344C12.1177 40.5133 12.497 40.8923 13.0661 40.9555L14.71 41.145C15.2791 41.2081 15.8482 41.2081 16.4172 41.2081C17.4289 41.2081 18.4405 41.145 19.4522 40.9555L20.2742 40.8292C20.5903 40.766 20.8432 40.5133 20.8432 40.2607V39.3766C20.8432 39.2502 20.78 39.1239 20.7168 39.0608C20.5903 38.9344 20.4006 38.9344 20.1477 38.9344ZM20.5903 40.3239C20.5903 40.4502 20.4638 40.5765 20.2742 40.5765L19.4522 40.7029C17.9347 40.9555 16.354 41.0186 14.7733 40.8923L13.1293 40.7029C12.7499 40.6397 12.4338 40.4502 12.4338 40.1976V39.6291C12.4338 39.566 12.497 39.4397 12.5603 39.4397C12.6867 39.3134 12.8132 39.3133 13.0029 39.3133H13.0661L14.2674 39.5028C15.532 39.6291 16.8598 39.6291 18.1876 39.5028L20.2109 39.3133C20.3374 39.3133 20.4638 39.3134 20.5271 39.3766C20.5271 39.3766 20.5903 39.4396 20.5903 39.5028V40.3239Z" fill="#1A110C"/>
<path d="M17.6819 22.8924C17.6186 22.9555 17.6186 23.0186 17.5554 23.0818C17.5554 23.1449 17.4922 23.2082 17.4922 23.2713C17.4922 23.3345 17.4922 23.3976 17.4922 23.4608H17.6186C17.6186 23.3976 17.6186 23.3345 17.6186 23.2713C17.6186 23.2082 17.6186 23.145 17.6819 23.145C17.7451 23.0819 17.7451 23.0186 17.8083 23.0186C17.8715 22.9555 17.8715 22.8924 17.8083 22.8292C17.8083 22.8292 17.7451 22.7661 17.7451 22.8292C17.7451 22.8292 17.7451 22.8292 17.6819 22.8924Z" fill="#1A110C"/>
<path d="M24.1944 32.4923H24.3841L24.3208 32.3029C24.3208 32.1765 24.2576 31.9871 24.2576 31.8607C24.2576 31.7344 24.2576 31.5449 24.2576 31.4186C24.1311 31.4186 24.0679 31.4817 24.0679 31.6081C24.0679 31.7344 24.0679 31.7975 24.0679 31.9238C24.0679 32.0502 24.0679 32.1133 24.0679 32.2396C24.0047 32.2396 24.0047 32.2396 23.9415 32.2396C23.8782 32.2396 23.815 32.2397 23.7518 32.3029L23.6885 32.3659C23.7518 32.4291 23.815 32.4923 23.9415 32.4923C24.0047 32.4923 24.1311 32.4923 24.1944 32.4923Z" fill="#1A110C"/>
<path d="M33.552 24.9135C33.4888 24.724 33.3623 24.5977 33.2358 24.4714C33.1726 24.4082 33.1094 24.4082 32.9829 24.345C32.9197 24.345 32.8565 24.2819 32.7932 24.2819C32.2242 24.1556 31.7184 24.0925 31.1493 24.0925H31.0228C30.9596 24.0925 30.9596 24.0925 30.8964 24.0925C30.8332 24.0925 30.7067 24.1556 30.6435 24.1556C30.4538 24.2188 30.3273 24.3451 30.2641 24.5346C30.2009 24.5977 30.2009 24.724 30.2009 24.7872V24.9766C30.2009 25.1029 30.1376 25.2293 30.1376 25.3556C30.1376 25.4819 30.0744 25.6082 30.0744 25.7346C30.0744 25.8609 30.0112 25.9872 29.948 26.0504C29.948 26.1135 29.9479 26.1135 29.8847 26.1135C29.8215 26.1135 29.8215 26.1766 29.7583 26.1766C29.6318 26.1766 29.5686 26.1766 29.4421 26.1766C29.3157 26.1766 29.1892 26.1135 29.126 26.0504C29.0627 26.0504 29.0628 25.9871 28.9995 25.924C28.9363 25.8608 28.9363 25.8609 28.8731 25.7977C28.6834 25.6083 28.5569 25.3556 28.3672 25.1661L28.1143 24.8504C28.0511 24.724 27.9246 24.6609 27.8614 24.5346C27.7982 24.4083 27.6717 24.3451 27.5453 24.2188C27.482 24.1556 27.4188 24.0924 27.3556 24.0292C27.4188 23.7766 27.4188 23.524 27.4188 23.2714C27.4188 23.0819 27.4188 22.8924 27.3556 22.7029C27.3556 22.6398 27.2923 22.5134 27.2923 22.4503C27.3556 22.4503 27.482 22.3871 27.5453 22.3871C27.6717 22.324 27.7349 22.2609 27.7982 22.1977C27.8614 22.1346 27.9246 22.0082 27.9879 21.8819L28.0511 21.7556L27.9879 21.6925C27.482 21.0609 27.1659 20.3661 26.913 19.545C26.7865 19.1661 26.7233 18.7871 26.5968 18.345C26.5336 18.1556 26.5336 17.9661 26.4704 17.7135L26.4071 17.3977C26.4071 17.2713 26.3439 17.145 26.3439 17.0819C26.2175 16.6398 26.0278 16.2609 25.8381 15.9451C25.6484 15.5661 25.4587 15.1871 25.269 14.8713C25.0793 14.4924 24.9529 14.1135 24.8264 13.7346C24.7632 13.5451 24.7632 13.3556 24.8264 13.2292C24.8897 13.1029 24.9529 12.9767 25.0793 12.8504L25.269 12.724L25.0793 12.5346C24.4471 11.8398 23.7515 11.2082 22.9928 10.7029C22.6767 10.5134 22.3605 10.324 22.1076 10.0713C21.9811 10.0082 21.9179 9.94508 21.7914 9.88192C21.4753 9.69245 21.2224 9.50298 20.9695 9.25035C20.7166 9.06087 20.4004 8.80824 20.1475 8.61877C19.8946 8.36613 19.6417 8.1766 19.3888 7.92397L19.1991 7.6714L19.1358 7.98719C19.1358 8.1135 19.0726 8.17666 19.0726 8.30298C18.8197 8.17666 18.63 7.98712 18.3771 7.86081C17.6184 7.35555 16.9228 6.78719 16.3538 6.09245L16.1641 5.90295L16.0376 6.1556C15.9112 6.34507 15.848 6.53456 15.7847 6.72403C15.7215 6.9135 15.6583 7.10298 15.595 7.35561C15.5318 7.54508 15.4686 7.79771 15.4686 7.98719C15.4686 8.05035 15.4686 8.1766 15.4054 8.23976C15.3421 8.1766 15.2789 8.1135 15.2157 8.05035L15.026 7.98719L14.9627 8.1766C14.8363 8.6187 14.6466 9.12403 14.4569 9.56613C14.2672 10.0082 14.0775 10.4504 13.8246 10.8925C13.5717 11.3346 13.3188 11.7135 13.0027 12.0925C12.6865 12.4714 12.3704 12.8503 12.0542 13.2292L11.8013 13.4819L12.1175 13.545C12.2439 13.545 12.3704 13.545 12.4968 13.545C12.4336 13.6713 12.3704 13.7345 12.3071 13.8608C12.1807 14.1135 12.0542 14.3661 11.9278 14.6188C11.6749 15.124 11.4852 15.6925 11.2955 16.2609C11.1058 16.8293 10.9793 17.3346 10.8529 17.903C10.7264 18.4714 10.6 19.0398 10.5367 19.545L10.4735 19.8608L10.7897 19.7977C10.8529 19.7977 10.9161 19.7346 10.9793 19.7346C11.0426 19.7346 11.1058 19.7346 11.169 19.7346C11.2323 19.7346 11.2955 19.7346 11.2955 19.7977C11.2955 19.7977 11.2955 19.7977 11.3587 19.7977C11.1058 20.7451 10.9793 21.6293 10.8529 22.5767C10.7897 23.0819 10.7264 23.5871 10.7264 24.0292C10.6632 24.5345 10.6632 25.0398 10.6632 25.4819V25.7977L10.9161 25.6714L11.3587 25.545C11.3587 25.7345 11.2955 25.924 11.2955 26.1135C11.2323 26.5556 11.1058 26.9346 11.0426 27.3767L10.9793 27.5029L11.0426 27.5661C11.1058 27.6293 11.2323 27.6924 11.2955 27.7556C11.3587 27.8187 11.4852 27.8188 11.5484 27.8819C11.6116 27.8819 11.6116 27.8819 11.6749 27.8819L11.0426 28.4503L10.8529 28.6398L11.0426 28.7661C11.0426 28.7661 11.1058 28.7661 11.1058 28.8293C10.6 29.3977 10.4103 30.0292 10.3471 30.345C10.2839 30.4082 7.05919 33.3135 5.16235 37.1661L5.09912 37.3556L5.47849 37.5451L5.54172 37.3556C7.24888 33.9451 10.0309 31.2924 10.5367 30.7871C11.4852 31.6713 15.9744 35.0188 16.6067 34.9556C16.9861 34.8925 17.3654 34.703 17.6184 34.5135C17.6816 34.4504 17.808 34.3872 17.8713 34.3872C17.8713 34.5135 17.8713 34.6398 17.808 34.8293C17.7448 35.524 17.6816 36.0293 17.8713 36.2188C17.9345 36.2819 18.1242 36.345 18.4403 36.4713C19.5152 36.8503 21.665 37.7346 22.9296 39.6925L22.9928 39.8187C22.6767 41.3345 22.2973 42.9767 21.9179 44.8083L21.7914 45.4398L22.1708 44.8713C22.9296 43.8608 26.7233 36.4714 26.7233 35.4609C26.7233 34.8293 26.2807 34.4503 25.9645 34.2608C25.9013 34.1977 25.8381 34.1977 25.7749 34.1345C25.8381 34.0082 26.4071 33.8819 26.913 33.8187H26.9762H27.0394C27.2291 33.6292 27.4188 32.8083 27.4188 31.9872C28.2408 33.0609 30.517 36.2819 31.1493 39.0609L31.5287 38.9977C30.7699 35.524 27.6085 31.5451 27.482 31.3556C27.482 30.9135 27.4188 30.5346 27.3556 30.4083C27.1659 30.1556 26.8497 29.9029 26.5336 29.7134C26.6601 29.6503 26.7865 29.5872 26.8497 29.524L27.0394 29.3345L26.7865 29.2082C26.7233 29.1451 26.5968 29.0819 26.5336 29.0187C26.4704 28.9556 26.3439 28.8925 26.2807 28.8293C26.1542 28.703 26.091 28.6398 26.0278 28.5135C26.1542 28.3872 26.2807 28.324 26.4071 28.1977C26.4704 28.1346 26.5336 28.0082 26.5968 27.9451C26.6601 27.8819 26.7233 27.7556 26.7865 27.6293L26.913 27.4398L26.7233 27.3135C26.7233 27.3135 26.6601 27.2503 26.5968 27.1871C26.5336 27.124 26.5336 27.124 26.4704 27.0609C26.4071 26.9977 26.3439 26.8714 26.2807 26.7451C26.2807 26.7451 26.2807 26.6819 26.2175 26.6819C26.2807 26.6819 26.3439 26.6819 26.4071 26.6819C26.4704 26.6819 26.5968 26.6819 26.6601 26.6819C26.7233 26.6819 26.7865 26.6819 26.913 26.6188L27.1659 26.4924L26.9762 26.303C26.913 26.1767 26.8497 26.0503 26.8497 25.924C26.8497 25.7345 26.8497 25.6082 26.8497 25.4188C26.8497 25.2925 26.8497 25.2293 26.913 25.103C27.0394 25.2293 27.1659 25.3556 27.2291 25.545C27.4188 25.7345 27.5453 25.9871 27.6717 26.1766L27.8614 26.4924C27.9246 26.6187 27.9879 26.745 28.1143 26.8713C28.304 27.124 28.5569 27.2504 28.8098 27.3767C29.0627 27.503 29.3157 27.6293 29.5686 27.6925C30.0744 27.8188 30.6435 27.9451 31.2125 27.8819C31.7816 27.8188 32.3506 27.6925 32.7932 27.3135C32.8565 27.2504 32.9197 27.124 32.9829 27.0609C33.0462 26.9977 33.0462 26.9345 33.0462 26.8713C33.1094 26.745 33.1094 26.6188 33.1726 26.4293C33.2358 26.1767 33.2358 25.8608 33.2991 25.6082L33.3623 25.2292V25.0398C33.6152 25.103 33.6152 25.0398 33.552 24.9135ZM32.8565 27.0609C32.8565 27.124 32.7932 27.124 32.7932 27.1871C32.4139 27.5029 31.908 27.6293 31.4022 27.6925C30.8964 27.7556 30.3906 27.6924 29.8847 27.5029C29.6318 27.4398 29.3789 27.3135 29.1892 27.2504C28.9363 27.124 28.7466 26.9977 28.6201 26.8082L28.5569 26.7451L28.4937 26.6819L28.3672 26.4924L28.1775 26.1766C28.0511 25.924 27.8614 25.7346 27.6717 25.4819C27.482 25.2925 27.3556 25.0398 27.1659 24.8504C27.0394 24.724 26.913 24.5977 26.8497 24.4714C26.7865 24.4082 26.6601 24.2819 26.5968 24.2188C26.4704 24.1556 26.4071 24.0292 26.2807 23.9661C26.1542 23.9029 26.0278 23.8398 25.9013 23.7134C25.6484 23.5871 25.3955 23.4609 25.0793 23.4609C24.9529 23.4609 24.8264 23.4609 24.6367 23.4609C24.7632 23.4609 24.8897 23.3977 25.0161 23.3977C25.269 23.3977 25.4587 23.4609 25.7116 23.524C25.9013 23.5872 26.1542 23.6504 26.3439 23.7767C26.5336 23.903 26.7233 24.0293 26.913 24.1556C26.9762 24.2188 26.9762 24.2187 27.0394 24.2819C27.1027 24.345 27.1659 24.4082 27.2923 24.4714C27.6085 24.7872 27.8614 25.0398 28.1143 25.4188C28.304 25.6082 28.4305 25.8609 28.5569 26.0504C28.6201 26.1135 28.6202 26.1766 28.6834 26.2398C28.7466 26.3029 28.8098 26.3661 28.8731 26.3661C28.9995 26.4293 29.126 26.4924 29.3157 26.5556C29.4421 26.6187 29.6318 26.6187 29.8215 26.5556C29.8847 26.5556 30.0112 26.4924 30.0744 26.4924C30.1376 26.4292 30.2641 26.3661 30.3273 26.303C30.3906 26.1135 30.4538 25.9871 30.4538 25.8608C30.517 25.7345 30.517 25.6083 30.517 25.4819C30.517 25.3556 30.5802 25.2293 30.5802 25.103V24.9135C30.5802 24.8503 30.5802 24.8504 30.6435 24.7872C30.7067 24.724 30.7699 24.6608 30.8332 24.5977C30.8964 24.5977 30.8964 24.5346 30.9596 24.5346H31.0228H31.1493C31.6551 24.5346 32.2242 24.5977 32.73 24.724C32.7932 24.724 32.8565 24.7872 32.9197 24.7872C32.9829 24.7872 32.9829 24.8504 33.0462 24.8504C33.1094 24.9135 33.1726 24.9767 33.1726 25.0398C33.1726 25.103 33.1726 25.103 33.1726 25.1661V25.3556L33.1094 25.7346C33.1094 25.9872 33.0462 26.2398 32.9829 26.4924C32.9829 26.6187 32.9197 26.745 32.9197 26.8713C32.9197 26.9977 32.9197 27.0609 32.8565 27.0609ZM25.6484 24.345C25.6484 24.4713 25.5852 24.6609 25.5219 24.7872C25.4587 24.9135 25.3323 25.0398 25.2058 25.103C25.1426 25.1661 25.0793 25.1661 24.9529 25.2292C25.0161 25.1661 25.0161 25.0398 25.0161 24.9135V24.724L24.8264 24.7872C24.2574 24.9767 23.6251 25.1661 22.9928 25.2924C22.3605 25.4187 21.7282 25.4819 21.0959 25.4819C20.4636 25.4819 19.8314 25.4188 19.1991 25.3556C18.8829 25.2925 18.5668 25.2293 18.2506 25.1661C18.1242 25.103 17.9345 25.103 17.808 25.0398C17.7448 25.0398 17.6816 24.9766 17.6184 24.9766C17.5551 24.9766 17.5551 24.9135 17.4919 24.9135C17.5551 24.7871 17.6184 24.6609 17.6184 24.5346L17.6816 24.4083H17.5551C17.3654 24.4083 17.1125 24.345 16.9228 24.345C16.7332 24.2819 16.4802 24.2188 16.2906 24.1556C16.1009 24.0925 15.848 23.9661 15.6583 23.903C15.5318 23.8398 15.3421 23.7135 15.2157 23.5872L15.9112 22.8925L15.9744 22.8293L15.9112 22.7029C15.848 22.5766 15.7215 22.4504 15.6583 22.324C15.595 22.2609 15.595 22.1345 15.5318 22.0713H15.595C15.6583 22.0713 15.7215 22.0083 15.7847 22.0083C15.9112 21.9451 15.9744 21.8819 16.1009 21.7556L16.1641 21.6293L16.0376 21.5661C15.9112 21.4398 15.7847 21.3134 15.6583 21.124C15.5318 20.9345 15.4686 20.8082 15.3421 20.6188C15.2789 20.4293 15.2157 20.2398 15.1524 20.0504C15.1524 19.924 15.0892 19.8609 15.0892 19.7346V19.6714C15.2157 19.6714 15.2789 19.7346 15.4054 19.7346C15.4686 19.7346 15.595 19.7346 15.6583 19.7346C15.7847 19.7346 15.848 19.7346 15.9744 19.6714L16.1009 19.6082L16.0376 19.4819C15.9744 19.4188 15.9744 19.2925 15.9112 19.1661C15.9112 19.0398 15.848 18.9135 15.848 18.8504C15.848 18.5977 15.848 18.4083 15.9112 18.1556C15.9744 17.903 16.0376 17.7135 16.1009 17.4609L16.2273 17.1451L16.3538 16.8293L16.417 16.7029L16.2906 16.6398C16.0376 16.5135 15.7847 16.324 15.7215 16.0083C15.6583 15.7556 15.7215 15.503 15.848 15.3135C16.0376 15.5661 16.3538 15.6924 16.6067 15.8187C16.9228 15.945 17.3022 15.9451 17.6184 15.8819L17.808 15.8187L17.6816 15.6925C17.4919 15.503 17.3654 15.2504 17.3022 14.9977C17.239 14.8714 17.239 14.7451 17.1758 14.6188C17.3022 14.6188 17.4287 14.6819 17.5551 14.8082C17.6816 14.9345 17.808 15.124 17.8713 15.2504C17.9977 15.4398 18.061 15.6292 18.1874 15.7556C18.3139 15.945 18.4403 16.0714 18.6932 16.1977L18.8829 16.2609L18.9462 16.0713C18.9462 15.945 19.0094 15.8819 19.0726 15.7556C19.0726 15.6924 19.1358 15.6925 19.1358 15.6293C19.5152 16.1977 19.8946 16.6398 20.4004 17.0819C20.6533 17.3345 20.9695 17.524 21.2856 17.7135C21.6018 17.9029 21.9179 18.0925 22.2973 18.1556L22.5502 18.2188L22.487 17.9661C22.3605 17.6503 22.3605 17.2714 22.2973 16.8925C22.2973 16.703 22.234 16.5135 22.234 16.324C22.234 16.2609 22.234 16.1345 22.234 16.0713C22.2973 16.1345 22.3605 16.1346 22.4237 16.1977C22.487 16.2609 22.5502 16.2609 22.6134 16.324C22.6766 16.324 22.8031 16.3871 22.8663 16.3871H22.9928V16.2609C23.056 15.9451 23.056 15.6293 23.1193 15.2504C23.1193 15.1872 23.1825 15.0609 23.1825 14.9977C23.2457 14.9977 23.2457 14.9977 23.3089 14.9977C23.3722 14.9977 23.4354 14.9977 23.4354 14.9977C23.5619 14.9977 23.6251 15.0609 23.6883 15.0609C23.8148 15.1872 23.878 15.3767 24.0045 15.5661C24.1309 15.7556 24.1941 15.945 24.3206 16.0713C24.4471 16.2608 24.5103 16.4504 24.5103 16.6398C24.5103 16.7661 24.5735 16.8924 24.5735 17.0187L22.8031 16.9556V17.3345L24.0045 17.3977C23.3089 17.524 22.8663 18.0925 22.9296 18.8504C22.9928 19.4819 23.4986 19.9872 24.1309 20.0504C24.5103 20.0504 24.8897 19.924 25.1426 19.6714C25.1426 19.924 25.2058 20.1766 25.269 20.4924C25.269 20.5556 25.3323 20.6819 25.3955 20.7451C25.4587 20.8083 25.5219 20.8714 25.5852 20.9346C25.7116 20.9977 25.8381 21.0609 26.0278 21.0609C26.0278 21.3135 25.9645 21.5029 25.9013 21.7556C25.8381 21.8819 25.7749 22.0082 25.7116 22.0713C25.6484 22.1345 25.5219 22.1977 25.3955 22.1977H25.269V22.324C25.269 22.5135 25.3323 22.6398 25.3323 22.8293C25.3323 22.8925 25.3955 23.0187 25.4587 23.0819C25.3323 23.0819 25.1426 23.0187 25.0161 23.0819C24.7632 23.0819 24.4471 23.1451 24.1941 23.2714C24.1309 23.2714 24.0677 23.3345 24.0045 23.3977C24.0045 23.3977 23.9412 23.3977 23.9412 23.4609C23.5619 23.524 23.1193 23.524 22.6767 23.5872C22.487 23.5872 22.3605 23.5872 22.1708 23.5872C21.9811 23.2083 21.6018 22.6398 21.3488 22.6398C21.1592 22.6398 20.9062 22.9556 20.5901 23.3977C20.5901 23.4608 20.5269 23.4609 20.5269 23.524C20.274 22.9556 19.9578 22.1345 19.7049 22.0713C19.452 22.0082 18.9462 22.8292 18.63 23.3345C18.4403 23.2713 18.3139 23.2714 18.1242 23.2082C18.1242 23.2714 18.1242 23.3345 18.1874 23.3977C18.63 23.524 19.1358 23.5871 19.5784 23.6503C19.8946 23.7135 20.2107 23.7134 20.5269 23.7134C20.7166 23.7134 20.9062 23.7135 21.0959 23.7767C22.0444 23.8398 23.056 23.8398 24.0045 23.7134H24.1941C24.4471 23.7134 24.7 23.7134 25.0161 23.7134C25.269 23.7766 25.4587 23.8398 25.6484 23.903C25.7116 24.0925 25.7116 24.2187 25.6484 24.345ZM24.2574 19.9872C23.6251 19.9872 23.1193 19.4819 23.1193 18.8504C23.1193 18.2188 23.6251 17.7135 24.2574 17.7135C24.8897 17.7135 25.3955 18.2188 25.3955 18.8504C25.3955 19.4819 24.8897 19.9872 24.2574 19.9872ZM21.9811 23.5872C21.7282 23.5872 21.4121 23.5872 21.1592 23.5872C21.0327 23.5872 20.9062 23.5872 20.7166 23.5872C20.7166 23.5872 20.7166 23.524 20.7798 23.524C20.9695 23.2714 21.2856 22.8293 21.3488 22.8293C21.4753 22.8293 21.7914 23.2083 21.9811 23.5872ZM20.3372 23.524C20.0843 23.524 19.8314 23.4609 19.6417 23.4609C19.3888 23.4609 19.1358 23.3977 18.8829 23.3345C19.1991 22.7661 19.5784 22.2609 19.7049 22.1977C19.7681 22.324 20.0843 22.9556 20.3372 23.524ZM17.9977 30.9135L18.1242 30.7871C18.1874 30.724 18.3139 30.6609 18.3771 30.5977C18.5036 30.5346 18.5668 30.4714 18.6932 30.4083C18.8197 30.3451 19.0094 30.2187 19.1991 30.1556C19.1991 30.2187 19.1991 30.2188 19.1991 30.2819C19.2623 30.5346 19.2623 30.8503 19.3255 31.1029V31.3556L19.5784 31.2293C19.8946 31.103 20.1475 30.9767 20.4636 30.8504C20.5901 31.103 20.9062 31.7346 21.0959 32.1135C21.0327 32.2398 21.0327 32.3661 21.0327 32.4293C21.0327 32.5556 21.0959 32.6188 21.0959 32.7451C21.1592 32.8083 21.1592 32.9345 21.2224 32.9977C21.2224 33.0608 21.2856 33.0609 21.2856 33.124C21.1592 33.124 21.0327 33.1872 20.9695 33.124C20.843 33.124 20.6533 32.9977 20.5901 32.8713C20.4636 32.745 20.4004 32.5556 20.4004 32.4293V32.3661C20.4004 32.3029 20.4004 32.1767 20.3372 32.1135C20.3372 31.9872 20.274 31.924 20.1475 31.924C20.1475 32.0503 20.1475 32.1134 20.1475 32.2398C20.021 32.3661 19.8946 32.4293 19.7681 32.4293C19.7049 32.4293 19.6417 32.4293 19.5152 32.4293H19.452C19.5152 32.3661 19.5152 32.3029 19.5784 32.2398C19.6417 32.1766 19.6417 32.1135 19.7049 32.0503C19.7681 31.9871 19.7049 31.8609 19.5784 31.7977C19.5152 31.924 19.452 31.9872 19.3888 32.1135C19.3255 32.2398 19.2623 32.303 19.1358 32.4293L19.0094 32.5556L19.1991 32.6188C19.3255 32.6819 19.3888 32.6819 19.5152 32.6819C19.6417 32.6819 19.7049 32.6819 19.8314 32.6819C19.9578 32.6819 20.021 32.6187 20.1475 32.5556C20.1475 32.5556 20.2107 32.5556 20.2107 32.4925C20.274 32.6819 20.3372 32.8082 20.4004 32.9977C20.5269 33.1871 20.7166 33.3135 20.9062 33.3135C20.9695 33.3135 20.9695 33.3135 20.9695 33.3135L20.9062 35.2714C19.2623 33.2504 17.239 30.8503 15.9112 29.6503C16.0376 29.6503 16.2273 29.7135 16.3538 29.7767C16.9228 29.9661 17.3654 30.2819 17.7448 30.724L17.9977 30.9135ZM23.9412 30.0292C23.9412 29.9661 24.0045 29.903 24.0045 29.8398C24.3206 29.9661 24.7 30.0925 25.0793 30.0925C24.9529 30.724 24.7 32.1767 24.2574 34.3872C24.1309 34.0083 23.9412 33.6293 23.7515 33.2504C23.4986 32.7451 23.2457 32.303 22.9928 31.7977C23.056 31.6083 23.2457 31.0398 23.3089 30.5977L23.4986 30.724L23.6251 30.5346C23.7515 30.4714 23.878 30.2187 23.9412 30.0292ZM18.6932 36.345C18.4403 36.2819 18.2506 36.1556 18.1874 36.1556C18.061 36.0292 18.1874 35.3346 18.1874 34.9556C18.2506 34.5135 18.2506 34.324 18.1874 34.2608C18.061 34.0713 17.8713 34.1977 17.5551 34.3872C17.3022 34.5135 16.9861 34.7661 16.6699 34.7661C16.1641 34.7661 11.6749 31.4187 10.8529 30.6608L10.7264 30.5977V30.4713C10.7897 30.2187 10.9161 29.5871 11.4219 29.0819C11.8645 29.3345 12.3704 29.4609 12.813 29.5872C13.4453 29.7135 14.0775 29.7135 14.6466 29.6503H14.8995C14.9627 29.6503 15.026 29.6503 15.0892 29.6503C15.2157 29.6503 15.2789 29.6503 15.4054 29.6503C17.6184 31.4187 22.7399 38.0504 23.2457 38.7451L22.9928 39.5029C21.8547 37.545 19.7049 36.724 18.6932 36.345ZM21.3488 33.3135C21.4121 33.3135 21.5385 33.2504 21.6018 33.2504L21.7282 33.1871L21.665 33.0609C21.5385 32.9346 21.4753 32.7451 21.4121 32.6188V32.5556L21.4753 32.2398C22.0444 31.9871 22.6767 32.0503 22.8663 32.0503C23.1193 32.4924 23.4354 32.9346 23.6251 33.4398C23.878 33.9451 24.0677 34.4504 24.2574 34.9556C24.0677 35.9661 23.8148 37.1029 23.5619 38.3661C23.1825 37.924 22.3605 36.7871 21.3488 35.524V33.3135ZM22.7399 31.7345C22.487 31.7345 21.9179 31.6713 21.3488 31.924C21.1592 31.545 20.843 30.9767 20.7166 30.724C20.9695 30.6609 21.2224 30.5346 21.4753 30.5346C21.7914 30.4714 22.1708 30.4713 22.487 30.4713C22.6767 30.4713 22.8031 30.4714 22.9296 30.5346C22.9296 30.5346 22.9928 30.5346 22.9928 30.5977C22.9928 30.9767 22.8031 31.4819 22.7399 31.7345ZM22.4237 44.0503L23.6883 38.7451L23.7515 38.6188C24.7632 33.9451 25.269 31.1029 25.3955 30.1556H25.4587C25.7116 30.1556 26.0278 30.1556 26.2807 30.0292C26.3439 30.0292 26.3439 30.0293 26.4071 29.9661C26.6601 30.0925 27.1027 30.4082 27.2923 30.6608C27.3556 30.7871 27.4188 31.2293 27.3556 31.6714C27.3556 32.4293 27.1659 33.4398 27.0394 33.6292C26.5968 33.6924 25.7749 33.8187 25.7116 34.1345C25.6484 34.324 25.8381 34.4503 25.9645 34.5766C26.2175 34.7661 26.6601 35.0187 26.5968 35.524C26.4071 37.1661 22.4237 44.0503 22.4237 44.0503ZM26.7233 26.1135C26.7233 26.2398 26.7865 26.3661 26.7865 26.4293C26.7233 26.4293 26.7233 26.4293 26.6601 26.4293C26.5336 26.4293 26.4704 26.4293 26.3439 26.3661V26.1766H26.091C26.091 26.3029 26.091 26.4925 26.091 26.6188C26.091 26.7451 26.1542 26.9346 26.2175 27.0609C26.2807 27.1872 26.3439 27.3134 26.4071 27.5029C26.4704 27.5661 26.5336 27.6293 26.5336 27.6925L26.4704 27.7556C26.4071 27.8187 26.3439 27.8819 26.2807 28.0083C26.1542 28.1346 25.9645 28.2608 25.8381 28.3871L25.7116 28.4503L25.7749 28.5767C25.8381 28.703 25.9013 28.8293 25.9645 28.9556C26.0278 29.0819 26.091 29.1451 26.2175 29.2714C26.2807 29.3346 26.4071 29.4609 26.4704 29.524C26.4704 29.524 26.4704 29.524 26.5336 29.524C26.4071 29.5872 26.2807 29.6503 26.1542 29.7134C25.9013 29.7766 25.7116 29.7767 25.4587 29.8398C25.2058 29.8398 24.9529 29.8398 24.7 29.7767C24.5103 29.7135 24.3206 29.7135 24.1309 29.6503C24.1309 29.5871 24.1941 29.524 24.1941 29.4609C24.0677 29.3977 23.878 29.4608 23.8148 29.6503C23.7515 29.7766 23.6883 29.8398 23.6883 29.9661C23.6251 30.0925 23.5619 30.2187 23.4986 30.345C23.4986 30.345 23.4354 30.3451 23.4354 30.2819C23.3722 30.2188 23.2457 30.2187 23.1825 30.1556C22.9928 30.0924 22.8031 30.0925 22.6134 30.0925C22.234 30.0925 21.9179 30.0924 21.5385 30.1556C21.1592 30.2187 20.843 30.345 20.5269 30.4713C20.274 30.5977 20.021 30.6608 19.7681 30.7871C19.7049 30.5977 19.7049 30.4083 19.6417 30.2188C19.5784 30.0925 19.5784 29.9661 19.5152 29.7767C19.5152 29.7135 19.452 29.6504 19.452 29.5872C19.3888 29.4609 19.2623 29.4609 19.1358 29.524C19.1991 29.6504 19.2623 29.7135 19.2623 29.8398C19.0726 29.903 18.8829 29.9661 18.6932 30.0925C18.5668 30.1556 18.4403 30.2188 18.3771 30.2819C18.3139 30.3451 18.2506 30.3451 18.1874 30.4083C17.808 29.9661 17.3022 29.6504 16.7964 29.4609C16.4802 29.3346 16.1641 29.2714 15.848 29.2714C15.6583 29.2714 15.5318 29.2714 15.3421 29.2714C15.2789 29.2714 15.2157 29.2714 15.0892 29.2714H14.8995C14.3305 29.3346 13.7614 29.2714 13.1923 29.1451C12.6865 29.0188 12.2439 28.8925 11.8013 28.6398L12.2439 28.2609C12.3704 28.1346 12.4336 28.0082 12.4968 27.8187C12.5601 27.6924 12.6233 27.503 12.6233 27.3135L12.2439 27.2504C12.2439 27.3135 12.1807 27.4398 12.1807 27.5029C12.0542 27.5029 11.991 27.5661 11.8645 27.5029C11.8013 27.5029 11.7381 27.4398 11.6749 27.4398C11.6749 27.4398 11.6116 27.4398 11.6116 27.3767C11.6749 26.9977 11.7381 26.6187 11.8013 26.1766C11.8013 26.0503 11.8013 25.924 11.8645 25.8608V25.545V24.9135H11.6116V25.2292L11.2955 25.3556C11.3587 24.4714 11.4219 23.5871 11.5484 22.7029C11.6749 21.7556 11.8013 20.745 12.0542 19.8608V19.7346C12.0542 19.6714 12.0542 19.6713 12.0542 19.6082C12.1175 19.4187 12.1807 19.1661 12.3071 18.9766L12.0542 18.8504C11.9278 19.0398 11.8645 19.2293 11.8013 19.4819L11.7381 19.4188C11.6749 19.3556 11.5484 19.3556 11.4219 19.3556C11.3587 19.3556 11.2955 19.3556 11.169 19.3556C11.2323 18.9135 11.3587 18.4713 11.4219 17.9661C11.5484 17.3977 11.6749 16.8925 11.8645 16.324C11.991 15.8188 12.2439 15.2504 12.4336 14.7451C12.5601 14.4925 12.6865 14.2398 12.813 13.9872C12.9394 13.7977 13.0027 13.6083 13.0659 13.4188C13.2556 13.3556 13.4453 13.2925 13.6349 13.1661L13.5717 13.0398L13.5085 12.9135C13.382 12.9766 13.1923 13.0398 13.0027 13.103H12.9394H12.8762C12.813 13.103 12.7497 13.103 12.6865 13.103C12.9394 12.8504 13.1923 12.5346 13.4453 12.2188C13.7614 11.8398 14.0143 11.3977 14.2672 10.9556C14.5201 10.5135 14.7098 10.0714 14.8995 9.56613C15.026 9.18719 15.1524 8.80824 15.2789 8.36613C15.3421 8.36613 15.3421 8.42929 15.4054 8.42929C15.5318 8.49245 15.595 8.61877 15.6583 8.74508L15.7847 8.68192L15.9112 8.61877C15.848 8.49245 15.848 8.42929 15.7847 8.30298C15.848 8.1135 15.848 7.92403 15.9112 7.73456C15.9744 7.54508 16.0376 7.35561 16.1009 7.16613C16.1641 6.97663 16.2273 6.78714 16.2906 6.59767C16.3538 6.47135 16.3538 6.4082 16.417 6.28188C16.9861 6.8503 17.6184 7.4187 18.3139 7.86081C18.63 8.05028 18.9462 8.23976 19.2623 8.49239V8.55555C19.2623 8.68186 19.3255 8.80824 19.3255 8.99771C19.3888 9.12403 19.452 9.25035 19.5152 9.37666L19.5784 9.3135L19.6417 9.25035C19.5784 9.12403 19.5152 9.06087 19.5152 8.93456C19.5152 8.8714 19.452 8.74508 19.452 8.68192C19.452 8.61877 19.452 8.6187 19.452 8.55555C19.452 8.42923 19.452 8.30291 19.452 8.23976V8.1766C19.5152 8.30291 19.6417 8.36613 19.7049 8.42929C19.7681 8.49245 19.8946 8.61877 20.021 8.68192C20.274 8.93456 20.5901 9.12403 20.843 9.37666C21.0959 9.56613 21.4121 9.81877 21.7282 10.0082C21.7914 10.0714 21.9179 10.1346 21.9811 10.1977L21.8547 10.1345C22.1708 10.324 22.5502 10.5767 22.8663 10.8293C23.5619 11.3346 24.1941 11.8398 24.7 12.4714C24.5735 12.5977 24.4471 12.7871 24.4471 12.9135C24.3838 13.1661 24.3838 13.4187 24.4471 13.6082C24.5735 14.0503 24.7 14.4292 24.8897 14.8082C25.0793 15.1871 25.269 15.5661 25.4587 15.9451C25.6484 16.324 25.8381 16.7029 25.9645 17.0187C25.9645 17.0819 26.0278 17.2083 26.0278 17.2714L26.091 17.5872C26.091 17.7767 26.1542 18.0293 26.2175 18.2188C26.2807 18.6609 26.4071 19.0398 26.5336 19.4819C26.7865 20.2398 27.1027 20.9977 27.6085 21.6293C27.5453 21.6925 27.482 21.7556 27.4188 21.7556C27.3556 21.7556 27.2923 21.8187 27.2291 21.8187C27.1659 21.8187 27.1027 21.8187 27.0394 21.8187H26.6601L26.8497 22.1345C26.8497 22.1977 26.913 22.2609 26.913 22.324C26.913 22.3872 26.9762 22.5135 26.9762 22.5767C27.0394 22.7661 27.0394 22.8924 27.0394 23.0819C27.0394 23.2082 27.0394 23.3977 27.0394 23.524C26.6601 23.2714 26.2807 23.0819 25.9013 22.9556H25.8381C25.7749 22.8293 25.7116 22.703 25.7116 22.5767C25.7116 22.5135 25.6484 22.3872 25.6484 22.2609C25.7749 22.1977 25.9013 22.1345 25.9645 22.0713C26.091 21.945 26.1542 21.8188 26.2175 21.6925C26.3439 21.3767 26.4071 21.0609 26.3439 20.7451V20.6188H26.2175C26.091 20.6188 25.9013 20.6187 25.8381 20.5556C25.7116 20.4924 25.6484 20.3661 25.5852 20.2398C25.4587 19.9871 25.4587 19.6082 25.3955 19.2924C25.5219 19.1029 25.6484 18.7872 25.6484 18.5346C25.6484 17.903 25.2058 17.3977 24.6367 17.2714L25.6484 17.3345V16.9556H24.9529C24.9529 16.8293 24.8897 16.6398 24.8897 16.5135C24.8264 16.324 24.7632 16.0714 24.6367 15.9451C24.5103 15.7556 24.4471 15.5661 24.3206 15.4398C24.1941 15.2503 24.1309 15.0608 24.0677 14.8713V14.8082H24.0045C23.878 14.745 23.7515 14.6819 23.6251 14.6819C23.5619 14.6819 23.4986 14.6819 23.4354 14.6819C23.4354 14.6819 23.4354 14.6819 23.3722 14.6819C23.4354 14.5556 23.4354 14.4293 23.4986 14.303L23.3089 14.2398C23.1825 14.5556 23.1193 14.8714 23.056 15.2504C22.9928 15.5661 22.9296 15.8187 22.9296 16.1345C22.8663 16.1345 22.8031 16.0714 22.6767 16.0083C22.5502 15.9451 22.4237 15.8187 22.3605 15.7556L22.1708 15.5661L22.1076 15.8187C22.0444 16.0082 22.0444 16.1977 22.1076 16.3871C22.1076 16.5766 22.1076 16.7661 22.1708 16.9556C22.1708 17.2714 22.234 17.524 22.2973 17.8398C22.0444 17.7767 21.8547 17.6504 21.6018 17.4609C21.2856 17.2714 21.0327 17.0819 20.7798 16.8293C20.274 16.3872 19.8314 15.8188 19.452 15.2504L19.3255 15.0609L19.1991 15.3135C19.1358 15.4398 19.0726 15.6292 19.0094 15.7556C19.0094 15.8187 18.9462 15.8188 18.9462 15.8819C18.8829 15.8188 18.7565 15.6925 18.6932 15.6293C18.5668 15.503 18.5036 15.3135 18.3771 15.124C18.2506 14.9345 18.1874 14.7451 17.9977 14.6188C17.9345 14.5556 17.808 14.4925 17.6816 14.4293C17.6184 14.4293 17.5551 14.4293 17.4287 14.4293C17.4287 14.3661 17.4287 14.3029 17.4287 14.2398L17.239 14.1766C17.1758 14.3029 17.1758 14.4925 17.1758 14.6188C17.1758 14.7451 17.239 14.9346 17.3022 15.0609C17.3654 15.2504 17.4919 15.503 17.6184 15.6925C17.3654 15.6925 17.1125 15.6925 16.8596 15.5661C16.5435 15.4398 16.2906 15.3135 16.1009 15.0609L16.0376 14.9346L15.9744 14.9977C15.7215 15.2504 15.595 15.6293 15.7215 16.0083C15.7847 16.1977 15.848 16.324 15.9744 16.4503C16.0376 16.5766 16.1641 16.6398 16.2906 16.7029L16.1641 16.9556L16.0376 17.3345C15.9744 17.5871 15.848 17.8398 15.848 18.0925C15.7847 18.3451 15.7847 18.5977 15.7847 18.8504C15.7847 18.9767 15.7847 19.1029 15.848 19.2292C15.848 19.2924 15.9112 19.3556 15.9112 19.4188H15.848C15.7847 19.4188 15.7215 19.4188 15.595 19.4188C15.4686 19.4188 15.2789 19.3556 15.1524 19.2924L14.8995 19.2292L14.9627 19.4819L15.026 19.7977C15.026 19.924 15.0892 19.9872 15.0892 20.1135C15.1524 20.303 15.2157 20.4925 15.2789 20.6819C15.3421 20.8714 15.4686 21.0609 15.595 21.2504C15.7215 21.3767 15.7847 21.503 15.9112 21.6293C15.848 21.6293 15.848 21.6925 15.7847 21.6925C15.7215 21.6925 15.7215 21.7556 15.6583 21.7556C15.595 21.7556 15.5318 21.8187 15.5318 21.8187H15.4054V21.9451C15.4054 22.1346 15.5318 22.2608 15.595 22.3871C15.6583 22.5135 15.7215 22.5766 15.7847 22.7029L15.026 23.3977L14.8995 23.524L15.026 23.5872C15.2157 23.7135 15.4053 23.9029 15.595 23.9661C15.7847 24.0924 16.0376 24.1556 16.2273 24.2819C16.4802 24.345 16.6699 24.4082 16.9228 24.4714C17.1125 24.5346 17.3022 24.5346 17.4919 24.5346C17.4287 24.6609 17.3654 24.8503 17.239 24.9766C17.1125 25.1661 16.9861 25.2925 16.7964 25.4188L16.9228 25.545C17.1125 25.4187 17.239 25.2293 17.3654 25.0398C17.3654 25.0398 17.3654 25.0398 17.3654 24.9766C17.4287 24.9766 17.4919 25.0398 17.4919 25.0398C17.5551 25.103 17.6816 25.103 17.7448 25.103C17.9345 25.1661 18.061 25.2292 18.2506 25.2292C18.5668 25.2924 18.8829 25.3556 19.1991 25.4188C19.8314 25.5451 20.5269 25.545 21.1592 25.545C21.7914 25.545 22.487 25.4819 23.1193 25.3556C23.6883 25.2293 24.2574 25.1029 24.8264 24.9135C24.8264 24.9766 24.7632 25.103 24.7632 25.1661C24.7 25.2925 24.6367 25.4819 24.5103 25.545L24.5735 25.6714C24.7 25.5451 24.8264 25.4187 24.8897 25.2924C25.0793 25.2292 25.2058 25.1661 25.3323 25.103C25.4587 25.0398 25.6484 24.9135 25.7116 24.724C25.8381 24.5977 25.9013 24.4083 25.9013 24.2188C25.9013 24.0925 25.9013 24.0293 25.9013 23.903C25.9645 23.9661 26.0278 23.9661 26.0278 24.0292C26.1542 24.0924 26.2175 24.1556 26.3439 24.2819C26.4704 24.4082 26.5968 24.5345 26.7233 24.6608C26.6601 24.9134 26.6601 25.103 26.6601 25.3556C26.7233 25.6714 26.7233 25.924 26.7233 26.1135ZM20.274 21.124C20.274 21.1871 20.3372 21.2504 20.3372 21.3135C20.3372 21.3135 20.4004 21.3767 20.4004 21.3135C20.4636 21.2504 20.4636 21.2503 20.4636 21.1871C20.4636 21.124 20.4636 21.124 20.4004 21.0609C20.4004 20.9977 20.3372 20.8713 20.3372 20.8082C20.3372 20.745 20.3372 20.6188 20.3372 20.6188L20.4004 20.5556L20.4636 20.4924C20.7166 20.3661 21.0959 20.303 21.4121 20.303C21.6018 20.303 21.7282 20.303 21.9179 20.303C22.1076 20.303 22.2341 20.3661 22.3605 20.4293C22.4237 20.4293 22.4237 20.6187 22.3605 20.8082C22.2973 20.9345 22.2973 21.0608 22.234 21.1871C22.234 21.2503 22.234 21.3135 22.2973 21.3767H22.3605C22.4237 21.2504 22.5502 21.124 22.5502 20.9346C22.5502 20.8714 22.6134 20.7451 22.6134 20.6188C22.6134 20.5556 22.6134 20.4925 22.5502 20.4293C22.5502 20.3661 22.487 20.303 22.4237 20.303C22.234 20.2398 22.0444 20.1766 21.9179 20.1766C21.7282 20.1766 21.5385 20.1766 21.4121 20.1766C21.0327 20.1766 20.7166 20.1767 20.3372 20.3661C20.274 20.3661 20.274 20.4293 20.2107 20.4293L20.1475 20.4924L20.0843 20.5556C20.021 20.6819 20.021 20.745 20.0843 20.8713C20.274 20.9345 20.274 20.9977 20.274 21.124Z" fill="#1A110C"/>
<path d="M19.6421 18.8502C19.6421 18.2818 19.2628 17.7766 18.6937 17.5871H19.7686V17.2081L16.7969 17.2713V17.6502H17.8717C17.3659 17.8396 16.9865 18.3449 16.9865 18.9133C16.9865 19.6712 17.5556 20.2396 18.3143 20.2396C19.0731 20.1765 19.6421 19.545 19.6421 18.8502ZM17.1762 18.8502C17.1762 18.2187 17.6821 17.7133 18.3143 17.7133C18.9466 17.7133 19.4525 18.2187 19.4525 18.8502C19.4525 19.4818 18.9466 19.9871 18.3143 19.9871C17.6821 19.9871 17.1762 19.4818 17.1762 18.8502Z" fill="#1A110C"/>
<path d="M31.9713 24.8503C31.4655 24.7871 31.0229 24.8503 31.0229 24.9134C31.0229 25.0397 31.4655 25.166 31.9713 25.166C32.4772 25.2292 32.9198 25.166 32.9198 25.1029C32.9198 24.9766 32.4772 24.8503 31.9713 24.8503Z" fill="#1A110C"/>
<path d="M24.6374 19.1661C24.8121 19.1661 24.9536 19.0247 24.9536 18.8503C24.9536 18.6759 24.8121 18.5345 24.6374 18.5345C24.4628 18.5345 24.3213 18.6759 24.3213 18.8503C24.3213 19.0247 24.4628 19.1661 24.6374 19.1661Z" fill="#1A110C"/>
<path d="M18.6935 19.1029C18.8832 19.1029 19.0097 18.9766 19.0097 18.7871C19.0097 18.5976 18.8832 18.4713 18.6935 18.4713C18.5038 18.4713 18.3774 18.5976 18.3774 18.7871C18.4406 18.9766 18.5671 19.1029 18.6935 19.1029Z" fill="#1A110C"/>
<path d="M33.7417 15.6292C33.7417 14.745 34.1211 13.9871 34.7534 13.4187C34.5005 12.7871 34.1843 12.2186 33.8682 11.6502C32.0345 11.2713 30.6435 9.69238 30.6435 7.73449C30.6435 7.54501 30.6435 7.41864 30.6435 7.22916C27.5453 4.00813 23.6251 2.1134 19.3888 2.1134C9.58838 2.1134 1.62158 12.2819 1.62158 24.8503C1.62158 37.4187 9.58838 47.5871 19.3888 47.5871C29.1892 47.5871 37.1561 37.4187 37.1561 24.8503C37.1561 22.6398 36.9031 20.5555 36.4605 18.5345C35.765 18.4713 35.0695 18.2186 34.5637 17.7134C34.0579 17.145 33.7417 16.4503 33.7417 15.6292ZM34.5637 23.7766C34.5637 24.1555 34.5637 24.4713 34.5637 24.8503C34.5637 25.1029 34.5637 25.4187 34.5637 25.6713C34.5637 25.7345 34.5637 25.7976 34.5637 25.7976C34.5637 26.0503 34.5637 26.3028 34.5005 26.5555C34.5005 26.6186 34.5005 26.6819 34.5005 26.6819C34.5005 26.9345 34.4372 27.1871 34.4372 27.5028C34.4372 27.7555 34.374 28.0082 34.374 28.324C34.374 28.3871 34.374 28.3871 34.374 28.4502C34.3108 28.7028 34.3108 28.9555 34.2475 29.2082C34.2475 29.2713 34.2475 29.2713 34.2475 29.3344C34.1843 29.5871 34.1843 29.8397 34.1211 30.0924C34.0579 30.345 33.9946 30.5976 33.9314 30.8503V30.9134C33.8682 31.1661 33.8049 31.4187 33.7417 31.6713C33.7417 31.7345 33.7417 31.7345 33.7417 31.7976C33.6153 32.3029 33.4888 32.8081 33.2991 33.3134V33.3766C33.2359 33.6292 33.1094 33.8818 33.0462 34.1344V34.1976C32.8565 34.7029 32.6668 35.2082 32.4771 35.6503C32.3507 35.9029 32.2875 36.0923 32.161 36.3449C32.161 36.3449 32.161 36.345 32.161 36.4082C31.9081 36.8503 31.7184 37.3555 31.4655 37.7976C28.6202 42.7871 24.2574 45.9449 19.2623 45.9449C13.6982 45.9449 8.89286 41.9029 6.17405 35.9029C5.98436 35.524 5.79467 35.0819 5.66822 34.7029C5.4153 34.0713 5.22562 33.4397 5.03593 32.8082C5.03593 32.8082 5.03593 32.8082 5.03593 32.745C4.90947 32.3029 4.78302 31.8607 4.71979 31.4186V31.3555C4.65656 31.1661 4.59333 30.9134 4.59333 30.724C4.59333 30.724 4.59333 30.7239 4.59333 30.6607C4.5301 30.4081 4.5301 30.2187 4.46687 29.9661V29.9029C4.40364 29.7134 4.40364 29.5239 4.34042 29.3344C4.34042 29.2713 4.34042 29.2713 4.34042 29.2082C4.27719 28.7661 4.21396 28.324 4.15073 27.8819C4.15073 27.8187 4.15073 27.7555 4.15073 27.6924C4.15073 27.5029 4.0875 27.3134 4.0875 27.1239C4.0875 27.0607 4.0875 27.0608 4.0875 26.9976C4.0875 26.745 4.0875 26.5555 4.02427 26.3029C4.02427 26.2397 4.02427 26.1765 4.02427 26.1765C4.02427 25.9871 4.02427 25.7976 4.02427 25.6081C4.02427 25.5449 4.02427 25.4819 4.02427 25.4187C4.02427 25.1661 4.02427 24.9766 4.02427 24.724C4.02427 21.6292 4.5301 18.6608 5.4153 16.0082C5.54176 15.5661 5.73145 15.0608 5.92113 14.6187C5.98436 14.4924 6.04759 14.3028 6.11082 14.1765C6.23728 13.8607 6.36373 13.6081 6.49019 13.2923C7.24892 11.7134 8.13412 10.2608 9.08255 9.0608C9.33546 8.74501 9.65161 8.36607 9.90452 8.05028C10.0942 7.8608 10.2839 7.60817 10.4736 7.4187C10.8529 7.03974 11.2955 6.66074 11.7381 6.34495C11.8646 6.28179 11.9278 6.15554 12.0543 6.09238C12.4969 5.77659 12.9395 5.46079 13.3821 5.20816C15.2157 4.13448 17.239 3.56607 19.3888 3.56607C19.5785 3.56607 19.7682 3.56607 19.9579 3.56607C20.0211 3.56607 20.0211 3.56607 20.0843 3.56607C20.274 3.56607 20.4637 3.56605 20.6534 3.62921C20.7166 3.62921 20.7166 3.62921 20.7798 3.62921C20.9695 3.62921 21.1592 3.69235 21.3489 3.69235C21.5386 3.75551 21.7283 3.75548 21.9179 3.81864C21.9812 3.81864 21.9812 3.81864 22.0444 3.81864C22.2341 3.88179 22.4238 3.88184 22.6135 3.945C22.6767 3.945 22.6767 3.945 22.7399 3.945C22.9296 4.00816 23.1193 4.07127 23.309 4.13443C23.4987 4.19758 23.6883 4.26077 23.878 4.32393C23.878 4.32393 23.9413 4.32392 23.9413 4.38708C24.1309 4.45023 24.3206 4.5134 24.4471 4.63972C24.4471 4.63972 24.5103 4.63971 24.5103 4.70287C24.8897 4.89234 25.2058 5.08183 25.5852 5.2713C25.5852 5.2713 25.6484 5.27129 25.6484 5.33444C25.8381 5.46076 25.9646 5.52392 26.1543 5.65023L26.2175 5.71337C26.5336 5.966 26.913 6.21869 27.2292 6.47132C27.2292 6.47132 27.2924 6.4713 27.2924 6.53446C27.4821 6.66077 27.6085 6.78706 27.7982 6.97653L27.8614 7.03975C28.1776 7.35554 28.4937 7.67133 28.8099 7.98712C28.8099 7.98712 28.8099 7.98712 28.8731 8.05028C28.9996 8.23975 29.1892 8.366 29.3157 8.55548C29.3157 8.55548 29.3157 8.55554 29.3789 8.6187C29.6951 8.99765 29.948 9.31344 30.2641 9.69238C30.3906 9.88186 30.517 10.0713 30.7067 10.2608C30.8964 10.5134 31.0229 10.766 31.2126 11.0186C31.4655 11.3976 31.6552 11.7766 31.9081 12.2187C32.0345 12.4713 32.161 12.7239 32.2874 12.9765C32.4771 13.4186 32.7301 13.8608 32.9197 14.3029C33.3623 15.3766 33.7417 16.5134 34.0579 17.7134C34.1843 18.1555 34.2475 18.5976 34.374 19.1029C35.0063 19.545 35.3857 20.2398 35.3857 20.9976C35.3857 21.5661 35.196 22.0713 34.8798 22.4502C34.8798 22.4502 34.8798 22.5134 34.8166 22.5134C34.5005 23.0187 34.5005 23.3976 34.5637 23.7766Z" fill="#213521"/>
</g>
</g>
</g>
<defs>
<clipPath id="clip0_469_3851">
<rect width="141" height="48" fill="white" transform="translate(0.484375 0.723999)"/>
</clipPath>
<clipPath id="clip1_469_3851">
<rect width="141" height="48" fill="white" transform="translate(0.484375 0.723999)"/>
</clipPath>
</defs>
</svg>
