<svg width="15" height="15" viewBox="0 0 15 15" fill="none" xmlns="http://www.w3.org/2000/svg">
<g clip-path="url(#clip0_469_3847)">
<path d="M6.66771 10.6739L11.3844 5.95722L10.6177 5.20722L6.66771 9.15721L4.66772 7.15721L3.91772 7.90721L6.66771 10.6739ZM7.65104 14.3072C6.73993 14.3072 5.87883 14.1322 5.06771 13.7822C4.2566 13.4322 3.54826 12.9544 2.94271 12.3489C2.33715 11.7433 1.85937 11.035 1.50937 10.2239C1.15937 9.41277 0.984375 8.55166 0.984375 7.64055C0.984375 6.71833 1.15937 5.85166 1.50937 5.04055C1.85937 4.22944 2.33715 3.52388 2.94271 2.92388C3.54826 2.32388 4.2566 1.84888 5.06771 1.49888C5.87883 1.14888 6.73993 0.973877 7.65104 0.973877C8.57326 0.973877 9.43994 1.14888 10.251 1.49888C11.0621 1.84888 11.7677 2.32388 12.3677 2.92388C12.9677 3.52388 13.4427 4.22944 13.7927 5.04055C14.1427 5.85166 14.3177 6.71833 14.3177 7.64055C14.3177 8.55166 14.1427 9.41277 13.7927 10.2239C13.4427 11.035 12.9677 11.7433 12.3677 12.3489C11.7677 12.9544 11.0621 13.4322 10.251 13.7822C9.43994 14.1322 8.57326 14.3072 7.65104 14.3072Z" fill="#0055B8"/>
</g>
<defs>
<clipPath id="clip0_469_3847">
<rect width="13.3334" height="13.3334" fill="white" transform="translate(0.984375 0.973877)"/>
</clipPath>
</defs>
</svg>
