<svg width="96" height="96" viewBox="0 0 96 96" fill="none" xmlns="http://www.w3.org/2000/svg">
<rect x="4" y="4" width="88" height="88" rx="44" fill="#345A40"/>
<path d="M30.8521 38.7273L37.7612 58.3182H38.0339L44.943 38.7273H47.8975L39.3521 62H36.443L27.8975 38.7273H30.8521ZM64.2498 44.5455C64.1134 43.3939 63.5604 42.5 62.5907 41.8636C61.621 41.2273 60.4316 40.9091 59.0225 40.9091C57.9922 40.9091 57.0907 41.0758 56.318 41.4091C55.5528 41.7424 54.9543 42.2008 54.5225 42.7841C54.0983 43.3674 53.8862 44.0303 53.8862 44.7727C53.8862 45.3939 54.0339 45.928 54.3293 46.375C54.6324 46.8144 55.0187 47.1818 55.4884 47.4773C55.9581 47.7652 56.4506 48.0038 56.9657 48.1932C57.4809 48.375 57.9543 48.5227 58.3862 48.6364L60.7498 49.2727C61.3559 49.4318 62.0301 49.6515 62.7725 49.9318C63.5225 50.2121 64.2384 50.5947 64.9203 51.0795C65.6096 51.5568 66.1778 52.1705 66.6248 52.9205C67.0718 53.6705 67.2953 54.5909 67.2953 55.6818C67.2953 56.9394 66.9657 58.0758 66.3066 59.0909C65.6551 60.1061 64.7006 60.9129 63.443 61.5114C62.193 62.1098 60.674 62.4091 58.8862 62.4091C57.2195 62.4091 55.7763 62.1402 54.5566 61.6023C53.3445 61.0644 52.39 60.3144 51.693 59.3523C51.0036 58.3902 50.6134 57.2727 50.5225 56H53.4316C53.5074 56.8788 53.8028 57.6061 54.318 58.1818C54.8407 58.75 55.4998 59.1742 56.2953 59.4545C57.0983 59.7273 57.9619 59.8636 58.8862 59.8636C59.9619 59.8636 60.9278 59.6894 61.7839 59.3409C62.64 58.9848 63.318 58.4924 63.818 57.8636C64.318 57.2273 64.568 56.4848 64.568 55.6364C64.568 54.8636 64.3521 54.2348 63.9203 53.75C63.4884 53.2652 62.9203 52.8712 62.2157 52.5682C61.5112 52.2652 60.7498 52 59.9316 51.7727L57.068 50.9545C55.2498 50.4318 53.8104 49.6856 52.7498 48.7159C51.6892 47.7462 51.1589 46.4773 51.1589 44.9091C51.1589 43.6061 51.5112 42.4697 52.2157 41.5C52.9278 40.5227 53.8824 39.7652 55.0793 39.2273C56.2839 38.6818 57.6286 38.4091 59.1134 38.4091C60.6134 38.4091 61.9468 38.678 63.1134 39.2159C64.2801 39.7462 65.2043 40.4735 65.8862 41.3977C66.5756 42.322 66.9392 43.3712 66.9771 44.5455H64.2498Z" fill="white"/>
<rect x="4" y="4" width="88" height="88" rx="44" stroke="#F0EEEA" stroke-width="8"/>
</svg>
