<?xml version="1.0" encoding="UTF-8"?>
<svg width="16px" height="11px" viewBox="0 0 16 11" version="1.1" xmlns="http://www.w3.org/2000/svg" xmlns:xlink="http://www.w3.org/1999/xlink">
    <!-- Generator: Sketch 55.1 (78136) - https://sketchapp.com -->
    <title>Icon/Social 20px/youtube [#168]</title>
    <desc>Created with Sketch.</desc>
    <g id="WIP" stroke="none" stroke-width="1" fill="none" fill-rule="evenodd">
        <g id="Footer-Copy-2" transform="translate(-205.000000, -59.000000)" fill="#000000">
            <g id="Group-11" transform="translate(170.000000, 57.000000)">
                <path d="M41.5918686,9.14183655 L41.5918686,5.10145695 C42.9921877,5.77640929 44.0767347,6.42838453 45.359427,7.13134021 C44.3014859,7.73233501 42.9921877,8.40656932 41.5918686,9.14183655 M49.3958466,3.09167865 C49.1542915,2.76569103 48.7425977,2.51222489 48.3042979,2.42821486 C47.0160044,2.17762086 38.9788733,2.17690282 37.69128,2.42821486 C37.3397999,2.4957101 37.0268286,2.65870391 36.7579673,2.91217005 C35.6251093,3.98922166 35.9800901,9.76509041 36.2531523,10.7006892 C36.3679785,11.1056606 36.5164123,11.3979006 36.7033549,11.5896158 C36.9442098,11.843082 37.2739849,12.0175643 37.6527712,12.0958301 C38.7135129,12.3205749 44.1782579,12.4462309 48.2818928,12.1295777 C48.6599789,12.0620825 48.9946552,11.8818558 49.2586153,11.6176192 C50.3060539,10.5448758 50.2346377,4.44445547 49.3958466,3.09167865" id="Icon/Social-20px/youtube-[#168]"></path>
            </g>
        </g>
    </g>
</svg>